%TF.GenerationSoftware,KiCad,Pcbnew,8.0.6-8.0.6-0~ubuntu24.04.1*%
%TF.CreationDate,2024-10-21T21:08:47+03:00*%
%TF.ProjectId,ZX Spectrum_ BUS Expander,5a582053-7065-4637-9472-756d2c204255,rev?*%
%TF.SameCoordinates,Original*%
%TF.FileFunction,Legend,Top*%
%TF.FilePolarity,Positive*%
%FSLAX46Y46*%
G04 Gerber Fmt 4.6, Leading zero omitted, Abs format (unit mm)*
G04 Created by KiCad (PCBNEW 8.0.6-8.0.6-0~ubuntu24.04.1) date 2024-10-21 21:08:47*
%MOMM*%
%LPD*%
G01*
G04 APERTURE LIST*
%ADD10C,0.150000*%
%ADD11C,0.203200*%
%ADD12C,0.120000*%
%ADD13C,0.254000*%
%ADD14C,0.300000*%
%ADD15R,1.524000X1.524000*%
%ADD16C,1.524000*%
G04 APERTURE END LIST*
D10*
G36*
X119052690Y-99322509D02*
G01*
X119178410Y-99352283D01*
X119290798Y-99410264D01*
X119389856Y-99496453D01*
X119409746Y-99519370D01*
X119476474Y-99623631D01*
X119522671Y-99748042D01*
X119546250Y-99873431D01*
X119554110Y-100014248D01*
X119549811Y-100119982D01*
X119532881Y-100241604D01*
X119499766Y-100364736D01*
X119481424Y-100412386D01*
X119419223Y-100521486D01*
X119328796Y-100615085D01*
X119274057Y-100651012D01*
X119154105Y-100694321D01*
X119022271Y-100707287D01*
X118903660Y-100695075D01*
X118785966Y-100658438D01*
X118712220Y-100623989D01*
X118609500Y-100553414D01*
X118609500Y-99363341D01*
X118614929Y-99361216D01*
X118735285Y-99332200D01*
X118853266Y-99320844D01*
X118977086Y-99318156D01*
X119052690Y-99322509D01*
G37*
G36*
X173899864Y-99322509D02*
G01*
X174025583Y-99352283D01*
X174137972Y-99410264D01*
X174237030Y-99496453D01*
X174256920Y-99519370D01*
X174323648Y-99623631D01*
X174369844Y-99748042D01*
X174393424Y-99873431D01*
X174401283Y-100014248D01*
X174396985Y-100119982D01*
X174380055Y-100241604D01*
X174346939Y-100364736D01*
X174328597Y-100412386D01*
X174266396Y-100521486D01*
X174175969Y-100615085D01*
X174121231Y-100651012D01*
X174001278Y-100694321D01*
X173869445Y-100707287D01*
X173750834Y-100695075D01*
X173633140Y-100658438D01*
X173559394Y-100623989D01*
X173456674Y-100553414D01*
X173456674Y-99363341D01*
X173462103Y-99361216D01*
X173582459Y-99332200D01*
X173700440Y-99320844D01*
X173824260Y-99318156D01*
X173899864Y-99322509D01*
G37*
G36*
X121148405Y-99316629D02*
G01*
X121261367Y-99365173D01*
X121355401Y-99443483D01*
X121427452Y-99548965D01*
X121445043Y-99587456D01*
X121478436Y-99708872D01*
X121488513Y-99839614D01*
X120455976Y-99839614D01*
X120459785Y-99814736D01*
X120493479Y-99692761D01*
X120546957Y-99582549D01*
X120566153Y-99552123D01*
X120644759Y-99456904D01*
X120741130Y-99379217D01*
X120779806Y-99356524D01*
X120897615Y-99313448D01*
X121019567Y-99300448D01*
X121148405Y-99316629D01*
G37*
G36*
X136819026Y-99316629D02*
G01*
X136931988Y-99365173D01*
X137026022Y-99443483D01*
X137098073Y-99548965D01*
X137115664Y-99587456D01*
X137149057Y-99708872D01*
X137159134Y-99839614D01*
X136126597Y-99839614D01*
X136130406Y-99814736D01*
X136164100Y-99692761D01*
X136217578Y-99582549D01*
X136236774Y-99552123D01*
X136315380Y-99456904D01*
X136411751Y-99379217D01*
X136450427Y-99356524D01*
X136568236Y-99313448D01*
X136690188Y-99300448D01*
X136819026Y-99316629D01*
G37*
G36*
X144566396Y-99319021D02*
G01*
X144686409Y-99347858D01*
X144793555Y-99409136D01*
X144835243Y-99446903D01*
X144909955Y-99544344D01*
X144963304Y-99663149D01*
X144990996Y-99766010D01*
X145009611Y-99887559D01*
X145015816Y-100017912D01*
X145015158Y-100059729D01*
X145002485Y-100196321D01*
X144973684Y-100317720D01*
X144921019Y-100437857D01*
X144847288Y-100538149D01*
X144767981Y-100608336D01*
X144648841Y-100673246D01*
X144526720Y-100707020D01*
X144389333Y-100718278D01*
X144361455Y-100717849D01*
X144236681Y-100706066D01*
X144197221Y-100698929D01*
X144077923Y-100668819D01*
X144077923Y-99472029D01*
X144138347Y-99423927D01*
X144250725Y-99365173D01*
X144361037Y-99328796D01*
X144487030Y-99314492D01*
X144566396Y-99319021D01*
G37*
G36*
X162195845Y-99319021D02*
G01*
X162315858Y-99347858D01*
X162423004Y-99409136D01*
X162464692Y-99446903D01*
X162539404Y-99544344D01*
X162592752Y-99663149D01*
X162620444Y-99766010D01*
X162639059Y-99887559D01*
X162645265Y-100017912D01*
X162644606Y-100059729D01*
X162631934Y-100196321D01*
X162603133Y-100317720D01*
X162550468Y-100437857D01*
X162476737Y-100538149D01*
X162397430Y-100608336D01*
X162278290Y-100673246D01*
X162156168Y-100707020D01*
X162018782Y-100718278D01*
X161990904Y-100717849D01*
X161866130Y-100706066D01*
X161826669Y-100698929D01*
X161707372Y-100668819D01*
X161707372Y-99472029D01*
X161767796Y-99423927D01*
X161880174Y-99365173D01*
X161990486Y-99328796D01*
X162116479Y-99314492D01*
X162195845Y-99319021D01*
G37*
G36*
X170119096Y-99316629D02*
G01*
X170232058Y-99365173D01*
X170326091Y-99443483D01*
X170398143Y-99548965D01*
X170415734Y-99587456D01*
X170449126Y-99708872D01*
X170459204Y-99839614D01*
X169426667Y-99839614D01*
X169430476Y-99814736D01*
X169464169Y-99692761D01*
X169517648Y-99582549D01*
X169536844Y-99552123D01*
X169615450Y-99456904D01*
X169711821Y-99379217D01*
X169750496Y-99356524D01*
X169868305Y-99313448D01*
X169990258Y-99300448D01*
X170119096Y-99316629D01*
G37*
G36*
X175974541Y-100065940D02*
G01*
X176099382Y-100079583D01*
X176139983Y-100086554D01*
X176258750Y-100116219D01*
X176258750Y-100690190D01*
X176217439Y-100698610D01*
X176096329Y-100714614D01*
X175985656Y-100722400D01*
X175860024Y-100724995D01*
X175754007Y-100720415D01*
X175627925Y-100699163D01*
X175508314Y-100651722D01*
X175464944Y-100619851D01*
X175398643Y-100513095D01*
X175380697Y-100385497D01*
X175391516Y-100298972D01*
X175457634Y-100189492D01*
X175533017Y-100136231D01*
X175653639Y-100091795D01*
X175765936Y-100071634D01*
X175894828Y-100063707D01*
X175974541Y-100065940D01*
G37*
G36*
X179883619Y-99327162D02*
G01*
X180001772Y-99365173D01*
X180074114Y-99400665D01*
X180173352Y-99472029D01*
X180173352Y-100668819D01*
X180163545Y-100672301D01*
X180041461Y-100695075D01*
X179934605Y-100704234D01*
X179805767Y-100707287D01*
X179730997Y-100703023D01*
X179606180Y-100673861D01*
X179493920Y-100617071D01*
X179394218Y-100532653D01*
X179374106Y-100510106D01*
X179306634Y-100407085D01*
X179259922Y-100283533D01*
X179236080Y-100158582D01*
X179228133Y-100017912D01*
X179232431Y-99910605D01*
X179249361Y-99787455D01*
X179282477Y-99663149D01*
X179300995Y-99614926D01*
X179363513Y-99504339D01*
X179454057Y-99409136D01*
X179508767Y-99372258D01*
X179628510Y-99327801D01*
X179759971Y-99314492D01*
X179883619Y-99327162D01*
G37*
G36*
X181872061Y-99316629D02*
G01*
X181985024Y-99365173D01*
X182079057Y-99443483D01*
X182151109Y-99548965D01*
X182168700Y-99587456D01*
X182202092Y-99708872D01*
X182212170Y-99839614D01*
X181179633Y-99839614D01*
X181183442Y-99814736D01*
X181217135Y-99692761D01*
X181270613Y-99582549D01*
X181289809Y-99552123D01*
X181368416Y-99456904D01*
X181464787Y-99379217D01*
X181503462Y-99356524D01*
X181621271Y-99313448D01*
X181743223Y-99300448D01*
X181872061Y-99316629D01*
G37*
G36*
X140623824Y-99317421D02*
G01*
X140744182Y-99345430D01*
X140861032Y-99411332D01*
X140951004Y-99501949D01*
X140960058Y-99513762D01*
X141028606Y-99632263D01*
X141069994Y-99756006D01*
X141091119Y-99878495D01*
X141098161Y-100014248D01*
X141098019Y-100034450D01*
X141089078Y-100168121D01*
X141066229Y-100288234D01*
X141023086Y-100408905D01*
X140952836Y-100523494D01*
X140924772Y-100556340D01*
X140819442Y-100642493D01*
X140695985Y-100692749D01*
X140569375Y-100707287D01*
X140527488Y-100705672D01*
X140398020Y-100676954D01*
X140284175Y-100612339D01*
X140195073Y-100523494D01*
X140186019Y-100511869D01*
X140117471Y-100394790D01*
X140076083Y-100271905D01*
X140054958Y-100149855D01*
X140047916Y-100014248D01*
X140048056Y-99994042D01*
X140056885Y-99860184D01*
X140079445Y-99739591D01*
X140122045Y-99618013D01*
X140191409Y-99501949D01*
X140219081Y-99468448D01*
X140322407Y-99380578D01*
X140442788Y-99329320D01*
X140565711Y-99314492D01*
X140623824Y-99317421D01*
G37*
G36*
X152034062Y-99791877D02*
G01*
X152115517Y-99887261D01*
X152201025Y-99984791D01*
X152290589Y-100084468D01*
X152336233Y-100135439D01*
X152416663Y-100230193D01*
X152494871Y-100328811D01*
X152570858Y-100431293D01*
X152540730Y-100474345D01*
X152457235Y-100569538D01*
X152358977Y-100645005D01*
X152258733Y-100692590D01*
X152136716Y-100714614D01*
X152111410Y-100713675D01*
X151991644Y-100680804D01*
X151890031Y-100607758D01*
X151841945Y-100548987D01*
X151793109Y-100430694D01*
X151780121Y-100308561D01*
X151781047Y-100277477D01*
X151801002Y-100153775D01*
X151839350Y-100037451D01*
X151863872Y-99982761D01*
X151931290Y-99872367D01*
X152018258Y-99773058D01*
X152034062Y-99791877D01*
G37*
G36*
X152304379Y-98679644D02*
G01*
X152411489Y-98742353D01*
X152478667Y-98843521D01*
X152497585Y-98968278D01*
X152497263Y-98983164D01*
X152471503Y-99107919D01*
X152415153Y-99225344D01*
X152409880Y-99233964D01*
X152327720Y-99336660D01*
X152232623Y-99421191D01*
X152126336Y-99496453D01*
X152062546Y-99411105D01*
X151995055Y-99305944D01*
X151979828Y-99276706D01*
X151937658Y-99156956D01*
X151932885Y-99130280D01*
X151923614Y-99006746D01*
X151923996Y-98986005D01*
X151948038Y-98858979D01*
X152021311Y-98752734D01*
X152102295Y-98697385D01*
X152224643Y-98667249D01*
X152304379Y-98679644D01*
G37*
G36*
X184658824Y-101846021D02*
G01*
X110149587Y-101846021D01*
X110149587Y-100731711D01*
X110427365Y-100731711D01*
X110427365Y-100921000D01*
X111999068Y-100921000D01*
X112284832Y-100921000D01*
X112582198Y-100921000D01*
X112598072Y-100884871D01*
X112652073Y-100763513D01*
X112707743Y-100640724D01*
X112759274Y-100528990D01*
X112770887Y-100504100D01*
X112829312Y-100381728D01*
X112888334Y-100262815D01*
X112947951Y-100147360D01*
X113002316Y-100048340D01*
X113069023Y-99936367D01*
X113142124Y-99825570D01*
X113163781Y-99855495D01*
X113234573Y-99960825D01*
X113303218Y-100074741D01*
X113363164Y-100184607D01*
X113389172Y-100234725D01*
X113445876Y-100346722D01*
X113500069Y-100457656D01*
X113557337Y-100579670D01*
X113605117Y-100685173D01*
X113657086Y-100804021D01*
X113705715Y-100921000D01*
X114014071Y-100921000D01*
X113962944Y-100805595D01*
X116321556Y-100805595D01*
X116351421Y-100822360D01*
X116465048Y-100873983D01*
X116580702Y-100913700D01*
X116701353Y-100943592D01*
X116763188Y-100955250D01*
X116885776Y-100969304D01*
X117007878Y-100973512D01*
X117100490Y-100970859D01*
X117229497Y-100956935D01*
X117364975Y-100925604D01*
X117484266Y-100878028D01*
X117600777Y-100803763D01*
X117613813Y-100793019D01*
X117703200Y-100697363D01*
X117766102Y-100584458D01*
X117802519Y-100454304D01*
X117812658Y-100326268D01*
X117812486Y-100306304D01*
X117801667Y-100176975D01*
X117768694Y-100051495D01*
X117719062Y-99951559D01*
X117641078Y-99855490D01*
X117635773Y-99850354D01*
X117540690Y-99772387D01*
X117434082Y-99706502D01*
X117378959Y-99677384D01*
X117267596Y-99623307D01*
X117154424Y-99573390D01*
X117127782Y-99560943D01*
X117010407Y-99503708D01*
X116897358Y-99443941D01*
X116807565Y-99383534D01*
X116720282Y-99290068D01*
X116671209Y-99177547D01*
X116669750Y-99164283D01*
X118336559Y-99164283D01*
X118336559Y-99363341D01*
X118336559Y-101568243D01*
X118609500Y-101568243D01*
X118609500Y-100844063D01*
X118653006Y-100875147D01*
X118768258Y-100924663D01*
X118797539Y-100933679D01*
X118920426Y-100956783D01*
X119043642Y-100963131D01*
X119103815Y-100961223D01*
X119231601Y-100942977D01*
X119348857Y-100905410D01*
X119466793Y-100841010D01*
X119510222Y-100808905D01*
X119607442Y-100716205D01*
X119681073Y-100617582D01*
X119741566Y-100504565D01*
X119779158Y-100408232D01*
X119813923Y-100276046D01*
X119832012Y-100150680D01*
X119838042Y-100017912D01*
X119837887Y-100014248D01*
X120172655Y-100014248D01*
X120176089Y-100110061D01*
X120191354Y-100233136D01*
X120223125Y-100365210D01*
X120270352Y-100490521D01*
X120303667Y-100556099D01*
X120376707Y-100663245D01*
X120466556Y-100756383D01*
X120573213Y-100835515D01*
X120599300Y-100850968D01*
X120712472Y-100902812D01*
X120839764Y-100938705D01*
X120962728Y-100957025D01*
X121096503Y-100963131D01*
X121203568Y-100960330D01*
X121325767Y-100949297D01*
X121448213Y-100927716D01*
X121527060Y-100908428D01*
X121646050Y-100861771D01*
X121607581Y-100630351D01*
X121553931Y-100650800D01*
X121436001Y-100682863D01*
X121389268Y-100692408D01*
X121264029Y-100707001D01*
X121138635Y-100710951D01*
X121006380Y-100703325D01*
X120872189Y-100675933D01*
X120756088Y-100628621D01*
X120647096Y-100551582D01*
X120561047Y-100449911D01*
X120503860Y-100339343D01*
X120464838Y-100209770D01*
X120445596Y-100080804D01*
X121779162Y-100080804D01*
X121779162Y-100028292D01*
X121779162Y-100017912D01*
X122163234Y-100017912D01*
X122163747Y-100058135D01*
X122173618Y-100191706D01*
X122196054Y-100314056D01*
X122237079Y-100440146D01*
X122294514Y-100551582D01*
X122337671Y-100614056D01*
X122426098Y-100713436D01*
X122528338Y-100796008D01*
X122644392Y-100861771D01*
X122756668Y-100906116D01*
X122874896Y-100937791D01*
X122999079Y-100956796D01*
X123129214Y-100963131D01*
X123178057Y-100962610D01*
X123301420Y-100956369D01*
X123428412Y-100941760D01*
X123472726Y-100934408D01*
X123597280Y-100904622D01*
X123713565Y-100864824D01*
X123675097Y-100634014D01*
X123656834Y-100640421D01*
X123536337Y-100676451D01*
X123414368Y-100698739D01*
X123296826Y-100707898D01*
X123171346Y-100710951D01*
X123049952Y-100704153D01*
X122924270Y-100680972D01*
X122806814Y-100641341D01*
X122728809Y-100601118D01*
X122627257Y-100521605D01*
X122544253Y-100419080D01*
X122532422Y-100399625D01*
X122480998Y-100279229D01*
X122454284Y-100150119D01*
X122446556Y-100017912D01*
X122446966Y-99985153D01*
X122458966Y-99848722D01*
X122491786Y-99718205D01*
X122551580Y-99600256D01*
X122607679Y-99529311D01*
X122705281Y-99443073D01*
X122819026Y-99381048D01*
X122901305Y-99351930D01*
X123027586Y-99323852D01*
X123157302Y-99314492D01*
X123238999Y-99316205D01*
X123366740Y-99324872D01*
X123380906Y-99326335D01*
X123502989Y-99349881D01*
X123622585Y-99387765D01*
X123685477Y-99146575D01*
X123657479Y-99138241D01*
X123539411Y-99108107D01*
X124202662Y-99108107D01*
X124202662Y-99342580D01*
X124573300Y-99342580D01*
X124573300Y-100217580D01*
X124573344Y-100231531D01*
X124578639Y-100365006D01*
X124592760Y-100487509D01*
X124618485Y-100609590D01*
X124638964Y-100669918D01*
X124706018Y-100782514D01*
X124804110Y-100870319D01*
X124851485Y-100897057D01*
X124967167Y-100936937D01*
X125095140Y-100957331D01*
X125227871Y-100963131D01*
X125272264Y-100962444D01*
X125401387Y-100950724D01*
X125521573Y-100919168D01*
X125548344Y-100908654D01*
X125662013Y-100861771D01*
X125619881Y-100630351D01*
X125591430Y-100642551D01*
X125474556Y-100684695D01*
X125377775Y-100704387D01*
X125252295Y-100710951D01*
X125132433Y-100703003D01*
X125012327Y-100669429D01*
X124952592Y-100628729D01*
X124884710Y-100520441D01*
X124869721Y-100469601D01*
X124850787Y-100343377D01*
X124846242Y-100221244D01*
X124846242Y-99342580D01*
X125616217Y-99342580D01*
X125616217Y-99199087D01*
X126322079Y-99199087D01*
X126322079Y-100921000D01*
X126595020Y-100921000D01*
X126595020Y-100133316D01*
X128116653Y-100133316D01*
X128117265Y-100178176D01*
X128126442Y-100307025D01*
X128149554Y-100440106D01*
X128186262Y-100562573D01*
X128238677Y-100671361D01*
X128316030Y-100772571D01*
X128414019Y-100854443D01*
X128465813Y-100884699D01*
X128584786Y-100929827D01*
X128709400Y-100952904D01*
X128834117Y-100959468D01*
X128863617Y-100959344D01*
X128989755Y-100955716D01*
X129117219Y-100945793D01*
X129242002Y-100927716D01*
X129262939Y-100923850D01*
X129385310Y-100899997D01*
X129509448Y-100872151D01*
X129509448Y-99153292D01*
X129974120Y-99153292D01*
X129974120Y-100921000D01*
X130239734Y-100921000D01*
X130239734Y-99328536D01*
X130342927Y-99300448D01*
X130429022Y-99290068D01*
X130505420Y-99297760D01*
X130612205Y-99368836D01*
X130644762Y-99446057D01*
X130659832Y-99569726D01*
X130659832Y-100221244D01*
X130926057Y-100221244D01*
X130926057Y-99559346D01*
X130920561Y-99482409D01*
X130901632Y-99409136D01*
X130910840Y-99398185D01*
X131004825Y-99319988D01*
X131108018Y-99290068D01*
X131112353Y-99290102D01*
X131231971Y-99325483D01*
X131235343Y-99327686D01*
X131316235Y-99423180D01*
X131324854Y-99443266D01*
X131346154Y-99566673D01*
X131346154Y-100921000D01*
X131611768Y-100921000D01*
X133944288Y-100921000D01*
X134195858Y-100921000D01*
X134195858Y-98887678D01*
X134228723Y-98953273D01*
X134288105Y-99071120D01*
X134347777Y-99188677D01*
X134407738Y-99305944D01*
X134461472Y-99411808D01*
X134515816Y-99521183D01*
X134570770Y-99634069D01*
X134626336Y-99750466D01*
X134647520Y-99795202D01*
X134705165Y-99918697D01*
X134756982Y-100031765D01*
X134810084Y-100149507D01*
X134864472Y-100271924D01*
X134872355Y-100289823D01*
X134928701Y-100419424D01*
X134978625Y-100536510D01*
X135030052Y-100659135D01*
X135082982Y-100787298D01*
X135137414Y-100921000D01*
X135448824Y-100921000D01*
X135448824Y-100014248D01*
X135843276Y-100014248D01*
X135846710Y-100110061D01*
X135861976Y-100233136D01*
X135893746Y-100365210D01*
X135940973Y-100490521D01*
X135974288Y-100556099D01*
X136047328Y-100663245D01*
X136137177Y-100756383D01*
X136243834Y-100835515D01*
X136269921Y-100850968D01*
X136383093Y-100902812D01*
X136510385Y-100938705D01*
X136633349Y-100957025D01*
X136767124Y-100963131D01*
X136874189Y-100960330D01*
X136996388Y-100949297D01*
X137118834Y-100927716D01*
X137197681Y-100908428D01*
X137316671Y-100861771D01*
X137278202Y-100630351D01*
X137224552Y-100650800D01*
X137106622Y-100682863D01*
X137059889Y-100692408D01*
X136934650Y-100707001D01*
X136809256Y-100710951D01*
X136677001Y-100703325D01*
X136542810Y-100675933D01*
X136426709Y-100628621D01*
X136317717Y-100551582D01*
X136231668Y-100449911D01*
X136174481Y-100339343D01*
X136135460Y-100209770D01*
X136116217Y-100080804D01*
X137449783Y-100080804D01*
X137449783Y-100028292D01*
X137449783Y-99986771D01*
X137448028Y-99900875D01*
X137437304Y-99767257D01*
X137416830Y-99645565D01*
X137379392Y-99515277D01*
X137327915Y-99402162D01*
X137250115Y-99291900D01*
X137184137Y-99226814D01*
X137079097Y-99154227D01*
X137076899Y-99153292D01*
X137809431Y-99153292D01*
X137809431Y-100921000D01*
X138075045Y-100921000D01*
X138075045Y-99328536D01*
X138178237Y-99300448D01*
X138264333Y-99290068D01*
X138340730Y-99297760D01*
X138447515Y-99368836D01*
X138480073Y-99446057D01*
X138495142Y-99569726D01*
X138495142Y-100221244D01*
X138761367Y-100221244D01*
X138761367Y-99559346D01*
X138755872Y-99482409D01*
X138736943Y-99409136D01*
X138746150Y-99398185D01*
X138840135Y-99319988D01*
X138943328Y-99290068D01*
X138947664Y-99290102D01*
X139067281Y-99325483D01*
X139070654Y-99327686D01*
X139151545Y-99423180D01*
X139160165Y-99443266D01*
X139181465Y-99566673D01*
X139181465Y-100921000D01*
X139447079Y-100921000D01*
X139447079Y-100014248D01*
X139764595Y-100014248D01*
X139769620Y-100136210D01*
X139787671Y-100266794D01*
X139818850Y-100387990D01*
X139869619Y-100513114D01*
X139889971Y-100552010D01*
X139958949Y-100658715D01*
X140049526Y-100759716D01*
X140154773Y-100842231D01*
X140188992Y-100863183D01*
X140309492Y-100918137D01*
X140439890Y-100950194D01*
X140565711Y-100959468D01*
X140624396Y-100957636D01*
X140750228Y-100940119D01*
X140867463Y-100904055D01*
X140987641Y-100842231D01*
X141032358Y-100811443D01*
X141133383Y-100721534D01*
X141211151Y-100624810D01*
X141276458Y-100513114D01*
X141322406Y-100402480D01*
X141355226Y-100282457D01*
X141374918Y-100153047D01*
X141381482Y-100014248D01*
X141376457Y-99892315D01*
X141358406Y-99761836D01*
X141327226Y-99640821D01*
X141276458Y-99515993D01*
X141241715Y-99452046D01*
X141169485Y-99348362D01*
X141084793Y-99259361D01*
X140987641Y-99185043D01*
X140940843Y-99157137D01*
X140816420Y-99103649D01*
X140695364Y-99075394D01*
X140565711Y-99065975D01*
X140522864Y-99067022D01*
X140399473Y-99082719D01*
X140271437Y-99122253D01*
X140152941Y-99185043D01*
X140108681Y-99216261D01*
X140008802Y-99306993D01*
X139932064Y-99404151D01*
X139867787Y-99515993D01*
X139822640Y-99626360D01*
X139790393Y-99746191D01*
X139771044Y-99875487D01*
X139764595Y-100014248D01*
X139447079Y-100014248D01*
X139447079Y-99566673D01*
X139445905Y-99525571D01*
X139425882Y-99404115D01*
X139371974Y-99287015D01*
X139294587Y-99194028D01*
X139190013Y-99118487D01*
X139104100Y-99082116D01*
X138981796Y-99062311D01*
X138919247Y-99066713D01*
X138799835Y-99099558D01*
X138720227Y-99138628D01*
X138617874Y-99209468D01*
X138552705Y-99153910D01*
X138438967Y-99097727D01*
X138336749Y-99072307D01*
X138211821Y-99062311D01*
X138137918Y-99065574D01*
X138013984Y-99085515D01*
X137925844Y-99109607D01*
X137809431Y-99153292D01*
X137076899Y-99153292D01*
X136959272Y-99103261D01*
X136824662Y-99073918D01*
X136697515Y-99065975D01*
X136638675Y-99068014D01*
X136512808Y-99086425D01*
X136389158Y-99123983D01*
X136324669Y-99151957D01*
X136211415Y-99219104D01*
X136114385Y-99298616D01*
X136041804Y-99377912D01*
X135973260Y-99479049D01*
X135916549Y-99594761D01*
X135903454Y-99628744D01*
X135869107Y-99750007D01*
X135855664Y-99839614D01*
X135849072Y-99883554D01*
X135843276Y-100014248D01*
X135448824Y-100014248D01*
X135448824Y-98495668D01*
X135197253Y-98495668D01*
X135197253Y-100472814D01*
X135158663Y-100376693D01*
X135109681Y-100255812D01*
X135057952Y-100129765D01*
X135009797Y-100014248D01*
X135004650Y-100002027D01*
X134953774Y-99883030D01*
X134903972Y-99769877D01*
X134850429Y-99652158D01*
X134801628Y-99548355D01*
X134746294Y-99434171D01*
X134689228Y-99319988D01*
X134673372Y-99288464D01*
X134618035Y-99179509D01*
X134558883Y-99064590D01*
X134502382Y-98956066D01*
X134441149Y-98839663D01*
X134381367Y-98727597D01*
X134316547Y-98607441D01*
X134255697Y-98495668D01*
X133944288Y-98495668D01*
X133944288Y-100921000D01*
X131611768Y-100921000D01*
X131611768Y-99566673D01*
X131610595Y-99525571D01*
X131590572Y-99404115D01*
X131536664Y-99287015D01*
X131459276Y-99194028D01*
X131354703Y-99118487D01*
X131268789Y-99082116D01*
X131146486Y-99062311D01*
X131083937Y-99066713D01*
X130964525Y-99099558D01*
X130884917Y-99138628D01*
X130782564Y-99209468D01*
X130717394Y-99153910D01*
X130603656Y-99097727D01*
X130501439Y-99072307D01*
X130376510Y-99062311D01*
X130302608Y-99065574D01*
X130178673Y-99085515D01*
X130090534Y-99109607D01*
X129974120Y-99153292D01*
X129509448Y-99153292D01*
X129509448Y-99108107D01*
X129236507Y-99108107D01*
X129236507Y-100672482D01*
X129221614Y-100677199D01*
X129099731Y-100696907D01*
X128992558Y-100706987D01*
X128865258Y-100710951D01*
X128834355Y-100710378D01*
X128708754Y-100693634D01*
X128595028Y-100647839D01*
X128501336Y-100564405D01*
X128494461Y-100554999D01*
X128437717Y-100437982D01*
X128408036Y-100314315D01*
X128393523Y-100184192D01*
X128389595Y-100056380D01*
X128389595Y-99108107D01*
X128116653Y-99108107D01*
X128116653Y-100133316D01*
X126595020Y-100133316D01*
X126595020Y-99370668D01*
X126602921Y-99368284D01*
X126721721Y-99337390D01*
X126849033Y-99314492D01*
X126977108Y-99301211D01*
X127106098Y-99296785D01*
X127121039Y-99296801D01*
X127247759Y-99298616D01*
X127251617Y-99298739D01*
X127374155Y-99310829D01*
X127403553Y-99316071D01*
X127526196Y-99346244D01*
X127575045Y-99111771D01*
X127536234Y-99104374D01*
X127413844Y-99083683D01*
X127396433Y-99081193D01*
X127274015Y-99069639D01*
X127237875Y-99068036D01*
X127113426Y-99065975D01*
X127101583Y-99066010D01*
X126969742Y-99070955D01*
X126847382Y-99082714D01*
X126722637Y-99101390D01*
X126697531Y-99105851D01*
X126572142Y-99131444D01*
X126446991Y-99162523D01*
X126322079Y-99199087D01*
X125616217Y-99199087D01*
X125616217Y-99108107D01*
X124846242Y-99108107D01*
X124846242Y-98537800D01*
X124573300Y-98586648D01*
X124573300Y-99108107D01*
X124202662Y-99108107D01*
X123539411Y-99108107D01*
X123531222Y-99106017D01*
X123403987Y-99083683D01*
X123274844Y-99070402D01*
X123149975Y-99065975D01*
X123034794Y-99071103D01*
X122910024Y-99088590D01*
X122787274Y-99118487D01*
X122680382Y-99157151D01*
X122570652Y-99213180D01*
X122469148Y-99283351D01*
X122386394Y-99360047D01*
X122308726Y-99460253D01*
X122245055Y-99577053D01*
X122221484Y-99635794D01*
X122186326Y-99764547D01*
X122168348Y-99893271D01*
X122163234Y-100017912D01*
X121779162Y-100017912D01*
X121779162Y-99986771D01*
X121777407Y-99900875D01*
X121766683Y-99767257D01*
X121746209Y-99645565D01*
X121708771Y-99515277D01*
X121657294Y-99402162D01*
X121579493Y-99291900D01*
X121513516Y-99226814D01*
X121408476Y-99154227D01*
X121288651Y-99103261D01*
X121154041Y-99073918D01*
X121026894Y-99065975D01*
X120968054Y-99068014D01*
X120842187Y-99086425D01*
X120718537Y-99123983D01*
X120654048Y-99151957D01*
X120540793Y-99219104D01*
X120443764Y-99298616D01*
X120371183Y-99377912D01*
X120302639Y-99479049D01*
X120245927Y-99594761D01*
X120232833Y-99628744D01*
X120198486Y-99750007D01*
X120185043Y-99839614D01*
X120178451Y-99883554D01*
X120172655Y-100014248D01*
X119837887Y-100014248D01*
X119832753Y-99893245D01*
X119813758Y-99760142D01*
X119780947Y-99637038D01*
X119727522Y-99510497D01*
X119691103Y-99446157D01*
X119615106Y-99342666D01*
X119525681Y-99255018D01*
X119422829Y-99183212D01*
X119347868Y-99144615D01*
X119227375Y-99101692D01*
X119097223Y-99076737D01*
X118973422Y-99069639D01*
X118852635Y-99072295D01*
X118719305Y-99082757D01*
X118591793Y-99103222D01*
X118582005Y-99105278D01*
X118457251Y-99133061D01*
X118336559Y-99164283D01*
X116669750Y-99164283D01*
X116657389Y-99051931D01*
X116668374Y-98958963D01*
X116723946Y-98847378D01*
X116784069Y-98787154D01*
X116893694Y-98723424D01*
X116986325Y-98694623D01*
X117112292Y-98681293D01*
X117174545Y-98683010D01*
X117302947Y-98698514D01*
X117422480Y-98730141D01*
X117526898Y-98769327D01*
X117641078Y-98824785D01*
X117732058Y-98586648D01*
X117722522Y-98579233D01*
X117611035Y-98521401D01*
X117489036Y-98483456D01*
X117380379Y-98460272D01*
X117254934Y-98444687D01*
X117123283Y-98439492D01*
X117080082Y-98440177D01*
X116938498Y-98453354D01*
X116811873Y-98483303D01*
X116685477Y-98538067D01*
X116578621Y-98614736D01*
X116566675Y-98625785D01*
X116484758Y-98723787D01*
X116427113Y-98838886D01*
X116393740Y-98971083D01*
X116384448Y-99100780D01*
X116394376Y-99218998D01*
X116429633Y-99337085D01*
X116476366Y-99422469D01*
X116556029Y-99517824D01*
X116637360Y-99586464D01*
X116743485Y-99655822D01*
X116853242Y-99713829D01*
X116968799Y-99765731D01*
X117013342Y-99783629D01*
X117126364Y-99833372D01*
X117243572Y-99892127D01*
X117267774Y-99905479D01*
X117369788Y-99975737D01*
X117459117Y-100065539D01*
X117478866Y-100092348D01*
X117529474Y-100210898D01*
X117543380Y-100336648D01*
X117530641Y-100446560D01*
X117476824Y-100560741D01*
X117402889Y-100632672D01*
X117291200Y-100690190D01*
X117260727Y-100699922D01*
X117133876Y-100724859D01*
X117007878Y-100731711D01*
X116888711Y-100727171D01*
X116757100Y-100709291D01*
X116631133Y-100674314D01*
X116519336Y-100630408D01*
X116408872Y-100577838D01*
X116321556Y-100805595D01*
X113962944Y-100805595D01*
X113961101Y-100801435D01*
X113907215Y-100684542D01*
X113852413Y-100570320D01*
X113796695Y-100458770D01*
X113754599Y-100376538D01*
X113697870Y-100268232D01*
X113633228Y-100148212D01*
X113567717Y-100030124D01*
X113530947Y-99965354D01*
X113464084Y-99850271D01*
X113396351Y-99737121D01*
X113327749Y-99625902D01*
X113982320Y-98495668D01*
X113670910Y-98495668D01*
X113135408Y-99468365D01*
X112631657Y-98495668D01*
X112323300Y-98495668D01*
X112957110Y-99639946D01*
X112896384Y-99735222D01*
X112831237Y-99842367D01*
X112767822Y-99951966D01*
X112711615Y-100052573D01*
X112651303Y-100163792D01*
X112592578Y-100275588D01*
X112540951Y-100377161D01*
X112485676Y-100489029D01*
X112431988Y-100601041D01*
X112393940Y-100681947D01*
X112338441Y-100802160D01*
X112284832Y-100921000D01*
X111999068Y-100921000D01*
X111999068Y-100686526D01*
X110746102Y-100686526D01*
X110776394Y-100628814D01*
X110834525Y-100520649D01*
X110897294Y-100406977D01*
X110964699Y-100287800D01*
X111027706Y-100178616D01*
X111092164Y-100068439D01*
X111158071Y-99957271D01*
X111225429Y-99845110D01*
X111293893Y-99732911D01*
X111362510Y-99622238D01*
X111431279Y-99513092D01*
X111500202Y-99405473D01*
X111543069Y-99339552D01*
X111617977Y-99225253D01*
X111689987Y-99116556D01*
X111759099Y-99013463D01*
X111817450Y-98928016D01*
X111890829Y-98822615D01*
X111967316Y-98716097D01*
X111967316Y-98495668D01*
X110490868Y-98495668D01*
X110490868Y-98730141D01*
X111652854Y-98730141D01*
X111594813Y-98808042D01*
X111516841Y-98916529D01*
X111444369Y-99020828D01*
X111368921Y-99132531D01*
X111330281Y-99190787D01*
X111261835Y-99295398D01*
X111192336Y-99403398D01*
X111121786Y-99514787D01*
X111050184Y-99629565D01*
X111009169Y-99696360D01*
X110937621Y-99814399D01*
X110866365Y-99933898D01*
X110795402Y-100054859D01*
X110724731Y-100177280D01*
X110684955Y-100247519D01*
X110617139Y-100369794D01*
X110551602Y-100491251D01*
X110488344Y-100611890D01*
X110427365Y-100731711D01*
X110149587Y-100731711D01*
X110149587Y-98253868D01*
X143801318Y-98253868D01*
X143801318Y-99472029D01*
X143801318Y-100868487D01*
X143807296Y-100870248D01*
X143928079Y-100901632D01*
X144054720Y-100929548D01*
X144171934Y-100948668D01*
X144304444Y-100959852D01*
X144438181Y-100963131D01*
X144516451Y-100960314D01*
X144649824Y-100941042D01*
X144773536Y-100903513D01*
X144887588Y-100847727D01*
X144946386Y-100809146D01*
X145041779Y-100727981D01*
X145123744Y-100631746D01*
X145192281Y-100520441D01*
X145245706Y-100394738D01*
X145278517Y-100272054D01*
X145297513Y-100139065D01*
X145297757Y-100133316D01*
X145746102Y-100133316D01*
X145746714Y-100178176D01*
X145755891Y-100307025D01*
X145779003Y-100440106D01*
X145815711Y-100562573D01*
X145868126Y-100671361D01*
X145945479Y-100772571D01*
X146043468Y-100854443D01*
X146095262Y-100884699D01*
X146214235Y-100929827D01*
X146338849Y-100952904D01*
X146463565Y-100959468D01*
X146493065Y-100959344D01*
X146619203Y-100955716D01*
X146746668Y-100945793D01*
X146871451Y-100927716D01*
X146892388Y-100923850D01*
X147014759Y-100899997D01*
X147138897Y-100872151D01*
X147138897Y-100844063D01*
X147701266Y-100844063D01*
X147758968Y-100867605D01*
X147883990Y-100908891D01*
X148009012Y-100936875D01*
X148077417Y-100947106D01*
X148208795Y-100959439D01*
X148335076Y-100963131D01*
X148384068Y-100962638D01*
X148521321Y-100955232D01*
X148643987Y-100938938D01*
X148774103Y-100906956D01*
X148826147Y-100887999D01*
X148941371Y-100825597D01*
X149033000Y-100737207D01*
X149057803Y-100700388D01*
X149104887Y-100583181D01*
X149119096Y-100455717D01*
X149107291Y-100351549D01*
X149103743Y-100343365D01*
X151479092Y-100343365D01*
X151481797Y-100404245D01*
X151506215Y-100529670D01*
X151556029Y-100646226D01*
X151587091Y-100696086D01*
X151669563Y-100791155D01*
X151772794Y-100868487D01*
X151855317Y-100909220D01*
X151976318Y-100942794D01*
X152098248Y-100952751D01*
X152186442Y-100948286D01*
X152314012Y-100924844D01*
X152435914Y-100881310D01*
X152541150Y-100820375D01*
X152637729Y-100736639D01*
X152718014Y-100640731D01*
X152737636Y-100668923D01*
X152805331Y-100776286D01*
X152825939Y-100812121D01*
X152882267Y-100921000D01*
X153190624Y-100921000D01*
X153156614Y-100854586D01*
X153096679Y-100744948D01*
X153088784Y-100731711D01*
X155480401Y-100731711D01*
X155480401Y-100921000D01*
X157052103Y-100921000D01*
X157337867Y-100921000D01*
X157635233Y-100921000D01*
X157651108Y-100884871D01*
X157705108Y-100763513D01*
X157760778Y-100640724D01*
X157812309Y-100528990D01*
X157823923Y-100504100D01*
X157882348Y-100381728D01*
X157941369Y-100262815D01*
X158000987Y-100147360D01*
X158055351Y-100048340D01*
X158122059Y-99936367D01*
X158195160Y-99825570D01*
X158216816Y-99855495D01*
X158287608Y-99960825D01*
X158356254Y-100074741D01*
X158416200Y-100184607D01*
X158442208Y-100234725D01*
X158498912Y-100346722D01*
X158553104Y-100457656D01*
X158610373Y-100579670D01*
X158658152Y-100685173D01*
X158710121Y-100804021D01*
X158758750Y-100921000D01*
X159067107Y-100921000D01*
X159014137Y-100801435D01*
X158960251Y-100684542D01*
X158905449Y-100570320D01*
X158849731Y-100458770D01*
X158807635Y-100376538D01*
X158750905Y-100268232D01*
X158686264Y-100148212D01*
X158620753Y-100030124D01*
X158583982Y-99965354D01*
X158517119Y-99850271D01*
X158449386Y-99737121D01*
X158380784Y-99625902D01*
X159035355Y-98495668D01*
X158723946Y-98495668D01*
X158188443Y-99468365D01*
X157684692Y-98495668D01*
X157376336Y-98495668D01*
X158010146Y-99639946D01*
X157949419Y-99735222D01*
X157884273Y-99842367D01*
X157820858Y-99951966D01*
X157764651Y-100052573D01*
X157704338Y-100163792D01*
X157645613Y-100275588D01*
X157593986Y-100377161D01*
X157538711Y-100489029D01*
X157485024Y-100601041D01*
X157446975Y-100681947D01*
X157391477Y-100802160D01*
X157337867Y-100921000D01*
X157052103Y-100921000D01*
X157052103Y-100686526D01*
X155799138Y-100686526D01*
X155829429Y-100628814D01*
X155887561Y-100520649D01*
X155950330Y-100406977D01*
X156017735Y-100287800D01*
X156080742Y-100178616D01*
X156145199Y-100068439D01*
X156211107Y-99957271D01*
X156278464Y-99845110D01*
X156346928Y-99732911D01*
X156415545Y-99622238D01*
X156484315Y-99513092D01*
X156553237Y-99405473D01*
X156596105Y-99339552D01*
X156671013Y-99225253D01*
X156743023Y-99116556D01*
X156812135Y-99013463D01*
X156870486Y-98928016D01*
X156943864Y-98822615D01*
X157020352Y-98716097D01*
X157020352Y-98495668D01*
X155543904Y-98495668D01*
X155543904Y-98730141D01*
X156705889Y-98730141D01*
X156647849Y-98808042D01*
X156569876Y-98916529D01*
X156497405Y-99020828D01*
X156421957Y-99132531D01*
X156383317Y-99190787D01*
X156314870Y-99295398D01*
X156245372Y-99403398D01*
X156174822Y-99514787D01*
X156103220Y-99629565D01*
X156062204Y-99696360D01*
X155990656Y-99814399D01*
X155919401Y-99933898D01*
X155848437Y-100054859D01*
X155777766Y-100177280D01*
X155737991Y-100247519D01*
X155670175Y-100369794D01*
X155604638Y-100491251D01*
X155541380Y-100611890D01*
X155480401Y-100731711D01*
X153088784Y-100731711D01*
X153029424Y-100632182D01*
X153003178Y-100590415D01*
X152933961Y-100485587D01*
X152857843Y-100378780D01*
X152886618Y-100306309D01*
X152925487Y-100189158D01*
X152959204Y-100061875D01*
X152964430Y-100039531D01*
X152991723Y-99909133D01*
X153014406Y-99779570D01*
X153033087Y-99653990D01*
X152802278Y-99625902D01*
X152797621Y-99674625D01*
X152783001Y-99796562D01*
X152763199Y-99920214D01*
X152737215Y-100041832D01*
X152700306Y-100165068D01*
X152683104Y-100142650D01*
X152602609Y-100046000D01*
X152551285Y-99988097D01*
X152469497Y-99895790D01*
X152426144Y-99846751D01*
X152342672Y-99753225D01*
X152259448Y-99660706D01*
X152366025Y-99585986D01*
X152471440Y-99497515D01*
X152559377Y-99405762D01*
X152637414Y-99298616D01*
X152644739Y-99286492D01*
X152705204Y-99166565D01*
X152742413Y-99049024D01*
X152756482Y-98922482D01*
X152755833Y-98892740D01*
X152735630Y-98766717D01*
X152682599Y-98655036D01*
X152597419Y-98561308D01*
X152488426Y-98493836D01*
X152473325Y-98487255D01*
X152355965Y-98451433D01*
X152231360Y-98439492D01*
X152194104Y-98440475D01*
X152068364Y-98459392D01*
X151949870Y-98502385D01*
X151917813Y-98519176D01*
X151817636Y-98594777D01*
X151736158Y-98696558D01*
X151696310Y-98775813D01*
X151663466Y-98898316D01*
X151655291Y-99006746D01*
X151653726Y-99027507D01*
X151655261Y-99074209D01*
X151675898Y-99202436D01*
X151716618Y-99318156D01*
X151750965Y-99388299D01*
X151812217Y-99494373D01*
X151885146Y-99601478D01*
X151810306Y-99665369D01*
X151722741Y-99753430D01*
X151640926Y-99856422D01*
X151576789Y-99963568D01*
X151570779Y-99975695D01*
X151521167Y-100096051D01*
X151490636Y-100214738D01*
X151482216Y-100308561D01*
X151479092Y-100343365D01*
X149103743Y-100343365D01*
X149057424Y-100236509D01*
X148991191Y-100155401D01*
X148894392Y-100077751D01*
X148788147Y-100015164D01*
X148672131Y-99960515D01*
X148552147Y-99910750D01*
X148432773Y-99864039D01*
X148335067Y-99827524D01*
X148219061Y-99781607D01*
X148167101Y-99757875D01*
X148061524Y-99687573D01*
X148047642Y-99673682D01*
X148002295Y-99559346D01*
X148028055Y-99445966D01*
X148119532Y-99360288D01*
X148203240Y-99328732D01*
X148331238Y-99306292D01*
X148460861Y-99300448D01*
X148534649Y-99302166D01*
X148659919Y-99312660D01*
X148722041Y-99321008D01*
X148847375Y-99344412D01*
X148857966Y-99346814D01*
X148975603Y-99391429D01*
X149024452Y-99136195D01*
X149010675Y-99132713D01*
X148886721Y-99106914D01*
X148758227Y-99087346D01*
X148709340Y-99081190D01*
X148585442Y-99070066D01*
X148457198Y-99065975D01*
X148426918Y-99066228D01*
X148298746Y-99073623D01*
X148171854Y-99093850D01*
X148051144Y-99130699D01*
X148002957Y-99152089D01*
X147896369Y-99218584D01*
X147811786Y-99307775D01*
X147802247Y-99321867D01*
X147750325Y-99435462D01*
X147733018Y-99563009D01*
X147741684Y-99654512D01*
X147785530Y-99769394D01*
X147833940Y-99836107D01*
X147925359Y-99918383D01*
X148011914Y-99972675D01*
X148121364Y-100027071D01*
X148223125Y-100069271D01*
X148338129Y-100112556D01*
X148346204Y-100115195D01*
X148463609Y-100156367D01*
X148581151Y-100203536D01*
X148666871Y-100245846D01*
X148766775Y-100317109D01*
X148801605Y-100355883D01*
X148838827Y-100476478D01*
X148813470Y-100582943D01*
X148723422Y-100667598D01*
X148630373Y-100702362D01*
X148509905Y-100722695D01*
X148376597Y-100728658D01*
X148301247Y-100726817D01*
X148176969Y-100715097D01*
X148049312Y-100690190D01*
X147992855Y-100674777D01*
X147874360Y-100634607D01*
X147761105Y-100585166D01*
X147701266Y-100844063D01*
X147138897Y-100844063D01*
X147138897Y-99108107D01*
X146865955Y-99108107D01*
X146865955Y-100672482D01*
X146851062Y-100677199D01*
X146729179Y-100696907D01*
X146622007Y-100706987D01*
X146494706Y-100710951D01*
X146463804Y-100710378D01*
X146338202Y-100693634D01*
X146224477Y-100647839D01*
X146130784Y-100564405D01*
X146123910Y-100554999D01*
X146067166Y-100437982D01*
X146037485Y-100314315D01*
X146022972Y-100184192D01*
X146019043Y-100056380D01*
X146019043Y-99108107D01*
X145746102Y-99108107D01*
X145746102Y-100133316D01*
X145297757Y-100133316D01*
X145302801Y-100014248D01*
X145298185Y-99895082D01*
X145281603Y-99766693D01*
X145252962Y-99646622D01*
X145206325Y-99521488D01*
X145187621Y-99482233D01*
X145122748Y-99374255D01*
X145035260Y-99271502D01*
X144931552Y-99186875D01*
X144885938Y-99158539D01*
X144762803Y-99104229D01*
X144640867Y-99075538D01*
X144508401Y-99065975D01*
X144489687Y-99066140D01*
X144366435Y-99076508D01*
X144242177Y-99108107D01*
X144188634Y-99128486D01*
X144077923Y-99181380D01*
X144077923Y-98253868D01*
X161430767Y-98253868D01*
X161430767Y-99472029D01*
X161430767Y-100868487D01*
X161436745Y-100870248D01*
X161557528Y-100901632D01*
X161684169Y-100929548D01*
X161801383Y-100948668D01*
X161933893Y-100959852D01*
X162067630Y-100963131D01*
X162145900Y-100960314D01*
X162279272Y-100941042D01*
X162402985Y-100903513D01*
X162517037Y-100847727D01*
X162575835Y-100809146D01*
X162671227Y-100727981D01*
X162753192Y-100631746D01*
X162821730Y-100520441D01*
X162875155Y-100394738D01*
X162907966Y-100272054D01*
X162926961Y-100139065D01*
X162927205Y-100133316D01*
X163375551Y-100133316D01*
X163376162Y-100178176D01*
X163385339Y-100307025D01*
X163408452Y-100440106D01*
X163445160Y-100562573D01*
X163497574Y-100671361D01*
X163574928Y-100772571D01*
X163672916Y-100854443D01*
X163724711Y-100884699D01*
X163843684Y-100929827D01*
X163968298Y-100952904D01*
X164093014Y-100959468D01*
X164122514Y-100959344D01*
X164248652Y-100955716D01*
X164376116Y-100945793D01*
X164500900Y-100927716D01*
X164521837Y-100923850D01*
X164644207Y-100899997D01*
X164768345Y-100872151D01*
X164768345Y-100844063D01*
X165330715Y-100844063D01*
X165388417Y-100867605D01*
X165513439Y-100908891D01*
X165638461Y-100936875D01*
X165706865Y-100947106D01*
X165838244Y-100959439D01*
X165964525Y-100963131D01*
X166013517Y-100962638D01*
X166150770Y-100955232D01*
X166273435Y-100938938D01*
X166403551Y-100906956D01*
X166455596Y-100887999D01*
X166570820Y-100825597D01*
X166662449Y-100737207D01*
X166687252Y-100700388D01*
X166734335Y-100583181D01*
X166748544Y-100455717D01*
X166736740Y-100351549D01*
X166686873Y-100236509D01*
X166620639Y-100155401D01*
X166523841Y-100077751D01*
X166417595Y-100015164D01*
X166415650Y-100014248D01*
X169143345Y-100014248D01*
X169146780Y-100110061D01*
X169162045Y-100233136D01*
X169193816Y-100365210D01*
X169241043Y-100490521D01*
X169274358Y-100556099D01*
X169347398Y-100663245D01*
X169437247Y-100756383D01*
X169543904Y-100835515D01*
X169569991Y-100850968D01*
X169683163Y-100902812D01*
X169810455Y-100938705D01*
X169933419Y-100957025D01*
X170067194Y-100963131D01*
X170174259Y-100960330D01*
X170296458Y-100949297D01*
X170418904Y-100927716D01*
X170446358Y-100921000D01*
X171056988Y-100921000D01*
X171347027Y-100921000D01*
X171357270Y-100902889D01*
X171425314Y-100793972D01*
X171497236Y-100690190D01*
X171553742Y-100612481D01*
X171632839Y-100506464D01*
X171709117Y-100406868D01*
X171758458Y-100343831D01*
X171840189Y-100242022D01*
X171924661Y-100140644D01*
X171975570Y-100203155D01*
X172052793Y-100302359D01*
X172131046Y-100408090D01*
X172182452Y-100480103D01*
X172255410Y-100585690D01*
X172323387Y-100688358D01*
X172328841Y-100696756D01*
X172396428Y-100806684D01*
X172456500Y-100921000D01*
X172775237Y-100921000D01*
X172763773Y-100899566D01*
X172703738Y-100792829D01*
X172639171Y-100686808D01*
X172570073Y-100581502D01*
X172555855Y-100560541D01*
X172484120Y-100456595D01*
X172411312Y-100354079D01*
X172337431Y-100252995D01*
X172322622Y-100232872D01*
X172248502Y-100133040D01*
X172174263Y-100034520D01*
X172099905Y-99937311D01*
X172664023Y-99164283D01*
X173183733Y-99164283D01*
X173183733Y-99363341D01*
X173183733Y-101568243D01*
X173456674Y-101568243D01*
X173456674Y-100844063D01*
X173500180Y-100875147D01*
X173615432Y-100924663D01*
X173644713Y-100933679D01*
X173767600Y-100956783D01*
X173890816Y-100963131D01*
X173950989Y-100961223D01*
X174078775Y-100942977D01*
X174196031Y-100905410D01*
X174313967Y-100841010D01*
X174357396Y-100808905D01*
X174454616Y-100716205D01*
X174528247Y-100617582D01*
X174588740Y-100504565D01*
X174626331Y-100408232D01*
X174632310Y-100385497D01*
X175096765Y-100385497D01*
X175097862Y-100429070D01*
X175116583Y-100556843D01*
X175166985Y-100677978D01*
X175248043Y-100778881D01*
X175350777Y-100854443D01*
X175365069Y-100862147D01*
X175478342Y-100909893D01*
X175602348Y-100939928D01*
X175637019Y-100945367D01*
X175758668Y-100958690D01*
X175880784Y-100963131D01*
X175992542Y-100960746D01*
X176115338Y-100952613D01*
X176237990Y-100938707D01*
X176281638Y-100932649D01*
X176410714Y-100913618D01*
X176535355Y-100892912D01*
X176535355Y-99744970D01*
X176530091Y-99636424D01*
X176509357Y-99513989D01*
X176468799Y-99393260D01*
X176435503Y-99329840D01*
X176351496Y-99228492D01*
X176252591Y-99156956D01*
X177101388Y-99156956D01*
X177101388Y-100921000D01*
X177374329Y-100921000D01*
X177374329Y-99356624D01*
X177437672Y-99345316D01*
X177563007Y-99328536D01*
X177623376Y-99323062D01*
X177748632Y-99318156D01*
X177867655Y-99327413D01*
X177988600Y-99360288D01*
X178084466Y-99422570D01*
X178158349Y-99526373D01*
X178199069Y-99648247D01*
X178216267Y-99770798D01*
X178221242Y-99902507D01*
X178221242Y-100921000D01*
X178494183Y-100921000D01*
X178494183Y-100011195D01*
X178941147Y-100011195D01*
X178941435Y-100017912D01*
X178946494Y-100135862D01*
X178965700Y-100268965D01*
X178998873Y-100392069D01*
X179052888Y-100518609D01*
X179090041Y-100582833D01*
X179167208Y-100686491D01*
X179257609Y-100774788D01*
X179361245Y-100847727D01*
X179436700Y-100886946D01*
X179557209Y-100930561D01*
X179686508Y-100955919D01*
X179808820Y-100963131D01*
X179944310Y-100959852D01*
X180066086Y-100950013D01*
X180194113Y-100929548D01*
X180203898Y-100927492D01*
X180327985Y-100899709D01*
X180446294Y-100868487D01*
X180446294Y-100014248D01*
X180896311Y-100014248D01*
X180899746Y-100110061D01*
X180915011Y-100233136D01*
X180946782Y-100365210D01*
X180994008Y-100490521D01*
X181027323Y-100556099D01*
X181100364Y-100663245D01*
X181190212Y-100756383D01*
X181296870Y-100835515D01*
X181322956Y-100850968D01*
X181436129Y-100902812D01*
X181563421Y-100938705D01*
X181686385Y-100957025D01*
X181820160Y-100963131D01*
X181927225Y-100960330D01*
X182049424Y-100949297D01*
X182171870Y-100927716D01*
X182250717Y-100908428D01*
X182369706Y-100861771D01*
X182331238Y-100630351D01*
X182277587Y-100650800D01*
X182159657Y-100682863D01*
X182112925Y-100692408D01*
X181987686Y-100707001D01*
X181862292Y-100710951D01*
X181730036Y-100703325D01*
X181595846Y-100675933D01*
X181479745Y-100628621D01*
X181370753Y-100551582D01*
X181284704Y-100449911D01*
X181227517Y-100339343D01*
X181188495Y-100209770D01*
X181169253Y-100080804D01*
X182502819Y-100080804D01*
X182502819Y-100028292D01*
X182502819Y-99986771D01*
X182501064Y-99900875D01*
X182490339Y-99767257D01*
X182469866Y-99645565D01*
X182432428Y-99515277D01*
X182380951Y-99402162D01*
X182303150Y-99291900D01*
X182237173Y-99226814D01*
X182197049Y-99199087D01*
X183128080Y-99199087D01*
X183128080Y-100921000D01*
X183401022Y-100921000D01*
X183401022Y-99370668D01*
X183408923Y-99368284D01*
X183527723Y-99337390D01*
X183655034Y-99314492D01*
X183783109Y-99301211D01*
X183912100Y-99296785D01*
X183927041Y-99296801D01*
X184053761Y-99298616D01*
X184057618Y-99298739D01*
X184180156Y-99310829D01*
X184209554Y-99316071D01*
X184332198Y-99346244D01*
X184381046Y-99111771D01*
X184342236Y-99104374D01*
X184219846Y-99083683D01*
X184202434Y-99081193D01*
X184080017Y-99069639D01*
X184043876Y-99068036D01*
X183919427Y-99065975D01*
X183907585Y-99066010D01*
X183775744Y-99070955D01*
X183653384Y-99082714D01*
X183528639Y-99101390D01*
X183503532Y-99105851D01*
X183378143Y-99131444D01*
X183252992Y-99162523D01*
X183128080Y-99199087D01*
X182197049Y-99199087D01*
X182132132Y-99154227D01*
X182012307Y-99103261D01*
X181877698Y-99073918D01*
X181750551Y-99065975D01*
X181691711Y-99068014D01*
X181565844Y-99086425D01*
X181442194Y-99123983D01*
X181377705Y-99151957D01*
X181264450Y-99219104D01*
X181167421Y-99298616D01*
X181094840Y-99377912D01*
X181026295Y-99479049D01*
X180969584Y-99594761D01*
X180956489Y-99628744D01*
X180922143Y-99750007D01*
X180908699Y-99839614D01*
X180902107Y-99883554D01*
X180896311Y-100014248D01*
X180446294Y-100014248D01*
X180446294Y-98205019D01*
X180173352Y-98253868D01*
X180173352Y-99181380D01*
X180120508Y-99150124D01*
X180006657Y-99104443D01*
X179984975Y-99097569D01*
X179864977Y-99073338D01*
X179735547Y-99065975D01*
X179676223Y-99067893D01*
X179549859Y-99086231D01*
X179433349Y-99123985D01*
X179315449Y-99188707D01*
X179272125Y-99220640D01*
X179174750Y-99312744D01*
X179100470Y-99410626D01*
X179038844Y-99522709D01*
X179000777Y-99618504D01*
X178965572Y-99750771D01*
X178947253Y-99876938D01*
X178941147Y-100011195D01*
X178494183Y-100011195D01*
X178494183Y-99846331D01*
X178492006Y-99759510D01*
X178479470Y-99632504D01*
X178452046Y-99507139D01*
X178405034Y-99389597D01*
X178355728Y-99310638D01*
X178264022Y-99214381D01*
X178151022Y-99144743D01*
X178130242Y-99135649D01*
X178007085Y-99096116D01*
X177882102Y-99075580D01*
X177759012Y-99069639D01*
X177708987Y-99070326D01*
X177580743Y-99077271D01*
X177457983Y-99089178D01*
X177349695Y-99103931D01*
X177227273Y-99126908D01*
X177101388Y-99156956D01*
X176252591Y-99156956D01*
X176248370Y-99153903D01*
X176197542Y-99128572D01*
X176079427Y-99090791D01*
X175954363Y-99071471D01*
X175828272Y-99065975D01*
X175751582Y-99067144D01*
X175626231Y-99074586D01*
X175499155Y-99090399D01*
X175406565Y-99107624D01*
X175289106Y-99142912D01*
X175320858Y-99377385D01*
X175386190Y-99355663D01*
X175508314Y-99326704D01*
X175557845Y-99317781D01*
X175686440Y-99304140D01*
X175811175Y-99300448D01*
X175845737Y-99301065D01*
X175976650Y-99318003D01*
X176095718Y-99370668D01*
X176167980Y-99439056D01*
X176225167Y-99548965D01*
X176248124Y-99645353D01*
X176258750Y-99773058D01*
X176258750Y-99870755D01*
X176195552Y-99857492D01*
X176071294Y-99837782D01*
X175998622Y-99830341D01*
X175874068Y-99825570D01*
X175756836Y-99830877D01*
X175630360Y-99848974D01*
X175506482Y-99879914D01*
X175421226Y-99911361D01*
X175307940Y-99974558D01*
X175212170Y-100056990D01*
X175156383Y-100132349D01*
X175110402Y-100253564D01*
X175096765Y-100385497D01*
X174632310Y-100385497D01*
X174661097Y-100276046D01*
X174679186Y-100150680D01*
X174685216Y-100017912D01*
X174679927Y-99893245D01*
X174660932Y-99760142D01*
X174628121Y-99637038D01*
X174574696Y-99510497D01*
X174538277Y-99446157D01*
X174462280Y-99342666D01*
X174372855Y-99255018D01*
X174270003Y-99183212D01*
X174195041Y-99144615D01*
X174074549Y-99101692D01*
X173944397Y-99076737D01*
X173820596Y-99069639D01*
X173699809Y-99072295D01*
X173566479Y-99082757D01*
X173438967Y-99103222D01*
X173429179Y-99105278D01*
X173304424Y-99133061D01*
X173183733Y-99164283D01*
X172664023Y-99164283D01*
X172705017Y-99108107D01*
X172400934Y-99108107D01*
X171928325Y-99762678D01*
X171413583Y-99108107D01*
X171091793Y-99108107D01*
X171750027Y-99961736D01*
X171742578Y-99971170D01*
X171659696Y-100076053D01*
X171582845Y-100173154D01*
X171504563Y-100271924D01*
X171488881Y-100291864D01*
X171411684Y-100392137D01*
X171336515Y-100493365D01*
X171263373Y-100595546D01*
X171193631Y-100697906D01*
X171122423Y-100809814D01*
X171056988Y-100921000D01*
X170446358Y-100921000D01*
X170497751Y-100908428D01*
X170616740Y-100861771D01*
X170578272Y-100630351D01*
X170524622Y-100650800D01*
X170406692Y-100682863D01*
X170359959Y-100692408D01*
X170234720Y-100707001D01*
X170109326Y-100710951D01*
X169977070Y-100703325D01*
X169842880Y-100675933D01*
X169726779Y-100628621D01*
X169617787Y-100551582D01*
X169531738Y-100449911D01*
X169474551Y-100339343D01*
X169435529Y-100209770D01*
X169416287Y-100080804D01*
X170749853Y-100080804D01*
X170749853Y-100028292D01*
X170749853Y-99986771D01*
X170748098Y-99900875D01*
X170737374Y-99767257D01*
X170716900Y-99645565D01*
X170679462Y-99515277D01*
X170627985Y-99402162D01*
X170550184Y-99291900D01*
X170484207Y-99226814D01*
X170379167Y-99154227D01*
X170259342Y-99103261D01*
X170124732Y-99073918D01*
X169997585Y-99065975D01*
X169938745Y-99068014D01*
X169812878Y-99086425D01*
X169689228Y-99123983D01*
X169624739Y-99151957D01*
X169511484Y-99219104D01*
X169414455Y-99298616D01*
X169341874Y-99377912D01*
X169273330Y-99479049D01*
X169216618Y-99594761D01*
X169203524Y-99628744D01*
X169169177Y-99750007D01*
X169155733Y-99839614D01*
X169149141Y-99883554D01*
X169143345Y-100014248D01*
X166415650Y-100014248D01*
X166301580Y-99960515D01*
X166181596Y-99910750D01*
X166062222Y-99864039D01*
X165964515Y-99827524D01*
X165848509Y-99781607D01*
X165796549Y-99757875D01*
X165690973Y-99687573D01*
X165677091Y-99673682D01*
X165631744Y-99559346D01*
X165657504Y-99445966D01*
X165748981Y-99360288D01*
X165832689Y-99328732D01*
X165960687Y-99306292D01*
X166090310Y-99300448D01*
X166164098Y-99302166D01*
X166289368Y-99312660D01*
X166351490Y-99321008D01*
X166476824Y-99344412D01*
X166487414Y-99346814D01*
X166605052Y-99391429D01*
X166653900Y-99136195D01*
X166640123Y-99132713D01*
X166516170Y-99106914D01*
X166387676Y-99087346D01*
X166338788Y-99081190D01*
X166214890Y-99070066D01*
X166086646Y-99065975D01*
X166056366Y-99066228D01*
X165928194Y-99073623D01*
X165801303Y-99093850D01*
X165680593Y-99130699D01*
X165632406Y-99152089D01*
X165525818Y-99218584D01*
X165441235Y-99307775D01*
X165431696Y-99321867D01*
X165379774Y-99435462D01*
X165362466Y-99563009D01*
X165371133Y-99654512D01*
X165414978Y-99769394D01*
X165463389Y-99836107D01*
X165554807Y-99918383D01*
X165641363Y-99972675D01*
X165750812Y-100027071D01*
X165852573Y-100069271D01*
X165967578Y-100112556D01*
X165975653Y-100115195D01*
X166093058Y-100156367D01*
X166210600Y-100203536D01*
X166296319Y-100245846D01*
X166396224Y-100317109D01*
X166431054Y-100355883D01*
X166468276Y-100476478D01*
X166442918Y-100582943D01*
X166352871Y-100667598D01*
X166259821Y-100702362D01*
X166139354Y-100722695D01*
X166006046Y-100728658D01*
X165930696Y-100726817D01*
X165806418Y-100715097D01*
X165678761Y-100690190D01*
X165622303Y-100674777D01*
X165503809Y-100634607D01*
X165390554Y-100585166D01*
X165330715Y-100844063D01*
X164768345Y-100844063D01*
X164768345Y-99108107D01*
X164495404Y-99108107D01*
X164495404Y-100672482D01*
X164480511Y-100677199D01*
X164358628Y-100696907D01*
X164251456Y-100706987D01*
X164124155Y-100710951D01*
X164093253Y-100710378D01*
X163967651Y-100693634D01*
X163853926Y-100647839D01*
X163760233Y-100564405D01*
X163753358Y-100554999D01*
X163696615Y-100437982D01*
X163666934Y-100314315D01*
X163652420Y-100184192D01*
X163648492Y-100056380D01*
X163648492Y-99108107D01*
X163375551Y-99108107D01*
X163375551Y-100133316D01*
X162927205Y-100133316D01*
X162932250Y-100014248D01*
X162927633Y-99895082D01*
X162911052Y-99766693D01*
X162882410Y-99646622D01*
X162835774Y-99521488D01*
X162817069Y-99482233D01*
X162752197Y-99374255D01*
X162664709Y-99271502D01*
X162561001Y-99186875D01*
X162515386Y-99158539D01*
X162392251Y-99104229D01*
X162270315Y-99075538D01*
X162137850Y-99065975D01*
X162119136Y-99066140D01*
X161995884Y-99076508D01*
X161871625Y-99108107D01*
X161818083Y-99128486D01*
X161707372Y-99181380D01*
X161707372Y-98205019D01*
X161430767Y-98253868D01*
X144077923Y-98253868D01*
X144077923Y-98205019D01*
X143801318Y-98253868D01*
X110149587Y-98253868D01*
X110149587Y-97927241D01*
X184658824Y-97927241D01*
X184658824Y-101846021D01*
G37*
X183321009Y-59379887D02*
X183368628Y-59237030D01*
X183368628Y-59237030D02*
X183416247Y-59189411D01*
X183416247Y-59189411D02*
X183511485Y-59141792D01*
X183511485Y-59141792D02*
X183654342Y-59141792D01*
X183654342Y-59141792D02*
X183749580Y-59189411D01*
X183749580Y-59189411D02*
X183797200Y-59237030D01*
X183797200Y-59237030D02*
X183844819Y-59332268D01*
X183844819Y-59332268D02*
X183844819Y-59713220D01*
X183844819Y-59713220D02*
X182844819Y-59713220D01*
X182844819Y-59713220D02*
X182844819Y-59379887D01*
X182844819Y-59379887D02*
X182892438Y-59284649D01*
X182892438Y-59284649D02*
X182940057Y-59237030D01*
X182940057Y-59237030D02*
X183035295Y-59189411D01*
X183035295Y-59189411D02*
X183130533Y-59189411D01*
X183130533Y-59189411D02*
X183225771Y-59237030D01*
X183225771Y-59237030D02*
X183273390Y-59284649D01*
X183273390Y-59284649D02*
X183321009Y-59379887D01*
X183321009Y-59379887D02*
X183321009Y-59713220D01*
X183178152Y-58808458D02*
X183844819Y-58570363D01*
X183178152Y-58332268D02*
X183844819Y-58570363D01*
X183844819Y-58570363D02*
X184082914Y-58665601D01*
X184082914Y-58665601D02*
X184130533Y-58713220D01*
X184130533Y-58713220D02*
X184178152Y-58808458D01*
X183559104Y-57237029D02*
X183559104Y-56760839D01*
X183844819Y-57332267D02*
X182844819Y-56998934D01*
X182844819Y-56998934D02*
X183844819Y-56665601D01*
X183844819Y-56332267D02*
X183178152Y-56332267D01*
X183368628Y-56332267D02*
X183273390Y-56284648D01*
X183273390Y-56284648D02*
X183225771Y-56237029D01*
X183225771Y-56237029D02*
X183178152Y-56141791D01*
X183178152Y-56141791D02*
X183178152Y-56046553D01*
X183844819Y-55570362D02*
X183797200Y-55665600D01*
X183797200Y-55665600D02*
X183701961Y-55713219D01*
X183701961Y-55713219D02*
X182844819Y-55713219D01*
X183797200Y-54808457D02*
X183844819Y-54903695D01*
X183844819Y-54903695D02*
X183844819Y-55094171D01*
X183844819Y-55094171D02*
X183797200Y-55189409D01*
X183797200Y-55189409D02*
X183701961Y-55237028D01*
X183701961Y-55237028D02*
X183321009Y-55237028D01*
X183321009Y-55237028D02*
X183225771Y-55189409D01*
X183225771Y-55189409D02*
X183178152Y-55094171D01*
X183178152Y-55094171D02*
X183178152Y-54903695D01*
X183178152Y-54903695D02*
X183225771Y-54808457D01*
X183225771Y-54808457D02*
X183321009Y-54760838D01*
X183321009Y-54760838D02*
X183416247Y-54760838D01*
X183416247Y-54760838D02*
X183511485Y-55237028D01*
X183178152Y-54427504D02*
X183844819Y-54189409D01*
X183178152Y-53951314D02*
X183844819Y-54189409D01*
X183844819Y-54189409D02*
X184082914Y-54284647D01*
X184082914Y-54284647D02*
X184130533Y-54332266D01*
X184130533Y-54332266D02*
X184178152Y-54427504D01*
X182844819Y-53284647D02*
X183559104Y-53284647D01*
X183559104Y-53284647D02*
X183701961Y-53332266D01*
X183701961Y-53332266D02*
X183797200Y-53427504D01*
X183797200Y-53427504D02*
X183844819Y-53570361D01*
X183844819Y-53570361D02*
X183844819Y-53665599D01*
X183844819Y-52808456D02*
X183178152Y-52808456D01*
X183368628Y-52808456D02*
X183273390Y-52760837D01*
X183273390Y-52760837D02*
X183225771Y-52713218D01*
X183225771Y-52713218D02*
X183178152Y-52617980D01*
X183178152Y-52617980D02*
X183178152Y-52522742D01*
X99847495Y-98959200D02*
X99990352Y-99006819D01*
X99990352Y-99006819D02*
X100228447Y-99006819D01*
X100228447Y-99006819D02*
X100323685Y-98959200D01*
X100323685Y-98959200D02*
X100371304Y-98911580D01*
X100371304Y-98911580D02*
X100418923Y-98816342D01*
X100418923Y-98816342D02*
X100418923Y-98721104D01*
X100418923Y-98721104D02*
X100371304Y-98625866D01*
X100371304Y-98625866D02*
X100323685Y-98578247D01*
X100323685Y-98578247D02*
X100228447Y-98530628D01*
X100228447Y-98530628D02*
X100037971Y-98483009D01*
X100037971Y-98483009D02*
X99942733Y-98435390D01*
X99942733Y-98435390D02*
X99895114Y-98387771D01*
X99895114Y-98387771D02*
X99847495Y-98292533D01*
X99847495Y-98292533D02*
X99847495Y-98197295D01*
X99847495Y-98197295D02*
X99895114Y-98102057D01*
X99895114Y-98102057D02*
X99942733Y-98054438D01*
X99942733Y-98054438D02*
X100037971Y-98006819D01*
X100037971Y-98006819D02*
X100276066Y-98006819D01*
X100276066Y-98006819D02*
X100418923Y-98054438D01*
X101371304Y-99006819D02*
X100799876Y-99006819D01*
X101085590Y-99006819D02*
X101085590Y-98006819D01*
X101085590Y-98006819D02*
X100990352Y-98149676D01*
X100990352Y-98149676D02*
X100895114Y-98244914D01*
X100895114Y-98244914D02*
X100799876Y-98292533D01*
X95836580Y-101570018D02*
X96312771Y-101236685D01*
X95836580Y-100998590D02*
X96836580Y-100998590D01*
X96836580Y-100998590D02*
X96836580Y-101379542D01*
X96836580Y-101379542D02*
X96788961Y-101474780D01*
X96788961Y-101474780D02*
X96741342Y-101522399D01*
X96741342Y-101522399D02*
X96646104Y-101570018D01*
X96646104Y-101570018D02*
X96503247Y-101570018D01*
X96503247Y-101570018D02*
X96408009Y-101522399D01*
X96408009Y-101522399D02*
X96360390Y-101474780D01*
X96360390Y-101474780D02*
X96312771Y-101379542D01*
X96312771Y-101379542D02*
X96312771Y-100998590D01*
X96360390Y-101998590D02*
X96360390Y-102331923D01*
X95836580Y-102474780D02*
X95836580Y-101998590D01*
X95836580Y-101998590D02*
X96836580Y-101998590D01*
X96836580Y-101998590D02*
X96836580Y-102474780D01*
X95884200Y-102855733D02*
X95836580Y-102998590D01*
X95836580Y-102998590D02*
X95836580Y-103236685D01*
X95836580Y-103236685D02*
X95884200Y-103331923D01*
X95884200Y-103331923D02*
X95931819Y-103379542D01*
X95931819Y-103379542D02*
X96027057Y-103427161D01*
X96027057Y-103427161D02*
X96122295Y-103427161D01*
X96122295Y-103427161D02*
X96217533Y-103379542D01*
X96217533Y-103379542D02*
X96265152Y-103331923D01*
X96265152Y-103331923D02*
X96312771Y-103236685D01*
X96312771Y-103236685D02*
X96360390Y-103046209D01*
X96360390Y-103046209D02*
X96408009Y-102950971D01*
X96408009Y-102950971D02*
X96455628Y-102903352D01*
X96455628Y-102903352D02*
X96550866Y-102855733D01*
X96550866Y-102855733D02*
X96646104Y-102855733D01*
X96646104Y-102855733D02*
X96741342Y-102903352D01*
X96741342Y-102903352D02*
X96788961Y-102950971D01*
X96788961Y-102950971D02*
X96836580Y-103046209D01*
X96836580Y-103046209D02*
X96836580Y-103284304D01*
X96836580Y-103284304D02*
X96788961Y-103427161D01*
X96360390Y-103855733D02*
X96360390Y-104189066D01*
X95836580Y-104331923D02*
X95836580Y-103855733D01*
X95836580Y-103855733D02*
X96836580Y-103855733D01*
X96836580Y-103855733D02*
X96836580Y-104331923D01*
X96836580Y-104617638D02*
X96836580Y-105189066D01*
X95836580Y-104903352D02*
X96836580Y-104903352D01*
X179461219Y-93198133D02*
X180175504Y-93198133D01*
X180175504Y-93198133D02*
X180318361Y-93245752D01*
X180318361Y-93245752D02*
X180413600Y-93340990D01*
X180413600Y-93340990D02*
X180461219Y-93483847D01*
X180461219Y-93483847D02*
X180461219Y-93579085D01*
X180461219Y-92721942D02*
X179461219Y-92721942D01*
X179461219Y-92721942D02*
X179461219Y-92340990D01*
X179461219Y-92340990D02*
X179508838Y-92245752D01*
X179508838Y-92245752D02*
X179556457Y-92198133D01*
X179556457Y-92198133D02*
X179651695Y-92150514D01*
X179651695Y-92150514D02*
X179794552Y-92150514D01*
X179794552Y-92150514D02*
X179889790Y-92198133D01*
X179889790Y-92198133D02*
X179937409Y-92245752D01*
X179937409Y-92245752D02*
X179985028Y-92340990D01*
X179985028Y-92340990D02*
X179985028Y-92721942D01*
X180461219Y-91198133D02*
X180461219Y-91769561D01*
X180461219Y-91483847D02*
X179461219Y-91483847D01*
X179461219Y-91483847D02*
X179604076Y-91579085D01*
X179604076Y-91579085D02*
X179699314Y-91674323D01*
X179699314Y-91674323D02*
X179746933Y-91769561D01*
X181429866Y-94167104D02*
X181429866Y-93405200D01*
X181810819Y-92405200D02*
X181810819Y-92976628D01*
X181810819Y-92690914D02*
X180810819Y-92690914D01*
X180810819Y-92690914D02*
X180953676Y-92786152D01*
X180953676Y-92786152D02*
X181048914Y-92881390D01*
X181048914Y-92881390D02*
X181096533Y-92976628D01*
X180906057Y-92024247D02*
X180858438Y-91976628D01*
X180858438Y-91976628D02*
X180810819Y-91881390D01*
X180810819Y-91881390D02*
X180810819Y-91643295D01*
X180810819Y-91643295D02*
X180858438Y-91548057D01*
X180858438Y-91548057D02*
X180906057Y-91500438D01*
X180906057Y-91500438D02*
X181001295Y-91452819D01*
X181001295Y-91452819D02*
X181096533Y-91452819D01*
X181096533Y-91452819D02*
X181239390Y-91500438D01*
X181239390Y-91500438D02*
X181810819Y-92071866D01*
X181810819Y-92071866D02*
X181810819Y-91452819D01*
X180810819Y-91167104D02*
X181810819Y-90833771D01*
X181810819Y-90833771D02*
X180810819Y-90500438D01*
X153134219Y-93054466D02*
X152658028Y-93387799D01*
X153134219Y-93625894D02*
X152134219Y-93625894D01*
X152134219Y-93625894D02*
X152134219Y-93244942D01*
X152134219Y-93244942D02*
X152181838Y-93149704D01*
X152181838Y-93149704D02*
X152229457Y-93102085D01*
X152229457Y-93102085D02*
X152324695Y-93054466D01*
X152324695Y-93054466D02*
X152467552Y-93054466D01*
X152467552Y-93054466D02*
X152562790Y-93102085D01*
X152562790Y-93102085D02*
X152610409Y-93149704D01*
X152610409Y-93149704D02*
X152658028Y-93244942D01*
X152658028Y-93244942D02*
X152658028Y-93625894D01*
X152134219Y-92149704D02*
X152134219Y-92625894D01*
X152134219Y-92625894D02*
X152610409Y-92673513D01*
X152610409Y-92673513D02*
X152562790Y-92625894D01*
X152562790Y-92625894D02*
X152515171Y-92530656D01*
X152515171Y-92530656D02*
X152515171Y-92292561D01*
X152515171Y-92292561D02*
X152562790Y-92197323D01*
X152562790Y-92197323D02*
X152610409Y-92149704D01*
X152610409Y-92149704D02*
X152705647Y-92102085D01*
X152705647Y-92102085D02*
X152943742Y-92102085D01*
X152943742Y-92102085D02*
X153038980Y-92149704D01*
X153038980Y-92149704D02*
X153086600Y-92197323D01*
X153086600Y-92197323D02*
X153134219Y-92292561D01*
X153134219Y-92292561D02*
X153134219Y-92530656D01*
X153134219Y-92530656D02*
X153086600Y-92625894D01*
X153086600Y-92625894D02*
X153038980Y-92673513D01*
X155664819Y-93598904D02*
X155664819Y-93789380D01*
X155664819Y-93789380D02*
X155712438Y-93884618D01*
X155712438Y-93884618D02*
X155760057Y-93932237D01*
X155760057Y-93932237D02*
X155902914Y-94027475D01*
X155902914Y-94027475D02*
X156093390Y-94075094D01*
X156093390Y-94075094D02*
X156474342Y-94075094D01*
X156474342Y-94075094D02*
X156569580Y-94027475D01*
X156569580Y-94027475D02*
X156617200Y-93979856D01*
X156617200Y-93979856D02*
X156664819Y-93884618D01*
X156664819Y-93884618D02*
X156664819Y-93694142D01*
X156664819Y-93694142D02*
X156617200Y-93598904D01*
X156617200Y-93598904D02*
X156569580Y-93551285D01*
X156569580Y-93551285D02*
X156474342Y-93503666D01*
X156474342Y-93503666D02*
X156236247Y-93503666D01*
X156236247Y-93503666D02*
X156141009Y-93551285D01*
X156141009Y-93551285D02*
X156093390Y-93598904D01*
X156093390Y-93598904D02*
X156045771Y-93694142D01*
X156045771Y-93694142D02*
X156045771Y-93884618D01*
X156045771Y-93884618D02*
X156093390Y-93979856D01*
X156093390Y-93979856D02*
X156141009Y-94027475D01*
X156141009Y-94027475D02*
X156236247Y-94075094D01*
X156093390Y-92932237D02*
X156045771Y-93027475D01*
X156045771Y-93027475D02*
X155998152Y-93075094D01*
X155998152Y-93075094D02*
X155902914Y-93122713D01*
X155902914Y-93122713D02*
X155855295Y-93122713D01*
X155855295Y-93122713D02*
X155760057Y-93075094D01*
X155760057Y-93075094D02*
X155712438Y-93027475D01*
X155712438Y-93027475D02*
X155664819Y-92932237D01*
X155664819Y-92932237D02*
X155664819Y-92741761D01*
X155664819Y-92741761D02*
X155712438Y-92646523D01*
X155712438Y-92646523D02*
X155760057Y-92598904D01*
X155760057Y-92598904D02*
X155855295Y-92551285D01*
X155855295Y-92551285D02*
X155902914Y-92551285D01*
X155902914Y-92551285D02*
X155998152Y-92598904D01*
X155998152Y-92598904D02*
X156045771Y-92646523D01*
X156045771Y-92646523D02*
X156093390Y-92741761D01*
X156093390Y-92741761D02*
X156093390Y-92932237D01*
X156093390Y-92932237D02*
X156141009Y-93027475D01*
X156141009Y-93027475D02*
X156188628Y-93075094D01*
X156188628Y-93075094D02*
X156283866Y-93122713D01*
X156283866Y-93122713D02*
X156474342Y-93122713D01*
X156474342Y-93122713D02*
X156569580Y-93075094D01*
X156569580Y-93075094D02*
X156617200Y-93027475D01*
X156617200Y-93027475D02*
X156664819Y-92932237D01*
X156664819Y-92932237D02*
X156664819Y-92741761D01*
X156664819Y-92741761D02*
X156617200Y-92646523D01*
X156617200Y-92646523D02*
X156569580Y-92598904D01*
X156569580Y-92598904D02*
X156474342Y-92551285D01*
X156474342Y-92551285D02*
X156283866Y-92551285D01*
X156283866Y-92551285D02*
X156188628Y-92598904D01*
X156188628Y-92598904D02*
X156141009Y-92646523D01*
X156141009Y-92646523D02*
X156093390Y-92741761D01*
X155664819Y-91932237D02*
X155664819Y-91836999D01*
X155664819Y-91836999D02*
X155712438Y-91741761D01*
X155712438Y-91741761D02*
X155760057Y-91694142D01*
X155760057Y-91694142D02*
X155855295Y-91646523D01*
X155855295Y-91646523D02*
X156045771Y-91598904D01*
X156045771Y-91598904D02*
X156283866Y-91598904D01*
X156283866Y-91598904D02*
X156474342Y-91646523D01*
X156474342Y-91646523D02*
X156569580Y-91694142D01*
X156569580Y-91694142D02*
X156617200Y-91741761D01*
X156617200Y-91741761D02*
X156664819Y-91836999D01*
X156664819Y-91836999D02*
X156664819Y-91932237D01*
X156664819Y-91932237D02*
X156617200Y-92027475D01*
X156617200Y-92027475D02*
X156569580Y-92075094D01*
X156569580Y-92075094D02*
X156474342Y-92122713D01*
X156474342Y-92122713D02*
X156283866Y-92170332D01*
X156283866Y-92170332D02*
X156045771Y-92170332D01*
X156045771Y-92170332D02*
X155855295Y-92122713D01*
X155855295Y-92122713D02*
X155760057Y-92075094D01*
X155760057Y-92075094D02*
X155712438Y-92027475D01*
X155712438Y-92027475D02*
X155664819Y-91932237D01*
X139977019Y-93105266D02*
X139500828Y-93438599D01*
X139977019Y-93676694D02*
X138977019Y-93676694D01*
X138977019Y-93676694D02*
X138977019Y-93295742D01*
X138977019Y-93295742D02*
X139024638Y-93200504D01*
X139024638Y-93200504D02*
X139072257Y-93152885D01*
X139072257Y-93152885D02*
X139167495Y-93105266D01*
X139167495Y-93105266D02*
X139310352Y-93105266D01*
X139310352Y-93105266D02*
X139405590Y-93152885D01*
X139405590Y-93152885D02*
X139453209Y-93200504D01*
X139453209Y-93200504D02*
X139500828Y-93295742D01*
X139500828Y-93295742D02*
X139500828Y-93676694D01*
X138977019Y-92771932D02*
X138977019Y-92152885D01*
X138977019Y-92152885D02*
X139357971Y-92486218D01*
X139357971Y-92486218D02*
X139357971Y-92343361D01*
X139357971Y-92343361D02*
X139405590Y-92248123D01*
X139405590Y-92248123D02*
X139453209Y-92200504D01*
X139453209Y-92200504D02*
X139548447Y-92152885D01*
X139548447Y-92152885D02*
X139786542Y-92152885D01*
X139786542Y-92152885D02*
X139881780Y-92200504D01*
X139881780Y-92200504D02*
X139929400Y-92248123D01*
X139929400Y-92248123D02*
X139977019Y-92343361D01*
X139977019Y-92343361D02*
X139977019Y-92629075D01*
X139977019Y-92629075D02*
X139929400Y-92724313D01*
X139929400Y-92724313D02*
X139881780Y-92771932D01*
X143431419Y-93457638D02*
X143431419Y-94029066D01*
X143431419Y-93743352D02*
X142431419Y-93743352D01*
X142431419Y-93743352D02*
X142574276Y-93838590D01*
X142574276Y-93838590D02*
X142669514Y-93933828D01*
X142669514Y-93933828D02*
X142717133Y-94029066D01*
X142431419Y-92838590D02*
X142431419Y-92743352D01*
X142431419Y-92743352D02*
X142479038Y-92648114D01*
X142479038Y-92648114D02*
X142526657Y-92600495D01*
X142526657Y-92600495D02*
X142621895Y-92552876D01*
X142621895Y-92552876D02*
X142812371Y-92505257D01*
X142812371Y-92505257D02*
X143050466Y-92505257D01*
X143050466Y-92505257D02*
X143240942Y-92552876D01*
X143240942Y-92552876D02*
X143336180Y-92600495D01*
X143336180Y-92600495D02*
X143383800Y-92648114D01*
X143383800Y-92648114D02*
X143431419Y-92743352D01*
X143431419Y-92743352D02*
X143431419Y-92838590D01*
X143431419Y-92838590D02*
X143383800Y-92933828D01*
X143383800Y-92933828D02*
X143336180Y-92981447D01*
X143336180Y-92981447D02*
X143240942Y-93029066D01*
X143240942Y-93029066D02*
X143050466Y-93076685D01*
X143050466Y-93076685D02*
X142812371Y-93076685D01*
X142812371Y-93076685D02*
X142621895Y-93029066D01*
X142621895Y-93029066D02*
X142526657Y-92981447D01*
X142526657Y-92981447D02*
X142479038Y-92933828D01*
X142479038Y-92933828D02*
X142431419Y-92838590D01*
X143431419Y-92076685D02*
X142431419Y-92076685D01*
X143050466Y-91981447D02*
X143431419Y-91695733D01*
X142764752Y-91695733D02*
X143145704Y-92076685D01*
X103262133Y-90193019D02*
X102928800Y-89716828D01*
X102690705Y-90193019D02*
X102690705Y-89193019D01*
X102690705Y-89193019D02*
X103071657Y-89193019D01*
X103071657Y-89193019D02*
X103166895Y-89240638D01*
X103166895Y-89240638D02*
X103214514Y-89288257D01*
X103214514Y-89288257D02*
X103262133Y-89383495D01*
X103262133Y-89383495D02*
X103262133Y-89526352D01*
X103262133Y-89526352D02*
X103214514Y-89621590D01*
X103214514Y-89621590D02*
X103166895Y-89669209D01*
X103166895Y-89669209D02*
X103071657Y-89716828D01*
X103071657Y-89716828D02*
X102690705Y-89716828D01*
X103643086Y-89288257D02*
X103690705Y-89240638D01*
X103690705Y-89240638D02*
X103785943Y-89193019D01*
X103785943Y-89193019D02*
X104024038Y-89193019D01*
X104024038Y-89193019D02*
X104119276Y-89240638D01*
X104119276Y-89240638D02*
X104166895Y-89288257D01*
X104166895Y-89288257D02*
X104214514Y-89383495D01*
X104214514Y-89383495D02*
X104214514Y-89478733D01*
X104214514Y-89478733D02*
X104166895Y-89621590D01*
X104166895Y-89621590D02*
X103595467Y-90193019D01*
X103595467Y-90193019D02*
X104214514Y-90193019D01*
X102514495Y-92418819D02*
X102324019Y-92418819D01*
X102324019Y-92418819D02*
X102228781Y-92466438D01*
X102228781Y-92466438D02*
X102181162Y-92514057D01*
X102181162Y-92514057D02*
X102085924Y-92656914D01*
X102085924Y-92656914D02*
X102038305Y-92847390D01*
X102038305Y-92847390D02*
X102038305Y-93228342D01*
X102038305Y-93228342D02*
X102085924Y-93323580D01*
X102085924Y-93323580D02*
X102133543Y-93371200D01*
X102133543Y-93371200D02*
X102228781Y-93418819D01*
X102228781Y-93418819D02*
X102419257Y-93418819D01*
X102419257Y-93418819D02*
X102514495Y-93371200D01*
X102514495Y-93371200D02*
X102562114Y-93323580D01*
X102562114Y-93323580D02*
X102609733Y-93228342D01*
X102609733Y-93228342D02*
X102609733Y-92990247D01*
X102609733Y-92990247D02*
X102562114Y-92895009D01*
X102562114Y-92895009D02*
X102514495Y-92847390D01*
X102514495Y-92847390D02*
X102419257Y-92799771D01*
X102419257Y-92799771D02*
X102228781Y-92799771D01*
X102228781Y-92799771D02*
X102133543Y-92847390D01*
X102133543Y-92847390D02*
X102085924Y-92895009D01*
X102085924Y-92895009D02*
X102038305Y-92990247D01*
X103181162Y-92847390D02*
X103085924Y-92799771D01*
X103085924Y-92799771D02*
X103038305Y-92752152D01*
X103038305Y-92752152D02*
X102990686Y-92656914D01*
X102990686Y-92656914D02*
X102990686Y-92609295D01*
X102990686Y-92609295D02*
X103038305Y-92514057D01*
X103038305Y-92514057D02*
X103085924Y-92466438D01*
X103085924Y-92466438D02*
X103181162Y-92418819D01*
X103181162Y-92418819D02*
X103371638Y-92418819D01*
X103371638Y-92418819D02*
X103466876Y-92466438D01*
X103466876Y-92466438D02*
X103514495Y-92514057D01*
X103514495Y-92514057D02*
X103562114Y-92609295D01*
X103562114Y-92609295D02*
X103562114Y-92656914D01*
X103562114Y-92656914D02*
X103514495Y-92752152D01*
X103514495Y-92752152D02*
X103466876Y-92799771D01*
X103466876Y-92799771D02*
X103371638Y-92847390D01*
X103371638Y-92847390D02*
X103181162Y-92847390D01*
X103181162Y-92847390D02*
X103085924Y-92895009D01*
X103085924Y-92895009D02*
X103038305Y-92942628D01*
X103038305Y-92942628D02*
X102990686Y-93037866D01*
X102990686Y-93037866D02*
X102990686Y-93228342D01*
X102990686Y-93228342D02*
X103038305Y-93323580D01*
X103038305Y-93323580D02*
X103085924Y-93371200D01*
X103085924Y-93371200D02*
X103181162Y-93418819D01*
X103181162Y-93418819D02*
X103371638Y-93418819D01*
X103371638Y-93418819D02*
X103466876Y-93371200D01*
X103466876Y-93371200D02*
X103514495Y-93323580D01*
X103514495Y-93323580D02*
X103562114Y-93228342D01*
X103562114Y-93228342D02*
X103562114Y-93037866D01*
X103562114Y-93037866D02*
X103514495Y-92942628D01*
X103514495Y-92942628D02*
X103466876Y-92895009D01*
X103466876Y-92895009D02*
X103371638Y-92847390D01*
X104181162Y-92418819D02*
X104276400Y-92418819D01*
X104276400Y-92418819D02*
X104371638Y-92466438D01*
X104371638Y-92466438D02*
X104419257Y-92514057D01*
X104419257Y-92514057D02*
X104466876Y-92609295D01*
X104466876Y-92609295D02*
X104514495Y-92799771D01*
X104514495Y-92799771D02*
X104514495Y-93037866D01*
X104514495Y-93037866D02*
X104466876Y-93228342D01*
X104466876Y-93228342D02*
X104419257Y-93323580D01*
X104419257Y-93323580D02*
X104371638Y-93371200D01*
X104371638Y-93371200D02*
X104276400Y-93418819D01*
X104276400Y-93418819D02*
X104181162Y-93418819D01*
X104181162Y-93418819D02*
X104085924Y-93371200D01*
X104085924Y-93371200D02*
X104038305Y-93323580D01*
X104038305Y-93323580D02*
X103990686Y-93228342D01*
X103990686Y-93228342D02*
X103943067Y-93037866D01*
X103943067Y-93037866D02*
X103943067Y-92799771D01*
X103943067Y-92799771D02*
X103990686Y-92609295D01*
X103990686Y-92609295D02*
X104038305Y-92514057D01*
X104038305Y-92514057D02*
X104085924Y-92466438D01*
X104085924Y-92466438D02*
X104181162Y-92418819D01*
X128052533Y-105510219D02*
X127719200Y-105034028D01*
X127481105Y-105510219D02*
X127481105Y-104510219D01*
X127481105Y-104510219D02*
X127862057Y-104510219D01*
X127862057Y-104510219D02*
X127957295Y-104557838D01*
X127957295Y-104557838D02*
X128004914Y-104605457D01*
X128004914Y-104605457D02*
X128052533Y-104700695D01*
X128052533Y-104700695D02*
X128052533Y-104843552D01*
X128052533Y-104843552D02*
X128004914Y-104938790D01*
X128004914Y-104938790D02*
X127957295Y-104986409D01*
X127957295Y-104986409D02*
X127862057Y-105034028D01*
X127862057Y-105034028D02*
X127481105Y-105034028D01*
X129004914Y-105510219D02*
X128433486Y-105510219D01*
X128719200Y-105510219D02*
X128719200Y-104510219D01*
X128719200Y-104510219D02*
X128623962Y-104653076D01*
X128623962Y-104653076D02*
X128528724Y-104748314D01*
X128528724Y-104748314D02*
X128433486Y-104795933D01*
X127552533Y-108810219D02*
X126981105Y-108810219D01*
X127266819Y-108810219D02*
X127266819Y-107810219D01*
X127266819Y-107810219D02*
X127171581Y-107953076D01*
X127171581Y-107953076D02*
X127076343Y-108048314D01*
X127076343Y-108048314D02*
X126981105Y-108095933D01*
X128171581Y-107810219D02*
X128266819Y-107810219D01*
X128266819Y-107810219D02*
X128362057Y-107857838D01*
X128362057Y-107857838D02*
X128409676Y-107905457D01*
X128409676Y-107905457D02*
X128457295Y-108000695D01*
X128457295Y-108000695D02*
X128504914Y-108191171D01*
X128504914Y-108191171D02*
X128504914Y-108429266D01*
X128504914Y-108429266D02*
X128457295Y-108619742D01*
X128457295Y-108619742D02*
X128409676Y-108714980D01*
X128409676Y-108714980D02*
X128362057Y-108762600D01*
X128362057Y-108762600D02*
X128266819Y-108810219D01*
X128266819Y-108810219D02*
X128171581Y-108810219D01*
X128171581Y-108810219D02*
X128076343Y-108762600D01*
X128076343Y-108762600D02*
X128028724Y-108714980D01*
X128028724Y-108714980D02*
X127981105Y-108619742D01*
X127981105Y-108619742D02*
X127933486Y-108429266D01*
X127933486Y-108429266D02*
X127933486Y-108191171D01*
X127933486Y-108191171D02*
X127981105Y-108000695D01*
X127981105Y-108000695D02*
X128028724Y-107905457D01*
X128028724Y-107905457D02*
X128076343Y-107857838D01*
X128076343Y-107857838D02*
X128171581Y-107810219D01*
X129123962Y-107810219D02*
X129219200Y-107810219D01*
X129219200Y-107810219D02*
X129314438Y-107857838D01*
X129314438Y-107857838D02*
X129362057Y-107905457D01*
X129362057Y-107905457D02*
X129409676Y-108000695D01*
X129409676Y-108000695D02*
X129457295Y-108191171D01*
X129457295Y-108191171D02*
X129457295Y-108429266D01*
X129457295Y-108429266D02*
X129409676Y-108619742D01*
X129409676Y-108619742D02*
X129362057Y-108714980D01*
X129362057Y-108714980D02*
X129314438Y-108762600D01*
X129314438Y-108762600D02*
X129219200Y-108810219D01*
X129219200Y-108810219D02*
X129123962Y-108810219D01*
X129123962Y-108810219D02*
X129028724Y-108762600D01*
X129028724Y-108762600D02*
X128981105Y-108714980D01*
X128981105Y-108714980D02*
X128933486Y-108619742D01*
X128933486Y-108619742D02*
X128885867Y-108429266D01*
X128885867Y-108429266D02*
X128885867Y-108191171D01*
X128885867Y-108191171D02*
X128933486Y-108000695D01*
X128933486Y-108000695D02*
X128981105Y-107905457D01*
X128981105Y-107905457D02*
X129028724Y-107857838D01*
X129028724Y-107857838D02*
X129123962Y-107810219D01*
X98169505Y-90143219D02*
X98169505Y-89143219D01*
X98169505Y-89143219D02*
X98407600Y-89143219D01*
X98407600Y-89143219D02*
X98550457Y-89190838D01*
X98550457Y-89190838D02*
X98645695Y-89286076D01*
X98645695Y-89286076D02*
X98693314Y-89381314D01*
X98693314Y-89381314D02*
X98740933Y-89571790D01*
X98740933Y-89571790D02*
X98740933Y-89714647D01*
X98740933Y-89714647D02*
X98693314Y-89905123D01*
X98693314Y-89905123D02*
X98645695Y-90000361D01*
X98645695Y-90000361D02*
X98550457Y-90095600D01*
X98550457Y-90095600D02*
X98407600Y-90143219D01*
X98407600Y-90143219D02*
X98169505Y-90143219D01*
X99693314Y-90143219D02*
X99121886Y-90143219D01*
X99407600Y-90143219D02*
X99407600Y-89143219D01*
X99407600Y-89143219D02*
X99312362Y-89286076D01*
X99312362Y-89286076D02*
X99217124Y-89381314D01*
X99217124Y-89381314D02*
X99121886Y-89428933D01*
X98264742Y-93443219D02*
X97788552Y-93443219D01*
X97788552Y-93443219D02*
X97788552Y-92443219D01*
X98598076Y-92919409D02*
X98931409Y-92919409D01*
X99074266Y-93443219D02*
X98598076Y-93443219D01*
X98598076Y-93443219D02*
X98598076Y-92443219D01*
X98598076Y-92443219D02*
X99074266Y-92443219D01*
X99502838Y-93443219D02*
X99502838Y-92443219D01*
X99502838Y-92443219D02*
X99740933Y-92443219D01*
X99740933Y-92443219D02*
X99883790Y-92490838D01*
X99883790Y-92490838D02*
X99979028Y-92586076D01*
X99979028Y-92586076D02*
X100026647Y-92681314D01*
X100026647Y-92681314D02*
X100074266Y-92871790D01*
X100074266Y-92871790D02*
X100074266Y-93014647D01*
X100074266Y-93014647D02*
X100026647Y-93205123D01*
X100026647Y-93205123D02*
X99979028Y-93300361D01*
X99979028Y-93300361D02*
X99883790Y-93395600D01*
X99883790Y-93395600D02*
X99740933Y-93443219D01*
X99740933Y-93443219D02*
X99502838Y-93443219D01*
D11*
X183034653Y-81618666D02*
X183760368Y-81618666D01*
X183760368Y-81618666D02*
X183905511Y-81667047D01*
X183905511Y-81667047D02*
X184002273Y-81763809D01*
X184002273Y-81763809D02*
X184050653Y-81908952D01*
X184050653Y-81908952D02*
X184050653Y-82005714D01*
X184050653Y-80602666D02*
X184050653Y-81183238D01*
X184050653Y-80892952D02*
X183034653Y-80892952D01*
X183034653Y-80892952D02*
X183179796Y-80989714D01*
X183179796Y-80989714D02*
X183276558Y-81086476D01*
X183276558Y-81086476D02*
X183324939Y-81183238D01*
D12*
%TO.C,S1*%
X101359400Y-99547800D02*
X99859400Y-99547800D01*
X97359400Y-100797800D02*
X97359400Y-105297800D01*
X103859400Y-105297800D02*
X103859400Y-100797800D01*
X99859400Y-106547800D02*
X101359400Y-106547800D01*
%TO.C,JP1*%
X177906400Y-90964800D02*
X178506400Y-90964800D01*
X179206400Y-91664800D02*
X179206400Y-93064800D01*
X177206400Y-93064800D02*
X177206400Y-91664800D01*
X178506400Y-93764800D02*
X177906400Y-93764800D01*
X178506400Y-90964800D02*
G75*
G02*
X179206400Y-91664800I1J-699999D01*
G01*
X177206400Y-91664800D02*
G75*
G02*
X177906400Y-90964800I699999J1D01*
G01*
X179206400Y-93064800D02*
G75*
G02*
X178506400Y-93764800I-700000J0D01*
G01*
X177906400Y-93764800D02*
G75*
G02*
X177206400Y-93064800I0J700000D01*
G01*
%TO.C,R5*%
X155090800Y-92660736D02*
X155090800Y-93114864D01*
X153620800Y-92660736D02*
X153620800Y-93114864D01*
%TO.C,R3*%
X141908200Y-92660736D02*
X141908200Y-93114864D01*
X140438200Y-92660736D02*
X140438200Y-93114864D01*
%TO.C,R2*%
X103554264Y-92073400D02*
X103100136Y-92073400D01*
X103554264Y-90603400D02*
X103100136Y-90603400D01*
%TO.C,R1*%
X127992136Y-105970400D02*
X128446264Y-105970400D01*
X127992136Y-107440400D02*
X128446264Y-107440400D01*
%TO.C,D1*%
X97047600Y-90378400D02*
X97047600Y-92298400D01*
X97047600Y-92298400D02*
X99907600Y-92298400D01*
X99907600Y-90378400D02*
X97047600Y-90378400D01*
D13*
%TO.C,J1*%
X97104200Y-76708000D02*
X182448200Y-76708000D01*
X97104200Y-85852000D02*
X97104200Y-76708000D01*
X182448200Y-76708000D02*
X182448200Y-85852000D01*
X182448200Y-85852000D02*
X97104200Y-85852000D01*
D10*
%TO.C,J2*%
X104216200Y-115570000D02*
X175336200Y-115570000D01*
X104216200Y-118110000D02*
X104216200Y-115570000D01*
X104216200Y-119310000D02*
X104216200Y-120640000D01*
D14*
X104724770Y-111574290D02*
X105796200Y-111931430D01*
X104724770Y-121497140D02*
X104724770Y-122211430D01*
X104724770Y-122211430D02*
X105439060Y-122282860D01*
X104724770Y-123282860D02*
X104939060Y-123425710D01*
X104724770Y-124640000D02*
X106224770Y-124140000D01*
X104796200Y-112931430D02*
X105010490Y-113074290D01*
X104796200Y-114288570D02*
X106296200Y-113788570D01*
X104939060Y-123425710D02*
X105081910Y-123568570D01*
X105010490Y-113074290D02*
X105153340Y-113217140D01*
X105081910Y-123568570D02*
X105153340Y-123711430D01*
X105153340Y-113217140D02*
X105224770Y-113360000D01*
X105296200Y-111217140D02*
X106296200Y-111217140D01*
X105296200Y-121711430D02*
X105367630Y-121568570D01*
X105296200Y-122068570D02*
X105296200Y-121711430D01*
X105367630Y-121568570D02*
X105439060Y-121497140D01*
X105367630Y-122211430D02*
X105296200Y-122068570D01*
X105439060Y-121497140D02*
X105581910Y-121425710D01*
X105439060Y-122282860D02*
X105367630Y-122211430D01*
X105581910Y-121425710D02*
X105939060Y-121425710D01*
D10*
X105681200Y-120640000D02*
X104216200Y-120640000D01*
D14*
X105796200Y-111931430D02*
X105796200Y-111002860D01*
X105796200Y-124997140D02*
X105796200Y-124282860D01*
X105867630Y-114645720D02*
X105867630Y-113931430D01*
X105939060Y-121425710D02*
X106081910Y-121497140D01*
X106081910Y-121497140D02*
X106153340Y-121568570D01*
X106153340Y-121568570D02*
X106224770Y-121711430D01*
X106153340Y-122211430D02*
X106081910Y-122282860D01*
X106224770Y-121711430D02*
X106224770Y-122068570D01*
X106224770Y-122068570D02*
X106153340Y-122211430D01*
X106224770Y-122854290D02*
X106224770Y-123711430D01*
X106224770Y-123282860D02*
X104724770Y-123282860D01*
X106224770Y-125140000D02*
X104724770Y-124640000D01*
X106296200Y-112502860D02*
X106296200Y-113360000D01*
X106296200Y-112931430D02*
X104796200Y-112931430D01*
X106296200Y-114788570D02*
X104796200Y-114288570D01*
D10*
X106716200Y-118110000D02*
X104216200Y-118110000D01*
X106716200Y-120640000D02*
X106716200Y-118110000D01*
D14*
X107264770Y-121425710D02*
X107836200Y-121925710D01*
X107264770Y-122354290D02*
X107264770Y-121425710D01*
X107264770Y-123282860D02*
X107479060Y-123425710D01*
X107264770Y-124640000D02*
X108764770Y-124140000D01*
X107336200Y-111360000D02*
X107407630Y-111217140D01*
X107336200Y-111717140D02*
X107336200Y-111360000D01*
X107336200Y-112931430D02*
X107550490Y-113074290D01*
X107336200Y-114288570D02*
X108836200Y-113788570D01*
X107407630Y-111217140D02*
X107479060Y-111145720D01*
X107407630Y-111860000D02*
X107336200Y-111717140D01*
X107479060Y-111145720D02*
X107621920Y-111074290D01*
X107479060Y-111931430D02*
X107407630Y-111860000D01*
X107479060Y-123425710D02*
X107621910Y-123568570D01*
X107550490Y-113074290D02*
X107693340Y-113217140D01*
X107621910Y-123568570D02*
X107693340Y-123711430D01*
X107621920Y-111074290D02*
X107764770Y-111074290D01*
X107693340Y-113217140D02*
X107764770Y-113360000D01*
X107764770Y-111074290D02*
X107979060Y-111145720D01*
X107836200Y-121711430D02*
X107907630Y-121568570D01*
X107836200Y-121925710D02*
X107836200Y-121711430D01*
X107907630Y-121568570D02*
X107979060Y-121497140D01*
X107979060Y-111145720D02*
X108836200Y-112002860D01*
X107979060Y-121497140D02*
X108121910Y-121425710D01*
X108121910Y-121425710D02*
X108479060Y-121425710D01*
X108336200Y-124997140D02*
X108336200Y-124282860D01*
X108407630Y-114645720D02*
X108407630Y-113931430D01*
X108479060Y-121425710D02*
X108621910Y-121497140D01*
X108621910Y-121497140D02*
X108693340Y-121568570D01*
X108693340Y-121568570D02*
X108764770Y-121711430D01*
X108693340Y-122282860D02*
X108621910Y-122354290D01*
X108764770Y-121711430D02*
X108764770Y-122140000D01*
X108764770Y-122140000D02*
X108693340Y-122282860D01*
X108764770Y-122854290D02*
X108764770Y-123711430D01*
X108764770Y-123282860D02*
X107264770Y-123282860D01*
X108764770Y-125140000D02*
X107264770Y-124640000D01*
X108836200Y-112002860D02*
X108836200Y-111074290D01*
X108836200Y-112502860D02*
X108836200Y-113360000D01*
X108836200Y-112931430D02*
X107336200Y-112931430D01*
X108836200Y-114788570D02*
X107336200Y-114288570D01*
X109804770Y-121354290D02*
X111304770Y-121997140D01*
X109804770Y-122354290D02*
X109804770Y-121354290D01*
X109804770Y-123354290D02*
X109876200Y-123140000D01*
X109804770Y-123711430D02*
X109804770Y-123354290D01*
X109876200Y-111502860D02*
X111376200Y-111002860D01*
X109876200Y-112002860D02*
X109876200Y-112717140D01*
X109876200Y-112717140D02*
X110590490Y-112788570D01*
X109876200Y-123140000D02*
X110019060Y-122997140D01*
X110019060Y-122997140D02*
X110161910Y-122925710D01*
X110161910Y-122925710D02*
X110447630Y-122854290D01*
X110447630Y-112217140D02*
X110519060Y-112074290D01*
X110447630Y-112574290D02*
X110447630Y-112217140D01*
X110447630Y-122854290D02*
X110661910Y-122854290D01*
X110519060Y-112074290D02*
X110590490Y-112002860D01*
X110519060Y-112717140D02*
X110447630Y-112574290D01*
X110590490Y-112002860D02*
X110733340Y-111931430D01*
X110590490Y-112788570D02*
X110519060Y-112717140D01*
X110661910Y-122854290D02*
X110947630Y-122925710D01*
X110733340Y-111931430D02*
X111090490Y-111931430D01*
X110804770Y-114574290D02*
X110804770Y-113431430D01*
X110947630Y-122925710D02*
X111090490Y-122997140D01*
X111090490Y-111931430D02*
X111233340Y-112002860D01*
X111090490Y-122997140D02*
X111233340Y-123140000D01*
X111233340Y-112002860D02*
X111304770Y-112074290D01*
X111233340Y-123140000D02*
X111304770Y-123354290D01*
X111304770Y-112074290D02*
X111376200Y-112217140D01*
X111304770Y-112717140D02*
X111233340Y-112788570D01*
X111304770Y-123354290D02*
X111304770Y-123711430D01*
X111304770Y-123711430D02*
X109804770Y-123711430D01*
X111376200Y-111002860D02*
X109876200Y-110502860D01*
X111376200Y-112217140D02*
X111376200Y-112574290D01*
X111376200Y-112574290D02*
X111304770Y-112717140D01*
X111376200Y-114002860D02*
X110233340Y-114002860D01*
X111696200Y-122568570D02*
X111696200Y-121140000D01*
X111696200Y-124282860D02*
X111696200Y-122568570D01*
X111696200Y-125854290D02*
X111696200Y-124282860D01*
X111696200Y-127354290D02*
X111696200Y-125854290D01*
X111696200Y-128497140D02*
X111696200Y-127354290D01*
X111696200Y-129854290D02*
X111696200Y-128497140D01*
X111696200Y-131425710D02*
X111696200Y-129854290D01*
X112344770Y-121854290D02*
X112559060Y-121997140D01*
X112344770Y-122925710D02*
X113844770Y-122925710D01*
X112344770Y-123925710D02*
X113416200Y-123425710D01*
X112344770Y-124925710D02*
X112416200Y-124782860D01*
X112344770Y-125211430D02*
X112344770Y-124925710D01*
X112344770Y-126425710D02*
X112416200Y-126282860D01*
X112344770Y-126997140D02*
X112344770Y-126425710D01*
X112344770Y-129497140D02*
X112344770Y-128782860D01*
X112344770Y-130497140D02*
X112416200Y-130354290D01*
X112344770Y-130782860D02*
X112344770Y-130497140D01*
X112416200Y-111502860D02*
X113916200Y-111002860D01*
X112416200Y-112217140D02*
X112416200Y-112502860D01*
X112416200Y-112502860D02*
X112487630Y-112645720D01*
X112416200Y-124782860D02*
X112559060Y-124640000D01*
X112416200Y-125354290D02*
X112344770Y-125211430D01*
X112416200Y-126282860D02*
X112487630Y-126211430D01*
X112416200Y-130354290D02*
X112559060Y-130211430D01*
X112416200Y-130925710D02*
X112344770Y-130782860D01*
X112487630Y-112074290D02*
X112416200Y-112217140D01*
X112487630Y-112645720D02*
X112559060Y-112717140D01*
X112487630Y-126211430D02*
X112630490Y-126140000D01*
X112559060Y-112002860D02*
X112487630Y-112074290D01*
X112559060Y-112717140D02*
X112701920Y-112788570D01*
X112559060Y-121997140D02*
X112701910Y-122140000D01*
X112559060Y-124640000D02*
X112844770Y-124568570D01*
X112559060Y-125497140D02*
X112416200Y-125354290D01*
X112559060Y-130211430D02*
X112844770Y-130140000D01*
X112559060Y-131068570D02*
X112416200Y-130925710D01*
X112630490Y-126140000D02*
X112844770Y-126140000D01*
X112701910Y-122140000D02*
X112773340Y-122282860D01*
X112701920Y-111931430D02*
X112559060Y-112002860D01*
X112701920Y-112788570D02*
X113059060Y-112788570D01*
X112844770Y-124568570D02*
X113344770Y-124568570D01*
X112844770Y-125568570D02*
X112559060Y-125497140D01*
X112844770Y-126140000D02*
X112987630Y-126211430D01*
X112844770Y-130140000D02*
X113344770Y-130140000D01*
X112844770Y-131140000D02*
X112559060Y-131068570D01*
X112987630Y-126211430D02*
X113059060Y-126282860D01*
X113059060Y-112788570D02*
X113201920Y-112717140D01*
X113059060Y-126282860D02*
X113130490Y-126425710D01*
X113059060Y-129497140D02*
X113059060Y-128997140D01*
X113130490Y-126425710D02*
X113130490Y-126997140D01*
X113201920Y-112002860D02*
X113059060Y-111931430D01*
X113201920Y-112717140D02*
X113273340Y-112645720D01*
X113273340Y-111931430D02*
X112701920Y-111931430D01*
X113273340Y-112074290D02*
X113201920Y-112002860D01*
X113273340Y-112645720D02*
X113344770Y-112502860D01*
X113344770Y-112217140D02*
X113273340Y-112074290D01*
X113344770Y-112502860D02*
X113344770Y-112217140D01*
X113344770Y-114574290D02*
X113344770Y-113431430D01*
X113344770Y-124568570D02*
X113630490Y-124640000D01*
X113344770Y-125568570D02*
X112844770Y-125568570D01*
X113344770Y-130140000D02*
X113630490Y-130211430D01*
X113344770Y-131140000D02*
X112844770Y-131140000D01*
X113416200Y-123425710D02*
X112344770Y-122925710D01*
X113559060Y-112002860D02*
X113273340Y-111931430D01*
X113630490Y-124640000D02*
X113773340Y-124782860D01*
X113630490Y-125497140D02*
X113344770Y-125568570D01*
X113630490Y-130211430D02*
X113773340Y-130354290D01*
X113630490Y-131068570D02*
X113344770Y-131140000D01*
X113773340Y-112145720D02*
X113559060Y-112002860D01*
X113773340Y-124782860D02*
X113844770Y-124925710D01*
X113773340Y-125354290D02*
X113630490Y-125497140D01*
X113773340Y-130354290D02*
X113844770Y-130497140D01*
X113773340Y-130925710D02*
X113630490Y-131068570D01*
X113844770Y-112217140D02*
X113773340Y-112145720D01*
X113844770Y-121425710D02*
X113844770Y-122282860D01*
X113844770Y-121854290D02*
X112344770Y-121854290D01*
X113844770Y-123925710D02*
X112344770Y-123925710D01*
X113844770Y-124925710D02*
X113844770Y-125211430D01*
X113844770Y-125211430D02*
X113773340Y-125354290D01*
X113844770Y-126140000D02*
X113130490Y-126640000D01*
X113844770Y-126997140D02*
X112344770Y-126997140D01*
X113844770Y-128782860D02*
X113844770Y-129497140D01*
X113844770Y-129497140D02*
X112344770Y-129497140D01*
X113844770Y-130497140D02*
X113844770Y-130782860D01*
X113844770Y-130782860D02*
X113773340Y-130925710D01*
X113916200Y-111002860D02*
X112416200Y-110502860D01*
X113916200Y-112360000D02*
X113844770Y-112217140D01*
X113916200Y-112645720D02*
X113916200Y-112360000D01*
X113916200Y-114002860D02*
X112773340Y-114002860D01*
X113987630Y-128497140D02*
X113987630Y-127354290D01*
D10*
X114817200Y-121645000D02*
X114817200Y-131455000D01*
X114888630Y-104606430D02*
X114888630Y-114416430D01*
D14*
X115741910Y-121972430D02*
X115813340Y-122043860D01*
X115741910Y-121972430D02*
X115884770Y-121972430D01*
X115741910Y-123115290D02*
X115813340Y-123186710D01*
X115741910Y-123115290D02*
X115884770Y-123115290D01*
X115741910Y-124258140D02*
X115813340Y-124329570D01*
X115741910Y-124258140D02*
X115884770Y-124258140D01*
X115741910Y-125401000D02*
X115813340Y-125472430D01*
X115741910Y-125401000D02*
X115884770Y-125401000D01*
X115741910Y-126543860D02*
X115813340Y-126615290D01*
X115741910Y-126543860D02*
X115884770Y-126543860D01*
X115741910Y-127686710D02*
X115813340Y-127758140D01*
X115741910Y-127686710D02*
X115884770Y-127686710D01*
X115741910Y-128829570D02*
X115813340Y-128901000D01*
X115741910Y-128829570D02*
X115884770Y-128829570D01*
X115741910Y-129972430D02*
X115813340Y-130043860D01*
X115741910Y-129972430D02*
X115884770Y-129972430D01*
X115741910Y-131115290D02*
X115813340Y-131186710D01*
X115741910Y-131115290D02*
X115884770Y-131115290D01*
X115813340Y-104955140D02*
X115884770Y-105026570D01*
X115813340Y-104955140D02*
X115956200Y-104955140D01*
X115813340Y-106098000D02*
X115884770Y-106169430D01*
X115813340Y-106098000D02*
X115956200Y-106098000D01*
X115813340Y-107240860D02*
X115884770Y-107312290D01*
X115813340Y-107240860D02*
X115956200Y-107240860D01*
X115813340Y-108383720D02*
X115884770Y-108455140D01*
X115813340Y-108383720D02*
X115956200Y-108383720D01*
X115813340Y-109526570D02*
X115884770Y-109598000D01*
X115813340Y-109526570D02*
X115956200Y-109526570D01*
X115813340Y-110669430D02*
X115884770Y-110740860D01*
X115813340Y-110669430D02*
X115956200Y-110669430D01*
X115813340Y-111812290D02*
X115884770Y-111883720D01*
X115813340Y-111812290D02*
X115956200Y-111812290D01*
X115813340Y-112955140D02*
X115884770Y-113026570D01*
X115813340Y-112955140D02*
X115956200Y-112955140D01*
X115813340Y-114098000D02*
X115884770Y-114169430D01*
X115813340Y-114098000D02*
X115956200Y-114098000D01*
X115813340Y-121901000D02*
X115741910Y-121972430D01*
X115813340Y-122043860D02*
X115884770Y-121972430D01*
X115813340Y-123043860D02*
X115741910Y-123115290D01*
X115813340Y-123186710D02*
X115884770Y-123115290D01*
X115813340Y-124186710D02*
X115741910Y-124258140D01*
X115813340Y-124329570D02*
X115884770Y-124258140D01*
X115813340Y-125329570D02*
X115741910Y-125401000D01*
X115813340Y-125472430D02*
X115884770Y-125401000D01*
X115813340Y-126472430D02*
X115741910Y-126543860D01*
X115813340Y-126615290D02*
X115884770Y-126543860D01*
X115813340Y-127615290D02*
X115741910Y-127686710D01*
X115813340Y-127758140D02*
X115884770Y-127686710D01*
X115813340Y-128758140D02*
X115741910Y-128829570D01*
X115813340Y-128901000D02*
X115884770Y-128829570D01*
X115813340Y-129901000D02*
X115741910Y-129972430D01*
X115813340Y-130043860D02*
X115884770Y-129972430D01*
X115813340Y-131043860D02*
X115741910Y-131115290D01*
X115813340Y-131186710D02*
X115884770Y-131115290D01*
X115884770Y-104883720D02*
X115813340Y-104955140D01*
X115884770Y-105026570D02*
X115956200Y-104955140D01*
X115884770Y-106026570D02*
X115813340Y-106098000D01*
X115884770Y-106169430D02*
X115956200Y-106098000D01*
X115884770Y-107169430D02*
X115813340Y-107240860D01*
X115884770Y-107312290D02*
X115956200Y-107240860D01*
X115884770Y-108312290D02*
X115813340Y-108383720D01*
X115884770Y-108455140D02*
X115956200Y-108383720D01*
X115884770Y-109455140D02*
X115813340Y-109526570D01*
X115884770Y-109598000D02*
X115956200Y-109526570D01*
X115884770Y-110598000D02*
X115813340Y-110669430D01*
X115884770Y-110740860D02*
X115956200Y-110669430D01*
X115884770Y-111740860D02*
X115813340Y-111812290D01*
X115884770Y-111883720D02*
X115956200Y-111812290D01*
X115884770Y-112883720D02*
X115813340Y-112955140D01*
X115884770Y-113026570D02*
X115956200Y-112955140D01*
X115884770Y-114026570D02*
X115813340Y-114098000D01*
X115884770Y-114169430D02*
X115956200Y-114098000D01*
X115884770Y-121972430D02*
X115813340Y-121901000D01*
X115884770Y-123115290D02*
X115813340Y-123043860D01*
X115884770Y-124258140D02*
X115813340Y-124186710D01*
X115884770Y-125401000D02*
X115813340Y-125329570D01*
X115884770Y-126543860D02*
X115813340Y-126472430D01*
X115884770Y-127686710D02*
X115813340Y-127615290D01*
X115884770Y-128829570D02*
X115813340Y-128758140D01*
X115884770Y-129972430D02*
X115813340Y-129901000D01*
X115884770Y-131115290D02*
X115813340Y-131043860D01*
X115956200Y-104955140D02*
X115884770Y-104883720D01*
X115956200Y-106098000D02*
X115884770Y-106026570D01*
X115956200Y-107240860D02*
X115884770Y-107169430D01*
X115956200Y-108383720D02*
X115884770Y-108312290D01*
X115956200Y-109526570D02*
X115884770Y-109455140D01*
X115956200Y-110669430D02*
X115884770Y-110598000D01*
X115956200Y-111812290D02*
X115884770Y-111740860D01*
X115956200Y-112955140D02*
X115884770Y-112883720D01*
X115956200Y-114098000D02*
X115884770Y-114026570D01*
D10*
X116595200Y-121645000D02*
X116595200Y-131455000D01*
X116666630Y-104606430D02*
X116666630Y-114416430D01*
D14*
X117424770Y-121782860D02*
X117496200Y-121640000D01*
X117424770Y-121925710D02*
X117424770Y-121782860D01*
X117424770Y-123354290D02*
X117496200Y-123140000D01*
X117424770Y-123711430D02*
X117424770Y-123354290D01*
X117496200Y-111145720D02*
X117567630Y-110931430D01*
X117496200Y-111502860D02*
X117496200Y-111145720D01*
X117496200Y-113074290D02*
X118996200Y-112217140D01*
X117496200Y-113931430D02*
X117496200Y-114145720D01*
X117496200Y-114145720D02*
X117567630Y-114360000D01*
X117496200Y-121640000D02*
X117567630Y-121568570D01*
X117496200Y-122068570D02*
X117424770Y-121925710D01*
X117496200Y-123140000D02*
X117639060Y-122997140D01*
X117567630Y-110931430D02*
X117710490Y-110788570D01*
X117567630Y-113788570D02*
X117496200Y-113931430D01*
X117567630Y-114360000D02*
X117710490Y-114502860D01*
X117567630Y-121568570D02*
X117710490Y-121497140D01*
X117567630Y-122140000D02*
X117496200Y-122068570D01*
X117639060Y-122997140D02*
X117781910Y-122925710D01*
X117710490Y-110788570D02*
X117853340Y-110717140D01*
X117710490Y-114502860D02*
X117853340Y-114574290D01*
X117710490Y-121497140D02*
X117996200Y-121425710D01*
X117710490Y-122211430D02*
X117567630Y-122140000D01*
X117781910Y-122925710D02*
X118067630Y-122854290D01*
X117853340Y-110717140D02*
X118139060Y-110645720D01*
X117853340Y-114574290D02*
X118139060Y-114645720D01*
X117996200Y-121425710D02*
X118353340Y-121425710D01*
X117996200Y-122282860D02*
X117710490Y-122211430D01*
X118067630Y-122854290D02*
X118281910Y-122854290D01*
X118139060Y-110645720D02*
X118353340Y-110645720D01*
X118139060Y-114645720D02*
X118353340Y-114645720D01*
X118281910Y-122854290D02*
X118567630Y-122925710D01*
X118353340Y-110645720D02*
X118639060Y-110717140D01*
X118353340Y-113717140D02*
X118353340Y-114002860D01*
X118353340Y-114645720D02*
X118639060Y-114574290D01*
X118353340Y-121425710D02*
X118639060Y-121497140D01*
X118353340Y-122282860D02*
X117996200Y-122282860D01*
X118567630Y-122925710D02*
X118710490Y-122997140D01*
X118639060Y-110717140D02*
X118781920Y-110788570D01*
X118639060Y-114574290D02*
X118781920Y-114502860D01*
X118639060Y-121497140D02*
X118781910Y-121568570D01*
X118639060Y-122211430D02*
X118353340Y-122282860D01*
X118710490Y-122997140D02*
X118853340Y-123140000D01*
X118781910Y-121568570D02*
X118853340Y-121640000D01*
X118781910Y-122140000D02*
X118639060Y-122211430D01*
X118781920Y-110788570D02*
X118924770Y-110931430D01*
X118781920Y-114502860D02*
X118924770Y-114360000D01*
X118853340Y-113717140D02*
X118353340Y-113717140D01*
X118853340Y-121640000D02*
X118924770Y-121782860D01*
X118853340Y-122068570D02*
X118781910Y-122140000D01*
X118853340Y-123140000D02*
X118924770Y-123354290D01*
X118924770Y-110931430D02*
X118996200Y-111145720D01*
X118924770Y-113788570D02*
X118853340Y-113717140D01*
X118924770Y-114360000D02*
X118996200Y-114145720D01*
X118924770Y-121782860D02*
X118924770Y-121925710D01*
X118924770Y-121925710D02*
X118853340Y-122068570D01*
X118924770Y-123354290D02*
X118924770Y-123711430D01*
X118924770Y-123711430D02*
X117424770Y-123711430D01*
X118996200Y-111145720D02*
X118996200Y-111502860D01*
X118996200Y-111502860D02*
X117496200Y-111502860D01*
X118996200Y-112217140D02*
X117496200Y-112217140D01*
X118996200Y-113074290D02*
X117496200Y-113074290D01*
X118996200Y-114002860D02*
X118924770Y-113788570D01*
X118996200Y-114145720D02*
X118996200Y-114002860D01*
X119964770Y-121854290D02*
X120179060Y-121997140D01*
X119964770Y-123354290D02*
X120036200Y-123140000D01*
X119964770Y-123711430D02*
X119964770Y-123354290D01*
X120036200Y-111145720D02*
X120107630Y-110931430D01*
X120036200Y-111502860D02*
X120036200Y-111145720D01*
X120036200Y-113074290D02*
X121536200Y-112217140D01*
X120036200Y-113931430D02*
X120036200Y-114145720D01*
X120036200Y-114145720D02*
X120107630Y-114360000D01*
X120036200Y-123140000D02*
X120179060Y-122997140D01*
X120107630Y-110931430D02*
X120250490Y-110788570D01*
X120107630Y-113788570D02*
X120036200Y-113931430D01*
X120107630Y-114360000D02*
X120250490Y-114502860D01*
X120179060Y-121997140D02*
X120321910Y-122140000D01*
X120179060Y-122997140D02*
X120321910Y-122925710D01*
X120250490Y-110788570D02*
X120393340Y-110717140D01*
X120250490Y-114502860D02*
X120393340Y-114574290D01*
X120321910Y-122140000D02*
X120393340Y-122282860D01*
X120321910Y-122925710D02*
X120607630Y-122854290D01*
X120393340Y-110717140D02*
X120679060Y-110645720D01*
X120393340Y-114574290D02*
X120679060Y-114645720D01*
X120607630Y-122854290D02*
X120821910Y-122854290D01*
X120679060Y-110645720D02*
X120893340Y-110645720D01*
X120679060Y-114645720D02*
X120893340Y-114645720D01*
X120821910Y-122854290D02*
X121107630Y-122925710D01*
X120893340Y-110645720D02*
X121179060Y-110717140D01*
X120893340Y-113717140D02*
X120893340Y-114002860D01*
X120893340Y-114645720D02*
X121179060Y-114574290D01*
X121107630Y-122925710D02*
X121250490Y-122997140D01*
X121179060Y-110717140D02*
X121321920Y-110788570D01*
X121179060Y-114574290D02*
X121321920Y-114502860D01*
X121250490Y-122997140D02*
X121393340Y-123140000D01*
X121321920Y-110788570D02*
X121464770Y-110931430D01*
X121321920Y-114502860D02*
X121464770Y-114360000D01*
X121393340Y-113717140D02*
X120893340Y-113717140D01*
X121393340Y-123140000D02*
X121464770Y-123354290D01*
X121464770Y-110931430D02*
X121536200Y-111145720D01*
X121464770Y-113788570D02*
X121393340Y-113717140D01*
X121464770Y-114360000D02*
X121536200Y-114145720D01*
X121464770Y-121425710D02*
X121464770Y-122282860D01*
X121464770Y-121854290D02*
X119964770Y-121854290D01*
X121464770Y-123354290D02*
X121464770Y-123711430D01*
X121464770Y-123711430D02*
X119964770Y-123711430D01*
X121536200Y-111145720D02*
X121536200Y-111502860D01*
X121536200Y-111502860D02*
X120036200Y-111502860D01*
X121536200Y-112217140D02*
X120036200Y-112217140D01*
X121536200Y-113074290D02*
X120036200Y-113074290D01*
X121536200Y-114002860D02*
X121464770Y-113788570D01*
X121536200Y-114145720D02*
X121536200Y-114002860D01*
X121927630Y-112217140D02*
X121927630Y-110717140D01*
X121927630Y-113431430D02*
X121927630Y-112217140D01*
X121927630Y-114931430D02*
X121927630Y-113431430D01*
X122504770Y-121711430D02*
X122576200Y-121568570D01*
X122504770Y-122068570D02*
X122504770Y-121711430D01*
X122504770Y-123354290D02*
X122576200Y-123140000D01*
X122504770Y-123711430D02*
X122504770Y-123354290D01*
X122576200Y-111002860D02*
X123433340Y-111860000D01*
X122576200Y-114002860D02*
X122647630Y-113788570D01*
X122576200Y-114145720D02*
X122576200Y-114002860D01*
X122576200Y-121568570D02*
X122647630Y-121497140D01*
X122576200Y-122211430D02*
X122504770Y-122068570D01*
X122576200Y-123140000D02*
X122719060Y-122997140D01*
X122647630Y-113788570D02*
X122719060Y-113717140D01*
X122647630Y-114360000D02*
X122576200Y-114145720D01*
X122647630Y-121497140D02*
X122790490Y-121425710D01*
X122647630Y-122282860D02*
X122576200Y-122211430D01*
X122719060Y-122997140D02*
X122861910Y-122925710D01*
X122790490Y-114502860D02*
X122647630Y-114360000D01*
X122790490Y-121425710D02*
X122933340Y-121425710D01*
X122861910Y-122925710D02*
X123147630Y-122854290D01*
X122933340Y-114574290D02*
X122790490Y-114502860D01*
X122933340Y-121425710D02*
X123147630Y-121497140D01*
X123147630Y-121497140D02*
X124004770Y-122354290D01*
X123147630Y-122854290D02*
X123361910Y-122854290D01*
X123219060Y-114645720D02*
X122933340Y-114574290D01*
X123361910Y-122854290D02*
X123647630Y-122925710D01*
X123433340Y-114645720D02*
X123219060Y-114645720D01*
X123647630Y-122925710D02*
X123790490Y-122997140D01*
X123719060Y-114574290D02*
X123433340Y-114645720D01*
X123790490Y-122997140D02*
X123933340Y-123140000D01*
X123861920Y-114502860D02*
X123719060Y-114574290D01*
X123933340Y-113717140D02*
X124004770Y-113788570D01*
X123933340Y-123140000D02*
X124004770Y-123354290D01*
X124004770Y-113788570D02*
X124076200Y-114002860D01*
X124004770Y-114360000D02*
X123861920Y-114502860D01*
X124004770Y-122354290D02*
X124004770Y-121425710D01*
X124004770Y-123354290D02*
X124004770Y-123711430D01*
X124004770Y-123711430D02*
X122504770Y-123711430D01*
X124076200Y-111002860D02*
X123219060Y-111645720D01*
X124076200Y-111860000D02*
X122576200Y-111860000D01*
X124076200Y-112360000D02*
X124076200Y-113074290D01*
X124076200Y-113074290D02*
X122576200Y-113074290D01*
X124076200Y-114002860D02*
X124076200Y-114145720D01*
X124076200Y-114145720D02*
X124004770Y-114360000D01*
X125044770Y-121568570D02*
X125044770Y-121854290D01*
X125044770Y-121854290D02*
X125116200Y-121997140D01*
X125044770Y-123354290D02*
X125116200Y-123140000D01*
X125044770Y-123711430D02*
X125044770Y-123354290D01*
X125116200Y-112860000D02*
X125187630Y-112717140D01*
X125116200Y-113002860D02*
X125116200Y-112860000D01*
X125116200Y-114288570D02*
X126616200Y-113788570D01*
X125116200Y-121997140D02*
X125187630Y-122068570D01*
X125116200Y-123140000D02*
X125259060Y-122997140D01*
X125187630Y-112717140D02*
X125259060Y-112645720D01*
X125187630Y-113145720D02*
X125116200Y-113002860D01*
X125187630Y-122068570D02*
X125401910Y-122211430D01*
X125259060Y-112645720D02*
X125401920Y-112574290D01*
X125259060Y-113217140D02*
X125187630Y-113145720D01*
X125259060Y-122997140D02*
X125401910Y-122925710D01*
X125401910Y-122211430D02*
X125687630Y-122282860D01*
X125401910Y-122925710D02*
X125687630Y-122854290D01*
X125401920Y-112574290D02*
X125687630Y-112502860D01*
X125401920Y-113288570D02*
X125259060Y-113217140D01*
X125616200Y-121711430D02*
X125616200Y-121997140D01*
X125616200Y-121997140D02*
X125687630Y-122140000D01*
X125687630Y-112502860D02*
X126044770Y-112502860D01*
X125687630Y-113360000D02*
X125401920Y-113288570D01*
X125687630Y-121568570D02*
X125616200Y-121711430D01*
X125687630Y-122140000D02*
X125759060Y-122211430D01*
X125687630Y-122282860D02*
X126259060Y-122282860D01*
X125687630Y-122854290D02*
X125901910Y-122854290D01*
X125759060Y-121497140D02*
X125687630Y-121568570D01*
X125759060Y-122211430D02*
X125901910Y-122282860D01*
X125901910Y-121425710D02*
X125759060Y-121497140D01*
X125901910Y-122854290D02*
X126187630Y-122925710D01*
X126044770Y-112502860D02*
X126330490Y-112574290D01*
X126044770Y-113360000D02*
X125687630Y-113360000D01*
X126187630Y-114645720D02*
X126187630Y-113931430D01*
X126187630Y-122925710D02*
X126330490Y-122997140D01*
X126259060Y-121425710D02*
X125901910Y-121425710D01*
X126259060Y-122282860D02*
X126401910Y-122211430D01*
X126330490Y-112574290D02*
X126473340Y-112645720D01*
X126330490Y-113288570D02*
X126044770Y-113360000D01*
X126330490Y-122997140D02*
X126473340Y-123140000D01*
X126401910Y-121497140D02*
X126259060Y-121425710D01*
X126401910Y-122211430D02*
X126473340Y-122140000D01*
X126473340Y-112645720D02*
X126544770Y-112717140D01*
X126473340Y-113217140D02*
X126330490Y-113288570D01*
X126473340Y-121568570D02*
X126401910Y-121497140D01*
X126473340Y-122140000D02*
X126544770Y-121997140D01*
X126473340Y-123140000D02*
X126544770Y-123354290D01*
X126544770Y-112717140D02*
X126616200Y-112860000D01*
X126544770Y-113145720D02*
X126473340Y-113217140D01*
X126544770Y-121711430D02*
X126473340Y-121568570D01*
X126544770Y-121997140D02*
X126544770Y-121711430D01*
X126544770Y-123354290D02*
X126544770Y-123711430D01*
X126544770Y-123711430D02*
X125044770Y-123711430D01*
X126616200Y-112860000D02*
X126616200Y-113002860D01*
X126616200Y-113002860D02*
X126544770Y-113145720D01*
X126616200Y-114788570D02*
X125116200Y-114288570D01*
X127584770Y-121497140D02*
X127584770Y-122211430D01*
X127584770Y-122211430D02*
X128299060Y-122282860D01*
X127584770Y-123354290D02*
X127656200Y-123140000D01*
X127584770Y-123711430D02*
X127584770Y-123354290D01*
X127656200Y-112931430D02*
X127870490Y-113074290D01*
X127656200Y-114288570D02*
X129156200Y-113788570D01*
X127656200Y-123140000D02*
X127799060Y-122997140D01*
X127799060Y-122997140D02*
X127941910Y-122925710D01*
X127870490Y-113074290D02*
X128013340Y-113217140D01*
X127941910Y-122925710D02*
X128227630Y-122854290D01*
X128013340Y-113217140D02*
X128084770Y-113360000D01*
X128156200Y-121711430D02*
X128227630Y-121568570D01*
X128156200Y-122068570D02*
X128156200Y-121711430D01*
X128227630Y-121568570D02*
X128299060Y-121497140D01*
X128227630Y-122211430D02*
X128156200Y-122068570D01*
X128227630Y-122854290D02*
X128441910Y-122854290D01*
X128299060Y-121497140D02*
X128441910Y-121425710D01*
X128299060Y-122282860D02*
X128227630Y-122211430D01*
X128441910Y-121425710D02*
X128799060Y-121425710D01*
X128441910Y-122854290D02*
X128727630Y-122925710D01*
X128727630Y-114645720D02*
X128727630Y-113931430D01*
X128727630Y-122925710D02*
X128870490Y-122997140D01*
X128799060Y-121425710D02*
X128941910Y-121497140D01*
X128870490Y-122997140D02*
X129013340Y-123140000D01*
X128941910Y-121497140D02*
X129013340Y-121568570D01*
X129013340Y-121568570D02*
X129084770Y-121711430D01*
X129013340Y-122211430D02*
X128941910Y-122282860D01*
X129013340Y-123140000D02*
X129084770Y-123354290D01*
X129084770Y-121711430D02*
X129084770Y-122068570D01*
X129084770Y-122068570D02*
X129013340Y-122211430D01*
X129084770Y-123354290D02*
X129084770Y-123711430D01*
X129084770Y-123711430D02*
X127584770Y-123711430D01*
X129156200Y-112502860D02*
X129156200Y-113360000D01*
X129156200Y-112931430D02*
X127656200Y-112931430D01*
X129156200Y-114788570D02*
X127656200Y-114288570D01*
X130124770Y-121425710D02*
X130696200Y-121925710D01*
X130124770Y-122354290D02*
X130124770Y-121425710D01*
X130124770Y-123354290D02*
X130196200Y-123140000D01*
X130124770Y-123711430D02*
X130124770Y-123354290D01*
X130196200Y-112788570D02*
X130267630Y-112645720D01*
X130196200Y-113145720D02*
X130196200Y-112788570D01*
X130196200Y-114288570D02*
X131696200Y-113788570D01*
X130196200Y-123140000D02*
X130339060Y-122997140D01*
X130267630Y-112645720D02*
X130339060Y-112574290D01*
X130267630Y-113288570D02*
X130196200Y-113145720D01*
X130339060Y-112574290D02*
X130481920Y-112502860D01*
X130339060Y-113360000D02*
X130267630Y-113288570D01*
X130339060Y-122997140D02*
X130481910Y-122925710D01*
X130481910Y-122925710D02*
X130767630Y-122854290D01*
X130481920Y-112502860D02*
X130624770Y-112502860D01*
X130624770Y-112502860D02*
X130839060Y-112574290D01*
X130696200Y-121711430D02*
X130767630Y-121568570D01*
X130696200Y-121925710D02*
X130696200Y-121711430D01*
X130767630Y-121568570D02*
X130839060Y-121497140D01*
X130767630Y-122854290D02*
X130981910Y-122854290D01*
X130839060Y-112574290D02*
X131696200Y-113431430D01*
X130839060Y-121497140D02*
X130981910Y-121425710D01*
X130981910Y-121425710D02*
X131339060Y-121425710D01*
X130981910Y-122854290D02*
X131267630Y-122925710D01*
X131267630Y-114645720D02*
X131267630Y-113931430D01*
X131267630Y-122925710D02*
X131410490Y-122997140D01*
X131339060Y-121425710D02*
X131481910Y-121497140D01*
X131410490Y-122997140D02*
X131553340Y-123140000D01*
X131481910Y-121497140D02*
X131553340Y-121568570D01*
X131553340Y-121568570D02*
X131624770Y-121711430D01*
X131553340Y-122282860D02*
X131481910Y-122354290D01*
X131553340Y-123140000D02*
X131624770Y-123354290D01*
X131624770Y-121711430D02*
X131624770Y-122140000D01*
X131624770Y-122140000D02*
X131553340Y-122282860D01*
X131624770Y-123354290D02*
X131624770Y-123711430D01*
X131624770Y-123711430D02*
X130124770Y-123711430D01*
X131696200Y-113431430D02*
X131696200Y-112502860D01*
X131696200Y-114788570D02*
X130196200Y-114288570D01*
X132593340Y-121925710D02*
X133664770Y-122282860D01*
X132664770Y-123354290D02*
X132736200Y-123140000D01*
X132664770Y-123711430D02*
X132664770Y-123354290D01*
X132736200Y-112502860D02*
X133307630Y-113002860D01*
X132736200Y-113431430D02*
X132736200Y-112502860D01*
X132736200Y-114288570D02*
X134236200Y-113788570D01*
X132736200Y-123140000D02*
X132879060Y-122997140D01*
X132879060Y-122997140D02*
X133021910Y-122925710D01*
X133021910Y-122925710D02*
X133307630Y-122854290D01*
X133164770Y-121568570D02*
X134164770Y-121568570D01*
X133307630Y-112788570D02*
X133379060Y-112645720D01*
X133307630Y-113002860D02*
X133307630Y-112788570D01*
X133307630Y-122854290D02*
X133521910Y-122854290D01*
X133379060Y-112645720D02*
X133450490Y-112574290D01*
X133450490Y-112574290D02*
X133593340Y-112502860D01*
X133521910Y-122854290D02*
X133807630Y-122925710D01*
X133593340Y-112502860D02*
X133950490Y-112502860D01*
X133664770Y-122282860D02*
X133664770Y-121354290D01*
X133807630Y-114645720D02*
X133807630Y-113931430D01*
X133807630Y-122925710D02*
X133950490Y-122997140D01*
X133950490Y-112502860D02*
X134093340Y-112574290D01*
X133950490Y-122997140D02*
X134093340Y-123140000D01*
X134093340Y-112574290D02*
X134164770Y-112645720D01*
X134093340Y-123140000D02*
X134164770Y-123354290D01*
X134164770Y-112645720D02*
X134236200Y-112788570D01*
X134164770Y-113360000D02*
X134093340Y-113431430D01*
X134164770Y-123354290D02*
X134164770Y-123711430D01*
X134164770Y-123711430D02*
X132664770Y-123711430D01*
X134236200Y-112788570D02*
X134236200Y-113217140D01*
X134236200Y-113217140D02*
X134164770Y-113360000D01*
X134236200Y-114788570D02*
X132736200Y-114288570D01*
X134556200Y-122282860D02*
X134556200Y-121140000D01*
X134556200Y-123854290D02*
X134556200Y-122282860D01*
X134556200Y-124568570D02*
X134556200Y-123854290D01*
X134627630Y-108074290D02*
X134627630Y-106717140D01*
X134627630Y-109574290D02*
X134627630Y-108074290D01*
X134627630Y-111145720D02*
X134627630Y-109574290D01*
X134627630Y-112645720D02*
X134627630Y-111145720D01*
X134627630Y-114217140D02*
X134627630Y-112645720D01*
X134627630Y-114931430D02*
X134627630Y-114217140D01*
X135204770Y-122140000D02*
X135204770Y-121282860D01*
X135204770Y-123497140D02*
X136704770Y-122640000D01*
X135276200Y-107717140D02*
X135276200Y-107002860D01*
X135276200Y-108574290D02*
X135276200Y-108788570D01*
X135276200Y-108788570D02*
X135347630Y-109002860D01*
X135276200Y-110217140D02*
X135347630Y-110074290D01*
X135276200Y-110502860D02*
X135276200Y-110217140D01*
X135276200Y-111717140D02*
X135347630Y-111574290D01*
X135276200Y-112288570D02*
X135276200Y-111717140D01*
X135276200Y-113288570D02*
X135347630Y-113145720D01*
X135276200Y-113574290D02*
X135276200Y-113288570D01*
X135347630Y-108431430D02*
X135276200Y-108574290D01*
X135347630Y-109002860D02*
X135490490Y-109145720D01*
X135347630Y-110074290D02*
X135490490Y-109931430D01*
X135347630Y-110645720D02*
X135276200Y-110502860D01*
X135347630Y-111574290D02*
X135419060Y-111502860D01*
X135347630Y-113145720D02*
X135490490Y-113002860D01*
X135347630Y-113717140D02*
X135276200Y-113574290D01*
X135419060Y-111502860D02*
X135561920Y-111431430D01*
X135490490Y-109145720D02*
X135633340Y-109217140D01*
X135490490Y-109931430D02*
X135776200Y-109860000D01*
X135490490Y-110788570D02*
X135347630Y-110645720D01*
X135490490Y-113002860D02*
X135776200Y-112931430D01*
X135490490Y-113860000D02*
X135347630Y-113717140D01*
X135561920Y-111431430D02*
X135776200Y-111431430D01*
X135633340Y-109217140D02*
X135919060Y-109288570D01*
X135776200Y-109860000D02*
X136276200Y-109860000D01*
X135776200Y-110860000D02*
X135490490Y-110788570D01*
X135776200Y-111431430D02*
X135919060Y-111502860D01*
X135776200Y-112931430D02*
X136276200Y-112931430D01*
X135776200Y-113931430D02*
X135490490Y-113860000D01*
X135919060Y-109288570D02*
X136133340Y-109288570D01*
X135919060Y-111502860D02*
X135990490Y-111574290D01*
X135990490Y-107717140D02*
X135990490Y-107217140D01*
X135990490Y-111574290D02*
X136061920Y-111717140D01*
X136061920Y-111717140D02*
X136061920Y-112288570D01*
X136133340Y-108360000D02*
X136133340Y-108645720D01*
X136133340Y-109288570D02*
X136419060Y-109217140D01*
X136276200Y-109860000D02*
X136561920Y-109931430D01*
X136276200Y-110860000D02*
X135776200Y-110860000D01*
X136276200Y-112931430D02*
X136561920Y-113002860D01*
X136276200Y-113931430D02*
X135776200Y-113931430D01*
X136419060Y-109217140D02*
X136561920Y-109145720D01*
X136419060Y-110431430D02*
X136419060Y-110574290D01*
X136490490Y-110288570D02*
X136419060Y-110431430D01*
X136561920Y-109145720D02*
X136704770Y-109002860D01*
X136561920Y-109931430D02*
X136704770Y-110074290D01*
X136561920Y-110788570D02*
X136276200Y-110860000D01*
X136561920Y-113002860D02*
X136704770Y-113145720D01*
X136561920Y-113860000D02*
X136276200Y-113931430D01*
X136633340Y-108360000D02*
X136133340Y-108360000D01*
X136704770Y-108431430D02*
X136633340Y-108360000D01*
X136704770Y-109002860D02*
X136776200Y-108788570D01*
X136704770Y-110074290D02*
X136490490Y-110288570D01*
X136704770Y-110074290D02*
X136776200Y-110217140D01*
X136704770Y-110645720D02*
X136561920Y-110788570D01*
X136704770Y-113145720D02*
X136776200Y-113288570D01*
X136704770Y-113717140D02*
X136561920Y-113860000D01*
X136704770Y-121711430D02*
X135204770Y-121711430D01*
X136704770Y-122640000D02*
X135204770Y-122640000D01*
X136704770Y-123497140D02*
X135204770Y-123497140D01*
X136704770Y-124211430D02*
X135204770Y-124211430D01*
X136776200Y-107002860D02*
X136776200Y-107717140D01*
X136776200Y-107717140D02*
X135276200Y-107717140D01*
X136776200Y-108645720D02*
X136704770Y-108431430D01*
X136776200Y-108788570D02*
X136776200Y-108645720D01*
X136776200Y-110217140D02*
X136776200Y-110502860D01*
X136776200Y-110502860D02*
X136704770Y-110645720D01*
X136776200Y-111431430D02*
X136061920Y-111931430D01*
X136776200Y-112288570D02*
X135276200Y-112288570D01*
X136776200Y-113288570D02*
X136776200Y-113574290D01*
X136776200Y-113574290D02*
X136704770Y-113717140D01*
X136776200Y-114574290D02*
X135276200Y-114574290D01*
X136847630Y-109931430D02*
X136704770Y-110074290D01*
X136919060Y-109788570D02*
X136847630Y-109931430D01*
X137096200Y-121854290D02*
X137096200Y-121140000D01*
X137096200Y-123568570D02*
X137096200Y-121854290D01*
X137096200Y-125140000D02*
X137096200Y-123568570D01*
X137744770Y-122211430D02*
X139244770Y-122211430D01*
X137744770Y-123211430D02*
X138816200Y-122711430D01*
X137744770Y-124782860D02*
X139244770Y-123925710D01*
X137816200Y-111145720D02*
X137887630Y-110931430D01*
X137816200Y-111502860D02*
X137816200Y-111145720D01*
X137816200Y-113074290D02*
X139316200Y-112217140D01*
X137816200Y-113931430D02*
X137816200Y-114145720D01*
X137816200Y-114145720D02*
X137887630Y-114360000D01*
X137887630Y-110931430D02*
X138030490Y-110788570D01*
X137887630Y-113788570D02*
X137816200Y-113931430D01*
X137887630Y-114360000D02*
X138030490Y-114502860D01*
X138030490Y-110788570D02*
X138173340Y-110717140D01*
X138030490Y-114502860D02*
X138173340Y-114574290D01*
X138173340Y-110717140D02*
X138459060Y-110645720D01*
X138173340Y-114574290D02*
X138459060Y-114645720D01*
X138459060Y-110645720D02*
X138673340Y-110645720D01*
X138459060Y-114645720D02*
X138673340Y-114645720D01*
X138673340Y-110645720D02*
X138959060Y-110717140D01*
X138673340Y-113717140D02*
X138673340Y-114002860D01*
X138673340Y-114645720D02*
X138959060Y-114574290D01*
X138816200Y-122711430D02*
X137744770Y-122211430D01*
X138959060Y-110717140D02*
X139101920Y-110788570D01*
X138959060Y-114574290D02*
X139101920Y-114502860D01*
X139101920Y-110788570D02*
X139244770Y-110931430D01*
X139101920Y-114502860D02*
X139244770Y-114360000D01*
X139173340Y-113717140D02*
X138673340Y-113717140D01*
X139244770Y-110931430D02*
X139316200Y-111145720D01*
X139244770Y-113788570D02*
X139173340Y-113717140D01*
X139244770Y-114360000D02*
X139316200Y-114145720D01*
X139244770Y-121497140D02*
X137744770Y-121497140D01*
X139244770Y-123211430D02*
X137744770Y-123211430D01*
X139244770Y-123925710D02*
X137744770Y-123925710D01*
X139244770Y-124782860D02*
X137744770Y-124782860D01*
X139316200Y-111145720D02*
X139316200Y-111502860D01*
X139316200Y-111502860D02*
X137816200Y-111502860D01*
X139316200Y-112217140D02*
X137816200Y-112217140D01*
X139316200Y-113074290D02*
X137816200Y-113074290D01*
X139316200Y-114002860D02*
X139244770Y-113788570D01*
X139316200Y-114145720D02*
X139316200Y-114002860D01*
X139636200Y-122282860D02*
X139636200Y-121140000D01*
X139636200Y-123497140D02*
X139636200Y-122282860D01*
X139636200Y-124782860D02*
X139636200Y-123497140D01*
X139636200Y-126354290D02*
X139636200Y-124782860D01*
X139707630Y-106074290D02*
X139707630Y-104645720D01*
X139707630Y-107788570D02*
X139707630Y-106074290D01*
X139707630Y-109360000D02*
X139707630Y-107788570D01*
X139707630Y-110860000D02*
X139707630Y-109360000D01*
X139707630Y-112002860D02*
X139707630Y-110860000D01*
X139707630Y-113360000D02*
X139707630Y-112002860D01*
X139707630Y-114931430D02*
X139707630Y-113360000D01*
X140284770Y-122140000D02*
X140284770Y-121282860D01*
X140284770Y-124140000D02*
X141784770Y-123640000D01*
X140356200Y-105217140D02*
X140427630Y-105074290D01*
X140356200Y-105574290D02*
X140356200Y-105217140D01*
X140356200Y-106431430D02*
X141856200Y-106431430D01*
X140356200Y-107431430D02*
X141427630Y-106931430D01*
X140356200Y-108431430D02*
X140427630Y-108288570D01*
X140356200Y-108717140D02*
X140356200Y-108431430D01*
X140356200Y-109931430D02*
X140427630Y-109788570D01*
X140356200Y-110502860D02*
X140356200Y-109931430D01*
X140356200Y-113002860D02*
X140356200Y-112288570D01*
X140356200Y-114002860D02*
X140427630Y-113860000D01*
X140356200Y-114288570D02*
X140356200Y-114002860D01*
X140427630Y-105074290D02*
X140499060Y-105002860D01*
X140427630Y-105717140D02*
X140356200Y-105574290D01*
X140427630Y-108288570D02*
X140570490Y-108145720D01*
X140427630Y-108860000D02*
X140356200Y-108717140D01*
X140427630Y-109788570D02*
X140499060Y-109717140D01*
X140427630Y-113860000D02*
X140570490Y-113717140D01*
X140427630Y-114431430D02*
X140356200Y-114288570D01*
X140499060Y-105002860D02*
X140641920Y-104931430D01*
X140499060Y-105788570D02*
X140427630Y-105717140D01*
X140499060Y-109717140D02*
X140641920Y-109645720D01*
X140570490Y-108145720D02*
X140856200Y-108074290D01*
X140570490Y-109002860D02*
X140427630Y-108860000D01*
X140570490Y-113717140D02*
X140856200Y-113645720D01*
X140570490Y-114574290D02*
X140427630Y-114431430D01*
X140641920Y-104931430D02*
X140784770Y-104931430D01*
X140641920Y-109645720D02*
X140856200Y-109645720D01*
X140784770Y-104931430D02*
X140999060Y-105002860D01*
X140856200Y-108074290D02*
X141356200Y-108074290D01*
X140856200Y-109074290D02*
X140570490Y-109002860D01*
X140856200Y-109645720D02*
X140999060Y-109717140D01*
X140856200Y-113645720D02*
X141356200Y-113645720D01*
X140856200Y-114645720D02*
X140570490Y-114574290D01*
X140999060Y-105002860D02*
X141856200Y-105860000D01*
X140999060Y-109717140D02*
X141070490Y-109788570D01*
X140999060Y-125997140D02*
X140999060Y-125140000D01*
X141070490Y-109788570D02*
X141141920Y-109931430D01*
X141070490Y-113002860D02*
X141070490Y-112502860D01*
X141141920Y-109931430D02*
X141141920Y-110502860D01*
X141356200Y-108074290D02*
X141641920Y-108145720D01*
X141356200Y-109074290D02*
X140856200Y-109074290D01*
X141356200Y-113645720D02*
X141641920Y-113717140D01*
X141356200Y-114645720D02*
X140856200Y-114645720D01*
X141356200Y-124497140D02*
X141356200Y-123782860D01*
X141427630Y-106931430D02*
X140356200Y-106431430D01*
X141641920Y-108145720D02*
X141784770Y-108288570D01*
X141641920Y-109002860D02*
X141356200Y-109074290D01*
X141641920Y-113717140D02*
X141784770Y-113860000D01*
X141641920Y-114574290D02*
X141356200Y-114645720D01*
X141784770Y-108288570D02*
X141856200Y-108431430D01*
X141784770Y-108860000D02*
X141641920Y-109002860D01*
X141784770Y-113860000D02*
X141856200Y-114002860D01*
X141784770Y-114431430D02*
X141641920Y-114574290D01*
X141784770Y-121711430D02*
X140284770Y-121711430D01*
X141784770Y-122425710D02*
X141784770Y-123140000D01*
X141784770Y-123140000D02*
X140284770Y-123140000D01*
X141784770Y-124640000D02*
X140284770Y-124140000D01*
X141784770Y-125140000D02*
X140284770Y-125140000D01*
X141784770Y-125997140D02*
X140284770Y-125997140D01*
X141856200Y-105860000D02*
X141856200Y-104931430D01*
X141856200Y-107431430D02*
X140356200Y-107431430D01*
X141856200Y-108431430D02*
X141856200Y-108717140D01*
X141856200Y-108717140D02*
X141784770Y-108860000D01*
X141856200Y-109645720D02*
X141141920Y-110145720D01*
X141856200Y-110502860D02*
X140356200Y-110502860D01*
X141856200Y-112288570D02*
X141856200Y-113002860D01*
X141856200Y-113002860D02*
X140356200Y-113002860D01*
X141856200Y-114002860D02*
X141856200Y-114288570D01*
X141856200Y-114288570D02*
X141784770Y-114431430D01*
X141999060Y-112002860D02*
X141999060Y-110860000D01*
X142176200Y-122711430D02*
X142176200Y-121140000D01*
X142176200Y-124068570D02*
X142176200Y-122711430D01*
X142176200Y-125568570D02*
X142176200Y-124068570D01*
X142176200Y-127282860D02*
X142176200Y-125568570D01*
X142247630Y-114931430D02*
X142247630Y-113645720D01*
X142824770Y-121782860D02*
X142896200Y-121640000D01*
X142824770Y-122068570D02*
X142824770Y-121782860D01*
X142824770Y-123711430D02*
X142824770Y-122997140D01*
X142824770Y-124640000D02*
X142896200Y-124497140D01*
X142824770Y-125211430D02*
X142824770Y-124640000D01*
X142824770Y-125925710D02*
X144324770Y-125925710D01*
X142824770Y-126925710D02*
X143896200Y-126425710D01*
X142896200Y-114788570D02*
X143681920Y-114288570D01*
X142896200Y-121640000D02*
X143039060Y-121497140D01*
X142896200Y-122211430D02*
X142824770Y-122068570D01*
X142896200Y-124497140D02*
X142967630Y-124425710D01*
X142967630Y-124425710D02*
X143110490Y-124354290D01*
X143039060Y-121497140D02*
X143324770Y-121425710D01*
X143039060Y-122354290D02*
X142896200Y-122211430D01*
X143110490Y-124354290D02*
X143324770Y-124354290D01*
X143324770Y-121425710D02*
X143824770Y-121425710D01*
X143324770Y-122425710D02*
X143039060Y-122354290D01*
X143324770Y-124354290D02*
X143467630Y-124425710D01*
X143467630Y-124425710D02*
X143539060Y-124497140D01*
X143539060Y-123711430D02*
X143539060Y-123211430D01*
X143539060Y-124497140D02*
X143610490Y-124640000D01*
X143610490Y-124640000D02*
X143610490Y-125211430D01*
X143681920Y-114288570D02*
X142896200Y-113788570D01*
X143681920Y-114288570D02*
X144396200Y-114288570D01*
X143824770Y-121425710D02*
X144110490Y-121497140D01*
X143824770Y-122425710D02*
X143324770Y-122425710D01*
X143896200Y-126425710D02*
X142824770Y-125925710D01*
X143967630Y-121997140D02*
X143967630Y-122140000D01*
X144039060Y-121854290D02*
X143967630Y-121997140D01*
X144110490Y-121497140D02*
X144253340Y-121640000D01*
X144110490Y-122354290D02*
X143824770Y-122425710D01*
X144253340Y-121640000D02*
X144039060Y-121854290D01*
X144253340Y-121640000D02*
X144324770Y-121782860D01*
X144253340Y-122211430D02*
X144110490Y-122354290D01*
X144324770Y-121782860D02*
X144324770Y-122068570D01*
X144324770Y-122068570D02*
X144253340Y-122211430D01*
X144324770Y-122997140D02*
X144324770Y-123711430D01*
X144324770Y-123711430D02*
X142824770Y-123711430D01*
X144324770Y-124354290D02*
X143610490Y-124854290D01*
X144324770Y-125211430D02*
X142824770Y-125211430D01*
X144324770Y-126925710D02*
X142824770Y-126925710D01*
X144396200Y-121497140D02*
X144253340Y-121640000D01*
X144467630Y-121354290D02*
X144396200Y-121497140D01*
X144716200Y-122711430D02*
X144716200Y-121140000D01*
X144716200Y-124211430D02*
X144716200Y-122711430D01*
X144716200Y-125782860D02*
X144716200Y-124211430D01*
X144716200Y-126497140D02*
X144716200Y-125782860D01*
X145364770Y-121782860D02*
X145436200Y-121640000D01*
X145364770Y-122068570D02*
X145364770Y-121782860D01*
X145364770Y-123282860D02*
X145436200Y-123140000D01*
X145364770Y-123854290D02*
X145364770Y-123282860D01*
X145364770Y-124854290D02*
X145436200Y-124711430D01*
X145364770Y-125140000D02*
X145364770Y-124854290D01*
X145436200Y-114788570D02*
X146936200Y-114288570D01*
X145436200Y-121640000D02*
X145579060Y-121497140D01*
X145436200Y-122211430D02*
X145364770Y-122068570D01*
X145436200Y-123140000D02*
X145507630Y-123068570D01*
X145436200Y-124711430D02*
X145579060Y-124568570D01*
X145436200Y-125282860D02*
X145364770Y-125140000D01*
X145507630Y-123068570D02*
X145650490Y-122997140D01*
X145579060Y-121497140D02*
X145864770Y-121425710D01*
X145579060Y-122354290D02*
X145436200Y-122211430D01*
X145579060Y-124568570D02*
X145864770Y-124497140D01*
X145579060Y-125425710D02*
X145436200Y-125282860D01*
X145650490Y-122997140D02*
X145864770Y-122997140D01*
X145864770Y-121425710D02*
X146364770Y-121425710D01*
X145864770Y-122425710D02*
X145579060Y-122354290D01*
X145864770Y-122997140D02*
X146007630Y-123068570D01*
X145864770Y-124497140D02*
X146364770Y-124497140D01*
X145864770Y-125497140D02*
X145579060Y-125425710D01*
X146007630Y-123068570D02*
X146079060Y-123140000D01*
X146079060Y-123140000D02*
X146150490Y-123282860D01*
X146150490Y-123282860D02*
X146150490Y-123854290D01*
X146364770Y-121425710D02*
X146650490Y-121497140D01*
X146364770Y-122425710D02*
X145864770Y-122425710D01*
X146364770Y-124497140D02*
X146650490Y-124568570D01*
X146364770Y-125497140D02*
X145864770Y-125497140D01*
X146507630Y-121997140D02*
X146507630Y-122140000D01*
X146579060Y-121854290D02*
X146507630Y-121997140D01*
X146650490Y-121497140D02*
X146793340Y-121640000D01*
X146650490Y-122354290D02*
X146364770Y-122425710D01*
X146650490Y-124568570D02*
X146793340Y-124711430D01*
X146650490Y-125425710D02*
X146364770Y-125497140D01*
X146793340Y-121640000D02*
X146579060Y-121854290D01*
X146793340Y-121640000D02*
X146864770Y-121782860D01*
X146793340Y-122211430D02*
X146650490Y-122354290D01*
X146793340Y-124711430D02*
X146864770Y-124854290D01*
X146793340Y-125282860D02*
X146650490Y-125425710D01*
X146864770Y-121782860D02*
X146864770Y-122068570D01*
X146864770Y-122068570D02*
X146793340Y-122211430D01*
X146864770Y-122997140D02*
X146150490Y-123497140D01*
X146864770Y-123854290D02*
X145364770Y-123854290D01*
X146864770Y-124854290D02*
X146864770Y-125140000D01*
X146864770Y-125140000D02*
X146793340Y-125282860D01*
X146864770Y-126140000D02*
X145364770Y-126140000D01*
X146936200Y-114288570D02*
X145436200Y-113788570D01*
X146936200Y-121497140D02*
X146793340Y-121640000D01*
X147007630Y-121354290D02*
X146936200Y-121497140D01*
X147256200Y-122640000D02*
X147256200Y-121140000D01*
X147256200Y-124140000D02*
X147256200Y-122640000D01*
X147904770Y-121925710D02*
X147976200Y-121711430D01*
X147904770Y-122282860D02*
X147904770Y-121925710D01*
X147904770Y-123211430D02*
X147976200Y-123068570D01*
X147904770Y-123782860D02*
X147904770Y-123211430D01*
X147976200Y-114574290D02*
X149190490Y-114574290D01*
X147976200Y-121711430D02*
X148119060Y-121568570D01*
X147976200Y-123068570D02*
X148047630Y-122997140D01*
X148047630Y-122997140D02*
X148190490Y-122925710D01*
X148119060Y-121568570D02*
X148261910Y-121497140D01*
X148190490Y-122925710D02*
X148404770Y-122925710D01*
X148261910Y-121497140D02*
X148547630Y-121425710D01*
X148404770Y-122925710D02*
X148547630Y-122997140D01*
X148547630Y-121425710D02*
X148761910Y-121425710D01*
X148547630Y-122997140D02*
X148619060Y-123068570D01*
X148619060Y-123068570D02*
X148690490Y-123211430D01*
X148690490Y-123211430D02*
X148690490Y-123782860D01*
X148761910Y-121425710D02*
X149047630Y-121497140D01*
X149047630Y-121497140D02*
X149190490Y-121568570D01*
X149190490Y-113717140D02*
X147976200Y-113717140D01*
X149190490Y-114574290D02*
X149333340Y-114502860D01*
X149190490Y-121568570D02*
X149333340Y-121711430D01*
X149333340Y-113788570D02*
X149190490Y-113717140D01*
X149333340Y-114502860D02*
X149404770Y-114431430D01*
X149333340Y-121711430D02*
X149404770Y-121925710D01*
X149404770Y-113860000D02*
X149333340Y-113788570D01*
X149404770Y-114431430D02*
X149476200Y-114288570D01*
X149404770Y-121925710D02*
X149404770Y-122282860D01*
X149404770Y-122282860D02*
X147904770Y-122282860D01*
X149404770Y-122925710D02*
X148690490Y-123425710D01*
X149404770Y-123782860D02*
X147904770Y-123782860D01*
X149476200Y-114002860D02*
X149404770Y-113860000D01*
X149476200Y-114288570D02*
X149476200Y-114002860D01*
X149796200Y-122640000D02*
X149796200Y-121140000D01*
X149796200Y-124354290D02*
X149796200Y-122640000D01*
X149867630Y-108931430D02*
X149867630Y-107360000D01*
X149867630Y-110431430D02*
X149867630Y-108931430D01*
X149867630Y-111860000D02*
X149867630Y-110431430D01*
X149867630Y-113431430D02*
X149867630Y-111860000D01*
X149867630Y-114931430D02*
X149867630Y-113431430D01*
X150444770Y-121711430D02*
X150516200Y-121568570D01*
X150444770Y-122282860D02*
X150444770Y-121711430D01*
X150444770Y-124140000D02*
X151944770Y-123782860D01*
X150516200Y-108002860D02*
X150587630Y-107860000D01*
X150516200Y-108288570D02*
X150516200Y-108002860D01*
X150516200Y-109502860D02*
X150587630Y-109360000D01*
X150516200Y-110074290D02*
X150516200Y-109502860D01*
X150516200Y-110931430D02*
X150587630Y-110717140D01*
X150516200Y-111288570D02*
X150516200Y-110931430D01*
X150516200Y-113074290D02*
X151730490Y-113074290D01*
X150516200Y-114074290D02*
X150587630Y-113931430D01*
X150516200Y-114574290D02*
X150516200Y-114074290D01*
X150516200Y-121568570D02*
X150587630Y-121497140D01*
X150587630Y-107860000D02*
X150730490Y-107717140D01*
X150587630Y-108431430D02*
X150516200Y-108288570D01*
X150587630Y-109360000D02*
X150659060Y-109288570D01*
X150587630Y-111431430D02*
X150516200Y-111288570D01*
X150587630Y-113931430D02*
X150659060Y-113860000D01*
X150587630Y-121497140D02*
X150730490Y-121425710D01*
X150659060Y-109288570D02*
X150801920Y-109217140D01*
X150659060Y-111502860D02*
X150587630Y-111431430D01*
X150659060Y-113860000D02*
X150801920Y-113788570D01*
X150730490Y-107717140D02*
X151016200Y-107645720D01*
X150730490Y-108574290D02*
X150587630Y-108431430D01*
X150730490Y-121425710D02*
X150944770Y-121425710D01*
X150801920Y-109217140D02*
X151016200Y-109217140D01*
X150801920Y-111574290D02*
X150659060Y-111502860D01*
X150801920Y-113788570D02*
X150944770Y-113788570D01*
X150873340Y-123497140D02*
X151944770Y-123211430D01*
X150944770Y-111574290D02*
X150801920Y-111574290D01*
X150944770Y-113788570D02*
X151087630Y-113860000D01*
X150944770Y-121425710D02*
X151087630Y-121497140D01*
X151016200Y-107645720D02*
X151516200Y-107645720D01*
X151016200Y-108645720D02*
X150730490Y-108574290D01*
X151016200Y-109217140D02*
X151159060Y-109288570D01*
X151087630Y-111502860D02*
X150944770Y-111574290D01*
X151087630Y-113860000D02*
X151159060Y-113931430D01*
X151087630Y-121497140D02*
X151159060Y-121568570D01*
X151159060Y-109288570D02*
X151230490Y-109360000D01*
X151159060Y-111431430D02*
X151087630Y-111502860D01*
X151159060Y-113931430D02*
X151230490Y-114074290D01*
X151159060Y-121568570D02*
X151230490Y-121711430D01*
X151230490Y-109360000D02*
X151301920Y-109502860D01*
X151230490Y-111288570D02*
X151159060Y-111431430D01*
X151230490Y-114074290D02*
X151230490Y-114574290D01*
X151230490Y-114074290D02*
X151301920Y-113860000D01*
X151230490Y-121711430D02*
X151230490Y-122282860D01*
X151301920Y-109502860D02*
X151301920Y-110074290D01*
X151301920Y-111002860D02*
X151230490Y-111288570D01*
X151301920Y-113860000D02*
X151373340Y-113788570D01*
X151373340Y-110860000D02*
X151301920Y-111002860D01*
X151373340Y-113788570D02*
X151516200Y-113717140D01*
X151444770Y-110788570D02*
X151373340Y-110860000D01*
X151516200Y-107645720D02*
X151801920Y-107717140D01*
X151516200Y-108645720D02*
X151016200Y-108645720D01*
X151516200Y-113717140D02*
X151730490Y-113717140D01*
X151587630Y-110717140D02*
X151444770Y-110788570D01*
X151659060Y-108217140D02*
X151659060Y-108360000D01*
X151730490Y-108074290D02*
X151659060Y-108217140D01*
X151730490Y-110717140D02*
X151587630Y-110717140D01*
X151730490Y-112217140D02*
X150516200Y-112217140D01*
X151730490Y-113074290D02*
X151873340Y-113002860D01*
X151730490Y-113717140D02*
X151873340Y-113788570D01*
X151801920Y-107717140D02*
X151944770Y-107860000D01*
X151801920Y-108574290D02*
X151516200Y-108645720D01*
X151873340Y-110788570D02*
X151730490Y-110717140D01*
X151873340Y-112288570D02*
X151730490Y-112217140D01*
X151873340Y-113002860D02*
X151944770Y-112931430D01*
X151873340Y-113788570D02*
X151944770Y-113860000D01*
X151944770Y-107860000D02*
X151730490Y-108074290D01*
X151944770Y-107860000D02*
X152016200Y-108002860D01*
X151944770Y-108431430D02*
X151801920Y-108574290D01*
X151944770Y-110860000D02*
X151873340Y-110788570D01*
X151944770Y-111574290D02*
X152016200Y-111360000D01*
X151944770Y-112360000D02*
X151873340Y-112288570D01*
X151944770Y-112931430D02*
X152016200Y-112788570D01*
X151944770Y-113860000D02*
X152016200Y-114002860D01*
X151944770Y-121425710D02*
X151230490Y-121925710D01*
X151944770Y-122282860D02*
X150444770Y-122282860D01*
X151944770Y-123211430D02*
X150444770Y-122854290D01*
X151944770Y-123782860D02*
X150873340Y-123497140D01*
X152016200Y-108002860D02*
X152016200Y-108288570D01*
X152016200Y-108288570D02*
X151944770Y-108431430D01*
X152016200Y-109217140D02*
X151301920Y-109717140D01*
X152016200Y-110074290D02*
X150516200Y-110074290D01*
X152016200Y-111002860D02*
X151944770Y-110860000D01*
X152016200Y-111360000D02*
X152016200Y-111002860D01*
X152016200Y-112502860D02*
X151944770Y-112360000D01*
X152016200Y-112788570D02*
X152016200Y-112502860D01*
X152016200Y-114002860D02*
X152016200Y-114574290D01*
X152016200Y-114574290D02*
X150516200Y-114574290D01*
X152087630Y-107717140D02*
X151944770Y-107860000D01*
X152159060Y-107574290D02*
X152087630Y-107717140D01*
X152407630Y-109288570D02*
X152407630Y-108145720D01*
X152407630Y-110645720D02*
X152407630Y-109288570D01*
X152407630Y-112074290D02*
X152407630Y-110645720D01*
X152407630Y-113431430D02*
X152407630Y-112074290D01*
X152407630Y-114931430D02*
X152407630Y-113431430D01*
X152984770Y-122282860D02*
X154484770Y-121782860D01*
X152984770Y-122782860D02*
X152984770Y-123497140D01*
X152984770Y-123497140D02*
X153699060Y-123568570D01*
X153056200Y-109145720D02*
X153056200Y-108288570D01*
X153056200Y-110288570D02*
X153056200Y-109574290D01*
X153056200Y-111145720D02*
X153127630Y-110931430D01*
X153056200Y-111502860D02*
X153056200Y-111145720D01*
X153056200Y-113074290D02*
X153056200Y-112360000D01*
X153056200Y-114002860D02*
X153127630Y-113860000D01*
X153056200Y-114574290D02*
X153056200Y-114002860D01*
X153127630Y-111645720D02*
X153056200Y-111502860D01*
X153127630Y-113860000D02*
X153199060Y-113788570D01*
X153199060Y-111717140D02*
X153127630Y-111645720D01*
X153199060Y-113788570D02*
X153341920Y-113717140D01*
X153341920Y-111788570D02*
X153199060Y-111717140D01*
X153341920Y-113717140D02*
X153556200Y-113717140D01*
X153484770Y-111788570D02*
X153341920Y-111788570D01*
X153556200Y-113717140D02*
X153699060Y-113788570D01*
X153556200Y-122997140D02*
X153627630Y-122854290D01*
X153556200Y-123354290D02*
X153556200Y-122997140D01*
X153627630Y-111717140D02*
X153484770Y-111788570D01*
X153627630Y-122854290D02*
X153699060Y-122782860D01*
X153627630Y-123497140D02*
X153556200Y-123354290D01*
X153699060Y-111645720D02*
X153627630Y-111717140D01*
X153699060Y-113788570D02*
X153770490Y-113860000D01*
X153699060Y-122782860D02*
X153841910Y-122711430D01*
X153699060Y-123568570D02*
X153627630Y-123497140D01*
X153770490Y-110288570D02*
X153770490Y-109788570D01*
X153770490Y-111502860D02*
X153699060Y-111645720D01*
X153770490Y-113074290D02*
X153770490Y-112574290D01*
X153770490Y-113860000D02*
X153841920Y-114002860D01*
X153841910Y-122711430D02*
X154199060Y-122711430D01*
X153841920Y-111217140D02*
X153770490Y-111502860D01*
X153841920Y-114002860D02*
X153841920Y-114574290D01*
X153913340Y-111074290D02*
X153841920Y-111217140D01*
X153913340Y-125354290D02*
X153913340Y-124211430D01*
X153984770Y-111002860D02*
X153913340Y-111074290D01*
X154127630Y-110931430D02*
X153984770Y-111002860D01*
X154199060Y-122711430D02*
X154341910Y-122782860D01*
X154270490Y-110931430D02*
X154127630Y-110931430D01*
X154341910Y-122782860D02*
X154413340Y-122854290D01*
X154413340Y-111002860D02*
X154270490Y-110931430D01*
X154413340Y-122854290D02*
X154484770Y-122997140D01*
X154413340Y-123497140D02*
X154341910Y-123568570D01*
X154484770Y-111074290D02*
X154413340Y-111002860D01*
X154484770Y-111788570D02*
X154556200Y-111574290D01*
X154484770Y-121782860D02*
X152984770Y-121282860D01*
X154484770Y-122997140D02*
X154484770Y-123354290D01*
X154484770Y-123354290D02*
X154413340Y-123497140D01*
X154556200Y-108717140D02*
X153056200Y-108717140D01*
X154556200Y-109574290D02*
X154556200Y-110288570D01*
X154556200Y-110288570D02*
X153056200Y-110288570D01*
X154556200Y-111217140D02*
X154484770Y-111074290D01*
X154556200Y-111574290D02*
X154556200Y-111217140D01*
X154556200Y-112360000D02*
X154556200Y-113074290D01*
X154556200Y-113074290D02*
X153056200Y-113074290D01*
X154556200Y-113717140D02*
X153841920Y-114217140D01*
X154556200Y-114574290D02*
X153056200Y-114574290D01*
X154876200Y-122282860D02*
X154876200Y-121140000D01*
X154876200Y-122997140D02*
X154876200Y-122282860D01*
X154876200Y-124282860D02*
X154876200Y-122997140D01*
X154876200Y-125997140D02*
X154876200Y-124282860D01*
X155524770Y-122140000D02*
X155524770Y-121282860D01*
X155524770Y-123640000D02*
X157024770Y-123140000D01*
X155524770Y-125782860D02*
X157024770Y-125425710D01*
X155596200Y-112431430D02*
X157096200Y-113074290D01*
X155596200Y-113431430D02*
X155596200Y-112431430D01*
X155596200Y-114288570D02*
X157096200Y-113788570D01*
X155953340Y-125140000D02*
X157024770Y-124854290D01*
X156596200Y-123997140D02*
X156596200Y-123282860D01*
X156667630Y-114645720D02*
X156667630Y-113931430D01*
X157024770Y-121711430D02*
X155524770Y-121711430D01*
X157024770Y-122640000D02*
X155524770Y-122640000D01*
X157024770Y-124140000D02*
X155524770Y-123640000D01*
X157024770Y-124854290D02*
X155524770Y-124497140D01*
X157024770Y-125425710D02*
X155953340Y-125140000D01*
X157096200Y-114788570D02*
X155596200Y-114288570D01*
X158064770Y-122282860D02*
X159564770Y-121782860D01*
X158064770Y-122997140D02*
X158136200Y-122854290D01*
X158064770Y-123354290D02*
X158064770Y-122997140D01*
X158064770Y-124568570D02*
X158279060Y-124711430D01*
X158136200Y-112645720D02*
X158136200Y-112931430D01*
X158136200Y-112931430D02*
X158207630Y-113074290D01*
X158136200Y-114288570D02*
X159636200Y-113788570D01*
X158136200Y-122854290D02*
X158207630Y-122782860D01*
X158136200Y-123497140D02*
X158064770Y-123354290D01*
X158207630Y-113074290D02*
X158279060Y-113145720D01*
X158207630Y-122782860D02*
X158350490Y-122711430D01*
X158207630Y-123568570D02*
X158136200Y-123497140D01*
X158279060Y-113145720D02*
X158493340Y-113288570D01*
X158279060Y-124711430D02*
X158421910Y-124854290D01*
X158350490Y-122711430D02*
X158493340Y-122711430D01*
X158421910Y-124854290D02*
X158493340Y-124997140D01*
X158493340Y-113288570D02*
X158779060Y-113360000D01*
X158493340Y-122711430D02*
X158707630Y-122782860D01*
X158707630Y-112788570D02*
X158707630Y-113074290D01*
X158707630Y-113074290D02*
X158779060Y-113217140D01*
X158707630Y-122782860D02*
X159564770Y-123640000D01*
X158779060Y-112645720D02*
X158707630Y-112788570D01*
X158779060Y-113217140D02*
X158850490Y-113288570D01*
X158779060Y-113360000D02*
X159350490Y-113360000D01*
X158850490Y-112574290D02*
X158779060Y-112645720D01*
X158850490Y-113288570D02*
X158993340Y-113360000D01*
X158993340Y-112502860D02*
X158850490Y-112574290D01*
X158993340Y-126782860D02*
X158993340Y-125640000D01*
X159207630Y-114645720D02*
X159207630Y-113931430D01*
X159350490Y-112502860D02*
X158993340Y-112502860D01*
X159350490Y-113360000D02*
X159493340Y-113288570D01*
X159493340Y-112574290D02*
X159350490Y-112502860D01*
X159493340Y-113288570D02*
X159564770Y-113217140D01*
X159564770Y-112645720D02*
X159493340Y-112574290D01*
X159564770Y-113217140D02*
X159636200Y-113074290D01*
X159564770Y-121782860D02*
X158064770Y-121282860D01*
X159564770Y-123640000D02*
X159564770Y-122711430D01*
X159564770Y-124140000D02*
X159564770Y-124997140D01*
X159564770Y-124568570D02*
X158064770Y-124568570D01*
X159564770Y-126211430D02*
X158421910Y-126211430D01*
X159636200Y-112788570D02*
X159564770Y-112645720D01*
X159636200Y-113074290D02*
X159636200Y-112788570D01*
X159636200Y-114788570D02*
X158136200Y-114288570D01*
X160604770Y-121711430D02*
X160676200Y-121497140D01*
X160604770Y-121854290D02*
X160604770Y-121711430D01*
X160604770Y-123282860D02*
X162104770Y-122782860D01*
X160604770Y-125068570D02*
X162104770Y-124568570D01*
X160604770Y-125782860D02*
X160676200Y-125640000D01*
X160604770Y-126140000D02*
X160604770Y-125782860D01*
X160604770Y-127354290D02*
X160819060Y-127497140D01*
X160676200Y-112574290D02*
X160676200Y-113288570D01*
X160676200Y-113288570D02*
X161390490Y-113360000D01*
X160676200Y-114288570D02*
X162176200Y-113788570D01*
X160676200Y-121497140D02*
X160747630Y-121425710D01*
X160676200Y-122068570D02*
X160604770Y-121854290D01*
X160676200Y-125640000D02*
X160747630Y-125568570D01*
X160676200Y-126282860D02*
X160604770Y-126140000D01*
X160747630Y-125568570D02*
X160890490Y-125497140D01*
X160747630Y-126354290D02*
X160676200Y-126282860D01*
X160819060Y-122211430D02*
X160676200Y-122068570D01*
X160819060Y-127497140D02*
X160961910Y-127640000D01*
X160890490Y-125497140D02*
X161033340Y-125497140D01*
X160961910Y-122282860D02*
X160819060Y-122211430D01*
X160961910Y-127640000D02*
X161033340Y-127782860D01*
X161033340Y-125497140D02*
X161247630Y-125568570D01*
X161247630Y-112788570D02*
X161319060Y-112645720D01*
X161247630Y-113145720D02*
X161247630Y-112788570D01*
X161247630Y-122354290D02*
X160961910Y-122282860D01*
X161247630Y-125568570D02*
X162104770Y-126425710D01*
X161319060Y-112645720D02*
X161390490Y-112574290D01*
X161319060Y-113288570D02*
X161247630Y-113145720D01*
X161390490Y-112574290D02*
X161533340Y-112502860D01*
X161390490Y-113360000D02*
X161319060Y-113288570D01*
X161461910Y-122354290D02*
X161247630Y-122354290D01*
X161533340Y-112502860D02*
X161890490Y-112502860D01*
X161676200Y-123640000D02*
X161676200Y-122925710D01*
X161747630Y-114645720D02*
X161747630Y-113931430D01*
X161747630Y-122282860D02*
X161461910Y-122354290D01*
X161890490Y-112502860D02*
X162033340Y-112574290D01*
X161890490Y-122211430D02*
X161747630Y-122282860D01*
X161961910Y-121425710D02*
X162033340Y-121497140D01*
X162033340Y-112574290D02*
X162104770Y-112645720D01*
X162033340Y-121497140D02*
X162104770Y-121711430D01*
X162033340Y-122068570D02*
X161890490Y-122211430D01*
X162104770Y-112645720D02*
X162176200Y-112788570D01*
X162104770Y-113288570D02*
X162033340Y-113360000D01*
X162104770Y-121711430D02*
X162104770Y-121854290D01*
X162104770Y-121854290D02*
X162033340Y-122068570D01*
X162104770Y-123782860D02*
X160604770Y-123282860D01*
X162104770Y-124568570D02*
X160604770Y-124068570D01*
X162104770Y-126425710D02*
X162104770Y-125497140D01*
X162104770Y-126925710D02*
X162104770Y-127782860D01*
X162104770Y-127354290D02*
X160604770Y-127354290D01*
X162176200Y-112788570D02*
X162176200Y-113145720D01*
X162176200Y-113145720D02*
X162104770Y-113288570D01*
X162176200Y-114788570D02*
X160676200Y-114288570D01*
X162496200Y-122568570D02*
X162496200Y-121140000D01*
X162496200Y-124282860D02*
X162496200Y-122568570D01*
X163144770Y-113002860D02*
X164216200Y-113360000D01*
X163144770Y-121854290D02*
X163359060Y-121997140D01*
X163144770Y-122925710D02*
X164644770Y-122925710D01*
X163144770Y-123925710D02*
X164216200Y-123425710D01*
X163216200Y-114288570D02*
X164716200Y-113788570D01*
X163359060Y-121997140D02*
X163501910Y-122140000D01*
X163501910Y-122140000D02*
X163573340Y-122282860D01*
X163716200Y-112645720D02*
X164716200Y-112645720D01*
X164216200Y-113360000D02*
X164216200Y-112431430D01*
X164216200Y-123425710D02*
X163144770Y-122925710D01*
X164287630Y-114645720D02*
X164287630Y-113931430D01*
X164644770Y-121425710D02*
X164644770Y-122282860D01*
X164644770Y-121854290D02*
X163144770Y-121854290D01*
X164644770Y-123925710D02*
X163144770Y-123925710D01*
X164716200Y-114788570D02*
X163216200Y-114288570D01*
X165036200Y-122711430D02*
X165036200Y-121140000D01*
X165036200Y-124140000D02*
X165036200Y-122711430D01*
X165036200Y-125425710D02*
X165036200Y-124140000D01*
X165036200Y-126925710D02*
X165036200Y-125425710D01*
X165107630Y-108645720D02*
X165107630Y-107217140D01*
X165107630Y-110145720D02*
X165107630Y-108645720D01*
X165107630Y-111860000D02*
X165107630Y-110145720D01*
X165107630Y-113431430D02*
X165107630Y-111860000D01*
X165107630Y-114931430D02*
X165107630Y-113431430D01*
X165684770Y-123211430D02*
X165756200Y-122997140D01*
X165684770Y-123568570D02*
X165684770Y-123211430D01*
X165684770Y-125068570D02*
X165684770Y-124354290D01*
X165684770Y-125997140D02*
X165756200Y-125854290D01*
X165684770Y-126568570D02*
X165684770Y-125997140D01*
X165756200Y-107717140D02*
X165827630Y-107502860D01*
X165756200Y-108074290D02*
X165756200Y-107717140D01*
X165756200Y-109217140D02*
X165827630Y-109002860D01*
X165756200Y-109360000D02*
X165756200Y-109217140D01*
X165756200Y-110502860D02*
X167256200Y-110502860D01*
X165756200Y-111502860D02*
X166827630Y-111002860D01*
X165756200Y-112502860D02*
X165827630Y-112360000D01*
X165756200Y-112788570D02*
X165756200Y-112502860D01*
X165756200Y-114002860D02*
X165827630Y-113860000D01*
X165756200Y-114574290D02*
X165756200Y-114002860D01*
X165756200Y-123711430D02*
X165684770Y-123568570D01*
X165756200Y-125854290D02*
X165827630Y-125782860D01*
X165827630Y-108217140D02*
X165756200Y-108074290D01*
X165827630Y-109002860D02*
X165899060Y-108931430D01*
X165827630Y-109574290D02*
X165756200Y-109360000D01*
X165827630Y-112360000D02*
X165970490Y-112217140D01*
X165827630Y-112931430D02*
X165756200Y-112788570D01*
X165827630Y-113860000D02*
X165899060Y-113788570D01*
X165827630Y-123782860D02*
X165756200Y-123711430D01*
X165827630Y-125782860D02*
X165970490Y-125711430D01*
X165899060Y-108288570D02*
X165827630Y-108217140D01*
X165899060Y-113788570D02*
X166041920Y-113717140D01*
X165970490Y-109717140D02*
X165827630Y-109574290D01*
X165970490Y-112217140D02*
X166256200Y-112145720D01*
X165970490Y-113074290D02*
X165827630Y-112931430D01*
X165970490Y-123854290D02*
X165827630Y-123782860D01*
X165970490Y-125711430D02*
X166184770Y-125711430D01*
X166041920Y-108360000D02*
X165899060Y-108288570D01*
X166041920Y-113717140D02*
X166256200Y-113717140D01*
X166113340Y-109788570D02*
X165970490Y-109717140D01*
X166113340Y-123854290D02*
X165970490Y-123854290D01*
X166184770Y-108360000D02*
X166041920Y-108360000D01*
X166184770Y-125711430D02*
X166327630Y-125782860D01*
X166256200Y-112145720D02*
X166756200Y-112145720D01*
X166256200Y-113145720D02*
X165970490Y-113074290D01*
X166256200Y-113717140D02*
X166399060Y-113788570D01*
X166256200Y-123782860D02*
X166113340Y-123854290D01*
X166327630Y-108288570D02*
X166184770Y-108360000D01*
X166327630Y-123711430D02*
X166256200Y-123782860D01*
X166327630Y-125782860D02*
X166399060Y-125854290D01*
X166399060Y-108217140D02*
X166327630Y-108288570D01*
X166399060Y-109860000D02*
X166113340Y-109788570D01*
X166399060Y-113788570D02*
X166470490Y-113860000D01*
X166399060Y-122354290D02*
X166399060Y-121497140D01*
X166399060Y-123568570D02*
X166327630Y-123711430D01*
X166399060Y-124568570D02*
X166399060Y-125068570D01*
X166399060Y-125854290D02*
X166470490Y-125997140D01*
X166470490Y-108074290D02*
X166399060Y-108217140D01*
X166470490Y-113860000D02*
X166541920Y-114002860D01*
X166470490Y-123282860D02*
X166399060Y-123568570D01*
X166470490Y-125997140D02*
X166470490Y-126568570D01*
X166541910Y-123140000D02*
X166470490Y-123282860D01*
X166541920Y-107788570D02*
X166470490Y-108074290D01*
X166541920Y-114002860D02*
X166541920Y-114574290D01*
X166613340Y-107645720D02*
X166541920Y-107788570D01*
X166613340Y-109860000D02*
X166399060Y-109860000D01*
X166613340Y-123068570D02*
X166541910Y-123140000D01*
X166684770Y-107574290D02*
X166613340Y-107645720D01*
X166756200Y-112145720D02*
X167041920Y-112217140D01*
X166756200Y-113145720D02*
X166256200Y-113145720D01*
X166756200Y-122997140D02*
X166613340Y-123068570D01*
X166827630Y-107502860D02*
X166684770Y-107574290D01*
X166827630Y-111002860D02*
X165756200Y-110502860D01*
X166899060Y-109788570D02*
X166613340Y-109860000D01*
X166899060Y-122997140D02*
X166756200Y-122997140D01*
X166970490Y-107502860D02*
X166827630Y-107502860D01*
X167041910Y-123068570D02*
X166899060Y-122997140D01*
X167041920Y-109717140D02*
X166899060Y-109788570D01*
X167041920Y-112217140D02*
X167184770Y-112360000D01*
X167041920Y-113074290D02*
X166756200Y-113145720D01*
X167113340Y-107574290D02*
X166970490Y-107502860D01*
X167113340Y-108931430D02*
X167184770Y-109002860D01*
X167113340Y-123140000D02*
X167041910Y-123068570D01*
X167113340Y-123854290D02*
X167184770Y-123640000D01*
X167184770Y-107645720D02*
X167113340Y-107574290D01*
X167184770Y-108360000D02*
X167256200Y-108145720D01*
X167184770Y-109002860D02*
X167256200Y-109217140D01*
X167184770Y-109574290D02*
X167041920Y-109717140D01*
X167184770Y-112360000D02*
X167256200Y-112502860D01*
X167184770Y-112931430D02*
X167041920Y-113074290D01*
X167184770Y-121497140D02*
X165684770Y-121497140D01*
X167184770Y-122354290D02*
X165684770Y-122354290D01*
X167184770Y-123282860D02*
X167113340Y-123140000D01*
X167184770Y-123640000D02*
X167184770Y-123282860D01*
X167184770Y-125068570D02*
X165684770Y-125068570D01*
X167184770Y-125711430D02*
X166470490Y-126211430D01*
X167184770Y-126568570D02*
X165684770Y-126568570D01*
X167256200Y-107788570D02*
X167184770Y-107645720D01*
X167256200Y-108145720D02*
X167256200Y-107788570D01*
X167256200Y-109217140D02*
X167256200Y-109360000D01*
X167256200Y-109360000D02*
X167184770Y-109574290D01*
X167256200Y-111502860D02*
X165756200Y-111502860D01*
X167256200Y-112502860D02*
X167256200Y-112788570D01*
X167256200Y-112788570D02*
X167184770Y-112931430D01*
X167256200Y-113717140D02*
X166541920Y-114217140D01*
X167256200Y-114574290D02*
X165756200Y-114574290D01*
X167647630Y-107645720D02*
X167647630Y-106145720D01*
X167647630Y-109145720D02*
X167647630Y-107645720D01*
X167647630Y-110431430D02*
X167647630Y-109145720D01*
X167647630Y-111860000D02*
X167647630Y-110431430D01*
X167647630Y-113431430D02*
X167647630Y-111860000D01*
X167647630Y-114931430D02*
X167647630Y-113431430D01*
X168224770Y-121711430D02*
X168296200Y-121568570D01*
X168224770Y-121997140D02*
X168224770Y-121711430D01*
X168224770Y-123211430D02*
X169724770Y-122711430D01*
X168296200Y-106431430D02*
X169153340Y-107288570D01*
X168296200Y-108217140D02*
X168367630Y-108002860D01*
X168296200Y-108360000D02*
X168296200Y-108217140D01*
X168296200Y-109788570D02*
X169796200Y-109288570D01*
X168296200Y-110931430D02*
X168367630Y-110717140D01*
X168296200Y-111288570D02*
X168296200Y-110931430D01*
X168296200Y-113074290D02*
X169510490Y-113074290D01*
X168296200Y-114074290D02*
X168367630Y-113931430D01*
X168296200Y-114574290D02*
X168296200Y-114074290D01*
X168296200Y-121568570D02*
X168367630Y-121497140D01*
X168296200Y-122140000D02*
X168224770Y-121997140D01*
X168367630Y-108002860D02*
X168439060Y-107931430D01*
X168367630Y-108574290D02*
X168296200Y-108360000D01*
X168367630Y-111431430D02*
X168296200Y-111288570D01*
X168367630Y-113931430D02*
X168439060Y-113860000D01*
X168367630Y-121497140D02*
X168510490Y-121425710D01*
X168367630Y-122211430D02*
X168296200Y-122140000D01*
X168439060Y-111502860D02*
X168367630Y-111431430D01*
X168439060Y-113860000D02*
X168581920Y-113788570D01*
X168510490Y-108717140D02*
X168367630Y-108574290D01*
X168510490Y-121425710D02*
X168581910Y-121425710D01*
X168510490Y-122282860D02*
X168367630Y-122211430D01*
X168581910Y-121425710D02*
X168724770Y-121497140D01*
X168581910Y-122282860D02*
X168510490Y-122282860D01*
X168581920Y-111574290D02*
X168439060Y-111502860D01*
X168581920Y-113788570D02*
X168724770Y-113788570D01*
X168653340Y-108788570D02*
X168510490Y-108717140D01*
X168724770Y-111574290D02*
X168581920Y-111574290D01*
X168724770Y-113788570D02*
X168867630Y-113860000D01*
X168724770Y-121497140D02*
X168796200Y-121568570D01*
X168724770Y-122211430D02*
X168581910Y-122282860D01*
X168796200Y-121568570D02*
X168867630Y-121711430D01*
X168796200Y-122140000D02*
X168724770Y-122211430D01*
X168867630Y-111502860D02*
X168724770Y-111574290D01*
X168867630Y-113860000D02*
X168939060Y-113931430D01*
X168867630Y-121711430D02*
X168867630Y-121997140D01*
X168867630Y-121997140D02*
X168796200Y-122140000D01*
X168867630Y-121997140D02*
X168939060Y-122140000D01*
X168939060Y-108860000D02*
X168653340Y-108788570D01*
X168939060Y-111431430D02*
X168867630Y-111502860D01*
X168939060Y-113931430D02*
X169010490Y-114074290D01*
X168939060Y-121568570D02*
X168867630Y-121711430D01*
X168939060Y-122140000D02*
X169010490Y-122211430D01*
X169010490Y-111288570D02*
X168939060Y-111431430D01*
X169010490Y-114074290D02*
X169010490Y-114574290D01*
X169010490Y-114074290D02*
X169081920Y-113860000D01*
X169010490Y-121497140D02*
X168939060Y-121568570D01*
X169010490Y-122211430D02*
X169153340Y-122282860D01*
X169081920Y-111002860D02*
X169010490Y-111288570D01*
X169081920Y-113860000D02*
X169153340Y-113788570D01*
X169153340Y-108860000D02*
X168939060Y-108860000D01*
X169153340Y-110860000D02*
X169081920Y-111002860D01*
X169153340Y-113788570D02*
X169296200Y-113717140D01*
X169153340Y-121425710D02*
X169010490Y-121497140D01*
X169153340Y-122282860D02*
X169439060Y-122282860D01*
X169224770Y-110788570D02*
X169153340Y-110860000D01*
X169296200Y-113717140D02*
X169510490Y-113717140D01*
X169296200Y-123568570D02*
X169296200Y-122854290D01*
X169367630Y-110145720D02*
X169367630Y-109431430D01*
X169367630Y-110717140D02*
X169224770Y-110788570D01*
X169439060Y-108788570D02*
X169153340Y-108860000D01*
X169439060Y-121425710D02*
X169153340Y-121425710D01*
X169439060Y-122282860D02*
X169581910Y-122211430D01*
X169510490Y-110717140D02*
X169367630Y-110717140D01*
X169510490Y-112217140D02*
X168296200Y-112217140D01*
X169510490Y-113074290D02*
X169653340Y-113002860D01*
X169510490Y-113717140D02*
X169653340Y-113788570D01*
X169581910Y-121497140D02*
X169439060Y-121425710D01*
X169581910Y-122211430D02*
X169653340Y-122140000D01*
X169581920Y-108717140D02*
X169439060Y-108788570D01*
X169653340Y-107931430D02*
X169724770Y-108002860D01*
X169653340Y-110788570D02*
X169510490Y-110717140D01*
X169653340Y-112288570D02*
X169510490Y-112217140D01*
X169653340Y-113002860D02*
X169724770Y-112931430D01*
X169653340Y-113788570D02*
X169724770Y-113860000D01*
X169653340Y-121568570D02*
X169581910Y-121497140D01*
X169653340Y-122140000D02*
X169724770Y-121997140D01*
X169724770Y-108002860D02*
X169796200Y-108217140D01*
X169724770Y-108574290D02*
X169581920Y-108717140D01*
X169724770Y-110860000D02*
X169653340Y-110788570D01*
X169724770Y-111574290D02*
X169796200Y-111360000D01*
X169724770Y-112360000D02*
X169653340Y-112288570D01*
X169724770Y-112931430D02*
X169796200Y-112788570D01*
X169724770Y-113860000D02*
X169796200Y-114002860D01*
X169724770Y-121711430D02*
X169653340Y-121568570D01*
X169724770Y-121997140D02*
X169724770Y-121711430D01*
X169724770Y-123711430D02*
X168224770Y-123211430D01*
X169796200Y-106431430D02*
X168939060Y-107074290D01*
X169796200Y-107288570D02*
X168296200Y-107288570D01*
X169796200Y-108217140D02*
X169796200Y-108360000D01*
X169796200Y-108360000D02*
X169724770Y-108574290D01*
X169796200Y-110288570D02*
X168296200Y-109788570D01*
X169796200Y-111002860D02*
X169724770Y-110860000D01*
X169796200Y-111360000D02*
X169796200Y-111002860D01*
X169796200Y-112502860D02*
X169724770Y-112360000D01*
X169796200Y-112788570D02*
X169796200Y-112502860D01*
X169796200Y-114002860D02*
X169796200Y-114574290D01*
X169796200Y-114574290D02*
X168296200Y-114574290D01*
X170764770Y-121782860D02*
X170836200Y-121640000D01*
X170764770Y-121925710D02*
X170764770Y-121782860D01*
X170764770Y-123282860D02*
X170979060Y-123425710D01*
X170764770Y-124640000D02*
X172264770Y-124140000D01*
X170836200Y-112788570D02*
X170836200Y-113074290D01*
X170836200Y-113074290D02*
X170907630Y-113217140D01*
X170836200Y-114288570D02*
X172336200Y-113788570D01*
X170836200Y-121640000D02*
X170907630Y-121568570D01*
X170836200Y-122068570D02*
X170764770Y-121925710D01*
X170907630Y-112645720D02*
X170836200Y-112788570D01*
X170907630Y-113217140D02*
X170979060Y-113288570D01*
X170907630Y-121568570D02*
X171050490Y-121497140D01*
X170907630Y-122140000D02*
X170836200Y-122068570D01*
X170979060Y-112574290D02*
X170907630Y-112645720D01*
X170979060Y-113288570D02*
X171121920Y-113360000D01*
X170979060Y-123425710D02*
X171121910Y-123568570D01*
X171050490Y-121497140D02*
X171336200Y-121425710D01*
X171050490Y-122211430D02*
X170907630Y-122140000D01*
X171121910Y-123568570D02*
X171193340Y-123711430D01*
X171121920Y-112502860D02*
X170979060Y-112574290D01*
X171121920Y-113360000D02*
X171479060Y-113360000D01*
X171336200Y-121425710D02*
X171693340Y-121425710D01*
X171336200Y-122282860D02*
X171050490Y-122211430D01*
X171479060Y-113360000D02*
X171621920Y-113288570D01*
X171621920Y-112574290D02*
X171479060Y-112502860D01*
X171621920Y-113288570D02*
X171693340Y-113217140D01*
X171693340Y-112502860D02*
X171121920Y-112502860D01*
X171693340Y-112645720D02*
X171621920Y-112574290D01*
X171693340Y-113217140D02*
X171764770Y-113074290D01*
X171693340Y-121425710D02*
X171979060Y-121497140D01*
X171693340Y-122282860D02*
X171336200Y-122282860D01*
X171764770Y-112788570D02*
X171693340Y-112645720D01*
X171764770Y-113074290D02*
X171764770Y-112788570D01*
X171836200Y-124997140D02*
X171836200Y-124282860D01*
X171907630Y-114645720D02*
X171907630Y-113931430D01*
X171979060Y-112574290D02*
X171693340Y-112502860D01*
X171979060Y-121497140D02*
X172121910Y-121568570D01*
X171979060Y-122211430D02*
X171693340Y-122282860D01*
X172121910Y-121568570D02*
X172193340Y-121640000D01*
X172121910Y-122140000D02*
X171979060Y-122211430D01*
X172193340Y-112717140D02*
X171979060Y-112574290D01*
X172193340Y-121640000D02*
X172264770Y-121782860D01*
X172193340Y-122068570D02*
X172121910Y-122140000D01*
X172264770Y-112788570D02*
X172193340Y-112717140D01*
X172264770Y-121782860D02*
X172264770Y-121925710D01*
X172264770Y-121925710D02*
X172193340Y-122068570D01*
X172264770Y-122854290D02*
X172264770Y-123711430D01*
X172264770Y-123282860D02*
X170764770Y-123282860D01*
X172264770Y-125140000D02*
X170764770Y-124640000D01*
X172336200Y-112931430D02*
X172264770Y-112788570D01*
X172336200Y-113217140D02*
X172336200Y-112931430D01*
X172336200Y-114788570D02*
X170836200Y-114288570D01*
X173304770Y-122140000D02*
X173304770Y-121282860D01*
X173304770Y-123282860D02*
X173304770Y-122568570D01*
X173304770Y-124140000D02*
X173376200Y-123925710D01*
X173304770Y-124497140D02*
X173304770Y-124140000D01*
X173304770Y-126068570D02*
X173304770Y-125354290D01*
X173304770Y-126997140D02*
X173376200Y-126854290D01*
X173304770Y-127568570D02*
X173304770Y-126997140D01*
X173376200Y-111502860D02*
X173590490Y-111645720D01*
X173376200Y-112931430D02*
X173590490Y-113074290D01*
X173376200Y-114288570D02*
X174876200Y-113788570D01*
X173376200Y-124640000D02*
X173304770Y-124497140D01*
X173376200Y-126854290D02*
X173447630Y-126782860D01*
X173447630Y-124711430D02*
X173376200Y-124640000D01*
X173447630Y-126782860D02*
X173590490Y-126711430D01*
X173590490Y-111645720D02*
X173733340Y-111788570D01*
X173590490Y-113074290D02*
X173733340Y-113217140D01*
X173590490Y-124782860D02*
X173447630Y-124711430D01*
X173590490Y-126711430D02*
X173804770Y-126711430D01*
X173733340Y-111788570D02*
X173804770Y-111931430D01*
X173733340Y-113217140D02*
X173804770Y-113360000D01*
X173733340Y-124782860D02*
X173590490Y-124782860D01*
X173804770Y-126711430D02*
X173947630Y-126782860D01*
X173876200Y-124711430D02*
X173733340Y-124782860D01*
X173947630Y-124640000D02*
X173876200Y-124711430D01*
X173947630Y-126782860D02*
X174019060Y-126854290D01*
X174019060Y-123282860D02*
X174019060Y-122782860D01*
X174019060Y-124497140D02*
X173947630Y-124640000D01*
X174019060Y-126068570D02*
X174019060Y-125568570D01*
X174019060Y-126854290D02*
X174090490Y-126997140D01*
X174090490Y-124211430D02*
X174019060Y-124497140D01*
X174090490Y-126997140D02*
X174090490Y-127568570D01*
X174161910Y-124068570D02*
X174090490Y-124211430D01*
X174233340Y-123997140D02*
X174161910Y-124068570D01*
X174376200Y-123925710D02*
X174233340Y-123997140D01*
X174447630Y-114645720D02*
X174447630Y-113931430D01*
X174519060Y-123925710D02*
X174376200Y-123925710D01*
X174661910Y-123997140D02*
X174519060Y-123925710D01*
X174733340Y-124068570D02*
X174661910Y-123997140D01*
X174733340Y-124782860D02*
X174804770Y-124568570D01*
X174804770Y-121711430D02*
X173304770Y-121711430D01*
X174804770Y-122568570D02*
X174804770Y-123282860D01*
X174804770Y-123282860D02*
X173304770Y-123282860D01*
X174804770Y-124211430D02*
X174733340Y-124068570D01*
X174804770Y-124568570D02*
X174804770Y-124211430D01*
X174804770Y-125354290D02*
X174804770Y-126068570D01*
X174804770Y-126068570D02*
X173304770Y-126068570D01*
X174804770Y-126711430D02*
X174090490Y-127211430D01*
X174804770Y-127568570D02*
X173304770Y-127568570D01*
X174876200Y-111074290D02*
X174876200Y-111931430D01*
X174876200Y-111502860D02*
X173376200Y-111502860D01*
X174876200Y-112502860D02*
X174876200Y-113360000D01*
X174876200Y-112931430D02*
X173376200Y-112931430D01*
X174876200Y-114788570D02*
X173376200Y-114288570D01*
D10*
X175336200Y-115570000D02*
X175336200Y-120650000D01*
X175336200Y-120650000D02*
X106716200Y-120650000D01*
%TD*%
D15*
%TO.C,J1*%
X101676200Y-83820000D03*
D16*
X104216200Y-83820000D03*
X106756200Y-83820000D03*
X109296200Y-83820000D03*
X111836200Y-83820000D03*
X114376200Y-83820000D03*
X116916200Y-83820000D03*
X119456200Y-83820000D03*
X121996200Y-83820000D03*
X124536200Y-83820000D03*
X127076200Y-83820000D03*
X129616200Y-83820000D03*
X132156200Y-83820000D03*
X134696200Y-83820000D03*
X137236200Y-83820000D03*
X139776200Y-83820000D03*
X142316200Y-83820000D03*
X144856200Y-83820000D03*
X147396200Y-83820000D03*
X149936200Y-83820000D03*
X152476200Y-83820000D03*
X155016200Y-83820000D03*
X157556200Y-83820000D03*
X160096200Y-83820000D03*
X162636200Y-83820000D03*
X165176200Y-83820000D03*
X167716200Y-83820000D03*
X170256200Y-83820000D03*
X172796200Y-83820000D03*
X175336200Y-83820000D03*
X177876200Y-83820000D03*
D15*
X101676200Y-78740000D03*
D16*
X104216200Y-78740000D03*
X106756200Y-78740000D03*
X109296200Y-78740000D03*
X111836200Y-78740000D03*
X114376200Y-78740000D03*
X116916200Y-78740000D03*
X119456200Y-78740000D03*
X121996200Y-78740000D03*
X124536200Y-78740000D03*
X127076200Y-78740000D03*
X129616200Y-78740000D03*
X132156200Y-78740000D03*
X134696200Y-78740000D03*
X137236200Y-78740000D03*
X139776200Y-78740000D03*
X142316200Y-78740000D03*
X144856200Y-78740000D03*
X147396200Y-78740000D03*
X149936200Y-78740000D03*
X152476200Y-78740000D03*
X155016200Y-78740000D03*
X157556200Y-78740000D03*
X160096200Y-78740000D03*
X162636200Y-78740000D03*
X165176200Y-78740000D03*
X167716200Y-78740000D03*
X170256200Y-78740000D03*
X172796200Y-78740000D03*
X175336200Y-78740000D03*
X177876200Y-78740000D03*
%TD*%
M02*
