%TF.GenerationSoftware,KiCad,Pcbnew,8.0.6-8.0.6-0~ubuntu24.04.1*%
%TF.CreationDate,2024-10-21T21:20:02+03:00*%
%TF.ProjectId,ZX Spectrum_ BUS Expander,5a582053-7065-4637-9472-756d2c204255,rev?*%
%TF.SameCoordinates,Original*%
%TF.FileFunction,Soldermask,Top*%
%TF.FilePolarity,Negative*%
%FSLAX46Y46*%
G04 Gerber Fmt 4.6, Leading zero omitted, Abs format (unit mm)*
G04 Created by KiCad (PCBNEW 8.0.6-8.0.6-0~ubuntu24.04.1) date 2024-10-21 21:20:02*
%MOMM*%
%LPD*%
G01*
G04 APERTURE LIST*
G04 Aperture macros list*
%AMRoundRect*
0 Rectangle with rounded corners*
0 $1 Rounding radius*
0 $2 $3 $4 $5 $6 $7 $8 $9 X,Y pos of 4 corners*
0 Add a 4 corners polygon primitive as box body*
4,1,4,$2,$3,$4,$5,$6,$7,$8,$9,$2,$3,0*
0 Add four circle primitives for the rounded corners*
1,1,$1+$1,$2,$3*
1,1,$1+$1,$4,$5*
1,1,$1+$1,$6,$7*
1,1,$1+$1,$8,$9*
0 Add four rect primitives between the rounded corners*
20,1,$1+$1,$2,$3,$4,$5,0*
20,1,$1+$1,$4,$5,$6,$7,0*
20,1,$1+$1,$6,$7,$8,$9,0*
20,1,$1+$1,$8,$9,$2,$3,0*%
%AMFreePoly0*
4,1,19,0.500000,-0.750000,0.000000,-0.750000,0.000000,-0.744911,-0.071157,-0.744911,-0.207708,-0.704816,-0.327430,-0.627875,-0.420627,-0.520320,-0.479746,-0.390866,-0.500000,-0.250000,-0.500000,0.250000,-0.479746,0.390866,-0.420627,0.520320,-0.327430,0.627875,-0.207708,0.704816,-0.071157,0.744911,0.000000,0.744911,0.000000,0.750000,0.500000,0.750000,0.500000,-0.750000,0.500000,-0.750000,
$1*%
%AMFreePoly1*
4,1,19,0.000000,0.744911,0.071157,0.744911,0.207708,0.704816,0.327430,0.627875,0.420627,0.520320,0.479746,0.390866,0.500000,0.250000,0.500000,-0.250000,0.479746,-0.390866,0.420627,-0.520320,0.327430,-0.627875,0.207708,-0.704816,0.071157,-0.744911,0.000000,-0.744911,0.000000,-0.750000,-0.500000,-0.750000,-0.500000,0.750000,0.000000,0.750000,0.000000,0.744911,0.000000,0.744911,
$1*%
G04 Aperture macros list end*
%ADD10C,0.200000*%
%ADD11R,1.524000X1.524000*%
%ADD12C,1.524000*%
%ADD13C,2.000000*%
%ADD14C,3.200000*%
%ADD15RoundRect,0.250000X-0.350000X-0.450000X0.350000X-0.450000X0.350000X0.450000X-0.350000X0.450000X0*%
%ADD16RoundRect,0.762000X-0.000010X-1.738000X0.000010X-1.738000X0.000010X1.738000X-0.000010X1.738000X0*%
%ADD17FreePoly0,270.000000*%
%ADD18FreePoly1,270.000000*%
%ADD19R,1.524000X7.620000*%
%ADD20RoundRect,0.250000X-0.450000X0.350000X-0.450000X-0.350000X0.450000X-0.350000X0.450000X0.350000X0*%
%ADD21RoundRect,0.250000X-0.325000X-0.450000X0.325000X-0.450000X0.325000X0.450000X-0.325000X0.450000X0*%
%ADD22RoundRect,0.250000X0.350000X0.450000X-0.350000X0.450000X-0.350000X-0.450000X0.350000X-0.450000X0*%
G04 APERTURE END LIST*
D10*
X102336600Y-87503000D02*
X100990400Y-87503000D01*
X101625400Y-86461600D01*
X101650800Y-86461600D01*
X102336600Y-87503000D01*
G36*
X102336600Y-87503000D02*
G01*
X100990400Y-87503000D01*
X101625400Y-86461600D01*
X101650800Y-86461600D01*
X102336600Y-87503000D01*
G37*
X101650800Y-76007487D02*
X101625400Y-76007487D01*
X100939600Y-74966087D01*
X102285800Y-74966087D01*
X101650800Y-76007487D01*
G36*
X101650800Y-76007487D02*
G01*
X101625400Y-76007487D01*
X100939600Y-74966087D01*
X102285800Y-74966087D01*
X101650800Y-76007487D01*
G37*
D11*
%TO.C,J1*%
X101676200Y-83820000D03*
D12*
X104216200Y-83820000D03*
X106756200Y-83820000D03*
X109296200Y-83820000D03*
X111836200Y-83820000D03*
X114376200Y-83820000D03*
X116916200Y-83820000D03*
X119456200Y-83820000D03*
X121996200Y-83820000D03*
X124536200Y-83820000D03*
X127076200Y-83820000D03*
X129616200Y-83820000D03*
X132156200Y-83820000D03*
X134696200Y-83820000D03*
X137236200Y-83820000D03*
X139776200Y-83820000D03*
X142316200Y-83820000D03*
X144856200Y-83820000D03*
X147396200Y-83820000D03*
X149936200Y-83820000D03*
X152476200Y-83820000D03*
X155016200Y-83820000D03*
X157556200Y-83820000D03*
X160096200Y-83820000D03*
X162636200Y-83820000D03*
X165176200Y-83820000D03*
X167716200Y-83820000D03*
X170256200Y-83820000D03*
X172796200Y-83820000D03*
X175336200Y-83820000D03*
X177876200Y-83820000D03*
D11*
X101676200Y-78740000D03*
D12*
X104216200Y-78740000D03*
X106756200Y-78740000D03*
X109296200Y-78740000D03*
X111836200Y-78740000D03*
X114376200Y-78740000D03*
X116916200Y-78740000D03*
X119456200Y-78740000D03*
X121996200Y-78740000D03*
X124536200Y-78740000D03*
X127076200Y-78740000D03*
X129616200Y-78740000D03*
X132156200Y-78740000D03*
X134696200Y-78740000D03*
X137236200Y-78740000D03*
X139776200Y-78740000D03*
X142316200Y-78740000D03*
X144856200Y-78740000D03*
X147396200Y-78740000D03*
X149936200Y-78740000D03*
X152476200Y-78740000D03*
X155016200Y-78740000D03*
X157556200Y-78740000D03*
X160096200Y-78740000D03*
X162636200Y-78740000D03*
X165176200Y-78740000D03*
X167716200Y-78740000D03*
X170256200Y-78740000D03*
X172796200Y-78740000D03*
X175336200Y-78740000D03*
X177876200Y-78740000D03*
%TD*%
D13*
%TO.C,S1*%
X102859400Y-99797800D03*
X102859400Y-106297800D03*
X98359400Y-99797800D03*
X98359400Y-106297800D03*
%TD*%
D14*
%TO.C,H1*%
X180619400Y-125549000D03*
%TD*%
D15*
%TO.C,R1*%
X127219200Y-106705400D03*
X129219200Y-106705400D03*
%TD*%
D16*
%TO.C,Z1*%
X105486200Y-136398000D03*
X108026200Y-136398000D03*
X110566200Y-136398000D03*
X113106200Y-136398000D03*
X118186200Y-136398000D03*
X120726200Y-136398000D03*
X123266200Y-136398000D03*
X125806200Y-136398000D03*
X128346200Y-136398000D03*
X130886200Y-136398000D03*
X133426200Y-136398000D03*
X135966200Y-136398000D03*
X138506200Y-136398000D03*
X141046200Y-136398000D03*
X143586200Y-136398000D03*
X146126200Y-136398000D03*
X148666200Y-136398000D03*
X151206200Y-136398000D03*
X153746200Y-136398000D03*
X156286200Y-136398000D03*
X158826200Y-136398000D03*
X161366200Y-136398000D03*
X163906200Y-136398000D03*
X166446200Y-136398000D03*
X168986200Y-136398000D03*
X171526200Y-136398000D03*
X174066200Y-136398000D03*
%TD*%
D14*
%TO.C,H4*%
X98845200Y-71026000D03*
%TD*%
D17*
%TO.C,JP1*%
X178206400Y-91714800D03*
D18*
X178206400Y-93014800D03*
%TD*%
D12*
%TO.C,J2*%
X115646200Y-116840000D03*
X115646200Y-119380000D03*
X105486200Y-119380000D03*
X108026200Y-119380000D03*
X110566200Y-119380000D03*
X113106200Y-119380000D03*
X118186200Y-119380000D03*
X120726200Y-119380000D03*
X123266200Y-119380000D03*
X125806200Y-119380000D03*
X128346200Y-119380000D03*
X130886200Y-119380000D03*
X133426200Y-119380000D03*
X135966200Y-119380000D03*
X138506200Y-119380000D03*
X141046200Y-119380000D03*
X143586200Y-119380000D03*
X146126200Y-119380000D03*
X148666200Y-119380000D03*
X151206200Y-119380000D03*
X153746200Y-119380000D03*
X156286200Y-119380000D03*
X158826200Y-119380000D03*
X161366200Y-119380000D03*
X163906200Y-119380000D03*
X166446200Y-119380000D03*
X168986200Y-119380000D03*
X171526200Y-119380000D03*
X174066200Y-119380000D03*
X105486200Y-116840000D03*
X108026200Y-116840000D03*
X110566200Y-116840000D03*
X113106200Y-116840000D03*
X118186200Y-116840000D03*
X120726200Y-116840000D03*
X123266200Y-116840000D03*
X125806200Y-116840000D03*
X128346200Y-116840000D03*
X130886200Y-116840000D03*
X133426200Y-116840000D03*
X135966200Y-116840000D03*
X138506200Y-116840000D03*
X141046200Y-116840000D03*
X143586200Y-116840000D03*
X146126200Y-116840000D03*
X148666200Y-116840000D03*
X151206200Y-116840000D03*
X153746200Y-116840000D03*
X156286200Y-116840000D03*
X158826200Y-116840000D03*
X161366200Y-116840000D03*
X163906200Y-116840000D03*
X166446200Y-116840000D03*
X168986200Y-116840000D03*
X171526200Y-116840000D03*
X174066200Y-116840000D03*
%TD*%
D14*
%TO.C,H2*%
X98845200Y-125549000D03*
%TD*%
D19*
%TO.C,Z2*%
X105486200Y-55753000D03*
X108026200Y-55753000D03*
X110566200Y-55753000D03*
X113106200Y-55753000D03*
X118186200Y-55753000D03*
X120726200Y-55753000D03*
X123266200Y-55753000D03*
X125806200Y-55753000D03*
X128346200Y-55753000D03*
X130886200Y-55753000D03*
X133426200Y-55753000D03*
X135966200Y-55753000D03*
X138506200Y-55753000D03*
X141046200Y-55753000D03*
X143586200Y-55753000D03*
X146126200Y-55753000D03*
X148666200Y-55753000D03*
X151206200Y-55753000D03*
X153746200Y-55753000D03*
X156286200Y-55753000D03*
X158826200Y-55753000D03*
X161366200Y-55753000D03*
X163906200Y-55753000D03*
X166446200Y-55753000D03*
X168986200Y-55753000D03*
X171526200Y-55753000D03*
X174066200Y-55753000D03*
%TD*%
D20*
%TO.C,R5*%
X154355800Y-91887800D03*
X154355800Y-93887800D03*
%TD*%
D21*
%TO.C,D1*%
X97882600Y-91338400D03*
X99932600Y-91338400D03*
%TD*%
D20*
%TO.C,R3*%
X141173200Y-91887800D03*
X141173200Y-93887800D03*
%TD*%
D14*
%TO.C,H3*%
X180619400Y-71026000D03*
%TD*%
D22*
%TO.C,R2*%
X104327200Y-91338400D03*
X102327200Y-91338400D03*
%TD*%
M02*
