M48
; DRILL file {KiCad 8.0.6-8.0.6-0~ubuntu24.04.1} date 2024-10-21T21:08:45+0300
; FORMAT={-:-/ absolute / inch / decimal}
; #@! TF.CreationDate,2024-10-21T21:08:45+03:00
; #@! TF.GenerationSoftware,Kicad,Pcbnew,8.0.6-8.0.6-0~ubuntu24.04.1
; #@! TF.FileFunction,Plated,1,2,PTH
FMAT,2
INCH
; #@! TA.AperFunction,Plated,PTH,ViaDrill
T1C0.0157
; #@! TA.AperFunction,Plated,PTH,ComponentDrill
T2C0.0300
; #@! TA.AperFunction,Plated,PTH,ComponentDrill
T3C0.0400
; #@! TA.AperFunction,Plated,PTH,ComponentDrill
T4C0.0433
%
G90
G05
T1
X4.197Y-3.512
X4.207Y-4.53
X4.297Y-3.512
X4.3Y-4.53
X4.337Y-3.764
X4.401Y-4.53
X4.408Y-3.51
X4.495Y-3.51
X4.495Y-4.53
X4.7Y-3.51
X4.701Y-4.531
X4.796Y-3.51
X4.797Y-4.501
X4.895Y-3.511
X4.895Y-4.53
X5.0Y-3.511
X5.001Y-4.53
X5.107Y-3.511
X5.108Y-4.53
X5.203Y-3.511
X5.206Y-4.53
X5.3Y-3.511
X5.3Y-4.53
X5.397Y-3.511
X5.401Y-4.53
X5.498Y-3.511
X5.503Y-4.53
X5.601Y-3.511
X5.601Y-4.53
X5.7Y-3.511
X5.702Y-4.53
X5.797Y-3.511
X5.8Y-4.53
X5.898Y-3.51
X5.901Y-4.53
X5.999Y-3.51
X6.002Y-4.53
X6.092Y-4.019
X6.1Y-3.379
X6.104Y-4.531
X6.202Y-3.381
X6.203Y-4.53
X6.301Y-3.511
X6.336Y-3.183
X6.385Y-3.428
X6.3872Y-3.2252
X6.404Y-4.53
X6.411Y-4.358
X6.413Y-3.479
X6.501Y-3.417
X6.503Y-4.531
X6.597Y-3.417
X6.605Y-4.531
X6.619Y-3.541
X6.619Y-4.071
X6.687Y-3.418
X6.703Y-4.532
X6.807Y-4.533
X6.815Y-3.398
X6.887Y-3.451
X6.914Y-4.051
T2
X4.153Y-4.6
X4.153Y-4.7
X4.253Y-4.6
X4.253Y-4.7
X4.353Y-4.6
X4.353Y-4.7
X4.453Y-4.6
X4.453Y-4.7
X4.553Y-4.6
X4.553Y-4.7
X4.653Y-4.6
X4.653Y-4.7
X4.753Y-4.6
X4.753Y-4.7
X4.853Y-4.6
X4.853Y-4.7
X4.953Y-4.6
X4.953Y-4.7
X5.053Y-4.6
X5.053Y-4.7
X5.153Y-4.6
X5.153Y-4.7
X5.253Y-4.6
X5.253Y-4.7
X5.353Y-4.6
X5.353Y-4.7
X5.453Y-4.6
X5.453Y-4.7
X5.553Y-4.6
X5.553Y-4.7
X5.653Y-4.6
X5.653Y-4.7
X5.753Y-4.6
X5.753Y-4.7
X5.853Y-4.6
X5.853Y-4.7
X5.953Y-4.6
X5.953Y-4.7
X6.053Y-4.6
X6.053Y-4.7
X6.153Y-4.6
X6.153Y-4.7
X6.253Y-4.6
X6.253Y-4.7
X6.353Y-4.6
X6.353Y-4.7
X6.453Y-4.6
X6.453Y-4.7
X6.553Y-4.6
X6.553Y-4.7
X6.653Y-4.6
X6.653Y-4.7
X6.753Y-4.6
X6.753Y-4.7
X6.853Y-4.6
X6.853Y-4.7
T3
X4.003Y-3.1
X4.003Y-3.3
X4.103Y-3.1
X4.103Y-3.3
X4.203Y-3.1
X4.203Y-3.3
X4.303Y-3.1
X4.303Y-3.3
X4.403Y-3.1
X4.403Y-3.3
X4.503Y-3.1
X4.503Y-3.3
X4.603Y-3.1
X4.603Y-3.3
X4.703Y-3.1
X4.703Y-3.3
X4.803Y-3.1
X4.803Y-3.3
X4.903Y-3.1
X4.903Y-3.3
X5.003Y-3.1
X5.003Y-3.3
X5.103Y-3.1
X5.103Y-3.3
X5.203Y-3.1
X5.203Y-3.3
X5.303Y-3.1
X5.303Y-3.3
X5.403Y-3.1
X5.403Y-3.3
X5.503Y-3.1
X5.503Y-3.3
X5.603Y-3.1
X5.603Y-3.3
X5.703Y-3.1
X5.703Y-3.3
X5.803Y-3.1
X5.803Y-3.3
X5.903Y-3.1
X5.903Y-3.3
X6.003Y-3.1
X6.003Y-3.3
X6.103Y-3.1
X6.103Y-3.3
X6.203Y-3.1
X6.203Y-3.3
X6.303Y-3.1
X6.303Y-3.3
X6.403Y-3.1
X6.403Y-3.3
X6.503Y-3.1
X6.503Y-3.3
X6.603Y-3.1
X6.603Y-3.3
X6.703Y-3.1
X6.703Y-3.3
X6.803Y-3.1
X6.803Y-3.3
X6.903Y-3.1
X6.903Y-3.3
X7.003Y-3.1
X7.003Y-3.3
T4
X3.8724Y-3.929
X3.8724Y-4.185
X4.0496Y-3.929
X4.0496Y-4.185
M30
