%TF.GenerationSoftware,KiCad,Pcbnew,8.0.6-8.0.6-0~ubuntu24.04.1*%
%TF.CreationDate,2024-10-21T21:19:59+03:00*%
%TF.ProjectId,ZX Spectrum_ BUS Expander,5a582053-7065-4637-9472-756d2c204255,rev?*%
%TF.SameCoordinates,Original*%
%TF.FileFunction,Drillmap*%
%TF.FilePolarity,Positive*%
%FSLAX45Y45*%
G04 Gerber Fmt 4.5, Leading zero omitted, Abs format (unit mm)*
G04 Created by KiCad (PCBNEW 8.0.6-8.0.6-0~ubuntu24.04.1) date 2024-10-21 21:19:59*
%MOMM*%
%LPD*%
G01*
G04 APERTURE LIST*
%ADD10C,0.150000*%
%ADD11C,0.200000*%
%ADD12C,0.320000*%
G04 APERTURE END LIST*
D10*
X9481820Y-12554900D02*
X9481820Y-5267551D01*
X9984520Y-13804900D02*
X9984520Y-13054900D01*
X11652820Y-5168900D02*
X18384520Y-5168900D01*
X11652820Y-6057900D02*
X11652820Y-5168900D01*
X18384520Y-5168900D02*
G75*
G02*
X18484520Y-5268900I0J-100000D01*
G01*
X9884520Y-12954900D02*
G75*
G02*
X9984520Y-13054900I0J-100000D01*
G01*
X9580471Y-5168900D02*
X11475020Y-5168900D01*
X17906757Y-13904000D02*
X10084520Y-13904900D01*
X18006757Y-13804000D02*
G75*
G02*
X17906757Y-13903997I-99997J0D01*
G01*
X9884520Y-12954900D02*
G75*
G02*
X9481820Y-12554900I-1350J401350D01*
G01*
X18484520Y-5268900D02*
X18484520Y-12554000D01*
X10084520Y-13904900D02*
G75*
G02*
X9984520Y-13804900I0J100000D01*
G01*
X18484520Y-12554000D02*
G75*
G02*
X18106757Y-12954000I-388880J-11120D01*
G01*
X11475020Y-5168900D02*
X11475020Y-6057900D01*
X9481820Y-5267551D02*
G75*
G02*
X9580471Y-5168900I98650J1D01*
G01*
X11475020Y-6057900D02*
X11652820Y-6057900D01*
X18006757Y-13054000D02*
X18006757Y-13804000D01*
X18006757Y-13054000D02*
G75*
G02*
X18106757Y-12953997I100003J0D01*
G01*
D11*
D12*
X9724520Y-6942600D02*
X10044520Y-7262600D01*
X10044520Y-6942600D02*
X9724520Y-7262600D01*
X9724520Y-12394900D02*
X10044520Y-12714900D01*
X10044520Y-12394900D02*
X9724520Y-12714900D01*
X17901940Y-6942600D02*
X18221940Y-7262600D01*
X18221940Y-6942600D02*
X17901940Y-7262600D01*
X17901940Y-12394900D02*
X18221940Y-12714900D01*
X18221940Y-12394900D02*
X17901940Y-12714900D01*
D11*
X9735097Y-14223884D02*
X9735097Y-14023884D01*
X9735097Y-14023884D02*
X9782716Y-14023884D01*
X9782716Y-14023884D02*
X9811287Y-14033408D01*
X9811287Y-14033408D02*
X9830335Y-14052455D01*
X9830335Y-14052455D02*
X9839859Y-14071503D01*
X9839859Y-14071503D02*
X9849383Y-14109598D01*
X9849383Y-14109598D02*
X9849383Y-14138169D01*
X9849383Y-14138169D02*
X9839859Y-14176265D01*
X9839859Y-14176265D02*
X9830335Y-14195312D01*
X9830335Y-14195312D02*
X9811287Y-14214360D01*
X9811287Y-14214360D02*
X9782716Y-14223884D01*
X9782716Y-14223884D02*
X9735097Y-14223884D01*
X9935097Y-14223884D02*
X9935097Y-14090550D01*
X9935097Y-14128646D02*
X9944621Y-14109598D01*
X9944621Y-14109598D02*
X9954144Y-14100074D01*
X9954144Y-14100074D02*
X9973192Y-14090550D01*
X9973192Y-14090550D02*
X9992240Y-14090550D01*
X10058906Y-14223884D02*
X10058906Y-14090550D01*
X10058906Y-14023884D02*
X10049383Y-14033408D01*
X10049383Y-14033408D02*
X10058906Y-14042931D01*
X10058906Y-14042931D02*
X10068430Y-14033408D01*
X10068430Y-14033408D02*
X10058906Y-14023884D01*
X10058906Y-14023884D02*
X10058906Y-14042931D01*
X10182716Y-14223884D02*
X10163668Y-14214360D01*
X10163668Y-14214360D02*
X10154144Y-14195312D01*
X10154144Y-14195312D02*
X10154144Y-14023884D01*
X10287478Y-14223884D02*
X10268430Y-14214360D01*
X10268430Y-14214360D02*
X10258906Y-14195312D01*
X10258906Y-14195312D02*
X10258906Y-14023884D01*
X10516049Y-14223884D02*
X10516049Y-14023884D01*
X10516049Y-14023884D02*
X10582716Y-14166741D01*
X10582716Y-14166741D02*
X10649383Y-14023884D01*
X10649383Y-14023884D02*
X10649383Y-14223884D01*
X10830335Y-14223884D02*
X10830335Y-14119122D01*
X10830335Y-14119122D02*
X10820811Y-14100074D01*
X10820811Y-14100074D02*
X10801764Y-14090550D01*
X10801764Y-14090550D02*
X10763668Y-14090550D01*
X10763668Y-14090550D02*
X10744621Y-14100074D01*
X10830335Y-14214360D02*
X10811287Y-14223884D01*
X10811287Y-14223884D02*
X10763668Y-14223884D01*
X10763668Y-14223884D02*
X10744621Y-14214360D01*
X10744621Y-14214360D02*
X10735097Y-14195312D01*
X10735097Y-14195312D02*
X10735097Y-14176265D01*
X10735097Y-14176265D02*
X10744621Y-14157217D01*
X10744621Y-14157217D02*
X10763668Y-14147693D01*
X10763668Y-14147693D02*
X10811287Y-14147693D01*
X10811287Y-14147693D02*
X10830335Y-14138169D01*
X10925573Y-14090550D02*
X10925573Y-14290550D01*
X10925573Y-14100074D02*
X10944621Y-14090550D01*
X10944621Y-14090550D02*
X10982716Y-14090550D01*
X10982716Y-14090550D02*
X11001764Y-14100074D01*
X11001764Y-14100074D02*
X11011287Y-14109598D01*
X11011287Y-14109598D02*
X11020811Y-14128646D01*
X11020811Y-14128646D02*
X11020811Y-14185788D01*
X11020811Y-14185788D02*
X11011287Y-14204836D01*
X11011287Y-14204836D02*
X11001764Y-14214360D01*
X11001764Y-14214360D02*
X10982716Y-14223884D01*
X10982716Y-14223884D02*
X10944621Y-14223884D01*
X10944621Y-14223884D02*
X10925573Y-14214360D01*
X11106525Y-14204836D02*
X11116049Y-14214360D01*
X11116049Y-14214360D02*
X11106525Y-14223884D01*
X11106525Y-14223884D02*
X11097002Y-14214360D01*
X11097002Y-14214360D02*
X11106525Y-14204836D01*
X11106525Y-14204836D02*
X11106525Y-14223884D01*
X11106525Y-14100074D02*
X11116049Y-14109598D01*
X11116049Y-14109598D02*
X11106525Y-14119122D01*
X11106525Y-14119122D02*
X11097002Y-14109598D01*
X11097002Y-14109598D02*
X11106525Y-14100074D01*
X11106525Y-14100074D02*
X11106525Y-14119122D01*
X9274320Y-14452400D02*
X9474320Y-14652400D01*
X9474320Y-14452400D02*
X9274320Y-14652400D01*
X9716049Y-14443884D02*
X9839859Y-14443884D01*
X9839859Y-14443884D02*
X9773192Y-14520074D01*
X9773192Y-14520074D02*
X9801764Y-14520074D01*
X9801764Y-14520074D02*
X9820811Y-14529598D01*
X9820811Y-14529598D02*
X9830335Y-14539122D01*
X9830335Y-14539122D02*
X9839859Y-14558169D01*
X9839859Y-14558169D02*
X9839859Y-14605788D01*
X9839859Y-14605788D02*
X9830335Y-14624836D01*
X9830335Y-14624836D02*
X9820811Y-14634360D01*
X9820811Y-14634360D02*
X9801764Y-14643884D01*
X9801764Y-14643884D02*
X9744621Y-14643884D01*
X9744621Y-14643884D02*
X9725573Y-14634360D01*
X9725573Y-14634360D02*
X9716049Y-14624836D01*
X9925573Y-14624836D02*
X9935097Y-14634360D01*
X9935097Y-14634360D02*
X9925573Y-14643884D01*
X9925573Y-14643884D02*
X9916049Y-14634360D01*
X9916049Y-14634360D02*
X9925573Y-14624836D01*
X9925573Y-14624836D02*
X9925573Y-14643884D01*
X10011287Y-14462931D02*
X10020811Y-14453408D01*
X10020811Y-14453408D02*
X10039859Y-14443884D01*
X10039859Y-14443884D02*
X10087478Y-14443884D01*
X10087478Y-14443884D02*
X10106525Y-14453408D01*
X10106525Y-14453408D02*
X10116049Y-14462931D01*
X10116049Y-14462931D02*
X10125573Y-14481979D01*
X10125573Y-14481979D02*
X10125573Y-14501027D01*
X10125573Y-14501027D02*
X10116049Y-14529598D01*
X10116049Y-14529598D02*
X10001764Y-14643884D01*
X10001764Y-14643884D02*
X10125573Y-14643884D01*
X10249383Y-14443884D02*
X10268430Y-14443884D01*
X10268430Y-14443884D02*
X10287478Y-14453408D01*
X10287478Y-14453408D02*
X10297002Y-14462931D01*
X10297002Y-14462931D02*
X10306525Y-14481979D01*
X10306525Y-14481979D02*
X10316049Y-14520074D01*
X10316049Y-14520074D02*
X10316049Y-14567693D01*
X10316049Y-14567693D02*
X10306525Y-14605788D01*
X10306525Y-14605788D02*
X10297002Y-14624836D01*
X10297002Y-14624836D02*
X10287478Y-14634360D01*
X10287478Y-14634360D02*
X10268430Y-14643884D01*
X10268430Y-14643884D02*
X10249383Y-14643884D01*
X10249383Y-14643884D02*
X10230335Y-14634360D01*
X10230335Y-14634360D02*
X10220811Y-14624836D01*
X10220811Y-14624836D02*
X10211287Y-14605788D01*
X10211287Y-14605788D02*
X10201764Y-14567693D01*
X10201764Y-14567693D02*
X10201764Y-14520074D01*
X10201764Y-14520074D02*
X10211287Y-14481979D01*
X10211287Y-14481979D02*
X10220811Y-14462931D01*
X10220811Y-14462931D02*
X10230335Y-14453408D01*
X10230335Y-14453408D02*
X10249383Y-14443884D01*
X10439859Y-14443884D02*
X10458906Y-14443884D01*
X10458906Y-14443884D02*
X10477954Y-14453408D01*
X10477954Y-14453408D02*
X10487478Y-14462931D01*
X10487478Y-14462931D02*
X10497002Y-14481979D01*
X10497002Y-14481979D02*
X10506525Y-14520074D01*
X10506525Y-14520074D02*
X10506525Y-14567693D01*
X10506525Y-14567693D02*
X10497002Y-14605788D01*
X10497002Y-14605788D02*
X10487478Y-14624836D01*
X10487478Y-14624836D02*
X10477954Y-14634360D01*
X10477954Y-14634360D02*
X10458906Y-14643884D01*
X10458906Y-14643884D02*
X10439859Y-14643884D01*
X10439859Y-14643884D02*
X10420811Y-14634360D01*
X10420811Y-14634360D02*
X10411287Y-14624836D01*
X10411287Y-14624836D02*
X10401764Y-14605788D01*
X10401764Y-14605788D02*
X10392240Y-14567693D01*
X10392240Y-14567693D02*
X10392240Y-14520074D01*
X10392240Y-14520074D02*
X10401764Y-14481979D01*
X10401764Y-14481979D02*
X10411287Y-14462931D01*
X10411287Y-14462931D02*
X10420811Y-14453408D01*
X10420811Y-14453408D02*
X10439859Y-14443884D01*
X10592240Y-14643884D02*
X10592240Y-14510550D01*
X10592240Y-14529598D02*
X10601764Y-14520074D01*
X10601764Y-14520074D02*
X10620811Y-14510550D01*
X10620811Y-14510550D02*
X10649383Y-14510550D01*
X10649383Y-14510550D02*
X10668430Y-14520074D01*
X10668430Y-14520074D02*
X10677954Y-14539122D01*
X10677954Y-14539122D02*
X10677954Y-14643884D01*
X10677954Y-14539122D02*
X10687478Y-14520074D01*
X10687478Y-14520074D02*
X10706525Y-14510550D01*
X10706525Y-14510550D02*
X10735097Y-14510550D01*
X10735097Y-14510550D02*
X10754145Y-14520074D01*
X10754145Y-14520074D02*
X10763668Y-14539122D01*
X10763668Y-14539122D02*
X10763668Y-14643884D01*
X10858906Y-14643884D02*
X10858906Y-14510550D01*
X10858906Y-14529598D02*
X10868430Y-14520074D01*
X10868430Y-14520074D02*
X10887478Y-14510550D01*
X10887478Y-14510550D02*
X10916049Y-14510550D01*
X10916049Y-14510550D02*
X10935097Y-14520074D01*
X10935097Y-14520074D02*
X10944621Y-14539122D01*
X10944621Y-14539122D02*
X10944621Y-14643884D01*
X10944621Y-14539122D02*
X10954145Y-14520074D01*
X10954145Y-14520074D02*
X10973192Y-14510550D01*
X10973192Y-14510550D02*
X11001764Y-14510550D01*
X11001764Y-14510550D02*
X11020811Y-14520074D01*
X11020811Y-14520074D02*
X11030335Y-14539122D01*
X11030335Y-14539122D02*
X11030335Y-14643884D01*
X11420811Y-14434360D02*
X11249383Y-14691503D01*
X11677954Y-14443884D02*
X11697002Y-14443884D01*
X11697002Y-14443884D02*
X11716049Y-14453408D01*
X11716049Y-14453408D02*
X11725573Y-14462931D01*
X11725573Y-14462931D02*
X11735097Y-14481979D01*
X11735097Y-14481979D02*
X11744621Y-14520074D01*
X11744621Y-14520074D02*
X11744621Y-14567693D01*
X11744621Y-14567693D02*
X11735097Y-14605788D01*
X11735097Y-14605788D02*
X11725573Y-14624836D01*
X11725573Y-14624836D02*
X11716049Y-14634360D01*
X11716049Y-14634360D02*
X11697002Y-14643884D01*
X11697002Y-14643884D02*
X11677954Y-14643884D01*
X11677954Y-14643884D02*
X11658906Y-14634360D01*
X11658906Y-14634360D02*
X11649383Y-14624836D01*
X11649383Y-14624836D02*
X11639859Y-14605788D01*
X11639859Y-14605788D02*
X11630335Y-14567693D01*
X11630335Y-14567693D02*
X11630335Y-14520074D01*
X11630335Y-14520074D02*
X11639859Y-14481979D01*
X11639859Y-14481979D02*
X11649383Y-14462931D01*
X11649383Y-14462931D02*
X11658906Y-14453408D01*
X11658906Y-14453408D02*
X11677954Y-14443884D01*
X11830335Y-14624836D02*
X11839859Y-14634360D01*
X11839859Y-14634360D02*
X11830335Y-14643884D01*
X11830335Y-14643884D02*
X11820811Y-14634360D01*
X11820811Y-14634360D02*
X11830335Y-14624836D01*
X11830335Y-14624836D02*
X11830335Y-14643884D01*
X12030335Y-14643884D02*
X11916049Y-14643884D01*
X11973192Y-14643884D02*
X11973192Y-14443884D01*
X11973192Y-14443884D02*
X11954145Y-14472455D01*
X11954145Y-14472455D02*
X11935097Y-14491503D01*
X11935097Y-14491503D02*
X11916049Y-14501027D01*
X12106526Y-14462931D02*
X12116049Y-14453408D01*
X12116049Y-14453408D02*
X12135097Y-14443884D01*
X12135097Y-14443884D02*
X12182716Y-14443884D01*
X12182716Y-14443884D02*
X12201764Y-14453408D01*
X12201764Y-14453408D02*
X12211287Y-14462931D01*
X12211287Y-14462931D02*
X12220811Y-14481979D01*
X12220811Y-14481979D02*
X12220811Y-14501027D01*
X12220811Y-14501027D02*
X12211287Y-14529598D01*
X12211287Y-14529598D02*
X12097002Y-14643884D01*
X12097002Y-14643884D02*
X12220811Y-14643884D01*
X12392240Y-14443884D02*
X12354145Y-14443884D01*
X12354145Y-14443884D02*
X12335097Y-14453408D01*
X12335097Y-14453408D02*
X12325573Y-14462931D01*
X12325573Y-14462931D02*
X12306526Y-14491503D01*
X12306526Y-14491503D02*
X12297002Y-14529598D01*
X12297002Y-14529598D02*
X12297002Y-14605788D01*
X12297002Y-14605788D02*
X12306526Y-14624836D01*
X12306526Y-14624836D02*
X12316049Y-14634360D01*
X12316049Y-14634360D02*
X12335097Y-14643884D01*
X12335097Y-14643884D02*
X12373192Y-14643884D01*
X12373192Y-14643884D02*
X12392240Y-14634360D01*
X12392240Y-14634360D02*
X12401764Y-14624836D01*
X12401764Y-14624836D02*
X12411287Y-14605788D01*
X12411287Y-14605788D02*
X12411287Y-14558169D01*
X12411287Y-14558169D02*
X12401764Y-14539122D01*
X12401764Y-14539122D02*
X12392240Y-14529598D01*
X12392240Y-14529598D02*
X12373192Y-14520074D01*
X12373192Y-14520074D02*
X12335097Y-14520074D01*
X12335097Y-14520074D02*
X12316049Y-14529598D01*
X12316049Y-14529598D02*
X12306526Y-14539122D01*
X12306526Y-14539122D02*
X12297002Y-14558169D01*
X12535097Y-14443884D02*
X12554145Y-14443884D01*
X12554145Y-14443884D02*
X12573192Y-14453408D01*
X12573192Y-14453408D02*
X12582716Y-14462931D01*
X12582716Y-14462931D02*
X12592240Y-14481979D01*
X12592240Y-14481979D02*
X12601764Y-14520074D01*
X12601764Y-14520074D02*
X12601764Y-14567693D01*
X12601764Y-14567693D02*
X12592240Y-14605788D01*
X12592240Y-14605788D02*
X12582716Y-14624836D01*
X12582716Y-14624836D02*
X12573192Y-14634360D01*
X12573192Y-14634360D02*
X12554145Y-14643884D01*
X12554145Y-14643884D02*
X12535097Y-14643884D01*
X12535097Y-14643884D02*
X12516049Y-14634360D01*
X12516049Y-14634360D02*
X12506526Y-14624836D01*
X12506526Y-14624836D02*
X12497002Y-14605788D01*
X12497002Y-14605788D02*
X12487478Y-14567693D01*
X12487478Y-14567693D02*
X12487478Y-14520074D01*
X12487478Y-14520074D02*
X12497002Y-14481979D01*
X12497002Y-14481979D02*
X12506526Y-14462931D01*
X12506526Y-14462931D02*
X12516049Y-14453408D01*
X12516049Y-14453408D02*
X12535097Y-14443884D01*
X12677954Y-14443884D02*
X12677954Y-14481979D01*
X12754145Y-14443884D02*
X12754145Y-14481979D01*
X13049383Y-14720074D02*
X13039859Y-14710550D01*
X13039859Y-14710550D02*
X13020811Y-14681979D01*
X13020811Y-14681979D02*
X13011288Y-14662931D01*
X13011288Y-14662931D02*
X13001764Y-14634360D01*
X13001764Y-14634360D02*
X12992240Y-14586741D01*
X12992240Y-14586741D02*
X12992240Y-14548646D01*
X12992240Y-14548646D02*
X13001764Y-14501027D01*
X13001764Y-14501027D02*
X13011288Y-14472455D01*
X13011288Y-14472455D02*
X13020811Y-14453408D01*
X13020811Y-14453408D02*
X13039859Y-14424836D01*
X13039859Y-14424836D02*
X13049383Y-14415312D01*
X13211288Y-14510550D02*
X13211288Y-14643884D01*
X13163668Y-14434360D02*
X13116049Y-14577217D01*
X13116049Y-14577217D02*
X13239859Y-14577217D01*
X13468430Y-14643884D02*
X13468430Y-14443884D01*
X13554145Y-14643884D02*
X13554145Y-14539122D01*
X13554145Y-14539122D02*
X13544621Y-14520074D01*
X13544621Y-14520074D02*
X13525573Y-14510550D01*
X13525573Y-14510550D02*
X13497002Y-14510550D01*
X13497002Y-14510550D02*
X13477954Y-14520074D01*
X13477954Y-14520074D02*
X13468430Y-14529598D01*
X13677954Y-14643884D02*
X13658907Y-14634360D01*
X13658907Y-14634360D02*
X13649383Y-14624836D01*
X13649383Y-14624836D02*
X13639859Y-14605788D01*
X13639859Y-14605788D02*
X13639859Y-14548646D01*
X13639859Y-14548646D02*
X13649383Y-14529598D01*
X13649383Y-14529598D02*
X13658907Y-14520074D01*
X13658907Y-14520074D02*
X13677954Y-14510550D01*
X13677954Y-14510550D02*
X13706526Y-14510550D01*
X13706526Y-14510550D02*
X13725573Y-14520074D01*
X13725573Y-14520074D02*
X13735097Y-14529598D01*
X13735097Y-14529598D02*
X13744621Y-14548646D01*
X13744621Y-14548646D02*
X13744621Y-14605788D01*
X13744621Y-14605788D02*
X13735097Y-14624836D01*
X13735097Y-14624836D02*
X13725573Y-14634360D01*
X13725573Y-14634360D02*
X13706526Y-14643884D01*
X13706526Y-14643884D02*
X13677954Y-14643884D01*
X13858907Y-14643884D02*
X13839859Y-14634360D01*
X13839859Y-14634360D02*
X13830335Y-14615312D01*
X13830335Y-14615312D02*
X13830335Y-14443884D01*
X14011288Y-14634360D02*
X13992240Y-14643884D01*
X13992240Y-14643884D02*
X13954145Y-14643884D01*
X13954145Y-14643884D02*
X13935097Y-14634360D01*
X13935097Y-14634360D02*
X13925573Y-14615312D01*
X13925573Y-14615312D02*
X13925573Y-14539122D01*
X13925573Y-14539122D02*
X13935097Y-14520074D01*
X13935097Y-14520074D02*
X13954145Y-14510550D01*
X13954145Y-14510550D02*
X13992240Y-14510550D01*
X13992240Y-14510550D02*
X14011288Y-14520074D01*
X14011288Y-14520074D02*
X14020811Y-14539122D01*
X14020811Y-14539122D02*
X14020811Y-14558169D01*
X14020811Y-14558169D02*
X13925573Y-14577217D01*
X14097002Y-14634360D02*
X14116050Y-14643884D01*
X14116050Y-14643884D02*
X14154145Y-14643884D01*
X14154145Y-14643884D02*
X14173192Y-14634360D01*
X14173192Y-14634360D02*
X14182716Y-14615312D01*
X14182716Y-14615312D02*
X14182716Y-14605788D01*
X14182716Y-14605788D02*
X14173192Y-14586741D01*
X14173192Y-14586741D02*
X14154145Y-14577217D01*
X14154145Y-14577217D02*
X14125573Y-14577217D01*
X14125573Y-14577217D02*
X14106526Y-14567693D01*
X14106526Y-14567693D02*
X14097002Y-14548646D01*
X14097002Y-14548646D02*
X14097002Y-14539122D01*
X14097002Y-14539122D02*
X14106526Y-14520074D01*
X14106526Y-14520074D02*
X14125573Y-14510550D01*
X14125573Y-14510550D02*
X14154145Y-14510550D01*
X14154145Y-14510550D02*
X14173192Y-14520074D01*
X14249383Y-14720074D02*
X14258907Y-14710550D01*
X14258907Y-14710550D02*
X14277954Y-14681979D01*
X14277954Y-14681979D02*
X14287478Y-14662931D01*
X14287478Y-14662931D02*
X14297002Y-14634360D01*
X14297002Y-14634360D02*
X14306526Y-14586741D01*
X14306526Y-14586741D02*
X14306526Y-14548646D01*
X14306526Y-14548646D02*
X14297002Y-14501027D01*
X14297002Y-14501027D02*
X14287478Y-14472455D01*
X14287478Y-14472455D02*
X14277954Y-14453408D01*
X14277954Y-14453408D02*
X14258907Y-14424836D01*
X14258907Y-14424836D02*
X14249383Y-14415312D01*
X14611288Y-14720074D02*
X14601764Y-14710550D01*
X14601764Y-14710550D02*
X14582716Y-14681979D01*
X14582716Y-14681979D02*
X14573192Y-14662931D01*
X14573192Y-14662931D02*
X14563669Y-14634360D01*
X14563669Y-14634360D02*
X14554145Y-14586741D01*
X14554145Y-14586741D02*
X14554145Y-14548646D01*
X14554145Y-14548646D02*
X14563669Y-14501027D01*
X14563669Y-14501027D02*
X14573192Y-14472455D01*
X14573192Y-14472455D02*
X14582716Y-14453408D01*
X14582716Y-14453408D02*
X14601764Y-14424836D01*
X14601764Y-14424836D02*
X14611288Y-14415312D01*
X14687478Y-14510550D02*
X14687478Y-14643884D01*
X14687478Y-14529598D02*
X14697002Y-14520074D01*
X14697002Y-14520074D02*
X14716050Y-14510550D01*
X14716050Y-14510550D02*
X14744621Y-14510550D01*
X14744621Y-14510550D02*
X14763669Y-14520074D01*
X14763669Y-14520074D02*
X14773192Y-14539122D01*
X14773192Y-14539122D02*
X14773192Y-14643884D01*
X14897002Y-14643884D02*
X14877954Y-14634360D01*
X14877954Y-14634360D02*
X14868431Y-14624836D01*
X14868431Y-14624836D02*
X14858907Y-14605788D01*
X14858907Y-14605788D02*
X14858907Y-14548646D01*
X14858907Y-14548646D02*
X14868431Y-14529598D01*
X14868431Y-14529598D02*
X14877954Y-14520074D01*
X14877954Y-14520074D02*
X14897002Y-14510550D01*
X14897002Y-14510550D02*
X14925573Y-14510550D01*
X14925573Y-14510550D02*
X14944621Y-14520074D01*
X14944621Y-14520074D02*
X14954145Y-14529598D01*
X14954145Y-14529598D02*
X14963669Y-14548646D01*
X14963669Y-14548646D02*
X14963669Y-14605788D01*
X14963669Y-14605788D02*
X14954145Y-14624836D01*
X14954145Y-14624836D02*
X14944621Y-14634360D01*
X14944621Y-14634360D02*
X14925573Y-14643884D01*
X14925573Y-14643884D02*
X14897002Y-14643884D01*
X15020812Y-14510550D02*
X15097002Y-14510550D01*
X15049383Y-14443884D02*
X15049383Y-14615312D01*
X15049383Y-14615312D02*
X15058907Y-14634360D01*
X15058907Y-14634360D02*
X15077954Y-14643884D01*
X15077954Y-14643884D02*
X15097002Y-14643884D01*
X15316050Y-14510550D02*
X15316050Y-14710550D01*
X15316050Y-14520074D02*
X15335097Y-14510550D01*
X15335097Y-14510550D02*
X15373193Y-14510550D01*
X15373193Y-14510550D02*
X15392240Y-14520074D01*
X15392240Y-14520074D02*
X15401764Y-14529598D01*
X15401764Y-14529598D02*
X15411288Y-14548646D01*
X15411288Y-14548646D02*
X15411288Y-14605788D01*
X15411288Y-14605788D02*
X15401764Y-14624836D01*
X15401764Y-14624836D02*
X15392240Y-14634360D01*
X15392240Y-14634360D02*
X15373193Y-14643884D01*
X15373193Y-14643884D02*
X15335097Y-14643884D01*
X15335097Y-14643884D02*
X15316050Y-14634360D01*
X15525573Y-14643884D02*
X15506526Y-14634360D01*
X15506526Y-14634360D02*
X15497002Y-14615312D01*
X15497002Y-14615312D02*
X15497002Y-14443884D01*
X15687478Y-14643884D02*
X15687478Y-14539122D01*
X15687478Y-14539122D02*
X15677954Y-14520074D01*
X15677954Y-14520074D02*
X15658907Y-14510550D01*
X15658907Y-14510550D02*
X15620812Y-14510550D01*
X15620812Y-14510550D02*
X15601764Y-14520074D01*
X15687478Y-14634360D02*
X15668431Y-14643884D01*
X15668431Y-14643884D02*
X15620812Y-14643884D01*
X15620812Y-14643884D02*
X15601764Y-14634360D01*
X15601764Y-14634360D02*
X15592240Y-14615312D01*
X15592240Y-14615312D02*
X15592240Y-14596265D01*
X15592240Y-14596265D02*
X15601764Y-14577217D01*
X15601764Y-14577217D02*
X15620812Y-14567693D01*
X15620812Y-14567693D02*
X15668431Y-14567693D01*
X15668431Y-14567693D02*
X15687478Y-14558169D01*
X15754145Y-14510550D02*
X15830335Y-14510550D01*
X15782716Y-14443884D02*
X15782716Y-14615312D01*
X15782716Y-14615312D02*
X15792240Y-14634360D01*
X15792240Y-14634360D02*
X15811288Y-14643884D01*
X15811288Y-14643884D02*
X15830335Y-14643884D01*
X15973193Y-14634360D02*
X15954145Y-14643884D01*
X15954145Y-14643884D02*
X15916050Y-14643884D01*
X15916050Y-14643884D02*
X15897002Y-14634360D01*
X15897002Y-14634360D02*
X15887478Y-14615312D01*
X15887478Y-14615312D02*
X15887478Y-14539122D01*
X15887478Y-14539122D02*
X15897002Y-14520074D01*
X15897002Y-14520074D02*
X15916050Y-14510550D01*
X15916050Y-14510550D02*
X15954145Y-14510550D01*
X15954145Y-14510550D02*
X15973193Y-14520074D01*
X15973193Y-14520074D02*
X15982716Y-14539122D01*
X15982716Y-14539122D02*
X15982716Y-14558169D01*
X15982716Y-14558169D02*
X15887478Y-14577217D01*
X16154145Y-14643884D02*
X16154145Y-14443884D01*
X16154145Y-14634360D02*
X16135097Y-14643884D01*
X16135097Y-14643884D02*
X16097002Y-14643884D01*
X16097002Y-14643884D02*
X16077954Y-14634360D01*
X16077954Y-14634360D02*
X16068431Y-14624836D01*
X16068431Y-14624836D02*
X16058907Y-14605788D01*
X16058907Y-14605788D02*
X16058907Y-14548646D01*
X16058907Y-14548646D02*
X16068431Y-14529598D01*
X16068431Y-14529598D02*
X16077954Y-14520074D01*
X16077954Y-14520074D02*
X16097002Y-14510550D01*
X16097002Y-14510550D02*
X16135097Y-14510550D01*
X16135097Y-14510550D02*
X16154145Y-14520074D01*
X16230335Y-14720074D02*
X16239859Y-14710550D01*
X16239859Y-14710550D02*
X16258907Y-14681979D01*
X16258907Y-14681979D02*
X16268431Y-14662931D01*
X16268431Y-14662931D02*
X16277954Y-14634360D01*
X16277954Y-14634360D02*
X16287478Y-14586741D01*
X16287478Y-14586741D02*
X16287478Y-14548646D01*
X16287478Y-14548646D02*
X16277954Y-14501027D01*
X16277954Y-14501027D02*
X16268431Y-14472455D01*
X16268431Y-14472455D02*
X16258907Y-14453408D01*
X16258907Y-14453408D02*
X16239859Y-14424836D01*
X16239859Y-14424836D02*
X16230335Y-14415312D01*
M02*
