%TF.GenerationSoftware,KiCad,Pcbnew,8.0.6-8.0.6-0~ubuntu24.04.1*%
%TF.CreationDate,2024-10-21T21:20:02+03:00*%
%TF.ProjectId,ZX Spectrum_ BUS Expander,5a582053-7065-4637-9472-756d2c204255,rev?*%
%TF.SameCoordinates,Original*%
%TF.FileFunction,Copper,L2,Bot*%
%TF.FilePolarity,Positive*%
%FSLAX46Y46*%
G04 Gerber Fmt 4.6, Leading zero omitted, Abs format (unit mm)*
G04 Created by KiCad (PCBNEW 8.0.6-8.0.6-0~ubuntu24.04.1) date 2024-10-21 21:20:02*
%MOMM*%
%LPD*%
G01*
G04 APERTURE LIST*
G04 Aperture macros list*
%AMRoundRect*
0 Rectangle with rounded corners*
0 $1 Rounding radius*
0 $2 $3 $4 $5 $6 $7 $8 $9 X,Y pos of 4 corners*
0 Add a 4 corners polygon primitive as box body*
4,1,4,$2,$3,$4,$5,$6,$7,$8,$9,$2,$3,0*
0 Add four circle primitives for the rounded corners*
1,1,$1+$1,$2,$3*
1,1,$1+$1,$4,$5*
1,1,$1+$1,$6,$7*
1,1,$1+$1,$8,$9*
0 Add four rect primitives between the rounded corners*
20,1,$1+$1,$2,$3,$4,$5,0*
20,1,$1+$1,$4,$5,$6,$7,0*
20,1,$1+$1,$6,$7,$8,$9,0*
20,1,$1+$1,$8,$9,$2,$3,0*%
G04 Aperture macros list end*
%TA.AperFunction,ComponentPad*%
%ADD10R,1.524000X1.524000*%
%TD*%
%TA.AperFunction,ComponentPad*%
%ADD11C,1.524000*%
%TD*%
%TA.AperFunction,ComponentPad*%
%ADD12C,2.000000*%
%TD*%
%TA.AperFunction,SMDPad,CuDef*%
%ADD13RoundRect,0.762000X-0.000010X-1.738000X0.000010X-1.738000X0.000010X1.738000X-0.000010X1.738000X0*%
%TD*%
%TA.AperFunction,SMDPad,CuDef*%
%ADD14R,1.524000X7.620000*%
%TD*%
%TA.AperFunction,SMDPad,CuDef*%
%ADD15RoundRect,0.250000X0.350000X0.450000X-0.350000X0.450000X-0.350000X-0.450000X0.350000X-0.450000X0*%
%TD*%
%TA.AperFunction,ViaPad*%
%ADD16C,0.800000*%
%TD*%
%TA.AperFunction,Conductor*%
%ADD17C,0.250000*%
%TD*%
%TA.AperFunction,Conductor*%
%ADD18C,0.500000*%
%TD*%
G04 APERTURE END LIST*
D10*
%TO.P,J1,A1,A15*%
%TO.N,A15*%
X101676200Y-83820000D03*
D11*
%TO.P,J1,A2,A13*%
%TO.N,A13*%
X104216200Y-83820000D03*
%TO.P,J1,A3,D7*%
%TO.N,D7*%
X106756200Y-83820000D03*
%TO.P,J1,A4,BLK*%
%TO.N,unconnected-(J1-BLK-PadA4)*%
X109296200Y-83820000D03*
%TO.P,J1,A5,TURBO*%
%TO.N,unconnected-(J1-TURBO-PadA5)*%
X111836200Y-83820000D03*
%TO.P,J1,A6,D0*%
%TO.N,D0*%
X114376200Y-83820000D03*
%TO.P,J1,A7,D1*%
%TO.N,D1*%
X116916200Y-83820000D03*
%TO.P,J1,A8,D2*%
%TO.N,D2*%
X119456200Y-83820000D03*
%TO.P,J1,A9,D6*%
%TO.N,D6*%
X121996200Y-83820000D03*
%TO.P,J1,A10,D5*%
%TO.N,D5*%
X124536200Y-83820000D03*
%TO.P,J1,A11,D3*%
%TO.N,D3*%
X127076200Y-83820000D03*
%TO.P,J1,A12,D4*%
%TO.N,D4*%
X129616200Y-83820000D03*
%TO.P,J1,A13,~{INT}*%
%TO.N,~{INT}*%
X132156200Y-83820000D03*
%TO.P,J1,A14,~{NMI}*%
%TO.N,~{NMI}*%
X134696200Y-83820000D03*
%TO.P,J1,A15,~{HALT}*%
%TO.N,~{HALT}*%
X137236200Y-83820000D03*
%TO.P,J1,A16,~{MREQ}*%
%TO.N,~{MREQ}*%
X139776200Y-83820000D03*
%TO.P,J1,A17,~{IORQ}*%
%TO.N,~{IORQ}*%
X142316200Y-83820000D03*
%TO.P,J1,A18,~{RD}*%
%TO.N,~{RD}*%
X144856200Y-83820000D03*
%TO.P,J1,A19,~{WR}*%
%TO.N,~{WR}*%
X147396200Y-83820000D03*
%TO.P,J1,A20,~{IODOS}*%
%TO.N,~{IODOS}*%
X149936200Y-83820000D03*
%TO.P,J1,A21,~{WAIT}*%
%TO.N,~{WAIT}*%
X152476200Y-83820000D03*
%TO.P,J1,A22,NC*%
%TO.N,unconnected-(J1-NC-PadA22)*%
X155016200Y-83820000D03*
%TO.P,J1,A23,NC*%
%TO.N,unconnected-(J1-NC-PadA23)*%
X157556200Y-83820000D03*
%TO.P,J1,A24,~{M1}*%
%TO.N,~{M1}*%
X160096200Y-83820000D03*
%TO.P,J1,A25,~{RFSH}*%
%TO.N,~{RFSH}*%
X162636200Y-83820000D03*
%TO.P,J1,A26,A8*%
%TO.N,A8*%
X165176200Y-83820000D03*
%TO.P,J1,A27,A10*%
%TO.N,A10*%
X167716200Y-83820000D03*
%TO.P,J1,A28,+5V*%
%TO.N,+5V*%
X170256200Y-83820000D03*
%TO.P,J1,A29,+12V*%
%TO.N,+12V*%
X172796200Y-83820000D03*
%TO.P,J1,A30,GND*%
%TO.N,GND*%
X175336200Y-83820000D03*
%TO.P,J1,A31,NC*%
%TO.N,-12V*%
X177876200Y-83820000D03*
D10*
%TO.P,J1,B1,A14*%
%TO.N,A14*%
X101676200Y-78740000D03*
D11*
%TO.P,J1,B2,A12*%
%TO.N,A12*%
X104216200Y-78740000D03*
%TO.P,J1,B3,+5v*%
%TO.N,+5V*%
X106756200Y-78740000D03*
%TO.P,J1,B4,~{DOS}*%
%TO.N,~{DOS}*%
X109296200Y-78740000D03*
%TO.P,J1,B5,F*%
%TO.N,unconnected-(J1-F-PadB5)*%
X111836200Y-78740000D03*
%TO.P,J1,B6,GND*%
%TO.N,GND*%
X114376200Y-78740000D03*
%TO.P,J1,B7,GND*%
X116916200Y-78740000D03*
%TO.P,J1,B8,~{CLK}*%
%TO.N,~{CLK}*%
X119456200Y-78740000D03*
%TO.P,J1,B9,A0*%
%TO.N,A0*%
X121996200Y-78740000D03*
%TO.P,J1,B10,A1*%
%TO.N,A1*%
X124536200Y-78740000D03*
%TO.P,J1,B11,A2*%
%TO.N,A2*%
X127076200Y-78740000D03*
%TO.P,J1,B12,A3*%
%TO.N,A3*%
X129616200Y-78740000D03*
%TO.P,J1,B13,~{IORQGE}*%
%TO.N,~{IORQGE}*%
X132156200Y-78740000D03*
%TO.P,J1,B14,GND*%
%TO.N,GND*%
X134696200Y-78740000D03*
%TO.P,J1,B15,~{RDR}*%
%TO.N,~{RDR}*%
X137236200Y-78740000D03*
%TO.P,J1,B16,RS*%
%TO.N,RS*%
X139776200Y-78740000D03*
%TO.P,J1,B17,NC*%
%TO.N,unconnected-(J1-NC-PadB17)*%
X142316200Y-78740000D03*
%TO.P,J1,B18,NC*%
%TO.N,unconnected-(J1-NC-PadB18)*%
X144856200Y-78740000D03*
%TO.P,J1,B19,~{BUSRQ}*%
%TO.N,~{BUSRQ}*%
X147396200Y-78740000D03*
%TO.P,J1,B20,~{RESET}*%
%TO.N,~{RESET}*%
X149936200Y-78740000D03*
%TO.P,J1,B21,A7*%
%TO.N,A7*%
X152476200Y-78740000D03*
%TO.P,J1,B22,A6*%
%TO.N,A6*%
X155016200Y-78740000D03*
%TO.P,J1,B23,A5*%
%TO.N,A5*%
X157556200Y-78740000D03*
%TO.P,J1,B24,A4*%
%TO.N,A4*%
X160096200Y-78740000D03*
%TO.P,J1,B25,~{ROMCS}*%
%TO.N,~{ROMCS}*%
X162636200Y-78740000D03*
%TO.P,J1,B26,~{BUSACK}*%
%TO.N,~{BUSACK}*%
X165176200Y-78740000D03*
%TO.P,J1,B27,A9*%
%TO.N,A9*%
X167716200Y-78740000D03*
%TO.P,J1,B28,A11*%
%TO.N,A11*%
X170256200Y-78740000D03*
%TO.P,J1,B29,+5V*%
%TO.N,+5V*%
X172796200Y-78740000D03*
%TO.P,J1,B30,GND*%
%TO.N,GND*%
X175336200Y-78740000D03*
%TO.P,J1,B31,NC*%
%TO.N,-5V*%
X177876200Y-78740000D03*
%TD*%
D12*
%TO.P,S1,1,1*%
%TO.N,Net-(R1-Pad1)*%
X102859400Y-99797800D03*
X102859400Y-106297800D03*
%TO.P,S1,2,2*%
%TO.N,GND*%
X98359400Y-99797800D03*
X98359400Y-106297800D03*
%TD*%
D13*
%TO.P,Z1,B1,A14*%
%TO.N,A14*%
X105486200Y-136398000D03*
%TO.P,Z1,B2,A12*%
%TO.N,A12*%
X108026200Y-136398000D03*
%TO.P,Z1,B3,+5v*%
%TO.N,+5V*%
X110566200Y-136398000D03*
%TO.P,Z1,B4,+9V*%
%TO.N,+9V*%
X113106200Y-136398000D03*
%TO.P,Z1,B6,GND*%
%TO.N,GND*%
X118186200Y-136398000D03*
%TO.P,Z1,B7,GND*%
X120726200Y-136398000D03*
%TO.P,Z1,B8,~{CLK}*%
%TO.N,~{CLK}*%
X123266200Y-136398000D03*
%TO.P,Z1,B9,A0*%
%TO.N,A0*%
X125806200Y-136398000D03*
%TO.P,Z1,B10,A1*%
%TO.N,A1*%
X128346200Y-136398000D03*
%TO.P,Z1,B11,A2*%
%TO.N,A2*%
X130886200Y-136398000D03*
%TO.P,Z1,B12,A3*%
%TO.N,A3*%
X133426200Y-136398000D03*
%TO.P,Z1,B13,~{IORQGE}*%
%TO.N,~{IORQGE}*%
X135966200Y-136398000D03*
%TO.P,Z1,B14,GND*%
%TO.N,GND*%
X138506200Y-136398000D03*
%TO.P,Z1,B15,~{OE_ROM2}*%
%TO.N,~{OE_ROM2{slash}VIDEO}*%
X141046200Y-136398000D03*
%TO.P,Z1,B16,~{Y}*%
%TO.N,~{Y}*%
X143586200Y-136398000D03*
%TO.P,Z1,B17,V*%
%TO.N,V*%
X146126200Y-136398000D03*
%TO.P,Z1,B18,U*%
%TO.N,U*%
X148666200Y-136398000D03*
%TO.P,Z1,B19,~{BUSRQ}*%
%TO.N,~{BUSRQ}*%
X151206200Y-136398000D03*
%TO.P,Z1,B20,~{RESET}*%
%TO.N,~{RESET}*%
X153746200Y-136398000D03*
%TO.P,Z1,B21,A7*%
%TO.N,A7*%
X156286200Y-136398000D03*
%TO.P,Z1,B22,A6*%
%TO.N,A6*%
X158826200Y-136398000D03*
%TO.P,Z1,B23,A5*%
%TO.N,A5*%
X161366200Y-136398000D03*
%TO.P,Z1,B24,A4*%
%TO.N,A4*%
X163906200Y-136398000D03*
%TO.P,Z1,B25,~{ROMCS}*%
%TO.N,~{ROMCS}*%
X166446200Y-136398000D03*
%TO.P,Z1,B26,~{BUSACK}*%
%TO.N,~{BUSACK}*%
X168986200Y-136398000D03*
%TO.P,Z1,B27,A9*%
%TO.N,A9*%
X171526200Y-136398000D03*
%TO.P,Z1,B28,A11*%
%TO.N,A11*%
X174066200Y-136398000D03*
%TD*%
D11*
%TO.P,J2,*%
%TO.N,*%
X115646200Y-116840000D03*
X115646200Y-119380000D03*
%TO.P,J2,A1,Pin_a1*%
%TO.N,A15*%
X105486200Y-119380000D03*
%TO.P,J2,A2,Pin_a2*%
%TO.N,A13*%
X108026200Y-119380000D03*
%TO.P,J2,A3,Pin_a3*%
%TO.N,D7*%
X110566200Y-119380000D03*
%TO.P,J2,A4,Pin_a4*%
%TO.N,~{OEM_ROM1}*%
X113106200Y-119380000D03*
%TO.P,J2,A6,Pin_a6*%
%TO.N,D0*%
X118186200Y-119380000D03*
%TO.P,J2,A7,Pin_a7*%
%TO.N,D1*%
X120726200Y-119380000D03*
%TO.P,J2,A8,Pin_a8*%
%TO.N,D2*%
X123266200Y-119380000D03*
%TO.P,J2,A9,Pin_a9*%
%TO.N,D6*%
X125806200Y-119380000D03*
%TO.P,J2,A10,Pin_a10*%
%TO.N,D5*%
X128346200Y-119380000D03*
%TO.P,J2,A11,Pin_a11*%
%TO.N,D3*%
X130886200Y-119380000D03*
%TO.P,J2,A12,Pin_a12*%
%TO.N,D4*%
X133426200Y-119380000D03*
%TO.P,J2,A13,Pin_a13*%
%TO.N,~{INT}*%
X135966200Y-119380000D03*
%TO.P,J2,A14,Pin_a14*%
%TO.N,~{NMI}*%
X138506200Y-119380000D03*
%TO.P,J2,A15,Pin_a15*%
%TO.N,~{HALT}*%
X141046200Y-119380000D03*
%TO.P,J2,A16,Pin_a16*%
%TO.N,~{MREQ}*%
X143586200Y-119380000D03*
%TO.P,J2,A17,Pin_a17*%
%TO.N,~{IORQ}*%
X146126200Y-119380000D03*
%TO.P,J2,A18,Pin_a18*%
%TO.N,~{RD}*%
X148666200Y-119380000D03*
%TO.P,J2,A19,Pin_a19*%
%TO.N,~{WR}*%
X151206200Y-119380000D03*
%TO.P,J2,A20,Pin_a20*%
%TO.N,-5V*%
X153746200Y-119380000D03*
%TO.P,J2,A21,Pin_a21*%
%TO.N,~{WAIT}*%
X156286200Y-119380000D03*
%TO.P,J2,A22,Pin_a22*%
%TO.N,+12V*%
X158826200Y-119380000D03*
%TO.P,J2,A23,Pin_a23*%
%TO.N,12VAC*%
X161366200Y-119380000D03*
%TO.P,J2,A24,Pin_a24*%
%TO.N,~{M1}*%
X163906200Y-119380000D03*
%TO.P,J2,A25,Pin_a25*%
%TO.N,~{RFSH}*%
X166446200Y-119380000D03*
%TO.P,J2,A26,Pin_a26*%
%TO.N,A8*%
X168986200Y-119380000D03*
%TO.P,J2,A27,Pin_a27*%
%TO.N,A10*%
X171526200Y-119380000D03*
%TO.P,J2,A28,Pin_a28*%
%TO.N,RESET{slash}NC*%
X174066200Y-119380000D03*
%TO.P,J2,B1,Pin_b1*%
%TO.N,A14*%
X105486200Y-116840000D03*
%TO.P,J2,B2,Pin_b2*%
%TO.N,A12*%
X108026200Y-116840000D03*
%TO.P,J2,B3,Pin_b3*%
%TO.N,+5V*%
X110566200Y-116840000D03*
%TO.P,J2,B4,Pin_b4*%
%TO.N,+9V*%
X113106200Y-116840000D03*
%TO.P,J2,B6,Pin_b6*%
%TO.N,GND*%
X118186200Y-116840000D03*
%TO.P,J2,B7,Pin_b7*%
X120726200Y-116840000D03*
%TO.P,J2,B8,Pin_b8*%
%TO.N,~{CLK}*%
X123266200Y-116840000D03*
%TO.P,J2,B9,Pin_b9*%
%TO.N,A0*%
X125806200Y-116840000D03*
%TO.P,J2,B10,Pin_b10*%
%TO.N,A1*%
X128346200Y-116840000D03*
%TO.P,J2,B11,Pin_b11*%
%TO.N,A2*%
X130886200Y-116840000D03*
%TO.P,J2,B12,Pin_b12*%
%TO.N,A3*%
X133426200Y-116840000D03*
%TO.P,J2,B13,Pin_b13*%
%TO.N,~{IORQGE}*%
X135966200Y-116840000D03*
%TO.P,J2,B14,Pin_b14*%
%TO.N,GND*%
X138506200Y-116840000D03*
%TO.P,J2,B15,Pin_b15*%
%TO.N,~{OE_ROM2{slash}VIDEO}*%
X141046200Y-116840000D03*
%TO.P,J2,B16,Pin_b16*%
%TO.N,~{Y}*%
X143586200Y-116840000D03*
%TO.P,J2,B17,Pin_b17*%
%TO.N,V*%
X146126200Y-116840000D03*
%TO.P,J2,B18,Pin_b18*%
%TO.N,U*%
X148666200Y-116840000D03*
%TO.P,J2,B19,Pin_b19*%
%TO.N,~{BUSRQ}*%
X151206200Y-116840000D03*
%TO.P,J2,B20,Pin_b20*%
%TO.N,~{RESET}*%
X153746200Y-116840000D03*
%TO.P,J2,B21,Pin_b21*%
%TO.N,A7*%
X156286200Y-116840000D03*
%TO.P,J2,B22,Pin_b22*%
%TO.N,A6*%
X158826200Y-116840000D03*
%TO.P,J2,B23,Pin_b23*%
%TO.N,A5*%
X161366200Y-116840000D03*
%TO.P,J2,B24,Pin_b24*%
%TO.N,A4*%
X163906200Y-116840000D03*
%TO.P,J2,B25,Pin_b25*%
%TO.N,~{ROMCS}*%
X166446200Y-116840000D03*
%TO.P,J2,B26,Pin_b26*%
%TO.N,~{BUSACK}*%
X168986200Y-116840000D03*
%TO.P,J2,B27,Pin_b27*%
%TO.N,A9*%
X171526200Y-116840000D03*
%TO.P,J2,B28,Pin_b28*%
%TO.N,A11*%
X174066200Y-116840000D03*
%TD*%
D14*
%TO.P,Z2,B1,A14*%
%TO.N,A14*%
X105486200Y-55753000D03*
%TO.P,Z2,B2,A12*%
%TO.N,A12*%
X108026200Y-55753000D03*
%TO.P,Z2,B3,+5v*%
%TO.N,+5V*%
X110566200Y-55753000D03*
%TO.P,Z2,B4,+9V*%
%TO.N,+9V*%
X113106200Y-55753000D03*
%TO.P,Z2,B6,GND*%
%TO.N,GND*%
X118186200Y-55753000D03*
%TO.P,Z2,B7,GND*%
X120726200Y-55753000D03*
%TO.P,Z2,B8,~{CLK}*%
%TO.N,~{CLK}*%
X123266200Y-55753000D03*
%TO.P,Z2,B9,A0*%
%TO.N,A0*%
X125806200Y-55753000D03*
%TO.P,Z2,B10,A1*%
%TO.N,A1*%
X128346200Y-55753000D03*
%TO.P,Z2,B11,A2*%
%TO.N,A2*%
X130886200Y-55753000D03*
%TO.P,Z2,B12,A3*%
%TO.N,A3*%
X133426200Y-55753000D03*
%TO.P,Z2,B13,~{IORQGE}*%
%TO.N,~{IORQGE}*%
X135966200Y-55753000D03*
%TO.P,Z2,B14,GND*%
%TO.N,GND*%
X138506200Y-55753000D03*
%TO.P,Z2,B15,~{OE_ROM2}*%
%TO.N,~{OE_ROM2{slash}VIDEO}*%
X141046200Y-55753000D03*
%TO.P,Z2,B16,~{Y}*%
%TO.N,~{Y}*%
X143586200Y-55753000D03*
%TO.P,Z2,B17,V*%
%TO.N,V*%
X146126200Y-55753000D03*
%TO.P,Z2,B18,U*%
%TO.N,U*%
X148666200Y-55753000D03*
%TO.P,Z2,B19,~{BUSRQ}*%
%TO.N,~{BUSRQ}*%
X151206200Y-55753000D03*
%TO.P,Z2,B20,~{RESET}*%
%TO.N,~{RESET}*%
X153746200Y-55753000D03*
%TO.P,Z2,B21,A7*%
%TO.N,A7*%
X156286200Y-55753000D03*
%TO.P,Z2,B22,A6*%
%TO.N,A6*%
X158826200Y-55753000D03*
%TO.P,Z2,B23,A5*%
%TO.N,A5*%
X161366200Y-55753000D03*
%TO.P,Z2,B24,A4*%
%TO.N,A4*%
X163906200Y-55753000D03*
%TO.P,Z2,B25,~{ROMCS}*%
%TO.N,~{ROMCS}*%
X166446200Y-55753000D03*
%TO.P,Z2,B26,~{BUSACK}*%
%TO.N,~{BUSACK}*%
X168986200Y-55753000D03*
%TO.P,Z2,B27,A9*%
%TO.N,A9*%
X171526200Y-55753000D03*
%TO.P,Z2,B28,A11*%
%TO.N,A11*%
X174066200Y-55753000D03*
%TD*%
D15*
%TO.P,R4,1*%
%TO.N,~{DOS}*%
X111236000Y-73431400D03*
%TO.P,R4,2*%
%TO.N,+5V*%
X109236000Y-73431400D03*
%TD*%
D16*
%TO.N,A15*%
X106857800Y-115062000D03*
X106603800Y-89204800D03*
%TO.N,A13*%
X109143800Y-89204800D03*
X109220000Y-115062000D03*
%TO.N,D7*%
X111963200Y-89154000D03*
X111785400Y-115062000D03*
%TO.N,~{OEM_ROM1}*%
X114173000Y-115062000D03*
X114173000Y-89154000D03*
%TO.N,D0*%
X119380000Y-89154000D03*
X119405400Y-115087400D03*
%TO.N,D1*%
X121843800Y-114325400D03*
X121818400Y-89154000D03*
%TO.N,D2*%
X124333000Y-115062000D03*
X124333000Y-89179400D03*
%TO.N,D6*%
X127000000Y-89179400D03*
X127025400Y-115062000D03*
%TO.N,D5*%
X129717800Y-89179400D03*
X129743200Y-115062000D03*
%TO.N,D3*%
X132156200Y-89179400D03*
X132232400Y-115062000D03*
%TO.N,D4*%
X134620000Y-89179400D03*
X134620000Y-115062000D03*
%TO.N,~{INT}*%
X137083800Y-89179400D03*
X137185400Y-115062000D03*
%TO.N,~{NMI}*%
X139776200Y-115062000D03*
X139649200Y-89179400D03*
%TO.N,~{HALT}*%
X142265400Y-89179400D03*
X142265400Y-115062000D03*
%TO.N,~{MREQ}*%
X144780000Y-89179400D03*
X144830800Y-115062000D03*
%TO.N,~{IORQ}*%
X147320000Y-115062000D03*
X147243800Y-89179400D03*
%TO.N,~{RD}*%
X149885400Y-115062000D03*
X149809200Y-89154000D03*
%TO.N,~{WR}*%
X152374600Y-89154000D03*
X152450800Y-115062000D03*
%TO.N,-5V*%
X154736800Y-102082600D03*
X155041600Y-115087400D03*
X154940000Y-85826600D03*
%TO.N,~{WAIT}*%
X157556200Y-115062000D03*
X157530800Y-85877400D03*
%TO.N,+12V*%
X175615600Y-102895400D03*
X174929800Y-87655400D03*
X160045400Y-89179400D03*
X168122600Y-103403400D03*
X168122600Y-89941400D03*
%TO.N,12VAC*%
X160934400Y-80848200D03*
X162890200Y-88366600D03*
X162839400Y-110693200D03*
X162234453Y-81919653D03*
%TO.N,~{M1}*%
X162661600Y-115062000D03*
X162179000Y-87071200D03*
%TO.N,~{RFSH}*%
X165176200Y-115087400D03*
X165125400Y-86791800D03*
%TO.N,A8*%
X167563800Y-86791800D03*
X167767000Y-115087400D03*
%TO.N,A10*%
X170256200Y-115112800D03*
X169849800Y-86817200D03*
%TO.N,RESET{slash}NC*%
X173101000Y-86309200D03*
X172897800Y-115138200D03*
%TO.N,+5V*%
X110159800Y-95605600D03*
%TD*%
D17*
%TO.N,A15*%
X106857800Y-89458800D02*
X106603800Y-89204800D01*
X106857800Y-115062000D02*
X106857800Y-89458800D01*
%TO.N,A13*%
X109220000Y-89281000D02*
X109143800Y-89204800D01*
X109220000Y-115062000D02*
X109220000Y-89281000D01*
%TO.N,D7*%
X111785400Y-115062000D02*
X111785400Y-89331800D01*
X111785400Y-89331800D02*
X111963200Y-89154000D01*
%TO.N,~{OEM_ROM1}*%
X114173000Y-115062000D02*
X114173000Y-89154000D01*
%TO.N,D0*%
X119405400Y-115087400D02*
X119405400Y-89179400D01*
X119405400Y-89179400D02*
X119380000Y-89154000D01*
%TO.N,D1*%
X121843800Y-114325400D02*
X121843800Y-89179400D01*
X121843800Y-89179400D02*
X121818400Y-89154000D01*
%TO.N,D2*%
X124333000Y-115062000D02*
X124333000Y-89179400D01*
%TO.N,D6*%
X127025400Y-115062000D02*
X127025400Y-89204800D01*
X127025400Y-89204800D02*
X127000000Y-89179400D01*
%TO.N,D5*%
X129743200Y-89204800D02*
X129717800Y-89179400D01*
X129743200Y-115062000D02*
X129743200Y-89204800D01*
%TO.N,D3*%
X132232400Y-89255600D02*
X132156200Y-89179400D01*
X132232400Y-115062000D02*
X132232400Y-89255600D01*
%TO.N,D4*%
X134620000Y-115062000D02*
X134620000Y-89179400D01*
%TO.N,~{INT}*%
X137185400Y-89281000D02*
X137083800Y-89179400D01*
X137185400Y-115062000D02*
X137185400Y-89281000D01*
%TO.N,~{NMI}*%
X139776200Y-115062000D02*
X139776200Y-89306400D01*
X139776200Y-89306400D02*
X139649200Y-89179400D01*
%TO.N,~{HALT}*%
X142265400Y-115062000D02*
X142265400Y-89179400D01*
%TO.N,~{MREQ}*%
X144830800Y-115062000D02*
X144830800Y-89230200D01*
X144830800Y-89230200D02*
X144780000Y-89179400D01*
%TO.N,~{IORQ}*%
X147320000Y-89255600D02*
X147243800Y-89179400D01*
X147320000Y-115062000D02*
X147320000Y-89255600D01*
%TO.N,~{RD}*%
X149885400Y-89230200D02*
X149809200Y-89154000D01*
X149885400Y-115062000D02*
X149885400Y-89230200D01*
%TO.N,~{WR}*%
X152450800Y-89230200D02*
X152374600Y-89154000D01*
X152450800Y-115062000D02*
X152450800Y-89230200D01*
D18*
%TO.N,-5V*%
X154940000Y-85826600D02*
X155041600Y-85928200D01*
X155041600Y-85928200D02*
X155041600Y-102666800D01*
X155041600Y-102666800D02*
X155041600Y-115087400D01*
X154736800Y-102362000D02*
X155041600Y-102666800D01*
X154736800Y-102082600D02*
X154736800Y-102362000D01*
D17*
%TO.N,~{WAIT}*%
X157530800Y-85877400D02*
X157556200Y-85902800D01*
X157556200Y-85902800D02*
X157556200Y-115062000D01*
D18*
%TO.N,+12V*%
X175996600Y-88722200D02*
X175996600Y-102514400D01*
X175996600Y-102514400D02*
X175615600Y-102895400D01*
X160045400Y-89179400D02*
X160045400Y-117627642D01*
X160045400Y-117627642D02*
X158826200Y-118846842D01*
X174929800Y-87655400D02*
X175996600Y-88722200D01*
X158826200Y-118846842D02*
X158826200Y-119380000D01*
X168122600Y-89941400D02*
X168122600Y-103403400D01*
%TO.N,12VAC*%
X162890200Y-110642400D02*
X162839400Y-110693200D01*
X162890200Y-88366600D02*
X162890200Y-110642400D01*
X160934400Y-80848200D02*
X161163000Y-80848200D01*
X161163000Y-80848200D02*
X162234453Y-81919653D01*
D17*
%TO.N,~{M1}*%
X161950400Y-114350800D02*
X162661600Y-115062000D01*
X161950400Y-87299800D02*
X161950400Y-114350800D01*
X162179000Y-87071200D02*
X161950400Y-87299800D01*
%TO.N,~{RFSH}*%
X165176200Y-86842600D02*
X165125400Y-86791800D01*
X165176200Y-115087400D02*
X165176200Y-86842600D01*
%TO.N,A8*%
X167233600Y-87122000D02*
X167563800Y-86791800D01*
X167767000Y-115087400D02*
X167767000Y-105943400D01*
X167767000Y-105943400D02*
X167233600Y-105410000D01*
X167233600Y-105410000D02*
X167233600Y-87122000D01*
%TO.N,A10*%
X169849800Y-86817200D02*
X170256200Y-87223600D01*
X170256200Y-87223600D02*
X170256200Y-115112800D01*
%TO.N,RESET{slash}NC*%
X173101000Y-86309200D02*
X172897800Y-86512400D01*
X172897800Y-86512400D02*
X172897800Y-115138200D01*
%TO.N,A14*%
X106705400Y-118059200D02*
X105486200Y-116840000D01*
X105511600Y-55778400D02*
X105486200Y-55753000D01*
X105511600Y-74904600D02*
X105511600Y-55778400D01*
X106705400Y-132181600D02*
X106705400Y-118059200D01*
X101676200Y-78740000D02*
X105511600Y-74904600D01*
X103073200Y-80137000D02*
X101676200Y-78740000D01*
X105878800Y-116447400D02*
X105878800Y-89775200D01*
X103073200Y-86969600D02*
X103073200Y-80137000D01*
X105486200Y-133400800D02*
X106705400Y-132181600D01*
X105878800Y-89775200D02*
X103073200Y-86969600D01*
X105486200Y-136398000D02*
X105486200Y-133400800D01*
X105486200Y-116840000D02*
X105878800Y-116447400D01*
%TO.N,A12*%
X105460800Y-86055200D02*
X105460800Y-79984600D01*
X108026200Y-133426200D02*
X108026200Y-136398000D01*
X109296200Y-132156200D02*
X108026200Y-133426200D01*
X108026200Y-88620600D02*
X105460800Y-86055200D01*
X108026200Y-74930000D02*
X108026200Y-55753000D01*
X109296200Y-118110000D02*
X109296200Y-132156200D01*
X105460800Y-79984600D02*
X104216200Y-78740000D01*
X108026200Y-116840000D02*
X109296200Y-118110000D01*
X108026200Y-116840000D02*
X108026200Y-88620600D01*
X104216200Y-78740000D02*
X108026200Y-74930000D01*
D18*
%TO.N,+5V*%
X106756200Y-78740000D02*
X109113200Y-76383000D01*
X110566200Y-88646000D02*
X108051600Y-86131400D01*
X110566200Y-133426200D02*
X111836200Y-132156200D01*
X109113200Y-76383000D02*
X109113200Y-63073400D01*
X110642400Y-61544200D02*
X110642400Y-55829200D01*
X108051600Y-80035400D02*
X106756200Y-78740000D01*
X110566200Y-136398000D02*
X110566200Y-133426200D01*
X110566200Y-116840000D02*
X110566200Y-95961200D01*
X110642400Y-55829200D02*
X110566200Y-55753000D01*
X111836200Y-118110000D02*
X110566200Y-116840000D01*
X110210600Y-95605600D02*
X110566200Y-95961200D01*
X110566200Y-95961200D02*
X110566200Y-88646000D01*
X109113200Y-63073400D02*
X110642400Y-61544200D01*
X108051600Y-86131400D02*
X108051600Y-80035400D01*
X110159800Y-95605600D02*
X110210600Y-95605600D01*
X111836200Y-132156200D02*
X111836200Y-118110000D01*
%TO.N,+9V*%
X114401600Y-118135400D02*
X113106200Y-116840000D01*
X114401600Y-132232400D02*
X114401600Y-118135400D01*
X113106200Y-133527800D02*
X114401600Y-132232400D01*
X113106200Y-116840000D02*
X113106200Y-55753000D01*
X113106200Y-136398000D02*
X113106200Y-133527800D01*
%TO.N,GND*%
X175336200Y-83820000D02*
X175336200Y-78740000D01*
X116916200Y-118110000D02*
X118186200Y-116840000D01*
X138506200Y-136398000D02*
X138506200Y-133502400D01*
X137185400Y-132181600D02*
X137185400Y-118160800D01*
X138506200Y-133502400D02*
X137185400Y-132181600D01*
X137185400Y-118160800D02*
X138506200Y-116840000D01*
X120726200Y-133604000D02*
X119456200Y-132334000D01*
X119456200Y-132334000D02*
X119456200Y-118110000D01*
X120726200Y-55753000D02*
X120726200Y-74930000D01*
X118186200Y-133502400D02*
X116916200Y-132232400D01*
X138506200Y-116840000D02*
X138506200Y-82550000D01*
X118186200Y-74930000D02*
X114376200Y-78740000D01*
X138506200Y-82550000D02*
X134696200Y-78740000D01*
X118186200Y-136398000D02*
X118186200Y-133502400D01*
X118186200Y-55753000D02*
X118186200Y-74930000D01*
X116916200Y-132232400D02*
X116916200Y-118110000D01*
X138506200Y-74930000D02*
X134696200Y-78740000D01*
X119456200Y-118110000D02*
X120726200Y-116840000D01*
X120726200Y-74930000D02*
X116916200Y-78740000D01*
X138506200Y-55753000D02*
X138506200Y-74930000D01*
X120726200Y-136398000D02*
X120726200Y-133604000D01*
D17*
%TO.N,~{CLK}*%
X123266200Y-136398000D02*
X123266200Y-133527800D01*
X123266200Y-116840000D02*
X120726200Y-114300000D01*
X123266200Y-74930000D02*
X119456200Y-78740000D01*
X121996200Y-132257800D02*
X121996200Y-118110000D01*
X123266200Y-133527800D02*
X121996200Y-132257800D01*
X121996200Y-118110000D02*
X123266200Y-116840000D01*
X120726200Y-114300000D02*
X120726200Y-80010000D01*
X123266200Y-55753000D02*
X123266200Y-74930000D01*
X120726200Y-80010000D02*
X119456200Y-78740000D01*
%TO.N,A0*%
X125806200Y-136398000D02*
X125806200Y-133502400D01*
X125806200Y-82550000D02*
X121996200Y-78740000D01*
X125806200Y-116840000D02*
X125806200Y-82550000D01*
X124536200Y-118110000D02*
X125806200Y-116840000D01*
X125806200Y-133502400D02*
X124536200Y-132232400D01*
X124536200Y-132232400D02*
X124536200Y-118110000D01*
X125806200Y-74930000D02*
X121996200Y-78740000D01*
X125806200Y-55753000D02*
X125806200Y-74930000D01*
%TO.N,A1*%
X127050800Y-118135400D02*
X128346200Y-116840000D01*
X128346200Y-136398000D02*
X128346200Y-133502400D01*
X127050800Y-132207000D02*
X127050800Y-118135400D01*
X128346200Y-55753000D02*
X128346200Y-74930000D01*
X128346200Y-74930000D02*
X124536200Y-78740000D01*
X128346200Y-82550000D02*
X124536200Y-78740000D01*
X128346200Y-116840000D02*
X128346200Y-82550000D01*
X128346200Y-133502400D02*
X127050800Y-132207000D01*
%TO.N,A2*%
X130886200Y-133604000D02*
X129616200Y-132334000D01*
X129616200Y-118110000D02*
X130886200Y-116840000D01*
X130886200Y-74930000D02*
X127076200Y-78740000D01*
X130886200Y-82550000D02*
X127076200Y-78740000D01*
X130886200Y-55753000D02*
X130886200Y-74930000D01*
X130886200Y-116840000D02*
X130886200Y-82550000D01*
X129616200Y-132334000D02*
X129616200Y-118110000D01*
X130886200Y-136398000D02*
X130886200Y-133604000D01*
%TO.N,A3*%
X133426200Y-55753000D02*
X133426200Y-74930000D01*
X133426200Y-82550000D02*
X129616200Y-78740000D01*
X133426200Y-116840000D02*
X133426200Y-82550000D01*
X133426200Y-133502400D02*
X132156200Y-132232400D01*
X133426200Y-74930000D02*
X129616200Y-78740000D01*
X132156200Y-118110000D02*
X133426200Y-116840000D01*
X133426200Y-136398000D02*
X133426200Y-133502400D01*
X132156200Y-132232400D02*
X132156200Y-118110000D01*
%TO.N,~{IORQGE}*%
X134670800Y-118135400D02*
X135966200Y-116840000D01*
X135966200Y-133502400D02*
X134670800Y-132207000D01*
X134670800Y-132207000D02*
X134670800Y-118135400D01*
X135966200Y-116840000D02*
X135966200Y-82550000D01*
X135966200Y-55753000D02*
X135966200Y-74930000D01*
X135966200Y-136398000D02*
X135966200Y-133502400D01*
X135966200Y-82550000D02*
X132156200Y-78740000D01*
X135966200Y-74930000D02*
X132156200Y-78740000D01*
%TO.N,~{OE_ROM2{slash}VIDEO}*%
X138607800Y-76860400D02*
X138607800Y-80060800D01*
X141046200Y-133502400D02*
X139776200Y-132232400D01*
X141071600Y-116814600D02*
X141046200Y-116840000D01*
X141046200Y-61620400D02*
X139593200Y-63073400D01*
X141046200Y-55753000D02*
X141046200Y-61620400D01*
X139593200Y-63073400D02*
X139593200Y-75875000D01*
X139776200Y-132232400D02*
X139776200Y-118110000D01*
X141071600Y-82524600D02*
X141071600Y-116814600D01*
X139776200Y-118110000D02*
X141046200Y-116840000D01*
X139593200Y-75875000D02*
X138607800Y-76860400D01*
X141046200Y-136398000D02*
X141046200Y-133502400D01*
X138607800Y-80060800D02*
X141071600Y-82524600D01*
%TO.N,~{Y}*%
X141046200Y-79883000D02*
X143586200Y-82423000D01*
X142341600Y-132156200D02*
X142341600Y-118084600D01*
X142341600Y-118084600D02*
X143586200Y-116840000D01*
X143586200Y-82423000D02*
X143586200Y-116840000D01*
X143586200Y-136398000D02*
X143586200Y-133400800D01*
X143586200Y-55753000D02*
X143586200Y-61595000D01*
X143586200Y-133400800D02*
X142341600Y-132156200D01*
X143586200Y-61595000D02*
X141046200Y-64135000D01*
X141046200Y-64135000D02*
X141046200Y-79883000D01*
%TO.N,V*%
X144856200Y-118110000D02*
X146126200Y-116840000D01*
X146126200Y-133502400D02*
X144856200Y-132232400D01*
X143535400Y-64135000D02*
X143535400Y-79781400D01*
X143535400Y-79781400D02*
X146126200Y-82372200D01*
X146126200Y-61544200D02*
X143535400Y-64135000D01*
X146126200Y-82372200D02*
X146126200Y-116840000D01*
X144856200Y-132232400D02*
X144856200Y-118110000D01*
X146126200Y-136398000D02*
X146126200Y-133502400D01*
X146126200Y-55753000D02*
X146126200Y-61544200D01*
%TO.N,U*%
X148666200Y-82321400D02*
X148666200Y-116840000D01*
X147370800Y-132232400D02*
X147370800Y-118135400D01*
X148666200Y-136398000D02*
X148666200Y-133527800D01*
X148666200Y-74803000D02*
X146100800Y-77368400D01*
X146100800Y-77368400D02*
X146100800Y-79756000D01*
X147370800Y-118135400D02*
X148666200Y-116840000D01*
X146100800Y-79756000D02*
X148666200Y-82321400D01*
X148666200Y-133527800D02*
X147370800Y-132232400D01*
X148666200Y-55753000D02*
X148666200Y-74803000D01*
%TO.N,~{BUSRQ}*%
X149961600Y-132257800D02*
X149961600Y-118084600D01*
X151206200Y-136398000D02*
X151206200Y-133502400D01*
X151206200Y-82550000D02*
X147396200Y-78740000D01*
X149961600Y-118084600D02*
X151206200Y-116840000D01*
X151206200Y-55753000D02*
X151206200Y-74930000D01*
X151206200Y-133502400D02*
X149961600Y-132257800D01*
X151206200Y-74930000D02*
X147396200Y-78740000D01*
X151206200Y-116840000D02*
X151206200Y-82550000D01*
%TO.N,~{RESET}*%
X153746200Y-74930000D02*
X149936200Y-78740000D01*
X153746200Y-133502400D02*
X152450800Y-132207000D01*
X153746200Y-55753000D02*
X153746200Y-74930000D01*
X153746200Y-82550000D02*
X149936200Y-78740000D01*
X153746200Y-116840000D02*
X153746200Y-82550000D01*
X153746200Y-136398000D02*
X153746200Y-133502400D01*
X152450800Y-132207000D02*
X152450800Y-118135400D01*
X152450800Y-118135400D02*
X153746200Y-116840000D01*
%TO.N,A7*%
X156286200Y-136398000D02*
X156286200Y-133553200D01*
X154990800Y-118135400D02*
X156286200Y-116840000D01*
X154990800Y-132257800D02*
X154990800Y-118135400D01*
X156286200Y-55753000D02*
X156286200Y-74930000D01*
X156286200Y-116840000D02*
X156286200Y-82550000D01*
X156286200Y-74930000D02*
X152476200Y-78740000D01*
X156286200Y-133553200D02*
X154990800Y-132257800D01*
X156286200Y-82550000D02*
X152476200Y-78740000D01*
%TO.N,A6*%
X158826200Y-116840000D02*
X158826200Y-82550000D01*
X158826200Y-82550000D02*
X155016200Y-78740000D01*
X158826200Y-136398000D02*
X158826200Y-133604000D01*
X157530800Y-118135400D02*
X158826200Y-116840000D01*
X158826200Y-55753000D02*
X158826200Y-74930000D01*
X158826200Y-74930000D02*
X155016200Y-78740000D01*
X157530800Y-132308600D02*
X157530800Y-118135400D01*
X158826200Y-133604000D02*
X157530800Y-132308600D01*
%TO.N,A5*%
X160070800Y-118516400D02*
X161366200Y-117221000D01*
X161366200Y-133477000D02*
X160070800Y-132181600D01*
X161366200Y-116840000D02*
X161366200Y-82550000D01*
X161366200Y-82550000D02*
X157556200Y-78740000D01*
X161366200Y-74930000D02*
X157556200Y-78740000D01*
X161366200Y-55753000D02*
X161366200Y-74930000D01*
X160070800Y-132181600D02*
X160070800Y-118516400D01*
X161366200Y-136398000D02*
X161366200Y-133477000D01*
X161366200Y-117221000D02*
X161366200Y-116840000D01*
%TO.N,A4*%
X162610800Y-132156200D02*
X162610800Y-118135400D01*
X163906200Y-133451600D02*
X162610800Y-132156200D01*
X163906200Y-82550000D02*
X160096200Y-78740000D01*
X162610800Y-118135400D02*
X163906200Y-116840000D01*
X163906200Y-116840000D02*
X163906200Y-82550000D01*
X163906200Y-55753000D02*
X163906200Y-74930000D01*
X163906200Y-136398000D02*
X163906200Y-133451600D01*
X163906200Y-74930000D02*
X160096200Y-78740000D01*
%TO.N,~{ROMCS}*%
X166446200Y-136398000D02*
X166446200Y-133502400D01*
X165176200Y-118110000D02*
X166446200Y-116840000D01*
X166446200Y-74930000D02*
X162636200Y-78740000D01*
X166446200Y-82550000D02*
X162636200Y-78740000D01*
X165176200Y-132232400D02*
X165176200Y-118110000D01*
X166446200Y-133502400D02*
X165176200Y-132232400D01*
X166446200Y-55753000D02*
X166446200Y-74930000D01*
X166446200Y-116840000D02*
X166446200Y-82550000D01*
%TO.N,~{BUSACK}*%
X167690800Y-132156200D02*
X167690800Y-118135400D01*
X169011600Y-116814600D02*
X169011600Y-82575400D01*
X167690800Y-118135400D02*
X168986200Y-116840000D01*
X168986200Y-133451600D02*
X167690800Y-132156200D01*
X168986200Y-55753000D02*
X168986200Y-74930000D01*
X168986200Y-136398000D02*
X168986200Y-133451600D01*
X168986200Y-116840000D02*
X169011600Y-116814600D01*
X168986200Y-74930000D02*
X165176200Y-78740000D01*
X169011600Y-82575400D02*
X165176200Y-78740000D01*
%TO.N,A9*%
X171526200Y-136398000D02*
X171526200Y-133451600D01*
X171526200Y-133451600D02*
X170230800Y-132156200D01*
X171526200Y-82550000D02*
X167716200Y-78740000D01*
X171526200Y-116840000D02*
X171526200Y-82550000D01*
X170230800Y-118135400D02*
X171526200Y-116840000D01*
X170230800Y-132156200D02*
X170230800Y-118135400D01*
X171526200Y-74930000D02*
X167716200Y-78740000D01*
X171526200Y-55753000D02*
X171526200Y-74930000D01*
%TO.N,A11*%
X173532800Y-114747895D02*
X173532800Y-87131305D01*
X174066200Y-74930000D02*
X170256200Y-78740000D01*
X174015400Y-86648705D02*
X174015400Y-82499200D01*
X174066200Y-55753000D02*
X174066200Y-74930000D01*
X174015400Y-82499200D02*
X170256200Y-78740000D01*
X173532800Y-87131305D02*
X174015400Y-86648705D01*
X172796200Y-118110000D02*
X174066200Y-116840000D01*
X174066200Y-116840000D02*
X174066200Y-115281295D01*
X174066200Y-133426200D02*
X172796200Y-132156200D01*
X174066200Y-136398000D02*
X174066200Y-133426200D01*
X172796200Y-132156200D02*
X172796200Y-118110000D01*
X174066200Y-115281295D02*
X173532800Y-114747895D01*
%TO.N,~{DOS}*%
X111236000Y-73431400D02*
X111236000Y-76800200D01*
X111236000Y-76800200D02*
X109296200Y-78740000D01*
%TD*%
%TA.AperFunction,Conductor*%
%TO.N,GND*%
G36*
X105060656Y-60655115D02*
G01*
X105128686Y-60675417D01*
X105174943Y-60729276D01*
X105186100Y-60781114D01*
X105186100Y-74717583D01*
X105166098Y-74785704D01*
X105149195Y-74806678D01*
X102215278Y-77740595D01*
X102152966Y-77774621D01*
X102126183Y-77777500D01*
X100894449Y-77777500D01*
X100835971Y-77789132D01*
X100835968Y-77789133D01*
X100769648Y-77833448D01*
X100725333Y-77899768D01*
X100725332Y-77899771D01*
X100713700Y-77958249D01*
X100713700Y-79521750D01*
X100723095Y-79568983D01*
X100725333Y-79580231D01*
X100769648Y-79646552D01*
X100835969Y-79690867D01*
X100894452Y-79702500D01*
X102126183Y-79702500D01*
X102194304Y-79722502D01*
X102215278Y-79739405D01*
X102710795Y-80234922D01*
X102744821Y-80297234D01*
X102747700Y-80324017D01*
X102747700Y-82787933D01*
X102727698Y-82856054D01*
X102674042Y-82902547D01*
X102603768Y-82912651D01*
X102551698Y-82892698D01*
X102516431Y-82869133D01*
X102516428Y-82869132D01*
X102457950Y-82857500D01*
X102457948Y-82857500D01*
X100894452Y-82857500D01*
X100894449Y-82857500D01*
X100835971Y-82869132D01*
X100835968Y-82869133D01*
X100769648Y-82913448D01*
X100725333Y-82979768D01*
X100725332Y-82979771D01*
X100713700Y-83038249D01*
X100713700Y-84601750D01*
X100720939Y-84638144D01*
X100725333Y-84660231D01*
X100769648Y-84726552D01*
X100835969Y-84770867D01*
X100894452Y-84782500D01*
X100894453Y-84782500D01*
X102457947Y-84782500D01*
X102457948Y-84782500D01*
X102516431Y-84770867D01*
X102551699Y-84747300D01*
X102619449Y-84726086D01*
X102687916Y-84744868D01*
X102735360Y-84797684D01*
X102747700Y-84852066D01*
X102747700Y-86926747D01*
X102747700Y-87012453D01*
X102769882Y-87095239D01*
X102769883Y-87095241D01*
X102769884Y-87095243D01*
X102812732Y-87169458D01*
X102812740Y-87169468D01*
X105516395Y-89873121D01*
X105550420Y-89935433D01*
X105553300Y-89962216D01*
X105553300Y-115752034D01*
X105533298Y-115820155D01*
X105479642Y-115866648D01*
X105439651Y-115877427D01*
X105297523Y-115891425D01*
X105116084Y-115946463D01*
X104948875Y-116035838D01*
X104802317Y-116156117D01*
X104682038Y-116302675D01*
X104592663Y-116469884D01*
X104537625Y-116651323D01*
X104519043Y-116839997D01*
X104519043Y-116840002D01*
X104537625Y-117028676D01*
X104537626Y-117028682D01*
X104537627Y-117028683D01*
X104592663Y-117210115D01*
X104682038Y-117377324D01*
X104802317Y-117523883D01*
X104948876Y-117644162D01*
X105116085Y-117733537D01*
X105297517Y-117788573D01*
X105297521Y-117788573D01*
X105297523Y-117788574D01*
X105486197Y-117807157D01*
X105486200Y-117807157D01*
X105486203Y-117807157D01*
X105674876Y-117788574D01*
X105674877Y-117788573D01*
X105674883Y-117788573D01*
X105832457Y-117740773D01*
X105903451Y-117740141D01*
X105958127Y-117772254D01*
X106342995Y-118157122D01*
X106377021Y-118219434D01*
X106379900Y-118246217D01*
X106379900Y-118601904D01*
X106359898Y-118670025D01*
X106306242Y-118716518D01*
X106235968Y-118726622D01*
X106173966Y-118699303D01*
X106023524Y-118575838D01*
X105856315Y-118486463D01*
X105752455Y-118454958D01*
X105674883Y-118431427D01*
X105674882Y-118431426D01*
X105674876Y-118431425D01*
X105486203Y-118412843D01*
X105486197Y-118412843D01*
X105297523Y-118431425D01*
X105116084Y-118486463D01*
X104948875Y-118575838D01*
X104802317Y-118696117D01*
X104682038Y-118842675D01*
X104592663Y-119009884D01*
X104537625Y-119191323D01*
X104519043Y-119379997D01*
X104519043Y-119380002D01*
X104537625Y-119568676D01*
X104537626Y-119568682D01*
X104537627Y-119568683D01*
X104592663Y-119750115D01*
X104682038Y-119917324D01*
X104802317Y-120063883D01*
X104948876Y-120184162D01*
X105116085Y-120273537D01*
X105297517Y-120328573D01*
X105297521Y-120328573D01*
X105297523Y-120328574D01*
X105486197Y-120347157D01*
X105486200Y-120347157D01*
X105486203Y-120347157D01*
X105674876Y-120328574D01*
X105674877Y-120328573D01*
X105674883Y-120328573D01*
X105856315Y-120273537D01*
X106023524Y-120184162D01*
X106170083Y-120063883D01*
X106170083Y-120063882D01*
X106173966Y-120060696D01*
X106239313Y-120032942D01*
X106309291Y-120044923D01*
X106361683Y-120092836D01*
X106379900Y-120158095D01*
X106379900Y-131994582D01*
X106359898Y-132062703D01*
X106342995Y-132083677D01*
X105225740Y-133200931D01*
X105225732Y-133200941D01*
X105182884Y-133275156D01*
X105182882Y-133275161D01*
X105169270Y-133325962D01*
X105169269Y-133325963D01*
X105160700Y-133357944D01*
X105160700Y-133515750D01*
X105140698Y-133583871D01*
X105087042Y-133630364D01*
X105035393Y-133641748D01*
X99971893Y-133669586D01*
X99903663Y-133649959D01*
X99856876Y-133596560D01*
X99845200Y-133543588D01*
X99845200Y-130548990D01*
X99842793Y-130450748D01*
X99841003Y-130441747D01*
X99804456Y-130258013D01*
X99729255Y-130076463D01*
X99620081Y-129913072D01*
X99481128Y-129774119D01*
X99317737Y-129664945D01*
X99136188Y-129589744D01*
X98943451Y-129551406D01*
X98845214Y-129549000D01*
X98653553Y-129547293D01*
X98642747Y-129546732D01*
X98261969Y-129510522D01*
X98249731Y-129508749D01*
X97875088Y-129435537D01*
X97863084Y-129432573D01*
X97497420Y-129322991D01*
X97485764Y-129318864D01*
X97132613Y-129173974D01*
X97121417Y-129168725D01*
X96784160Y-128989913D01*
X96773533Y-128983592D01*
X96455433Y-128772589D01*
X96445477Y-128765257D01*
X96149576Y-128524079D01*
X96140391Y-128515811D01*
X95952151Y-128328833D01*
X95869564Y-128246799D01*
X95861229Y-128237665D01*
X95618071Y-127943400D01*
X95610672Y-127933493D01*
X95575370Y-127881043D01*
X95397523Y-127616806D01*
X95391145Y-127606246D01*
X95210056Y-127270175D01*
X95204745Y-127259042D01*
X95057464Y-126906830D01*
X95053274Y-126895243D01*
X94941229Y-126530305D01*
X94938186Y-126518327D01*
X94862455Y-126144182D01*
X94860600Y-126131957D01*
X94821829Y-125751436D01*
X94821195Y-125740633D01*
X94820095Y-125670281D01*
X94818215Y-125549959D01*
X94818200Y-125547990D01*
X94818200Y-125427709D01*
X96994700Y-125427709D01*
X96994700Y-125670290D01*
X97026360Y-125910782D01*
X97089144Y-126145095D01*
X97089145Y-126145097D01*
X97089146Y-126145100D01*
X97181976Y-126369212D01*
X97181977Y-126369213D01*
X97181982Y-126369224D01*
X97303261Y-126579285D01*
X97303263Y-126579288D01*
X97303264Y-126579289D01*
X97450935Y-126771738D01*
X97450939Y-126771742D01*
X97450944Y-126771748D01*
X97622451Y-126943255D01*
X97622456Y-126943259D01*
X97622462Y-126943265D01*
X97814911Y-127090936D01*
X97814914Y-127090938D01*
X98024975Y-127212217D01*
X98024979Y-127212218D01*
X98024988Y-127212224D01*
X98249100Y-127305054D01*
X98483411Y-127367838D01*
X98483415Y-127367838D01*
X98483417Y-127367839D01*
X98545402Y-127375999D01*
X98723912Y-127399500D01*
X98723919Y-127399500D01*
X98966481Y-127399500D01*
X98966488Y-127399500D01*
X99183837Y-127370885D01*
X99206982Y-127367839D01*
X99206982Y-127367838D01*
X99206989Y-127367838D01*
X99441300Y-127305054D01*
X99665412Y-127212224D01*
X99875489Y-127090936D01*
X100067938Y-126943265D01*
X100239465Y-126771738D01*
X100387136Y-126579289D01*
X100508424Y-126369212D01*
X100601254Y-126145100D01*
X100664038Y-125910789D01*
X100695700Y-125670288D01*
X100695700Y-125427712D01*
X100664038Y-125187211D01*
X100601254Y-124952900D01*
X100508424Y-124728788D01*
X100508418Y-124728779D01*
X100508417Y-124728775D01*
X100387138Y-124518714D01*
X100387136Y-124518711D01*
X100239465Y-124326262D01*
X100239459Y-124326256D01*
X100239455Y-124326251D01*
X100067948Y-124154744D01*
X100067942Y-124154739D01*
X100067938Y-124154735D01*
X99875489Y-124007064D01*
X99875488Y-124007063D01*
X99875485Y-124007061D01*
X99665424Y-123885782D01*
X99665416Y-123885778D01*
X99665412Y-123885776D01*
X99441300Y-123792946D01*
X99441297Y-123792945D01*
X99441295Y-123792944D01*
X99206982Y-123730160D01*
X98966490Y-123698500D01*
X98966488Y-123698500D01*
X98723912Y-123698500D01*
X98723909Y-123698500D01*
X98483417Y-123730160D01*
X98249104Y-123792944D01*
X98249100Y-123792946D01*
X98024986Y-123885777D01*
X98024975Y-123885782D01*
X97814914Y-124007061D01*
X97622462Y-124154735D01*
X97622451Y-124154744D01*
X97450944Y-124326251D01*
X97450935Y-124326262D01*
X97303261Y-124518714D01*
X97181982Y-124728775D01*
X97181977Y-124728786D01*
X97089146Y-124952900D01*
X97089144Y-124952904D01*
X97026360Y-125187217D01*
X96994700Y-125427709D01*
X94818200Y-125427709D01*
X94818200Y-106297800D01*
X96973667Y-106297800D01*
X96992568Y-106525891D01*
X97048748Y-106747743D01*
X97048751Y-106747750D01*
X97140683Y-106957335D01*
X97255190Y-107132600D01*
X97858161Y-106529629D01*
X97919290Y-106635508D01*
X98021692Y-106737910D01*
X98127569Y-106799037D01*
X97526822Y-107399784D01*
X97601476Y-107457889D01*
X97802757Y-107566817D01*
X97802759Y-107566818D01*
X98019218Y-107641128D01*
X98019225Y-107641130D01*
X98244971Y-107678800D01*
X98473829Y-107678800D01*
X98699574Y-107641130D01*
X98699581Y-107641128D01*
X98916040Y-107566818D01*
X98916042Y-107566817D01*
X99117321Y-107457889D01*
X99117325Y-107457887D01*
X99191976Y-107399783D01*
X98591230Y-106799037D01*
X98697108Y-106737910D01*
X98799510Y-106635508D01*
X98860638Y-106529629D01*
X99463609Y-107132600D01*
X99578117Y-106957332D01*
X99670048Y-106747750D01*
X99670051Y-106747743D01*
X99726231Y-106525891D01*
X99745132Y-106297800D01*
X101653757Y-106297800D01*
X101674285Y-106519339D01*
X101735168Y-106733320D01*
X101735174Y-106733337D01*
X101834338Y-106932484D01*
X101834342Y-106932489D01*
X101968417Y-107110035D01*
X102132838Y-107259924D01*
X102132839Y-107259925D01*
X102321987Y-107377040D01*
X102321990Y-107377041D01*
X102321999Y-107377047D01*
X102380690Y-107399784D01*
X102529453Y-107457416D01*
X102529456Y-107457416D01*
X102529460Y-107457418D01*
X102748157Y-107498300D01*
X102748160Y-107498300D01*
X102970640Y-107498300D01*
X102970643Y-107498300D01*
X103189340Y-107457418D01*
X103189344Y-107457416D01*
X103189346Y-107457416D01*
X103242698Y-107436746D01*
X103396801Y-107377047D01*
X103585962Y-107259924D01*
X103750381Y-107110036D01*
X103884458Y-106932489D01*
X103884459Y-106932485D01*
X103884461Y-106932484D01*
X103983625Y-106733337D01*
X103983626Y-106733333D01*
X103983629Y-106733328D01*
X104044515Y-106519336D01*
X104065043Y-106297800D01*
X104044515Y-106076264D01*
X103983629Y-105862272D01*
X103983627Y-105862268D01*
X103983625Y-105862262D01*
X103884461Y-105663115D01*
X103884457Y-105663110D01*
X103750382Y-105485564D01*
X103585961Y-105335675D01*
X103585960Y-105335674D01*
X103396812Y-105218559D01*
X103396805Y-105218555D01*
X103396801Y-105218553D01*
X103396796Y-105218551D01*
X103189346Y-105138183D01*
X103150372Y-105130897D01*
X102970643Y-105097300D01*
X102748157Y-105097300D01*
X102607074Y-105123673D01*
X102529453Y-105138183D01*
X102322003Y-105218551D01*
X102321987Y-105218559D01*
X102132839Y-105335674D01*
X102132838Y-105335675D01*
X101968417Y-105485564D01*
X101834342Y-105663110D01*
X101834338Y-105663115D01*
X101735174Y-105862262D01*
X101735168Y-105862279D01*
X101674285Y-106076260D01*
X101653757Y-106297800D01*
X99745132Y-106297800D01*
X99726231Y-106069708D01*
X99670051Y-105847856D01*
X99670048Y-105847849D01*
X99578117Y-105638267D01*
X99463608Y-105462998D01*
X98860637Y-106065968D01*
X98799510Y-105960092D01*
X98697108Y-105857690D01*
X98591228Y-105796561D01*
X99191975Y-105195815D01*
X99117324Y-105137711D01*
X99117323Y-105137710D01*
X98916042Y-105028782D01*
X98916040Y-105028781D01*
X98699581Y-104954471D01*
X98699574Y-104954469D01*
X98473829Y-104916800D01*
X98244971Y-104916800D01*
X98019225Y-104954469D01*
X98019218Y-104954471D01*
X97802759Y-105028781D01*
X97802757Y-105028782D01*
X97601476Y-105137710D01*
X97601468Y-105137716D01*
X97526823Y-105195814D01*
X98127570Y-105796561D01*
X98021692Y-105857690D01*
X97919290Y-105960092D01*
X97858162Y-106065969D01*
X97255190Y-105462997D01*
X97255189Y-105462998D01*
X97140688Y-105638255D01*
X97140681Y-105638269D01*
X97048751Y-105847849D01*
X97048748Y-105847856D01*
X96992568Y-106069708D01*
X96973667Y-106297800D01*
X94818200Y-106297800D01*
X94818200Y-99797800D01*
X96973667Y-99797800D01*
X96992568Y-100025891D01*
X97048748Y-100247743D01*
X97048751Y-100247750D01*
X97140683Y-100457335D01*
X97255190Y-100632600D01*
X97858161Y-100029629D01*
X97919290Y-100135508D01*
X98021692Y-100237910D01*
X98127569Y-100299037D01*
X97526822Y-100899784D01*
X97601476Y-100957889D01*
X97802757Y-101066817D01*
X97802759Y-101066818D01*
X98019218Y-101141128D01*
X98019225Y-101141130D01*
X98244971Y-101178800D01*
X98473829Y-101178800D01*
X98699574Y-101141130D01*
X98699581Y-101141128D01*
X98916040Y-101066818D01*
X98916042Y-101066817D01*
X99117321Y-100957889D01*
X99117325Y-100957887D01*
X99191976Y-100899783D01*
X98591230Y-100299037D01*
X98697108Y-100237910D01*
X98799510Y-100135508D01*
X98860638Y-100029629D01*
X99463609Y-100632600D01*
X99578117Y-100457332D01*
X99670048Y-100247750D01*
X99670051Y-100247743D01*
X99726231Y-100025891D01*
X99745132Y-99797800D01*
X101653757Y-99797800D01*
X101674285Y-100019339D01*
X101735168Y-100233320D01*
X101735174Y-100233337D01*
X101834338Y-100432484D01*
X101834342Y-100432489D01*
X101968417Y-100610035D01*
X102132838Y-100759924D01*
X102132839Y-100759925D01*
X102321987Y-100877040D01*
X102321990Y-100877041D01*
X102321999Y-100877047D01*
X102380690Y-100899784D01*
X102529453Y-100957416D01*
X102529456Y-100957416D01*
X102529460Y-100957418D01*
X102748157Y-100998300D01*
X102748160Y-100998300D01*
X102970640Y-100998300D01*
X102970643Y-100998300D01*
X103189340Y-100957418D01*
X103189344Y-100957416D01*
X103189346Y-100957416D01*
X103242698Y-100936746D01*
X103396801Y-100877047D01*
X103585962Y-100759924D01*
X103750381Y-100610036D01*
X103884458Y-100432489D01*
X103884459Y-100432485D01*
X103884461Y-100432484D01*
X103983625Y-100233337D01*
X103983626Y-100233333D01*
X103983629Y-100233328D01*
X104044515Y-100019336D01*
X104065043Y-99797800D01*
X104044515Y-99576264D01*
X103983629Y-99362272D01*
X103983627Y-99362268D01*
X103983625Y-99362262D01*
X103884461Y-99163115D01*
X103884457Y-99163110D01*
X103750382Y-98985564D01*
X103585961Y-98835675D01*
X103585960Y-98835674D01*
X103396812Y-98718559D01*
X103396805Y-98718555D01*
X103396801Y-98718553D01*
X103396796Y-98718551D01*
X103189346Y-98638183D01*
X103150372Y-98630897D01*
X102970643Y-98597300D01*
X102748157Y-98597300D01*
X102607074Y-98623673D01*
X102529453Y-98638183D01*
X102322003Y-98718551D01*
X102321987Y-98718559D01*
X102132839Y-98835674D01*
X102132838Y-98835675D01*
X101968417Y-98985564D01*
X101834342Y-99163110D01*
X101834338Y-99163115D01*
X101735174Y-99362262D01*
X101735168Y-99362279D01*
X101674285Y-99576260D01*
X101653757Y-99797800D01*
X99745132Y-99797800D01*
X99726231Y-99569708D01*
X99670051Y-99347856D01*
X99670048Y-99347849D01*
X99578117Y-99138267D01*
X99463608Y-98962998D01*
X98860637Y-99565968D01*
X98799510Y-99460092D01*
X98697108Y-99357690D01*
X98591228Y-99296561D01*
X99191975Y-98695815D01*
X99117324Y-98637711D01*
X99117323Y-98637710D01*
X98916042Y-98528782D01*
X98916040Y-98528781D01*
X98699581Y-98454471D01*
X98699574Y-98454469D01*
X98473829Y-98416800D01*
X98244971Y-98416800D01*
X98019225Y-98454469D01*
X98019218Y-98454471D01*
X97802759Y-98528781D01*
X97802757Y-98528782D01*
X97601476Y-98637710D01*
X97601468Y-98637716D01*
X97526823Y-98695814D01*
X98127570Y-99296561D01*
X98021692Y-99357690D01*
X97919290Y-99460092D01*
X97858162Y-99565969D01*
X97255190Y-98962997D01*
X97255189Y-98962998D01*
X97140688Y-99138255D01*
X97140681Y-99138269D01*
X97048751Y-99347849D01*
X97048748Y-99347856D01*
X96992568Y-99569708D01*
X96973667Y-99797800D01*
X94818200Y-99797800D01*
X94818200Y-70904709D01*
X96994700Y-70904709D01*
X96994700Y-71147290D01*
X97026360Y-71387782D01*
X97089144Y-71622095D01*
X97089145Y-71622097D01*
X97089146Y-71622100D01*
X97181976Y-71846212D01*
X97181977Y-71846213D01*
X97181982Y-71846224D01*
X97303261Y-72056285D01*
X97303263Y-72056288D01*
X97303264Y-72056289D01*
X97450935Y-72248738D01*
X97450939Y-72248742D01*
X97450944Y-72248748D01*
X97622451Y-72420255D01*
X97622456Y-72420259D01*
X97622462Y-72420265D01*
X97813964Y-72567209D01*
X97814914Y-72567938D01*
X98024975Y-72689217D01*
X98024979Y-72689218D01*
X98024988Y-72689224D01*
X98249100Y-72782054D01*
X98483411Y-72844838D01*
X98483415Y-72844838D01*
X98483417Y-72844839D01*
X98545402Y-72852999D01*
X98723912Y-72876500D01*
X98723919Y-72876500D01*
X98966481Y-72876500D01*
X98966488Y-72876500D01*
X99183837Y-72847885D01*
X99206982Y-72844839D01*
X99206982Y-72844838D01*
X99206989Y-72844838D01*
X99441300Y-72782054D01*
X99665412Y-72689224D01*
X99875489Y-72567936D01*
X100067938Y-72420265D01*
X100239465Y-72248738D01*
X100387136Y-72056289D01*
X100508424Y-71846212D01*
X100601254Y-71622100D01*
X100664038Y-71387789D01*
X100695700Y-71147288D01*
X100695700Y-70904712D01*
X100664038Y-70664211D01*
X100601254Y-70429900D01*
X100508424Y-70205788D01*
X100508418Y-70205779D01*
X100508417Y-70205775D01*
X100387138Y-69995714D01*
X100387136Y-69995711D01*
X100239465Y-69803262D01*
X100239459Y-69803256D01*
X100239455Y-69803251D01*
X100067948Y-69631744D01*
X100067942Y-69631739D01*
X100067938Y-69631735D01*
X99875489Y-69484064D01*
X99875488Y-69484063D01*
X99875485Y-69484061D01*
X99665424Y-69362782D01*
X99665416Y-69362778D01*
X99665412Y-69362776D01*
X99441300Y-69269946D01*
X99441297Y-69269945D01*
X99441295Y-69269944D01*
X99206982Y-69207160D01*
X98966490Y-69175500D01*
X98966488Y-69175500D01*
X98723912Y-69175500D01*
X98723909Y-69175500D01*
X98483417Y-69207160D01*
X98249104Y-69269944D01*
X98249100Y-69269946D01*
X98024986Y-69362777D01*
X98024975Y-69362782D01*
X97814914Y-69484061D01*
X97622462Y-69631735D01*
X97622451Y-69631744D01*
X97450944Y-69803251D01*
X97450935Y-69803262D01*
X97303261Y-69995714D01*
X97181982Y-70205775D01*
X97181977Y-70205786D01*
X97089146Y-70429900D01*
X97089144Y-70429904D01*
X97026360Y-70664217D01*
X96994700Y-70904709D01*
X94818200Y-70904709D01*
X94818200Y-60736649D01*
X94838202Y-60668528D01*
X94891858Y-60622035D01*
X94944752Y-60610650D01*
X105060656Y-60655115D01*
G37*
%TD.AperFunction*%
%TA.AperFunction,Conductor*%
G36*
X122815257Y-60733157D02*
G01*
X122883286Y-60753459D01*
X122929543Y-60807318D01*
X122940700Y-60859156D01*
X122940700Y-74742982D01*
X122920698Y-74811103D01*
X122903795Y-74832077D01*
X119928126Y-77807745D01*
X119865814Y-77841771D01*
X119802456Y-77839225D01*
X119644876Y-77791425D01*
X119456203Y-77772843D01*
X119456197Y-77772843D01*
X119267523Y-77791425D01*
X119086084Y-77846463D01*
X118918875Y-77935838D01*
X118772317Y-78056117D01*
X118652038Y-78202675D01*
X118562663Y-78369884D01*
X118507625Y-78551323D01*
X118489043Y-78739997D01*
X118489043Y-78740002D01*
X118507625Y-78928676D01*
X118507626Y-78928682D01*
X118507627Y-78928683D01*
X118562663Y-79110115D01*
X118652038Y-79277324D01*
X118772317Y-79423883D01*
X118918876Y-79544162D01*
X119086085Y-79633537D01*
X119267517Y-79688573D01*
X119267521Y-79688573D01*
X119267523Y-79688574D01*
X119456197Y-79707157D01*
X119456200Y-79707157D01*
X119456203Y-79707157D01*
X119644876Y-79688574D01*
X119644877Y-79688573D01*
X119644883Y-79688573D01*
X119802457Y-79640773D01*
X119873451Y-79640141D01*
X119928127Y-79672254D01*
X120363795Y-80107922D01*
X120397821Y-80170234D01*
X120400700Y-80197017D01*
X120400700Y-83101532D01*
X120380698Y-83169653D01*
X120327042Y-83216146D01*
X120256768Y-83226250D01*
X120192188Y-83196756D01*
X120177302Y-83181467D01*
X120140083Y-83136117D01*
X119993524Y-83015838D01*
X119826315Y-82926463D01*
X119644876Y-82871425D01*
X119456203Y-82852843D01*
X119456197Y-82852843D01*
X119267523Y-82871425D01*
X119086084Y-82926463D01*
X118918875Y-83015838D01*
X118772317Y-83136117D01*
X118652038Y-83282675D01*
X118562663Y-83449884D01*
X118507625Y-83631323D01*
X118489043Y-83819997D01*
X118489043Y-83820002D01*
X118507625Y-84008676D01*
X118507626Y-84008682D01*
X118507627Y-84008683D01*
X118562663Y-84190115D01*
X118652038Y-84357324D01*
X118772317Y-84503883D01*
X118918876Y-84624162D01*
X119086085Y-84713537D01*
X119267517Y-84768573D01*
X119267521Y-84768573D01*
X119267523Y-84768574D01*
X119456197Y-84787157D01*
X119456200Y-84787157D01*
X119456203Y-84787157D01*
X119644876Y-84768574D01*
X119644877Y-84768573D01*
X119644883Y-84768573D01*
X119826315Y-84713537D01*
X119993524Y-84624162D01*
X120140083Y-84503883D01*
X120177301Y-84458532D01*
X120235978Y-84418564D01*
X120306949Y-84416664D01*
X120367682Y-84453435D01*
X120398893Y-84517203D01*
X120400700Y-84538467D01*
X120400700Y-114257147D01*
X120400700Y-114342853D01*
X120422882Y-114425639D01*
X120422883Y-114425641D01*
X120422884Y-114425643D01*
X120465732Y-114499858D01*
X120465740Y-114499868D01*
X122333946Y-116368073D01*
X122367971Y-116430385D01*
X122365426Y-116493743D01*
X122317625Y-116651323D01*
X122299043Y-116839997D01*
X122299043Y-116840002D01*
X122317625Y-117028676D01*
X122365425Y-117186255D01*
X122366058Y-117257249D01*
X122333946Y-117311925D01*
X121735737Y-117910135D01*
X121735732Y-117910141D01*
X121692881Y-117984361D01*
X121692881Y-117984365D01*
X121670700Y-118067146D01*
X121670700Y-118661532D01*
X121650698Y-118729653D01*
X121597042Y-118776146D01*
X121526768Y-118786250D01*
X121462188Y-118756756D01*
X121447302Y-118741467D01*
X121410083Y-118696117D01*
X121263524Y-118575838D01*
X121096315Y-118486463D01*
X120992455Y-118454958D01*
X120914883Y-118431427D01*
X120914882Y-118431426D01*
X120914876Y-118431425D01*
X120726203Y-118412843D01*
X120726197Y-118412843D01*
X120537523Y-118431425D01*
X120356084Y-118486463D01*
X120188875Y-118575838D01*
X120042317Y-118696117D01*
X119922038Y-118842675D01*
X119832663Y-119009884D01*
X119777625Y-119191323D01*
X119759043Y-119379997D01*
X119759043Y-119380002D01*
X119777625Y-119568676D01*
X119777626Y-119568682D01*
X119777627Y-119568683D01*
X119832663Y-119750115D01*
X119922038Y-119917324D01*
X120042317Y-120063883D01*
X120188876Y-120184162D01*
X120356085Y-120273537D01*
X120537517Y-120328573D01*
X120537521Y-120328573D01*
X120537523Y-120328574D01*
X120726197Y-120347157D01*
X120726200Y-120347157D01*
X120726203Y-120347157D01*
X120914876Y-120328574D01*
X120914877Y-120328573D01*
X120914883Y-120328573D01*
X121096315Y-120273537D01*
X121263524Y-120184162D01*
X121410083Y-120063883D01*
X121447301Y-120018532D01*
X121505978Y-119978564D01*
X121576949Y-119976664D01*
X121637682Y-120013435D01*
X121668893Y-120077203D01*
X121670700Y-120098467D01*
X121670700Y-132214947D01*
X121670700Y-132300653D01*
X121692882Y-132383439D01*
X121692883Y-132383441D01*
X121692884Y-132383443D01*
X121735732Y-132457658D01*
X121735734Y-132457660D01*
X121735735Y-132457662D01*
X122608607Y-133330534D01*
X122642631Y-133392845D01*
X122637567Y-133463660D01*
X122595020Y-133520496D01*
X122528500Y-133545307D01*
X122520204Y-133545626D01*
X113983425Y-133592557D01*
X113915195Y-133572930D01*
X113868408Y-133519531D01*
X113857918Y-133449313D01*
X113887055Y-133384571D01*
X113893599Y-133377503D01*
X114762089Y-132509014D01*
X114821399Y-132406287D01*
X114827522Y-132383436D01*
X114834328Y-132358038D01*
X114843213Y-132324873D01*
X114852100Y-132291709D01*
X114852100Y-120239835D01*
X114872102Y-120171714D01*
X114925758Y-120125221D01*
X114996032Y-120115117D01*
X115058033Y-120142436D01*
X115108876Y-120184162D01*
X115276085Y-120273537D01*
X115457517Y-120328573D01*
X115457521Y-120328573D01*
X115457523Y-120328574D01*
X115646197Y-120347157D01*
X115646200Y-120347157D01*
X115646203Y-120347157D01*
X115834876Y-120328574D01*
X115834877Y-120328573D01*
X115834883Y-120328573D01*
X116016315Y-120273537D01*
X116183524Y-120184162D01*
X116330083Y-120063883D01*
X116450362Y-119917324D01*
X116539737Y-119750115D01*
X116594773Y-119568683D01*
X116613357Y-119380000D01*
X116613357Y-119379997D01*
X117219043Y-119379997D01*
X117219043Y-119380002D01*
X117237625Y-119568676D01*
X117237626Y-119568682D01*
X117237627Y-119568683D01*
X117292663Y-119750115D01*
X117382038Y-119917324D01*
X117502317Y-120063883D01*
X117648876Y-120184162D01*
X117816085Y-120273537D01*
X117997517Y-120328573D01*
X117997521Y-120328573D01*
X117997523Y-120328574D01*
X118186197Y-120347157D01*
X118186200Y-120347157D01*
X118186203Y-120347157D01*
X118374876Y-120328574D01*
X118374877Y-120328573D01*
X118374883Y-120328573D01*
X118556315Y-120273537D01*
X118723524Y-120184162D01*
X118870083Y-120063883D01*
X118990362Y-119917324D01*
X119079737Y-119750115D01*
X119134773Y-119568683D01*
X119153357Y-119380000D01*
X119134773Y-119191317D01*
X119079737Y-119009885D01*
X118990362Y-118842676D01*
X118870083Y-118696117D01*
X118723524Y-118575838D01*
X118556315Y-118486463D01*
X118374883Y-118431427D01*
X118374882Y-118431426D01*
X118374876Y-118431425D01*
X118186203Y-118412843D01*
X118186197Y-118412843D01*
X117997523Y-118431425D01*
X117816084Y-118486463D01*
X117648875Y-118575838D01*
X117502317Y-118696117D01*
X117382038Y-118842675D01*
X117292663Y-119009884D01*
X117237625Y-119191323D01*
X117219043Y-119379997D01*
X116613357Y-119379997D01*
X116594773Y-119191317D01*
X116539737Y-119009885D01*
X116450362Y-118842676D01*
X116330083Y-118696117D01*
X116183524Y-118575838D01*
X116016315Y-118486463D01*
X115834883Y-118431427D01*
X115834882Y-118431426D01*
X115834876Y-118431425D01*
X115646203Y-118412843D01*
X115646197Y-118412843D01*
X115457523Y-118431425D01*
X115276084Y-118486463D01*
X115108875Y-118575838D01*
X115058034Y-118617563D01*
X114992686Y-118645317D01*
X114922708Y-118633335D01*
X114870316Y-118585423D01*
X114852100Y-118520164D01*
X114852100Y-118076092D01*
X114849703Y-118067148D01*
X114821399Y-117961514D01*
X114821399Y-117961513D01*
X114811331Y-117944075D01*
X114762091Y-117858789D01*
X114762086Y-117858783D01*
X114427185Y-117523882D01*
X114079594Y-117176291D01*
X114045571Y-117113981D01*
X114048117Y-117050621D01*
X114054773Y-117028683D01*
X114058873Y-116987061D01*
X114073357Y-116840003D01*
X114073357Y-116839997D01*
X114679043Y-116839997D01*
X114679043Y-116840002D01*
X114697625Y-117028676D01*
X114697626Y-117028682D01*
X114697627Y-117028683D01*
X114752663Y-117210115D01*
X114842038Y-117377324D01*
X114962317Y-117523883D01*
X115108876Y-117644162D01*
X115276085Y-117733537D01*
X115457517Y-117788573D01*
X115457521Y-117788573D01*
X115457523Y-117788574D01*
X115646197Y-117807157D01*
X115646200Y-117807157D01*
X115646203Y-117807157D01*
X115834876Y-117788574D01*
X115834877Y-117788573D01*
X115834883Y-117788573D01*
X116016315Y-117733537D01*
X116183524Y-117644162D01*
X116330083Y-117523883D01*
X116450362Y-117377324D01*
X116539737Y-117210115D01*
X116594773Y-117028683D01*
X116598873Y-116987061D01*
X116613357Y-116840002D01*
X116613357Y-116840000D01*
X117038303Y-116840000D01*
X117057848Y-117050927D01*
X117115816Y-117254663D01*
X117210240Y-117444293D01*
X117254236Y-117502554D01*
X117254238Y-117502554D01*
X117818182Y-116938610D01*
X117831164Y-116987061D01*
X117881324Y-117073940D01*
X117952260Y-117144876D01*
X118039139Y-117195036D01*
X118087588Y-117208017D01*
X117522308Y-117773297D01*
X117674534Y-117867552D01*
X117674543Y-117867557D01*
X117872055Y-117944074D01*
X117872058Y-117944075D01*
X118080287Y-117983000D01*
X118292113Y-117983000D01*
X118500341Y-117944075D01*
X118500344Y-117944074D01*
X118697856Y-117867557D01*
X118697865Y-117867552D01*
X118850091Y-117773297D01*
X118284811Y-117208017D01*
X118333261Y-117195036D01*
X118420140Y-117144876D01*
X118491076Y-117073940D01*
X118541236Y-116987061D01*
X118554217Y-116938611D01*
X119118160Y-117502554D01*
X119118161Y-117502554D01*
X119162162Y-117444288D01*
X119256583Y-117254663D01*
X119314551Y-117050927D01*
X119330737Y-116876254D01*
X119345006Y-116840320D01*
X119344673Y-116839678D01*
X119567393Y-116839678D01*
X119579856Y-116863688D01*
X119581663Y-116876254D01*
X119597848Y-117050927D01*
X119655816Y-117254663D01*
X119750240Y-117444293D01*
X119794236Y-117502554D01*
X119794238Y-117502554D01*
X120358182Y-116938610D01*
X120371164Y-116987061D01*
X120421324Y-117073940D01*
X120492260Y-117144876D01*
X120579139Y-117195036D01*
X120627588Y-117208017D01*
X120062308Y-117773297D01*
X120214534Y-117867552D01*
X120214543Y-117867557D01*
X120412055Y-117944074D01*
X120412058Y-117944075D01*
X120620287Y-117983000D01*
X120832113Y-117983000D01*
X121040341Y-117944075D01*
X121040344Y-117944074D01*
X121237856Y-117867557D01*
X121237865Y-117867552D01*
X121390091Y-117773297D01*
X120824811Y-117208017D01*
X120873261Y-117195036D01*
X120960140Y-117144876D01*
X121031076Y-117073940D01*
X121081236Y-116987061D01*
X121094217Y-116938611D01*
X121658160Y-117502554D01*
X121658161Y-117502554D01*
X121702162Y-117444288D01*
X121796583Y-117254663D01*
X121854551Y-117050927D01*
X121874096Y-116840000D01*
X121854551Y-116629072D01*
X121796583Y-116425336D01*
X121702159Y-116235706D01*
X121658162Y-116177444D01*
X121658161Y-116177444D01*
X121094217Y-116741388D01*
X121081236Y-116692939D01*
X121031076Y-116606060D01*
X120960140Y-116535124D01*
X120873261Y-116484964D01*
X120824810Y-116471982D01*
X121390091Y-115906701D01*
X121237865Y-115812447D01*
X121237856Y-115812442D01*
X121040344Y-115735925D01*
X121040341Y-115735924D01*
X120832113Y-115697000D01*
X120620287Y-115697000D01*
X120412058Y-115735924D01*
X120412055Y-115735925D01*
X120214544Y-115812442D01*
X120214537Y-115812445D01*
X120062308Y-115906701D01*
X120627589Y-116471981D01*
X120579139Y-116484964D01*
X120492260Y-116535124D01*
X120421324Y-116606060D01*
X120371164Y-116692939D01*
X120358182Y-116741389D01*
X119794237Y-116177444D01*
X119794236Y-116177444D01*
X119750240Y-116235705D01*
X119655816Y-116425336D01*
X119597848Y-116629072D01*
X119581663Y-116803745D01*
X119567393Y-116839678D01*
X119344673Y-116839678D01*
X119332544Y-116816311D01*
X119330737Y-116803745D01*
X119314551Y-116629072D01*
X119256583Y-116425336D01*
X119162159Y-116235706D01*
X119118162Y-116177444D01*
X119118161Y-116177444D01*
X118554217Y-116741388D01*
X118541236Y-116692939D01*
X118491076Y-116606060D01*
X118420140Y-116535124D01*
X118333261Y-116484964D01*
X118284810Y-116471982D01*
X118850091Y-115906701D01*
X118697865Y-115812447D01*
X118697856Y-115812442D01*
X118500344Y-115735925D01*
X118500341Y-115735924D01*
X118292113Y-115697000D01*
X118080287Y-115697000D01*
X117872058Y-115735924D01*
X117872055Y-115735925D01*
X117674544Y-115812442D01*
X117674537Y-115812445D01*
X117522308Y-115906701D01*
X118087589Y-116471981D01*
X118039139Y-116484964D01*
X117952260Y-116535124D01*
X117881324Y-116606060D01*
X117831164Y-116692939D01*
X117818182Y-116741389D01*
X117254237Y-116177444D01*
X117254236Y-116177444D01*
X117210240Y-116235705D01*
X117115816Y-116425336D01*
X117057848Y-116629072D01*
X117038303Y-116840000D01*
X116613357Y-116840000D01*
X116613357Y-116839997D01*
X116594774Y-116651323D01*
X116594773Y-116651321D01*
X116594773Y-116651317D01*
X116539737Y-116469885D01*
X116450362Y-116302676D01*
X116330083Y-116156117D01*
X116183524Y-116035838D01*
X116016315Y-115946463D01*
X115834883Y-115891427D01*
X115834882Y-115891426D01*
X115834876Y-115891425D01*
X115646203Y-115872843D01*
X115646197Y-115872843D01*
X115457523Y-115891425D01*
X115276084Y-115946463D01*
X115108875Y-116035838D01*
X114962317Y-116156117D01*
X114842038Y-116302675D01*
X114752663Y-116469884D01*
X114697625Y-116651323D01*
X114679043Y-116839997D01*
X114073357Y-116839997D01*
X114054774Y-116651323D01*
X114054773Y-116651321D01*
X114054773Y-116651317D01*
X113999737Y-116469885D01*
X113910362Y-116302676D01*
X113790083Y-116156117D01*
X113643524Y-116035838D01*
X113627811Y-116027439D01*
X113623301Y-116025028D01*
X113572654Y-115975274D01*
X113556700Y-115913907D01*
X113556700Y-115601513D01*
X113576702Y-115533392D01*
X113630358Y-115486899D01*
X113700632Y-115476795D01*
X113759404Y-115501551D01*
X113844022Y-115566481D01*
X113870159Y-115586536D01*
X114016238Y-115647044D01*
X114173000Y-115667682D01*
X114329762Y-115647044D01*
X114475841Y-115586536D01*
X114601282Y-115490282D01*
X114697536Y-115364841D01*
X114758044Y-115218762D01*
X114778682Y-115062000D01*
X114758044Y-114905238D01*
X114697536Y-114759159D01*
X114601282Y-114633718D01*
X114601280Y-114633716D01*
X114601279Y-114633715D01*
X114547796Y-114592676D01*
X114505929Y-114535338D01*
X114498500Y-114492714D01*
X114498500Y-89723285D01*
X114518502Y-89655164D01*
X114547797Y-89623322D01*
X114601282Y-89582282D01*
X114697536Y-89456841D01*
X114758044Y-89310762D01*
X114778682Y-89154000D01*
X114778682Y-89153999D01*
X118774318Y-89153999D01*
X118774318Y-89154000D01*
X118794955Y-89310760D01*
X118852707Y-89450184D01*
X118855464Y-89456841D01*
X118948990Y-89578726D01*
X118951719Y-89582283D01*
X118966403Y-89593550D01*
X119030603Y-89642812D01*
X119072471Y-89700150D01*
X119079900Y-89742775D01*
X119079900Y-114518114D01*
X119059898Y-114586235D01*
X119030604Y-114618076D01*
X118977120Y-114659115D01*
X118880865Y-114784557D01*
X118880863Y-114784560D01*
X118820355Y-114930639D01*
X118799718Y-115087399D01*
X118799718Y-115087400D01*
X118820355Y-115244160D01*
X118857692Y-115334298D01*
X118880864Y-115390241D01*
X118977118Y-115515682D01*
X119102559Y-115611936D01*
X119248638Y-115672444D01*
X119405400Y-115693082D01*
X119562162Y-115672444D01*
X119708241Y-115611936D01*
X119833682Y-115515682D01*
X119929936Y-115390241D01*
X119990444Y-115244162D01*
X120011082Y-115087400D01*
X120010296Y-115081433D01*
X119990444Y-114930639D01*
X119989441Y-114928216D01*
X119929936Y-114784559D01*
X119833682Y-114659118D01*
X119833680Y-114659116D01*
X119833679Y-114659115D01*
X119780196Y-114618076D01*
X119738329Y-114560738D01*
X119730900Y-114518114D01*
X119730900Y-89703795D01*
X119750902Y-89635674D01*
X119780197Y-89603832D01*
X119796172Y-89591574D01*
X119808282Y-89582282D01*
X119904536Y-89456841D01*
X119965044Y-89310762D01*
X119985682Y-89154000D01*
X119965044Y-88997238D01*
X119904536Y-88851159D01*
X119808282Y-88725718D01*
X119682841Y-88629464D01*
X119659402Y-88619755D01*
X119536760Y-88568955D01*
X119380000Y-88548318D01*
X119223239Y-88568955D01*
X119077160Y-88629463D01*
X119077157Y-88629465D01*
X118951718Y-88725718D01*
X118855465Y-88851157D01*
X118855463Y-88851160D01*
X118794955Y-88997239D01*
X118774318Y-89153999D01*
X114778682Y-89153999D01*
X114758044Y-88997238D01*
X114697536Y-88851159D01*
X114601282Y-88725718D01*
X114475841Y-88629464D01*
X114452402Y-88619755D01*
X114329760Y-88568955D01*
X114173000Y-88548318D01*
X114016239Y-88568955D01*
X113870160Y-88629463D01*
X113870153Y-88629468D01*
X113759403Y-88714449D01*
X113693183Y-88740049D01*
X113623634Y-88725784D01*
X113572839Y-88676183D01*
X113556700Y-88614486D01*
X113556700Y-84658990D01*
X113576702Y-84590869D01*
X113630358Y-84544376D01*
X113700632Y-84534272D01*
X113762633Y-84561590D01*
X113838876Y-84624162D01*
X114006085Y-84713537D01*
X114187517Y-84768573D01*
X114187521Y-84768573D01*
X114187523Y-84768574D01*
X114376197Y-84787157D01*
X114376200Y-84787157D01*
X114376203Y-84787157D01*
X114564876Y-84768574D01*
X114564877Y-84768573D01*
X114564883Y-84768573D01*
X114746315Y-84713537D01*
X114913524Y-84624162D01*
X115060083Y-84503883D01*
X115180362Y-84357324D01*
X115269737Y-84190115D01*
X115324773Y-84008683D01*
X115343357Y-83820000D01*
X115343357Y-83819997D01*
X115949043Y-83819997D01*
X115949043Y-83820002D01*
X115967625Y-84008676D01*
X115967626Y-84008682D01*
X115967627Y-84008683D01*
X116022663Y-84190115D01*
X116112038Y-84357324D01*
X116232317Y-84503883D01*
X116378876Y-84624162D01*
X116546085Y-84713537D01*
X116727517Y-84768573D01*
X116727521Y-84768573D01*
X116727523Y-84768574D01*
X116916197Y-84787157D01*
X116916200Y-84787157D01*
X116916203Y-84787157D01*
X117104876Y-84768574D01*
X117104877Y-84768573D01*
X117104883Y-84768573D01*
X117286315Y-84713537D01*
X117453524Y-84624162D01*
X117600083Y-84503883D01*
X117720362Y-84357324D01*
X117809737Y-84190115D01*
X117864773Y-84008683D01*
X117883357Y-83820000D01*
X117864773Y-83631317D01*
X117809737Y-83449885D01*
X117720362Y-83282676D01*
X117600083Y-83136117D01*
X117453524Y-83015838D01*
X117286315Y-82926463D01*
X117104883Y-82871427D01*
X117104882Y-82871426D01*
X117104876Y-82871425D01*
X116916203Y-82852843D01*
X116916197Y-82852843D01*
X116727523Y-82871425D01*
X116546084Y-82926463D01*
X116378875Y-83015838D01*
X116232317Y-83136117D01*
X116112038Y-83282675D01*
X116022663Y-83449884D01*
X115967625Y-83631323D01*
X115949043Y-83819997D01*
X115343357Y-83819997D01*
X115324773Y-83631317D01*
X115269737Y-83449885D01*
X115180362Y-83282676D01*
X115060083Y-83136117D01*
X114913524Y-83015838D01*
X114746315Y-82926463D01*
X114564883Y-82871427D01*
X114564882Y-82871426D01*
X114564876Y-82871425D01*
X114376203Y-82852843D01*
X114376197Y-82852843D01*
X114187523Y-82871425D01*
X114006084Y-82926463D01*
X113838872Y-83015839D01*
X113838872Y-83015840D01*
X113762633Y-83078408D01*
X113697286Y-83106162D01*
X113627308Y-83094180D01*
X113574916Y-83046267D01*
X113556700Y-82981009D01*
X113556700Y-79803163D01*
X113576702Y-79735042D01*
X113630358Y-79688549D01*
X113700632Y-79678445D01*
X113749031Y-79696036D01*
X113864534Y-79767552D01*
X113864543Y-79767557D01*
X114062055Y-79844074D01*
X114062058Y-79844075D01*
X114270287Y-79883000D01*
X114482113Y-79883000D01*
X114690341Y-79844075D01*
X114690344Y-79844074D01*
X114887856Y-79767557D01*
X114887865Y-79767552D01*
X115040090Y-79673297D01*
X114577284Y-79210492D01*
X114688120Y-79146502D01*
X114782702Y-79051920D01*
X114846691Y-78941085D01*
X115308160Y-79402554D01*
X115308161Y-79402554D01*
X115352162Y-79344288D01*
X115446583Y-79154663D01*
X115504551Y-78950927D01*
X115520737Y-78776254D01*
X115535006Y-78740320D01*
X115534673Y-78739678D01*
X115757393Y-78739678D01*
X115769856Y-78763688D01*
X115771663Y-78776254D01*
X115787848Y-78950927D01*
X115845816Y-79154663D01*
X115940240Y-79344293D01*
X115984236Y-79402554D01*
X115984238Y-79402554D01*
X116445707Y-78941084D01*
X116509698Y-79051920D01*
X116604280Y-79146502D01*
X116715114Y-79210491D01*
X116252308Y-79673297D01*
X116404534Y-79767552D01*
X116404543Y-79767557D01*
X116602055Y-79844074D01*
X116602058Y-79844075D01*
X116810287Y-79883000D01*
X117022113Y-79883000D01*
X117230341Y-79844075D01*
X117230344Y-79844074D01*
X117427856Y-79767557D01*
X117427865Y-79767552D01*
X117580091Y-79673297D01*
X117117285Y-79210491D01*
X117228120Y-79146502D01*
X117322702Y-79051920D01*
X117386691Y-78941085D01*
X117848160Y-79402554D01*
X117848161Y-79402554D01*
X117892162Y-79344288D01*
X117986583Y-79154663D01*
X118044551Y-78950927D01*
X118064096Y-78740000D01*
X118044551Y-78529072D01*
X117986583Y-78325336D01*
X117892159Y-78135706D01*
X117848162Y-78077444D01*
X117848161Y-78077444D01*
X117386691Y-78538914D01*
X117322702Y-78428080D01*
X117228120Y-78333498D01*
X117117284Y-78269507D01*
X117580091Y-77806701D01*
X117427865Y-77712447D01*
X117427856Y-77712442D01*
X117230344Y-77635925D01*
X117230341Y-77635924D01*
X117022113Y-77597000D01*
X116810287Y-77597000D01*
X116602058Y-77635924D01*
X116602055Y-77635925D01*
X116404544Y-77712442D01*
X116404537Y-77712445D01*
X116252308Y-77806701D01*
X116715115Y-78269507D01*
X116604280Y-78333498D01*
X116509698Y-78428080D01*
X116445708Y-78538915D01*
X115984237Y-78077444D01*
X115984236Y-78077444D01*
X115940240Y-78135705D01*
X115845816Y-78325336D01*
X115787848Y-78529072D01*
X115771663Y-78703745D01*
X115757393Y-78739678D01*
X115534673Y-78739678D01*
X115522544Y-78716311D01*
X115520737Y-78703745D01*
X115504551Y-78529072D01*
X115446583Y-78325336D01*
X115352159Y-78135706D01*
X115308162Y-78077444D01*
X115308161Y-78077444D01*
X114846691Y-78538914D01*
X114782702Y-78428080D01*
X114688120Y-78333498D01*
X114577283Y-78269507D01*
X115040090Y-77806701D01*
X114887865Y-77712447D01*
X114887856Y-77712442D01*
X114690344Y-77635925D01*
X114690341Y-77635924D01*
X114482113Y-77597000D01*
X114270287Y-77597000D01*
X114062058Y-77635924D01*
X114062055Y-77635925D01*
X113864543Y-77712442D01*
X113864536Y-77712445D01*
X113749030Y-77783964D01*
X113680583Y-77802818D01*
X113612808Y-77781674D01*
X113567223Y-77727245D01*
X113556700Y-77676836D01*
X113556700Y-60819016D01*
X113576702Y-60750895D01*
X113630358Y-60704402D01*
X113683252Y-60693017D01*
X122815257Y-60733157D01*
G37*
%TD.AperFunction*%
%TA.AperFunction,Conductor*%
G36*
X140595256Y-60811311D02*
G01*
X140663286Y-60831613D01*
X140709543Y-60885472D01*
X140720700Y-60937310D01*
X140720700Y-61433382D01*
X140700698Y-61501503D01*
X140683795Y-61522477D01*
X139332740Y-62873531D01*
X139332732Y-62873541D01*
X139289881Y-62947761D01*
X139289881Y-62947765D01*
X139267700Y-63030546D01*
X139267700Y-75687982D01*
X139247698Y-75756103D01*
X139230795Y-75777077D01*
X138347340Y-76660531D01*
X138347332Y-76660541D01*
X138304484Y-76734756D01*
X138304480Y-76734767D01*
X138298429Y-76757346D01*
X138298430Y-76757347D01*
X138282300Y-76817546D01*
X138282300Y-78152290D01*
X138262298Y-78220411D01*
X138208642Y-78266904D01*
X138138368Y-78277008D01*
X138073788Y-78247514D01*
X138045178Y-78211687D01*
X138041729Y-78205235D01*
X138040362Y-78202676D01*
X137920083Y-78056117D01*
X137773524Y-77935838D01*
X137606315Y-77846463D01*
X137424883Y-77791427D01*
X137424882Y-77791426D01*
X137424876Y-77791425D01*
X137236203Y-77772843D01*
X137236197Y-77772843D01*
X137047523Y-77791425D01*
X136866084Y-77846463D01*
X136698875Y-77935838D01*
X136552317Y-78056117D01*
X136432038Y-78202675D01*
X136342663Y-78369884D01*
X136287625Y-78551323D01*
X136269043Y-78739997D01*
X136269043Y-78740002D01*
X136287625Y-78928676D01*
X136287626Y-78928682D01*
X136287627Y-78928683D01*
X136342663Y-79110115D01*
X136432038Y-79277324D01*
X136552317Y-79423883D01*
X136698876Y-79544162D01*
X136866085Y-79633537D01*
X137047517Y-79688573D01*
X137047521Y-79688573D01*
X137047523Y-79688574D01*
X137236197Y-79707157D01*
X137236200Y-79707157D01*
X137236203Y-79707157D01*
X137424876Y-79688574D01*
X137424877Y-79688573D01*
X137424883Y-79688573D01*
X137606315Y-79633537D01*
X137773524Y-79544162D01*
X137920083Y-79423883D01*
X138040362Y-79277324D01*
X138045177Y-79268314D01*
X138094928Y-79217666D01*
X138164164Y-79201955D01*
X138230904Y-79226169D01*
X138273957Y-79282622D01*
X138282300Y-79327709D01*
X138282300Y-80017947D01*
X138282300Y-80103653D01*
X138304482Y-80186439D01*
X138304483Y-80186441D01*
X138304484Y-80186443D01*
X138347332Y-80260658D01*
X138347340Y-80260668D01*
X140709195Y-82622522D01*
X140743220Y-82684834D01*
X140746100Y-82711617D01*
X140746100Y-83132482D01*
X140726098Y-83200603D01*
X140672442Y-83247096D01*
X140602168Y-83257200D01*
X140537588Y-83227706D01*
X140522701Y-83212416D01*
X140460083Y-83136117D01*
X140313524Y-83015838D01*
X140146315Y-82926463D01*
X139964876Y-82871425D01*
X139776203Y-82852843D01*
X139776197Y-82852843D01*
X139587523Y-82871425D01*
X139406084Y-82926463D01*
X139238875Y-83015838D01*
X139092317Y-83136117D01*
X138972038Y-83282675D01*
X138882663Y-83449884D01*
X138827625Y-83631323D01*
X138809043Y-83819997D01*
X138809043Y-83820002D01*
X138827625Y-84008676D01*
X138827626Y-84008682D01*
X138827627Y-84008683D01*
X138882663Y-84190115D01*
X138972038Y-84357324D01*
X139092317Y-84503883D01*
X139238876Y-84624162D01*
X139406085Y-84713537D01*
X139587517Y-84768573D01*
X139587521Y-84768573D01*
X139587523Y-84768574D01*
X139776197Y-84787157D01*
X139776200Y-84787157D01*
X139776203Y-84787157D01*
X139964876Y-84768574D01*
X139964877Y-84768573D01*
X139964883Y-84768573D01*
X140146315Y-84713537D01*
X140313524Y-84624162D01*
X140460083Y-84503883D01*
X140522701Y-84427582D01*
X140581378Y-84387614D01*
X140652349Y-84385714D01*
X140713081Y-84422485D01*
X140744293Y-84486253D01*
X140746100Y-84507517D01*
X140746100Y-115833517D01*
X140726098Y-115901638D01*
X140679496Y-115944639D01*
X140508875Y-116035838D01*
X140362317Y-116156117D01*
X140242038Y-116302675D01*
X140152663Y-116469884D01*
X140097625Y-116651323D01*
X140079043Y-116839997D01*
X140079043Y-116840002D01*
X140097625Y-117028676D01*
X140145425Y-117186255D01*
X140146058Y-117257249D01*
X140113946Y-117311925D01*
X139515737Y-117910135D01*
X139515732Y-117910141D01*
X139472881Y-117984361D01*
X139472881Y-117984365D01*
X139450700Y-118067146D01*
X139450700Y-118661532D01*
X139430698Y-118729653D01*
X139377042Y-118776146D01*
X139306768Y-118786250D01*
X139242188Y-118756756D01*
X139227302Y-118741467D01*
X139190083Y-118696117D01*
X139043524Y-118575838D01*
X138876315Y-118486463D01*
X138772455Y-118454958D01*
X138694883Y-118431427D01*
X138694882Y-118431426D01*
X138694876Y-118431425D01*
X138506203Y-118412843D01*
X138506197Y-118412843D01*
X138317523Y-118431425D01*
X138136084Y-118486463D01*
X137968875Y-118575838D01*
X137822317Y-118696117D01*
X137702038Y-118842675D01*
X137612663Y-119009884D01*
X137557625Y-119191323D01*
X137539043Y-119379997D01*
X137539043Y-119380002D01*
X137557625Y-119568676D01*
X137557626Y-119568682D01*
X137557627Y-119568683D01*
X137612663Y-119750115D01*
X137702038Y-119917324D01*
X137822317Y-120063883D01*
X137968876Y-120184162D01*
X138136085Y-120273537D01*
X138317517Y-120328573D01*
X138317521Y-120328573D01*
X138317523Y-120328574D01*
X138506197Y-120347157D01*
X138506200Y-120347157D01*
X138506203Y-120347157D01*
X138694876Y-120328574D01*
X138694877Y-120328573D01*
X138694883Y-120328573D01*
X138876315Y-120273537D01*
X139043524Y-120184162D01*
X139190083Y-120063883D01*
X139227301Y-120018532D01*
X139285978Y-119978564D01*
X139356949Y-119976664D01*
X139417682Y-120013435D01*
X139448893Y-120077203D01*
X139450700Y-120098467D01*
X139450700Y-132189547D01*
X139450700Y-132275253D01*
X139472882Y-132358039D01*
X139472883Y-132358040D01*
X139515732Y-132432258D01*
X139515734Y-132432260D01*
X139515735Y-132432262D01*
X140316657Y-133233184D01*
X140350681Y-133295495D01*
X140345617Y-133366310D01*
X140303070Y-133423146D01*
X140236550Y-133447957D01*
X140228254Y-133448276D01*
X136391708Y-133469367D01*
X136323478Y-133449740D01*
X136276691Y-133396341D01*
X136270117Y-133378209D01*
X136269519Y-133376767D01*
X136269518Y-133376761D01*
X136247448Y-133338535D01*
X136226667Y-133302541D01*
X136226666Y-133302539D01*
X136226665Y-133302538D01*
X136226663Y-133302536D01*
X136226659Y-133302531D01*
X135033205Y-132109077D01*
X134999179Y-132046765D01*
X134996300Y-132019982D01*
X134996300Y-120067517D01*
X135016302Y-119999396D01*
X135069958Y-119952903D01*
X135140232Y-119942799D01*
X135204812Y-119972293D01*
X135219696Y-119987580D01*
X135282317Y-120063883D01*
X135428876Y-120184162D01*
X135596085Y-120273537D01*
X135777517Y-120328573D01*
X135777521Y-120328573D01*
X135777523Y-120328574D01*
X135966197Y-120347157D01*
X135966200Y-120347157D01*
X135966203Y-120347157D01*
X136154876Y-120328574D01*
X136154877Y-120328573D01*
X136154883Y-120328573D01*
X136336315Y-120273537D01*
X136503524Y-120184162D01*
X136650083Y-120063883D01*
X136770362Y-119917324D01*
X136859737Y-119750115D01*
X136914773Y-119568683D01*
X136933357Y-119380000D01*
X136914773Y-119191317D01*
X136859737Y-119009885D01*
X136770362Y-118842676D01*
X136650083Y-118696117D01*
X136503524Y-118575838D01*
X136336315Y-118486463D01*
X136154883Y-118431427D01*
X136154882Y-118431426D01*
X136154876Y-118431425D01*
X135966203Y-118412843D01*
X135966197Y-118412843D01*
X135777523Y-118431425D01*
X135596084Y-118486463D01*
X135428875Y-118575838D01*
X135282316Y-118696117D01*
X135219699Y-118772416D01*
X135161021Y-118812385D01*
X135090050Y-118814285D01*
X135029318Y-118777513D01*
X134998107Y-118713745D01*
X134996300Y-118692482D01*
X134996300Y-118322417D01*
X135016302Y-118254296D01*
X135033205Y-118233322D01*
X135494273Y-117772254D01*
X135556585Y-117738228D01*
X135619942Y-117740773D01*
X135777517Y-117788573D01*
X135777521Y-117788573D01*
X135777523Y-117788574D01*
X135966197Y-117807157D01*
X135966200Y-117807157D01*
X135966203Y-117807157D01*
X136154876Y-117788574D01*
X136154877Y-117788573D01*
X136154883Y-117788573D01*
X136336315Y-117733537D01*
X136503524Y-117644162D01*
X136650083Y-117523883D01*
X136770362Y-117377324D01*
X136859737Y-117210115D01*
X136914773Y-117028683D01*
X136918873Y-116987061D01*
X136933357Y-116840002D01*
X136933357Y-116840000D01*
X137358303Y-116840000D01*
X137377848Y-117050927D01*
X137435816Y-117254663D01*
X137530240Y-117444293D01*
X137574236Y-117502554D01*
X137574238Y-117502554D01*
X138138182Y-116938610D01*
X138151164Y-116987061D01*
X138201324Y-117073940D01*
X138272260Y-117144876D01*
X138359139Y-117195036D01*
X138407588Y-117208017D01*
X137842308Y-117773297D01*
X137994534Y-117867552D01*
X137994543Y-117867557D01*
X138192055Y-117944074D01*
X138192058Y-117944075D01*
X138400287Y-117983000D01*
X138612113Y-117983000D01*
X138820341Y-117944075D01*
X138820344Y-117944074D01*
X139017856Y-117867557D01*
X139017865Y-117867552D01*
X139170091Y-117773297D01*
X138604811Y-117208017D01*
X138653261Y-117195036D01*
X138740140Y-117144876D01*
X138811076Y-117073940D01*
X138861236Y-116987061D01*
X138874217Y-116938611D01*
X139438160Y-117502554D01*
X139438161Y-117502554D01*
X139482162Y-117444288D01*
X139576583Y-117254663D01*
X139634551Y-117050927D01*
X139654096Y-116840000D01*
X139634551Y-116629072D01*
X139576583Y-116425336D01*
X139482159Y-116235706D01*
X139438162Y-116177444D01*
X139438161Y-116177444D01*
X138874217Y-116741388D01*
X138861236Y-116692939D01*
X138811076Y-116606060D01*
X138740140Y-116535124D01*
X138653261Y-116484964D01*
X138604810Y-116471982D01*
X139170091Y-115906701D01*
X139017865Y-115812447D01*
X139017856Y-115812442D01*
X138820344Y-115735925D01*
X138820341Y-115735924D01*
X138612113Y-115697000D01*
X138400287Y-115697000D01*
X138192058Y-115735924D01*
X138192055Y-115735925D01*
X137994544Y-115812442D01*
X137994537Y-115812445D01*
X137842308Y-115906701D01*
X138407589Y-116471981D01*
X138359139Y-116484964D01*
X138272260Y-116535124D01*
X138201324Y-116606060D01*
X138151164Y-116692939D01*
X138138182Y-116741389D01*
X137574237Y-116177444D01*
X137574236Y-116177444D01*
X137530240Y-116235705D01*
X137435816Y-116425336D01*
X137377848Y-116629072D01*
X137358303Y-116840000D01*
X136933357Y-116840000D01*
X136933357Y-116839997D01*
X136914774Y-116651323D01*
X136914773Y-116651321D01*
X136914773Y-116651317D01*
X136859737Y-116469885D01*
X136770362Y-116302676D01*
X136650083Y-116156117D01*
X136503524Y-116035838D01*
X136416699Y-115989429D01*
X136358304Y-115958216D01*
X136307656Y-115908464D01*
X136291700Y-115847094D01*
X136291700Y-89469728D01*
X136311702Y-89401607D01*
X136365358Y-89355114D01*
X136435632Y-89345010D01*
X136500212Y-89374504D01*
X136534107Y-89421507D01*
X136559264Y-89482241D01*
X136655518Y-89607682D01*
X136780959Y-89703936D01*
X136780960Y-89703936D01*
X136780961Y-89703937D01*
X136782112Y-89704414D01*
X136782937Y-89705079D01*
X136788114Y-89708068D01*
X136787648Y-89708874D01*
X136837395Y-89748959D01*
X136859819Y-89816321D01*
X136859900Y-89820825D01*
X136859900Y-114492714D01*
X136839898Y-114560835D01*
X136810604Y-114592676D01*
X136757120Y-114633715D01*
X136660865Y-114759157D01*
X136660863Y-114759160D01*
X136600355Y-114905239D01*
X136579718Y-115061999D01*
X136579718Y-115062000D01*
X136600355Y-115218760D01*
X136648213Y-115334298D01*
X136660864Y-115364841D01*
X136757118Y-115490282D01*
X136882559Y-115586536D01*
X137028638Y-115647044D01*
X137185400Y-115667682D01*
X137342162Y-115647044D01*
X137488241Y-115586536D01*
X137613682Y-115490282D01*
X137709936Y-115364841D01*
X137770444Y-115218762D01*
X137791082Y-115062000D01*
X137770444Y-114905238D01*
X137709936Y-114759159D01*
X137613682Y-114633718D01*
X137613680Y-114633716D01*
X137613679Y-114633715D01*
X137560196Y-114592676D01*
X137518329Y-114535338D01*
X137510900Y-114492714D01*
X137510900Y-89651993D01*
X137530902Y-89583872D01*
X137536938Y-89575289D01*
X137581899Y-89516694D01*
X137608336Y-89482241D01*
X137668844Y-89336162D01*
X137689482Y-89179400D01*
X137689482Y-89179399D01*
X139043518Y-89179399D01*
X139043518Y-89179400D01*
X139064155Y-89336160D01*
X139111386Y-89450184D01*
X139124664Y-89482241D01*
X139220918Y-89607682D01*
X139346359Y-89703936D01*
X139346362Y-89703938D01*
X139372917Y-89714937D01*
X139428198Y-89759484D01*
X139450620Y-89826847D01*
X139450700Y-89831346D01*
X139450700Y-114492714D01*
X139430698Y-114560835D01*
X139401404Y-114592676D01*
X139347920Y-114633715D01*
X139251665Y-114759157D01*
X139251663Y-114759160D01*
X139191155Y-114905239D01*
X139170518Y-115061999D01*
X139170518Y-115062000D01*
X139191155Y-115218760D01*
X139239013Y-115334298D01*
X139251664Y-115364841D01*
X139347918Y-115490282D01*
X139473359Y-115586536D01*
X139619438Y-115647044D01*
X139776200Y-115667682D01*
X139932962Y-115647044D01*
X140079041Y-115586536D01*
X140204482Y-115490282D01*
X140300736Y-115364841D01*
X140361244Y-115218762D01*
X140381882Y-115062000D01*
X140361244Y-114905238D01*
X140300736Y-114759159D01*
X140204482Y-114633718D01*
X140204480Y-114633716D01*
X140204479Y-114633715D01*
X140150996Y-114592676D01*
X140109129Y-114535338D01*
X140101700Y-114492714D01*
X140101700Y-89618890D01*
X140121702Y-89550769D01*
X140127723Y-89542204D01*
X140173736Y-89482241D01*
X140234244Y-89336162D01*
X140254882Y-89179400D01*
X140234244Y-89022638D01*
X140173736Y-88876559D01*
X140077482Y-88751118D01*
X139952041Y-88654864D01*
X139890723Y-88629465D01*
X139805960Y-88594355D01*
X139649200Y-88573718D01*
X139492439Y-88594355D01*
X139346360Y-88654863D01*
X139346357Y-88654865D01*
X139220918Y-88751118D01*
X139124665Y-88876557D01*
X139124663Y-88876560D01*
X139064155Y-89022639D01*
X139043518Y-89179399D01*
X137689482Y-89179399D01*
X137668844Y-89022638D01*
X137608336Y-88876559D01*
X137512082Y-88751118D01*
X137386641Y-88654864D01*
X137325323Y-88629465D01*
X137240560Y-88594355D01*
X137083800Y-88573718D01*
X136927039Y-88594355D01*
X136780960Y-88654863D01*
X136780957Y-88654865D01*
X136655518Y-88751118D01*
X136559265Y-88876557D01*
X136559264Y-88876559D01*
X136534107Y-88937291D01*
X136489560Y-88992570D01*
X136422197Y-89014991D01*
X136353405Y-88997433D01*
X136305027Y-88945470D01*
X136291700Y-88889071D01*
X136291700Y-84538467D01*
X136311702Y-84470346D01*
X136365358Y-84423853D01*
X136435632Y-84413749D01*
X136500212Y-84443243D01*
X136515098Y-84458532D01*
X136552317Y-84503883D01*
X136698876Y-84624162D01*
X136866085Y-84713537D01*
X137047517Y-84768573D01*
X137047521Y-84768573D01*
X137047523Y-84768574D01*
X137236197Y-84787157D01*
X137236200Y-84787157D01*
X137236203Y-84787157D01*
X137424876Y-84768574D01*
X137424877Y-84768573D01*
X137424883Y-84768573D01*
X137606315Y-84713537D01*
X137773524Y-84624162D01*
X137920083Y-84503883D01*
X138040362Y-84357324D01*
X138129737Y-84190115D01*
X138184773Y-84008683D01*
X138203357Y-83820000D01*
X138184773Y-83631317D01*
X138129737Y-83449885D01*
X138040362Y-83282676D01*
X137920083Y-83136117D01*
X137773524Y-83015838D01*
X137606315Y-82926463D01*
X137424883Y-82871427D01*
X137424882Y-82871426D01*
X137424876Y-82871425D01*
X137236203Y-82852843D01*
X137236197Y-82852843D01*
X137047523Y-82871425D01*
X136866084Y-82926463D01*
X136698875Y-83015838D01*
X136552316Y-83136117D01*
X136515098Y-83181467D01*
X136456421Y-83221435D01*
X136385449Y-83223335D01*
X136324718Y-83186563D01*
X136293507Y-83122795D01*
X136291700Y-83101532D01*
X136291700Y-82603016D01*
X136291701Y-82603003D01*
X136291701Y-82507147D01*
X136291700Y-82507143D01*
X136269519Y-82424364D01*
X136269515Y-82424354D01*
X136248092Y-82387251D01*
X136248089Y-82387246D01*
X136226667Y-82350141D01*
X136226661Y-82350133D01*
X136161673Y-82285145D01*
X136161650Y-82285124D01*
X133088454Y-79211927D01*
X133054428Y-79149615D01*
X133056974Y-79086257D01*
X133076195Y-79022892D01*
X133104773Y-78928683D01*
X133123326Y-78740320D01*
X133123357Y-78740002D01*
X133123357Y-78740000D01*
X133548303Y-78740000D01*
X133567848Y-78950927D01*
X133625816Y-79154663D01*
X133720240Y-79344293D01*
X133764236Y-79402554D01*
X133764238Y-79402554D01*
X134225707Y-78941084D01*
X134289698Y-79051920D01*
X134384280Y-79146502D01*
X134495114Y-79210491D01*
X134032308Y-79673297D01*
X134184534Y-79767552D01*
X134184543Y-79767557D01*
X134382055Y-79844074D01*
X134382058Y-79844075D01*
X134590287Y-79883000D01*
X134802113Y-79883000D01*
X135010341Y-79844075D01*
X135010344Y-79844074D01*
X135207856Y-79767557D01*
X135207865Y-79767552D01*
X135360091Y-79673297D01*
X134897285Y-79210491D01*
X135008120Y-79146502D01*
X135102702Y-79051920D01*
X135166691Y-78941085D01*
X135628160Y-79402554D01*
X135628161Y-79402554D01*
X135672162Y-79344288D01*
X135766583Y-79154663D01*
X135824551Y-78950927D01*
X135844096Y-78740000D01*
X135824551Y-78529072D01*
X135766583Y-78325336D01*
X135672159Y-78135706D01*
X135628162Y-78077444D01*
X135628161Y-78077444D01*
X135166691Y-78538914D01*
X135102702Y-78428080D01*
X135008120Y-78333498D01*
X134897284Y-78269507D01*
X135360091Y-77806701D01*
X135207865Y-77712447D01*
X135207856Y-77712442D01*
X135010344Y-77635925D01*
X135010341Y-77635924D01*
X134802113Y-77597000D01*
X134590287Y-77597000D01*
X134382058Y-77635924D01*
X134382055Y-77635925D01*
X134184544Y-77712442D01*
X134184537Y-77712445D01*
X134032308Y-77806701D01*
X134495115Y-78269507D01*
X134384280Y-78333498D01*
X134289698Y-78428080D01*
X134225708Y-78538915D01*
X133764237Y-78077444D01*
X133764236Y-78077444D01*
X133720240Y-78135705D01*
X133625816Y-78325336D01*
X133567848Y-78529072D01*
X133548303Y-78740000D01*
X133123357Y-78740000D01*
X133123357Y-78739997D01*
X133104774Y-78551323D01*
X133104773Y-78551321D01*
X133104773Y-78551317D01*
X133056972Y-78393739D01*
X133056340Y-78322749D01*
X133088451Y-78268074D01*
X136155685Y-75200839D01*
X136155695Y-75200832D01*
X136226661Y-75129866D01*
X136226665Y-75129862D01*
X136248091Y-75092750D01*
X136269518Y-75055639D01*
X136291701Y-74972853D01*
X136291701Y-74887147D01*
X136291701Y-74879430D01*
X136291700Y-74879412D01*
X136291700Y-60918950D01*
X136311702Y-60850829D01*
X136365358Y-60804336D01*
X136418252Y-60792951D01*
X140595256Y-60811311D01*
G37*
%TD.AperFunction*%
%TA.AperFunction,Conductor*%
G36*
X184719756Y-61005265D02*
G01*
X184787786Y-61025567D01*
X184834043Y-61079426D01*
X184845200Y-61131264D01*
X184845200Y-125539999D01*
X184848357Y-125737940D01*
X184848008Y-125749532D01*
X184817958Y-126143482D01*
X184816268Y-126156563D01*
X184745345Y-126544433D01*
X184742297Y-126557264D01*
X184631220Y-126935594D01*
X184626847Y-126948037D01*
X184476833Y-127312681D01*
X184471184Y-127324599D01*
X184283875Y-127671566D01*
X184277011Y-127682827D01*
X184054464Y-128008310D01*
X184046460Y-128018793D01*
X183791095Y-128319245D01*
X183782040Y-128328833D01*
X183496688Y-128600929D01*
X183486680Y-128609519D01*
X183174436Y-128850308D01*
X183163585Y-128857804D01*
X182827885Y-129064632D01*
X182816309Y-129070953D01*
X182460831Y-129241556D01*
X182448659Y-129246632D01*
X182077300Y-129379142D01*
X182064663Y-129382919D01*
X181681470Y-129475889D01*
X181668508Y-129478323D01*
X181276925Y-129530833D01*
X181265370Y-129531844D01*
X181068618Y-129539956D01*
X181066518Y-129540025D01*
X180969317Y-129542410D01*
X180776597Y-129580749D01*
X180776593Y-129580750D01*
X180595045Y-129655954D01*
X180431659Y-129765130D01*
X180292712Y-129904080D01*
X180183542Y-130067467D01*
X180108345Y-130249011D01*
X180108343Y-130249016D01*
X180108343Y-130249018D01*
X180106554Y-130258011D01*
X180070007Y-130441746D01*
X180067573Y-130539986D01*
X180067573Y-133103949D01*
X180047571Y-133172070D01*
X179993915Y-133218563D01*
X179942266Y-133229947D01*
X174413554Y-133260341D01*
X174345324Y-133240714D01*
X174323766Y-133223438D01*
X173158605Y-132058277D01*
X173124579Y-131995965D01*
X173121700Y-131969182D01*
X173121700Y-125427709D01*
X178768900Y-125427709D01*
X178768900Y-125670290D01*
X178800560Y-125910782D01*
X178863344Y-126145095D01*
X178863345Y-126145097D01*
X178863346Y-126145100D01*
X178956176Y-126369212D01*
X178956177Y-126369213D01*
X178956182Y-126369224D01*
X179077461Y-126579285D01*
X179077463Y-126579288D01*
X179077464Y-126579289D01*
X179225135Y-126771738D01*
X179225139Y-126771742D01*
X179225144Y-126771748D01*
X179396651Y-126943255D01*
X179396656Y-126943259D01*
X179396662Y-126943265D01*
X179589111Y-127090936D01*
X179589114Y-127090938D01*
X179799175Y-127212217D01*
X179799179Y-127212218D01*
X179799188Y-127212224D01*
X180023300Y-127305054D01*
X180257611Y-127367838D01*
X180257615Y-127367838D01*
X180257617Y-127367839D01*
X180319602Y-127375999D01*
X180498112Y-127399500D01*
X180498119Y-127399500D01*
X180740681Y-127399500D01*
X180740688Y-127399500D01*
X180958037Y-127370885D01*
X180981182Y-127367839D01*
X180981182Y-127367838D01*
X180981189Y-127367838D01*
X181215500Y-127305054D01*
X181439612Y-127212224D01*
X181649689Y-127090936D01*
X181842138Y-126943265D01*
X182013665Y-126771738D01*
X182161336Y-126579289D01*
X182282624Y-126369212D01*
X182375454Y-126145100D01*
X182438238Y-125910789D01*
X182469900Y-125670288D01*
X182469900Y-125427712D01*
X182438238Y-125187211D01*
X182375454Y-124952900D01*
X182282624Y-124728788D01*
X182282618Y-124728779D01*
X182282617Y-124728775D01*
X182161338Y-124518714D01*
X182161336Y-124518711D01*
X182013665Y-124326262D01*
X182013659Y-124326256D01*
X182013655Y-124326251D01*
X181842148Y-124154744D01*
X181842142Y-124154739D01*
X181842138Y-124154735D01*
X181649689Y-124007064D01*
X181649688Y-124007063D01*
X181649685Y-124007061D01*
X181439624Y-123885782D01*
X181439616Y-123885778D01*
X181439612Y-123885776D01*
X181215500Y-123792946D01*
X181215497Y-123792945D01*
X181215495Y-123792944D01*
X180981182Y-123730160D01*
X180740690Y-123698500D01*
X180740688Y-123698500D01*
X180498112Y-123698500D01*
X180498109Y-123698500D01*
X180257617Y-123730160D01*
X180023304Y-123792944D01*
X180023300Y-123792946D01*
X179799186Y-123885777D01*
X179799175Y-123885782D01*
X179589114Y-124007061D01*
X179396662Y-124154735D01*
X179396651Y-124154744D01*
X179225144Y-124326251D01*
X179225135Y-124326262D01*
X179077461Y-124518714D01*
X178956182Y-124728775D01*
X178956177Y-124728786D01*
X178863346Y-124952900D01*
X178863344Y-124952904D01*
X178800560Y-125187217D01*
X178768900Y-125427709D01*
X173121700Y-125427709D01*
X173121700Y-120098467D01*
X173141702Y-120030346D01*
X173195358Y-119983853D01*
X173265632Y-119973749D01*
X173330212Y-120003243D01*
X173345098Y-120018532D01*
X173382317Y-120063883D01*
X173528876Y-120184162D01*
X173696085Y-120273537D01*
X173877517Y-120328573D01*
X173877521Y-120328573D01*
X173877523Y-120328574D01*
X174066197Y-120347157D01*
X174066200Y-120347157D01*
X174066203Y-120347157D01*
X174254876Y-120328574D01*
X174254877Y-120328573D01*
X174254883Y-120328573D01*
X174436315Y-120273537D01*
X174603524Y-120184162D01*
X174750083Y-120063883D01*
X174870362Y-119917324D01*
X174959737Y-119750115D01*
X175014773Y-119568683D01*
X175033357Y-119380000D01*
X175014773Y-119191317D01*
X174959737Y-119009885D01*
X174870362Y-118842676D01*
X174750083Y-118696117D01*
X174603524Y-118575838D01*
X174436315Y-118486463D01*
X174254883Y-118431427D01*
X174254882Y-118431426D01*
X174254876Y-118431425D01*
X174066203Y-118412843D01*
X174066197Y-118412843D01*
X173877523Y-118431425D01*
X173696084Y-118486463D01*
X173528875Y-118575838D01*
X173382316Y-118696117D01*
X173345098Y-118741467D01*
X173286421Y-118781435D01*
X173215449Y-118783335D01*
X173154718Y-118746563D01*
X173123507Y-118682795D01*
X173121700Y-118661532D01*
X173121700Y-118297017D01*
X173141702Y-118228896D01*
X173158605Y-118207922D01*
X173594273Y-117772254D01*
X173656585Y-117738228D01*
X173719942Y-117740773D01*
X173877517Y-117788573D01*
X173877521Y-117788573D01*
X173877523Y-117788574D01*
X174066197Y-117807157D01*
X174066200Y-117807157D01*
X174066203Y-117807157D01*
X174254876Y-117788574D01*
X174254877Y-117788573D01*
X174254883Y-117788573D01*
X174436315Y-117733537D01*
X174603524Y-117644162D01*
X174750083Y-117523883D01*
X174870362Y-117377324D01*
X174959737Y-117210115D01*
X175014773Y-117028683D01*
X175018873Y-116987061D01*
X175033357Y-116840002D01*
X175033357Y-116839997D01*
X175014774Y-116651323D01*
X175014773Y-116651321D01*
X175014773Y-116651317D01*
X174959737Y-116469885D01*
X174870362Y-116302676D01*
X174750083Y-116156117D01*
X174603524Y-116035838D01*
X174516699Y-115989429D01*
X174458304Y-115958216D01*
X174407656Y-115908464D01*
X174391700Y-115847094D01*
X174391700Y-115334311D01*
X174391701Y-115334298D01*
X174391701Y-115238443D01*
X174391700Y-115238439D01*
X174369519Y-115155660D01*
X174369518Y-115155659D01*
X174369518Y-115155657D01*
X174354851Y-115130253D01*
X174326665Y-115081433D01*
X174326662Y-115081430D01*
X174326659Y-115081426D01*
X174261678Y-115016445D01*
X174261655Y-115016424D01*
X173895204Y-114649972D01*
X173861179Y-114587660D01*
X173858300Y-114560877D01*
X173858300Y-87655399D01*
X174324118Y-87655399D01*
X174324118Y-87655400D01*
X174344755Y-87812160D01*
X174397012Y-87938318D01*
X174405264Y-87958241D01*
X174501518Y-88083682D01*
X174626959Y-88179936D01*
X174773038Y-88240444D01*
X174851211Y-88250735D01*
X174916137Y-88279457D01*
X174923859Y-88286562D01*
X175509195Y-88871898D01*
X175543221Y-88934210D01*
X175546100Y-88960993D01*
X175546100Y-102190291D01*
X175526098Y-102258412D01*
X175472442Y-102304905D01*
X175466415Y-102307071D01*
X175466467Y-102307196D01*
X175312760Y-102370863D01*
X175312757Y-102370865D01*
X175187318Y-102467118D01*
X175091065Y-102592557D01*
X175091063Y-102592560D01*
X175030555Y-102738639D01*
X175009918Y-102895399D01*
X175009918Y-102895400D01*
X175030555Y-103052160D01*
X175089567Y-103194626D01*
X175091064Y-103198241D01*
X175187318Y-103323682D01*
X175312759Y-103419936D01*
X175458838Y-103480444D01*
X175615600Y-103501082D01*
X175772362Y-103480444D01*
X175918441Y-103419936D01*
X176043882Y-103323682D01*
X176140136Y-103198241D01*
X176200644Y-103052162D01*
X176210935Y-102973989D01*
X176239657Y-102909062D01*
X176246748Y-102901354D01*
X176357089Y-102791014D01*
X176416398Y-102688287D01*
X176416399Y-102688286D01*
X176447100Y-102573709D01*
X176447100Y-88662891D01*
X176416399Y-88548314D01*
X176416399Y-88548313D01*
X176357089Y-88445586D01*
X175560960Y-87649457D01*
X175526937Y-87587147D01*
X175525135Y-87576810D01*
X175514844Y-87498639D01*
X175488985Y-87436208D01*
X175454336Y-87352559D01*
X175358082Y-87227118D01*
X175232641Y-87130864D01*
X175146645Y-87095243D01*
X175086560Y-87070355D01*
X174929800Y-87049718D01*
X174773039Y-87070355D01*
X174626960Y-87130863D01*
X174626957Y-87130865D01*
X174501518Y-87227118D01*
X174405265Y-87352557D01*
X174405263Y-87352560D01*
X174344755Y-87498639D01*
X174324118Y-87655399D01*
X173858300Y-87655399D01*
X173858300Y-87318322D01*
X173878302Y-87250201D01*
X173895200Y-87229231D01*
X174275865Y-86848567D01*
X174278524Y-86843961D01*
X174318718Y-86774343D01*
X174340900Y-86691558D01*
X174340900Y-84598083D01*
X174360902Y-84529962D01*
X174377805Y-84508988D01*
X174865708Y-84021084D01*
X174929698Y-84131920D01*
X175024280Y-84226502D01*
X175135114Y-84290491D01*
X174672308Y-84753297D01*
X174824534Y-84847552D01*
X174824543Y-84847557D01*
X175022055Y-84924074D01*
X175022058Y-84924075D01*
X175230287Y-84963000D01*
X175442113Y-84963000D01*
X175650341Y-84924075D01*
X175650344Y-84924074D01*
X175847856Y-84847557D01*
X175847865Y-84847552D01*
X176000091Y-84753297D01*
X175537285Y-84290491D01*
X175648120Y-84226502D01*
X175742702Y-84131920D01*
X175806691Y-84021085D01*
X176268160Y-84482554D01*
X176268161Y-84482554D01*
X176312162Y-84424288D01*
X176406583Y-84234663D01*
X176464551Y-84030927D01*
X176484096Y-83820000D01*
X176484096Y-83819997D01*
X176909043Y-83819997D01*
X176909043Y-83820002D01*
X176927625Y-84008676D01*
X176927626Y-84008682D01*
X176927627Y-84008683D01*
X176982663Y-84190115D01*
X177072038Y-84357324D01*
X177192317Y-84503883D01*
X177338876Y-84624162D01*
X177506085Y-84713537D01*
X177687517Y-84768573D01*
X177687521Y-84768573D01*
X177687523Y-84768574D01*
X177876197Y-84787157D01*
X177876200Y-84787157D01*
X177876203Y-84787157D01*
X178064876Y-84768574D01*
X178064877Y-84768573D01*
X178064883Y-84768573D01*
X178246315Y-84713537D01*
X178413524Y-84624162D01*
X178560083Y-84503883D01*
X178680362Y-84357324D01*
X178769737Y-84190115D01*
X178824773Y-84008683D01*
X178843357Y-83820000D01*
X178824773Y-83631317D01*
X178769737Y-83449885D01*
X178680362Y-83282676D01*
X178560083Y-83136117D01*
X178413524Y-83015838D01*
X178246315Y-82926463D01*
X178064883Y-82871427D01*
X178064882Y-82871426D01*
X178064876Y-82871425D01*
X177876203Y-82852843D01*
X177876197Y-82852843D01*
X177687523Y-82871425D01*
X177506084Y-82926463D01*
X177338875Y-83015838D01*
X177192317Y-83136117D01*
X177072038Y-83282675D01*
X176982663Y-83449884D01*
X176927625Y-83631323D01*
X176909043Y-83819997D01*
X176484096Y-83819997D01*
X176464551Y-83609072D01*
X176406583Y-83405336D01*
X176312159Y-83215706D01*
X176268162Y-83157444D01*
X176268161Y-83157444D01*
X175806691Y-83618914D01*
X175742702Y-83508080D01*
X175648120Y-83413498D01*
X175537284Y-83349507D01*
X176000091Y-82886701D01*
X175847865Y-82792447D01*
X175847856Y-82792442D01*
X175650344Y-82715925D01*
X175650341Y-82715924D01*
X175442113Y-82677000D01*
X175230287Y-82677000D01*
X175022058Y-82715924D01*
X175022055Y-82715925D01*
X174824544Y-82792442D01*
X174824537Y-82792445D01*
X174672308Y-82886701D01*
X175135115Y-83349507D01*
X175024280Y-83413498D01*
X174929698Y-83508080D01*
X174865708Y-83618915D01*
X174377804Y-83131011D01*
X174343779Y-83068699D01*
X174340900Y-83041916D01*
X174340900Y-82552216D01*
X174340901Y-82552203D01*
X174340901Y-82456347D01*
X174340900Y-82456343D01*
X174318719Y-82373565D01*
X174318718Y-82373564D01*
X174318718Y-82373562D01*
X174295679Y-82333657D01*
X174275865Y-82299338D01*
X174275862Y-82299335D01*
X174275859Y-82299331D01*
X174210873Y-82234345D01*
X174210850Y-82234324D01*
X171188454Y-79211927D01*
X171154428Y-79149615D01*
X171156974Y-79086257D01*
X171176195Y-79022892D01*
X171204773Y-78928683D01*
X171223326Y-78740320D01*
X171223357Y-78740002D01*
X171223357Y-78739997D01*
X171829043Y-78739997D01*
X171829043Y-78740002D01*
X171847625Y-78928676D01*
X171847626Y-78928682D01*
X171847627Y-78928683D01*
X171902663Y-79110115D01*
X171992038Y-79277324D01*
X172112317Y-79423883D01*
X172258876Y-79544162D01*
X172426085Y-79633537D01*
X172607517Y-79688573D01*
X172607521Y-79688573D01*
X172607523Y-79688574D01*
X172796197Y-79707157D01*
X172796200Y-79707157D01*
X172796203Y-79707157D01*
X172984876Y-79688574D01*
X172984877Y-79688573D01*
X172984883Y-79688573D01*
X173166315Y-79633537D01*
X173333524Y-79544162D01*
X173480083Y-79423883D01*
X173600362Y-79277324D01*
X173689737Y-79110115D01*
X173744773Y-78928683D01*
X173763326Y-78740320D01*
X173763357Y-78740002D01*
X173763357Y-78740000D01*
X174188303Y-78740000D01*
X174207848Y-78950927D01*
X174265816Y-79154663D01*
X174360240Y-79344293D01*
X174404236Y-79402554D01*
X174404238Y-79402554D01*
X174865707Y-78941084D01*
X174929698Y-79051920D01*
X175024280Y-79146502D01*
X175135114Y-79210491D01*
X174672308Y-79673297D01*
X174824534Y-79767552D01*
X174824543Y-79767557D01*
X175022055Y-79844074D01*
X175022058Y-79844075D01*
X175230287Y-79883000D01*
X175442113Y-79883000D01*
X175650341Y-79844075D01*
X175650344Y-79844074D01*
X175847856Y-79767557D01*
X175847865Y-79767552D01*
X176000091Y-79673297D01*
X175537285Y-79210491D01*
X175648120Y-79146502D01*
X175742702Y-79051920D01*
X175806691Y-78941085D01*
X176268160Y-79402554D01*
X176268161Y-79402554D01*
X176312162Y-79344288D01*
X176406583Y-79154663D01*
X176464551Y-78950927D01*
X176484096Y-78740000D01*
X176484096Y-78739997D01*
X176909043Y-78739997D01*
X176909043Y-78740002D01*
X176927625Y-78928676D01*
X176927626Y-78928682D01*
X176927627Y-78928683D01*
X176982663Y-79110115D01*
X177072038Y-79277324D01*
X177192317Y-79423883D01*
X177338876Y-79544162D01*
X177506085Y-79633537D01*
X177687517Y-79688573D01*
X177687521Y-79688573D01*
X177687523Y-79688574D01*
X177876197Y-79707157D01*
X177876200Y-79707157D01*
X177876203Y-79707157D01*
X178064876Y-79688574D01*
X178064877Y-79688573D01*
X178064883Y-79688573D01*
X178246315Y-79633537D01*
X178413524Y-79544162D01*
X178560083Y-79423883D01*
X178680362Y-79277324D01*
X178769737Y-79110115D01*
X178824773Y-78928683D01*
X178843326Y-78740320D01*
X178843357Y-78740002D01*
X178843357Y-78739997D01*
X178824774Y-78551323D01*
X178824773Y-78551321D01*
X178824773Y-78551317D01*
X178769737Y-78369885D01*
X178680362Y-78202676D01*
X178560083Y-78056117D01*
X178413524Y-77935838D01*
X178246315Y-77846463D01*
X178064883Y-77791427D01*
X178064882Y-77791426D01*
X178064876Y-77791425D01*
X177876203Y-77772843D01*
X177876197Y-77772843D01*
X177687523Y-77791425D01*
X177506084Y-77846463D01*
X177338875Y-77935838D01*
X177192317Y-78056117D01*
X177072038Y-78202675D01*
X176982663Y-78369884D01*
X176927625Y-78551323D01*
X176909043Y-78739997D01*
X176484096Y-78739997D01*
X176464551Y-78529072D01*
X176406583Y-78325336D01*
X176312159Y-78135706D01*
X176268162Y-78077444D01*
X176268161Y-78077444D01*
X175806691Y-78538914D01*
X175742702Y-78428080D01*
X175648120Y-78333498D01*
X175537284Y-78269507D01*
X176000091Y-77806701D01*
X175847865Y-77712447D01*
X175847856Y-77712442D01*
X175650344Y-77635925D01*
X175650341Y-77635924D01*
X175442113Y-77597000D01*
X175230287Y-77597000D01*
X175022058Y-77635924D01*
X175022055Y-77635925D01*
X174824544Y-77712442D01*
X174824537Y-77712445D01*
X174672308Y-77806701D01*
X175135115Y-78269507D01*
X175024280Y-78333498D01*
X174929698Y-78428080D01*
X174865708Y-78538915D01*
X174404237Y-78077444D01*
X174404236Y-78077444D01*
X174360240Y-78135705D01*
X174265816Y-78325336D01*
X174207848Y-78529072D01*
X174188303Y-78740000D01*
X173763357Y-78740000D01*
X173763357Y-78739997D01*
X173744774Y-78551323D01*
X173744773Y-78551321D01*
X173744773Y-78551317D01*
X173689737Y-78369885D01*
X173600362Y-78202676D01*
X173480083Y-78056117D01*
X173333524Y-77935838D01*
X173166315Y-77846463D01*
X172984883Y-77791427D01*
X172984882Y-77791426D01*
X172984876Y-77791425D01*
X172796203Y-77772843D01*
X172796197Y-77772843D01*
X172607523Y-77791425D01*
X172426084Y-77846463D01*
X172258875Y-77935838D01*
X172112317Y-78056117D01*
X171992038Y-78202675D01*
X171902663Y-78369884D01*
X171847625Y-78551323D01*
X171829043Y-78739997D01*
X171223357Y-78739997D01*
X171204774Y-78551323D01*
X171204773Y-78551321D01*
X171204773Y-78551317D01*
X171156972Y-78393739D01*
X171156340Y-78322749D01*
X171188451Y-78268074D01*
X174255685Y-75200839D01*
X174255695Y-75200832D01*
X174326661Y-75129866D01*
X174326665Y-75129862D01*
X174348091Y-75092750D01*
X174369518Y-75055639D01*
X174391701Y-74972853D01*
X174391701Y-74887147D01*
X174391701Y-74879430D01*
X174391700Y-74879412D01*
X174391700Y-70904709D01*
X178768900Y-70904709D01*
X178768900Y-71147290D01*
X178800560Y-71387782D01*
X178863344Y-71622095D01*
X178863345Y-71622097D01*
X178863346Y-71622100D01*
X178956176Y-71846212D01*
X178956177Y-71846213D01*
X178956182Y-71846224D01*
X179077461Y-72056285D01*
X179077463Y-72056288D01*
X179077464Y-72056289D01*
X179225135Y-72248738D01*
X179225139Y-72248742D01*
X179225144Y-72248748D01*
X179396651Y-72420255D01*
X179396656Y-72420259D01*
X179396662Y-72420265D01*
X179588164Y-72567209D01*
X179589114Y-72567938D01*
X179799175Y-72689217D01*
X179799179Y-72689218D01*
X179799188Y-72689224D01*
X180023300Y-72782054D01*
X180257611Y-72844838D01*
X180257615Y-72844838D01*
X180257617Y-72844839D01*
X180319602Y-72852999D01*
X180498112Y-72876500D01*
X180498119Y-72876500D01*
X180740681Y-72876500D01*
X180740688Y-72876500D01*
X180958037Y-72847885D01*
X180981182Y-72844839D01*
X180981182Y-72844838D01*
X180981189Y-72844838D01*
X181215500Y-72782054D01*
X181439612Y-72689224D01*
X181649689Y-72567936D01*
X181842138Y-72420265D01*
X182013665Y-72248738D01*
X182161336Y-72056289D01*
X182282624Y-71846212D01*
X182375454Y-71622100D01*
X182438238Y-71387789D01*
X182469900Y-71147288D01*
X182469900Y-70904712D01*
X182438238Y-70664211D01*
X182375454Y-70429900D01*
X182282624Y-70205788D01*
X182282618Y-70205779D01*
X182282617Y-70205775D01*
X182161338Y-69995714D01*
X182161336Y-69995711D01*
X182013665Y-69803262D01*
X182013659Y-69803256D01*
X182013655Y-69803251D01*
X181842148Y-69631744D01*
X181842142Y-69631739D01*
X181842138Y-69631735D01*
X181649689Y-69484064D01*
X181649688Y-69484063D01*
X181649685Y-69484061D01*
X181439624Y-69362782D01*
X181439616Y-69362778D01*
X181439612Y-69362776D01*
X181215500Y-69269946D01*
X181215497Y-69269945D01*
X181215495Y-69269944D01*
X180981182Y-69207160D01*
X180740690Y-69175500D01*
X180740688Y-69175500D01*
X180498112Y-69175500D01*
X180498109Y-69175500D01*
X180257617Y-69207160D01*
X180023304Y-69269944D01*
X180023300Y-69269946D01*
X179799186Y-69362777D01*
X179799175Y-69362782D01*
X179589114Y-69484061D01*
X179396662Y-69631735D01*
X179396651Y-69631744D01*
X179225144Y-69803251D01*
X179225135Y-69803262D01*
X179077461Y-69995714D01*
X178956182Y-70205775D01*
X178956177Y-70205786D01*
X178863346Y-70429900D01*
X178863344Y-70429904D01*
X178800560Y-70664217D01*
X178768900Y-70904709D01*
X174391700Y-70904709D01*
X174391700Y-61086422D01*
X174411702Y-61018301D01*
X174465358Y-60971808D01*
X174518250Y-60960423D01*
X184719756Y-61005265D01*
G37*
%TD.AperFunction*%
%TD*%
M02*
