%TF.GenerationSoftware,KiCad,Pcbnew,8.0.6-8.0.6-0~ubuntu24.04.1*%
%TF.CreationDate,2024-10-21T21:08:47+03:00*%
%TF.ProjectId,ZX Spectrum_ BUS Expander,5a582053-7065-4637-9472-756d2c204255,rev?*%
%TF.SameCoordinates,Original*%
%TF.FileFunction,Paste,Top*%
%TF.FilePolarity,Positive*%
%FSLAX46Y46*%
G04 Gerber Fmt 4.6, Leading zero omitted, Abs format (unit mm)*
G04 Created by KiCad (PCBNEW 8.0.6-8.0.6-0~ubuntu24.04.1) date 2024-10-21 21:08:47*
%MOMM*%
%LPD*%
G01*
G04 APERTURE LIST*
G04 Aperture macros list*
%AMRoundRect*
0 Rectangle with rounded corners*
0 $1 Rounding radius*
0 $2 $3 $4 $5 $6 $7 $8 $9 X,Y pos of 4 corners*
0 Add a 4 corners polygon primitive as box body*
4,1,4,$2,$3,$4,$5,$6,$7,$8,$9,$2,$3,0*
0 Add four circle primitives for the rounded corners*
1,1,$1+$1,$2,$3*
1,1,$1+$1,$4,$5*
1,1,$1+$1,$6,$7*
1,1,$1+$1,$8,$9*
0 Add four rect primitives between the rounded corners*
20,1,$1+$1,$2,$3,$4,$5,0*
20,1,$1+$1,$4,$5,$6,$7,0*
20,1,$1+$1,$6,$7,$8,$9,0*
20,1,$1+$1,$8,$9,$2,$3,0*%
G04 Aperture macros list end*
%ADD10RoundRect,0.250000X-0.450000X0.350000X-0.450000X-0.350000X0.450000X-0.350000X0.450000X0.350000X0*%
%ADD11RoundRect,0.250000X0.350000X0.450000X-0.350000X0.450000X-0.350000X-0.450000X0.350000X-0.450000X0*%
%ADD12RoundRect,0.250000X-0.350000X-0.450000X0.350000X-0.450000X0.350000X0.450000X-0.350000X0.450000X0*%
%ADD13RoundRect,0.250000X-0.325000X-0.450000X0.325000X-0.450000X0.325000X0.450000X-0.325000X0.450000X0*%
%ADD14RoundRect,0.762000X-0.000010X-1.738000X0.000010X-1.738000X0.000010X1.738000X-0.000010X1.738000X0*%
%ADD15R,1.524000X7.620000*%
G04 APERTURE END LIST*
D10*
%TO.C,R5*%
X154355800Y-91887800D03*
X154355800Y-93887800D03*
%TD*%
%TO.C,R3*%
X141173200Y-91887800D03*
X141173200Y-93887800D03*
%TD*%
D11*
%TO.C,R2*%
X104327200Y-91338400D03*
X102327200Y-91338400D03*
%TD*%
D12*
%TO.C,R1*%
X127219200Y-106705400D03*
X129219200Y-106705400D03*
%TD*%
D13*
%TO.C,D1*%
X97882600Y-91338400D03*
X99932600Y-91338400D03*
%TD*%
D14*
%TO.C,Z1*%
X105486200Y-136398000D03*
X108026200Y-136398000D03*
X110566200Y-136398000D03*
X113106200Y-136398000D03*
X118186200Y-136398000D03*
X120726200Y-136398000D03*
X123266200Y-136398000D03*
X125806200Y-136398000D03*
X128346200Y-136398000D03*
X130886200Y-136398000D03*
X133426200Y-136398000D03*
X135966200Y-136398000D03*
X138506200Y-136398000D03*
X141046200Y-136398000D03*
X143586200Y-136398000D03*
X146126200Y-136398000D03*
X148666200Y-136398000D03*
X151206200Y-136398000D03*
X153746200Y-136398000D03*
X156286200Y-136398000D03*
X158826200Y-136398000D03*
X161366200Y-136398000D03*
X163906200Y-136398000D03*
X166446200Y-136398000D03*
X168986200Y-136398000D03*
X171526200Y-136398000D03*
X174066200Y-136398000D03*
%TD*%
D15*
%TO.C,Z2*%
X105486200Y-55753000D03*
X108026200Y-55753000D03*
X110566200Y-55753000D03*
X113106200Y-55753000D03*
X118186200Y-55753000D03*
X120726200Y-55753000D03*
X123266200Y-55753000D03*
X125806200Y-55753000D03*
X128346200Y-55753000D03*
X130886200Y-55753000D03*
X133426200Y-55753000D03*
X135966200Y-55753000D03*
X138506200Y-55753000D03*
X141046200Y-55753000D03*
X143586200Y-55753000D03*
X146126200Y-55753000D03*
X148666200Y-55753000D03*
X151206200Y-55753000D03*
X153746200Y-55753000D03*
X156286200Y-55753000D03*
X158826200Y-55753000D03*
X161366200Y-55753000D03*
X163906200Y-55753000D03*
X166446200Y-55753000D03*
X168986200Y-55753000D03*
X171526200Y-55753000D03*
X174066200Y-55753000D03*
%TD*%
M02*
